<?xml version="1.0" encoding="utf-8"?>
<!-- Generator: Adobe Illustrator 22.0.0, SVG Export Plug-In . SVG Version: 6.00 Build 0)  -->
<svg version="1.1" id="Livello_1" xmlns="http://www.w3.org/2000/svg" xmlns:xlink="http://www.w3.org/1999/xlink" x="0px" y="0px"
	 viewBox="0 0 992.1 453.5" style="enable-background:new 0 0 992.1 453.5;" xml:space="preserve">
<style type="text/css">
	.st0{fill:none;stroke:#FFFFFF;stroke-width:10.1721;}
	.st1{fill:#FFFFFF;}
	.st2{fill:none;stroke:#FFFFFF;stroke-width:2.3118;}
	.st3{fill:none;stroke:#FFFFFF;stroke-width:0.2312;}
	.st4{fill:none;stroke:#000000;stroke-width:3.0867;}
</style>
<g>
	<line class="st0" x1="421.3" y1="6.5" x2="421.3" y2="446.9"/>
	<path class="st1" d="M481,320.5c0,10.7,0,19.5-0.6,24.2c-0.4,3.2-1,5.7-3.2,6.1c-1,0.2-2.3,0.4-3.3,0.4c-0.7,0-0.9,0.3-0.9,0.7
		c0,0.7,0.6,0.9,1.8,0.9c3.3,0,10.4-0.3,10.9-0.3c0.6,0,7.6,0.3,13.7,0.3c1.2,0,1.8-0.3,1.8-0.9c0-0.3-0.2-0.7-0.9-0.7
		c-1,0-3.5-0.2-5-0.4c-3.3-0.4-4-2.9-4.3-6.1c-0.6-4.7-0.6-13.5-0.6-24.2V311c0-0.8,0.2-1,0.8-1c1.9,0,14,0,16.8,0.3
		c3.5,0.4,5.2,2.5,5.8,4c0.4,1.3,0.6,2.9,0.7,4c0,0.6,0.2,1,0.8,1c0.8,0,0.8-1.1,0.8-2.1c0-0.8,0.2-5.2,0.4-7.5
		c0.3-3.7,0.9-5.6,0.9-6.2s-0.1-0.9-0.6-0.9s-0.8,0.6-1.2,1.1c-1,1.4-2.5,1.8-5.1,2c-1.6,0.1-3.1,0.1-5,0.1l-14.3,0.1
		c-0.7,0-0.8-0.3-0.8-1v-30.8c0-0.9,0.3-1.2,1-1.2l17.2,0.3c4.3,0.1,6.9,2.1,7.6,3.6c0.7,1.4,1,3.3,1,4.2c0,0.8,0.2,1.3,0.8,1.3
		c0.6,0,0.8-0.7,0.9-1.2c0.2-1.3,0.4-6.2,0.6-7.4c0.3-3.1,0.9-4.5,0.9-5.2c0-0.6-0.2-1-0.7-1c-0.4,0-0.9,0.4-1.6,0.7
		c-1,0.3-2.8,0.3-4.9,0.4c-2.6,0.1-25.2,0.1-27.4,0.1c-0.6,0-7.6-0.3-12.6-0.3c-1.2,0-1.8,0.2-1.8,0.9c0,0.4,0.4,0.7,0.9,0.7
		c1,0,2.9,0.1,3.8,0.3c3.7,0.8,4.6,2.6,4.8,6.4c0.2,3.6,0.2,6.7,0.2,24.1L481,320.5 M556.3,300.9c0-17.4,0-20.5,0.2-24.1
		c0.2-3.9,1.1-5.8,4.1-6.4c1.3-0.2,2-0.3,2.8-0.3c0.4,0,0.9-0.2,0.9-0.7c0-0.7-0.6-0.9-1.8-0.9c-3.3,0-10.4,0.3-10.9,0.3
		s-7.6-0.3-11.3-0.3c-1.2,0-1.8,0.2-1.8,0.9c0,0.4,0.4,0.7,0.9,0.7c0.8,0,2.2,0.1,3.5,0.4c2.5,0.6,3.6,2.5,3.8,6.2
		c0.2,3.6,0.2,6.7,0.2,24.1v19.7c0,10.7,0,19.5-0.6,24.2c-0.4,3.2-1,5.7-3.2,6.1c-1,0.2-2.3,0.4-3.3,0.4c-0.7,0-0.9,0.3-0.9,0.7
		c0,0.7,0.6,0.9,1.8,0.9c3.3,0,10.4-0.3,10.9-0.3s7.6,0.3,13.7,0.3c1.2,0,1.8-0.3,1.8-0.9c0-0.3-0.2-0.7-0.9-0.7c-1,0-3.5-0.2-5-0.4
		c-3.3-0.4-4-2.9-4.3-6.1c-0.6-4.7-0.6-13.5-0.6-24.2L556.3,300.9L556.3,300.9z M596,320.5c0,10.7,0,19.5-0.6,24.2
		c-0.4,3.2-1,5.7-3.2,6.1c-1,0.2-2.3,0.4-3.3,0.4c-0.7,0-0.9,0.3-0.9,0.7c0,0.7,0.6,0.9,1.8,0.9c3.3,0,10.4-0.3,10.5-0.3
		c0.6,0,7.6,0.3,13.7,0.3c1.2,0,1.8-0.3,1.8-0.9c0-0.3-0.2-0.7-0.9-0.7c-1,0-3.5-0.2-5-0.4c-3.3-0.4-4-2.9-4.3-6.1
		c-0.6-4.7-0.6-13.5-0.6-24.2v-2.7c0-0.6,0.2-0.9,0.8-0.9l13.7,0.2c0.7,0,1,0.2,1.4,0.7c2.2,2.9,7.5,10.4,12.1,16.5
		c6.4,8.4,10.3,13.8,15,16.4c2.9,1.6,5.7,2.1,11.9,2.1h7.9c2,0,2.7-0.2,2.7-0.9c0-0.3-0.4-0.7-1-0.7c-0.7,0-2.2,0-4.3-0.3
		c-2.8-0.4-7.6-1.7-13.6-8c-6.5-6.9-14-16.8-23.2-28.5c10-9.2,13.5-17.5,13.5-25.7c0-7.7-4.9-13.2-7.7-15.2
		c-5.9-4.2-13.4-4.9-20.4-4.9c-3.5,0-11.9,0.3-13.2,0.3c-0.6,0-7.6-0.3-12.6-0.3c-1.2,0-1.8,0.2-1.8,0.9c0,0.4,0.4,0.7,0.9,0.7
		c1,0,2.9,0.1,3.8,0.3c3.7,0.8,4.6,2.6,4.8,6.4c0.2,3.6,0.2,6.7,0.2,24.1L596,320.5L596,320.5z M604.9,274.2c0-0.7,0.3-1.1,0.9-1.3
		c1.1-0.3,4.1-0.7,7.5-0.7c11.9,0,19.3,8.4,19.3,22.3c0,8.5-2.9,14.5-6.8,17.2c-2.6,1.8-5.7,2.1-8.4,2.1c-4.9,0-10-0.8-11.7-1.8
		c-0.6-0.3-0.8-0.8-0.8-1.3V274.2L604.9,274.2z M680,320.5c0,10.7,0,19.5-0.6,24.2c-0.4,3.2-1,5.7-3.2,6.1c-1,0.2-2.3,0.4-3.3,0.4
		c-0.7,0-0.9,0.3-0.9,0.7c0,0.7,0.6,0.9,1.8,0.9c3.3,0,10.4-0.3,10.9-0.3c3.2,0,10.7,0.7,27.5,0.7c4.3,0,5.2,0,6-2.9
		c0.6-2.3,1.4-9.9,1.4-10.8c0-0.8,0-1.7-0.7-1.7c-0.6,0-0.8,0.4-1,1.7c-0.8,4.6-2.1,6.8-5,8s-7.8,1.2-10.7,1.2
		c-10.9,0-12.6-1.4-12.9-9.1c-0.1-2.3,0-15.3,0-19.1v-9.8c0-0.4,0.2-0.8,0.8-0.8c1.9,0,12.9,0.2,15.9,0.6c4.3,0.4,5.3,2.3,5.8,3.9
		c0.4,1.4,0.4,2.6,0.4,3.7c0,0.6,0.2,1,0.8,1c0.8,0,0.8-1.2,0.8-2.1c0-0.8,0.2-4.9,0.4-7.1c0.3-3.7,0.9-5.6,0.9-6.2
		c0-0.7-0.2-0.9-0.6-0.9c-0.4,0-0.9,0.6-1.7,1.4c-1,1.1-2.6,1.3-5.2,1.6c-2.6,0.2-16.3,0.2-17.7,0.2c-0.6,0-0.7-0.3-0.7-1.1v-30.8
		c0-0.8,0.2-1.1,0.7-1.1c1.2,0,13.4,0.1,15.3,0.3c6,0.7,7.1,2,7.9,3.8c0.6,1.3,0.7,3.2,0.7,4c0,0.9,0.2,1.4,0.9,1.4
		c0.4,0,0.7-0.7,0.8-1.2c0.2-1.3,0.4-6.2,0.6-7.4c0.3-3.1,0.9-4.5,0.9-5.2c0-0.6-0.1-1-0.4-1c-0.6,0-1,0.4-1.6,0.6
		c-0.9,0.2-2.7,0.4-4.8,0.6c-2.6,0.1-24.7,0.1-25.5,0.1c-0.6,0-7.6-0.3-12.6-0.3c-1.2,0-1.8,0.2-1.8,0.9c0,0.4,0.4,0.7,0.9,0.7
		c1,0,2.9,0.1,3.8,0.3c3.7,0.8,4.6,2.6,4.8,6.4c0.2,3.6,0.2,6.7,0.2,24.1L680,320.5L680,320.5z M749.6,284.3
		c3.6,4,16.2,18.1,29.1,32c11.8,12.7,27.9,29.1,29.1,30.2c5.9,5.9,7.2,7.1,8.1,7.1c0.8,0,1-0.6,1-7.9l0.2-65.3
		c0-6.7,0.4-9.1,4.1-9.9c1.3-0.3,2.1-0.3,2.7-0.3c0.8,0,1.2-0.3,1.2-0.8c0-0.7-0.8-0.8-2-0.8c-4.6,0-8.2,0.3-9.5,0.3
		c-1.2,0-6.6-0.3-11.6-0.3c-1.3,0-2.2,0.1-2.2,0.8c0,0.4,0.1,0.8,0.9,0.8c0.9,0,3.5,0.1,5.5,0.6c3.5,0.9,4.2,3.3,4.3,10.6l1.2,56.6
		c-3.6-3.7-15.7-17.3-26.7-29.1c-17.2-18.4-33.8-36.3-35.4-38.2c-1.1-1.1-3-3.6-3.9-3.6s-1.2,1.2-1.2,5.6l-0.1,63.9
		c0,10.1-0.6,13.4-3.3,14.2c-1.7,0.6-3.7,0.7-4.6,0.7c-0.6,0-0.9,0.2-0.9,0.7c0,0.8,0.7,0.9,1.8,0.9c5,0,9.7-0.3,10.7-0.3
		s5.5,0.3,11.8,0.3c1.3,0,2-0.2,2-0.9c0-0.4-0.3-0.7-0.9-0.7c-1,0-3.5-0.1-5.6-0.7c-3-0.9-4.1-3.8-4.3-12.9L749.6,284.3L749.6,284.3
		z M854.2,348.1c16.9-25.6,33.8-51.3,49.9-76.9c0.4-0.7,0.4-0.9,0.4-1.3c0-0.7-0.6-0.9-2.2-0.9h-31.1c-3.5,0-8.8,0.1-19.4-0.3
		c-3-0.1-3.7-0.8-4.7-0.8c-0.7,0-0.9,0.6-1.1,2.1c-0.6,3.3-2.2,13.5-2.2,14.8c0,0.9,0.1,1.4,0.7,1.4c0.6,0,1-0.3,1.2-2
		c0.3-2.6,2.3-6.7,6.4-8.8c3.6-1.9,10.4-2.2,16-2.2h24.2c-15.5,25.2-32.3,50.3-48.9,75.3c-1.3,2-1.6,2.6-1.6,3.1
		c0,0.8,0.7,0.9,2,0.9c19.5,0,38.2,0.6,56.8,0.6c2.6,0,2.7-0.2,3.3-2.9c0.7-2.8,2.2-9.4,2.2-12.8c0-2.1-0.2-2.6-0.9-2.6
		c-0.6,0-0.8,0.7-1,1.8c-0.2,1.6-1.2,4.6-2.2,6c-2.3,3.3-5.9,5.5-17.6,5.5L854.2,348.1L854.2,348.1z M930.7,320.5
		c0,10.7,0,19.5-0.6,24.2c-0.4,3.2-1,5.7-3.2,6.1c-1,0.2-2.3,0.4-3.3,0.4c-0.7,0-0.9,0.3-0.9,0.7c0,0.7,0.6,0.9,1.8,0.9
		c3.3,0,10.4-0.3,10.9-0.3c3.2,0,10.7,0.7,27.5,0.7c4.3,0,5.2,0,6-2.9c0.6-2.3,1.4-9.9,1.4-10.8c0-0.8,0-1.7-0.7-1.7
		c-0.6,0-0.8,0.4-1,1.7c-0.8,4.6-2.1,6.8-5,8s-7.8,1.2-10.7,1.2c-10.9,0-12.6-1.4-12.9-9.1c-0.1-2.3,0-15.3,0-19.1v-9.8
		c0-0.4,0.2-0.8,0.8-0.8c1.9,0,12.9,0.2,15.9,0.6c4.3,0.4,5.3,2.3,5.8,3.9c0.4,1.4,0.4,2.6,0.4,3.7c0,0.6,0.2,1,0.8,1
		c0.8,0,0.8-1.2,0.8-2.1c0-0.8,0.2-4.9,0.4-7.1c0.3-3.7,0.9-5.6,0.9-6.2c0-0.7-0.2-0.9-0.6-0.9c-0.4,0-0.9,0.6-1.7,1.4
		c-1,1.1-2.6,1.3-5.2,1.6c-2.6,0.2-16.3,0.2-17.7,0.2c-0.6,0-0.7-0.3-0.7-1.1v-30.8c0-0.8,0.2-1.1,0.7-1.1c1.2,0,13.4,0.1,15.3,0.3
		c6,0.7,7.1,2,7.9,3.8c0.6,1.3,0.7,3.2,0.7,4c0,0.9,0.2,1.4,0.9,1.4c0.4,0,0.7-0.7,0.8-1.2c0.2-1.3,0.4-6.2,0.6-7.4
		c0.3-3.1,0.9-4.5,0.9-5.2c0-0.6-0.1-1-0.4-1c-0.6,0-1,0.4-1.6,0.6c-0.9,0.2-2.7,0.4-4.8,0.6c-2.6,0.1-24.7,0.1-25.5,0.1
		c-0.6,0-7.6-0.3-12.6-0.3c-1.2,0-1.8,0.2-1.8,0.9c0,0.4,0.4,0.7,0.9,0.7c1,0,2.9,0.1,3.8,0.3c3.7,0.8,4.6,2.6,4.8,6.4
		c0.2,3.6,0.2,6.7,0.2,24.1L930.7,320.5L930.7,320.5z"/>
	<path class="st1" d="M478,213.9c0,6.8,0,12.4-0.4,15.4c-0.3,2.1-0.6,3.6-2.1,3.9c-0.6,0.1-1.5,0.3-2.1,0.3c-0.4,0-0.6,0.2-0.6,0.4
		c0,0.4,0.4,0.6,1.1,0.6c2.1,0,6.6-0.2,7-0.2c0.7,0,9.7,0.9,15.8,0.9c12.1,0,18.5-5,21.6-8.2c4-4.2,7.7-11.1,7.7-20.1
		c0-8.5-3.3-14.4-6.9-18.1c-8.5-8.7-21.5-8.1-28.5-8.1c-4.3,0-8.7,0.2-9.6,0.2c-0.4,0-4.8-0.2-8-0.2c-0.8,0-1.1,0.1-1.1,0.6
		c0,0.3,0.3,0.4,0.6,0.4c0.6,0,1.8,0.1,2.4,0.2c2.3,0.5,2.9,1.6,3.1,4.1c0.1,2.3,0.1,4.3,0.1,15.4L478,213.9L478,213.9z M484,200.3
		c0-5.5,0-12.7,0.1-15.2c0-0.8,0.2-1.1,0.9-1.4c0.6-0.3,3.2-0.5,4.6-0.5c8.5,0,16.6,1,23.3,8c2.9,3.1,6.8,8.9,6.8,17.9
		c0,6.5-2,13.4-5.7,17c-4.2,4.2-10.3,6.6-16.9,6.6c-8.4,0-11.2-1.5-12.1-2.8c-0.6-0.8-0.7-3.6-0.8-5.4c-0.1-1.4-0.1-7.9-0.1-15.4
		L484,200.3L484,200.3z M542.5,213.9c0,6.8,0,12.4-0.4,15.4c-0.3,2.1-0.6,3.6-2.1,3.9c-0.6,0.1-1.5,0.3-2.1,0.3
		c-0.4,0-0.6,0.2-0.6,0.4c0,0.4,0.4,0.6,1.1,0.6c2.1,0,6.6-0.2,7-0.2c2.1,0,6.8,0.4,17.6,0.4c2.8,0,3.3,0,3.8-1.8
		c0.4-1.5,0.9-6.3,0.9-6.9c0-0.5,0-1.1-0.4-1.1s-0.5,0.3-0.6,1.1c-0.5,2.9-1.4,4.3-3.2,5.1c-1.8,0.8-5,0.8-6.8,0.8
		c-7,0-8-0.9-8.3-5.8c-0.1-1.5,0-9.7,0-12.2v-6.3c0-0.3,0.1-0.5,0.5-0.5c1.2,0,8.3,0.1,10.2,0.4c2.8,0.3,3.4,1.5,3.7,2.5
		c0.3,0.9,0.3,1.6,0.3,2.3c0,0.4,0.1,0.6,0.5,0.6c0.5,0,0.5-0.8,0.5-1.4c0-0.5,0.1-3.1,0.3-4.6c0.2-2.3,0.6-3.6,0.6-4
		s-0.1-0.6-0.4-0.6c-0.3,0-0.6,0.4-1.1,0.9c-0.6,0.7-1.6,0.9-3.3,1c-1.6,0.1-10.4,0.1-11.3,0.1c-0.4,0-0.4-0.2-0.4-0.7V184
		c0-0.5,0.1-0.7,0.4-0.7c0.8,0,8.5,0.1,9.7,0.2c3.8,0.4,4.6,1.3,5,2.4c0.4,0.9,0.4,2.1,0.4,2.6c0,0.6,0.1,0.9,0.6,0.9
		c0.3,0,0.4-0.4,0.5-0.8c0.1-0.9,0.3-4,0.4-4.7c0.2-2,0.6-2.8,0.6-3.3c0-0.4-0.1-0.6-0.3-0.6c-0.4,0-0.6,0.3-1,0.4
		c-0.6,0.1-1.7,0.3-3.1,0.4c-1.6,0.1-15.8,0.1-16.3,0.1c-0.4,0-4.8-0.2-8-0.2c-0.8,0-1.1,0.1-1.1,0.6c0,0.3,0.3,0.4,0.6,0.4
		c0.6,0,1.9,0.1,2.4,0.2c2.3,0.5,2.9,1.6,3.1,4.1c0.1,2.3,0.1,4.3,0.1,15.4L542.5,213.9L542.5,213.9z M619.7,228.5
		c0,1.2-0.5,2-1.4,2.5c-1.8,1.1-5.5,1.5-8.1,1.5c-6.5,0-13-2.1-18.6-7.6c-2.5-2.4-7.5-9.7-7.5-19.7c0-8.3,2.9-14.8,7-18.1
		c5.4-4.3,10.7-4.7,15.2-4.7c9.2,0,14.9,3.1,16.7,5.8c1.1,1.7,1.4,3.7,1.5,4.7c0.1,0.6,0.1,1.1,0.5,1.1c0.5,0,0.6-0.4,0.6-1.5
		c0-7.1,0.5-9.1,0.5-10.1c0-0.3-0.1-0.6-0.9-0.6c-1.8-0.1-4.3-0.4-5.8-0.7c-1.4-0.3-6.4-1.2-10.9-1.2c-5.5,0-12.5,0.5-18.9,4.5
		c-6.3,4-11.9,12-11.9,23.4c0,8.9,4.1,16.5,8.5,20.3c7.9,6.9,18,7.6,23.4,7.6c4.1,0,10.5-0.8,15.1-3.2c0.9-0.5,0.9-0.6,0.9-3.8v-8
		c0-3,0-5.1,0.1-7.4c0.1-2.5,0.7-3.7,2.6-4.1c0.9-0.1,1.3-0.2,1.8-0.2c0.3,0,0.6-0.1,0.6-0.4c0-0.4-0.4-0.6-1.1-0.6
		c-2.1,0-6.6,0.2-7,0.2s-4.8-0.2-8-0.2c-0.8,0-1.1,0.1-1.1,0.6c0,0.3,0.3,0.4,0.6,0.4c0.6,0,1.8,0.1,2.4,0.2
		c2.8,0.8,3.2,1.6,3.2,7.3L619.7,228.5L619.7,228.5z M653.2,201.4c0-11.1,0-13.1,0.1-15.4c0.1-2.5,0.7-3.7,2.8-4.1
		c0.9-0.1,1.8-0.2,2.3-0.2c0.3,0,0.6-0.1,0.6-0.4c0-0.4-0.4-0.6-1.1-0.6c-2.1,0-7.3,0.2-7.7,0.2s-4.8-0.2-8-0.2
		c-0.8,0-1.1,0.1-1.1,0.6c0,0.3,0.3,0.4,0.6,0.4c0.6,0,1.8,0.1,2.4,0.2c2.3,0.5,2.9,1.6,3.1,4.1c0.1,2.3,0.1,4.3,0.1,15.4v12.5
		c0,6.8,0,12.4-0.4,15.4c-0.3,2.1-0.6,3.6-2.1,3.9c-0.6,0.1-1.5,0.3-2.1,0.3c-0.4,0-0.6,0.2-0.6,0.4c0,0.4,0.4,0.6,1.1,0.6
		c2.1,0,6.3-0.2,7-0.2c4.1,0,8.8,0.4,19.1,0.4c3.8,0,4-0.3,4.5-1.9c0.6-2.1,1.1-6.3,1.1-7.1c0-0.8-0.1-1.1-0.4-1.1
		c-0.4,0-0.6,0.4-0.6,0.9c-0.2,1.4-0.9,3.1-1.8,4.3c-1.7,2.1-4.8,2.1-8.6,2.1c-5.5,0-7.4-0.5-8.5-1.6c-1.3-1.3-1.6-5.8-1.6-16.3
		v-12.6H653.2z M695.3,201.4c0-11.1,0-13.1,0.1-15.4c0.1-2.5,0.7-3.7,2.6-4.1c0.9-0.1,1.3-0.2,1.8-0.2c0.3,0,0.6-0.1,0.6-0.4
		c0-0.4-0.4-0.6-1.1-0.6c-2.1,0-6.6,0.2-7,0.2s-4.8-0.2-7.2-0.2c-0.8,0-1.1,0.1-1.1,0.6c0,0.3,0.3,0.4,0.6,0.4
		c0.5,0,1.4,0.1,2.2,0.3c1.6,0.4,2.3,1.6,2.4,4c0.1,2.3,0.1,4.3,0.1,15.4v12.5c0,6.8,0,12.4-0.4,15.4c-0.3,2.1-0.6,3.6-2.1,3.9
		c-0.6,0.1-1.5,0.3-2.1,0.3c-0.4,0-0.6,0.2-0.6,0.4c0,0.4,0.4,0.6,1.1,0.6c2.1,0,6.6-0.2,7-0.2s4.8,0.2,8.7,0.2
		c0.8,0,1.1-0.2,1.1-0.6c0-0.2-0.1-0.4-0.6-0.4c-0.6,0-2.2-0.1-3.2-0.3c-2.1-0.3-2.6-1.9-2.8-3.9c-0.4-3-0.4-8.6-0.4-15.4v-12.5
		H695.3z M748.7,235.5c3.8,0,7.7-0.9,10.7-3c4.9-3.5,6-8.9,6-11.8c0-5.7-2-10.1-10.4-16.7l-2-1.6c-6.7-5.5-8.7-7.9-8.7-12
		c0-5.2,3.8-8.3,8.7-8.3c6.5,0,8.5,3,8.9,3.8s0.9,2.7,0.9,3.6c0.1,0.6,0.1,0.9,0.6,0.9c0.4,0,0.5-0.5,0.5-1.6c0-4.8,0.3-7.2,0.3-7.5
		s-0.1-0.5-0.7-0.5s-1.1-0.1-2.5-0.4c-1.8-0.4-3.8-0.7-6.6-0.7c-9,0-14.7,5.2-14.7,12.8c0,4.8,1.7,9.2,9.2,15.4l3.2,2.6
		c6.1,5.1,8.2,7.9,8.2,12.8c0,4.6-3.3,9.5-10.2,9.5c-4.8,0-9.5-2-10.5-7.3c-0.2-1-0.2-2-0.2-2.6s-0.1-0.8-0.5-0.8s-0.5,0.4-0.6,1.1
		c-0.1,1.1-0.4,4-0.4,7.5c0,1.9,0.1,2.2,1.1,2.7C742.1,235,745.4,235.5,748.7,235.5L748.7,235.5z M799.4,183.8l9,0.1
		c6.8,0.1,8.5,1.8,8.7,3.9l0.1,0.8c0.1,1,0.2,1.2,0.6,1.2c0.3,0,0.5-0.3,0.5-0.9c0-0.8,0.2-5.7,0.2-7.8c0-0.4,0-0.9-0.4-0.9
		c-0.6,0-2.5,0.7-7,0.7h-26.7c-0.9,0-3.6-0.1-5.6-0.4c-1.9-0.1-2.6-0.9-3.1-0.9c-0.3,0-0.6,0.9-0.7,1.4c-0.1,0.6-1.6,6.7-1.6,7.4
		c0,0.4,0.1,0.6,0.4,0.6c0.3,0,0.5-0.1,0.7-0.7c0.2-0.5,0.4-1,1.2-2.2c1.1-1.7,2.8-2.2,7.3-2.3l10.5-0.1v30.1c0,6.8,0,12.4-0.4,15.4
		c-0.3,2.1-0.6,3.6-2.1,3.9c-0.6,0.1-1.5,0.3-2.1,0.3c-0.4,0-0.6,0.2-0.6,0.4c0,0.4,0.4,0.6,1.1,0.6c2.1,0,6.6-0.2,7-0.2
		s4.8,0.2,8.7,0.2c0.8,0,1.1-0.2,1.1-0.6c0-0.2-0.1-0.4-0.6-0.4c-0.6,0-2.2-0.1-3.2-0.3c-2.1-0.3-2.6-1.9-2.8-3.9
		c-0.4-3-0.4-8.6-0.4-15.4v-30H799.4z M829.3,211.8c0,10.4,2.7,15.4,6.2,18.7c5.1,4.8,12.2,5,14.7,5c4.2,0,9.5-0.7,14.7-5.3
		c5.7-5.1,6.5-13.6,6.5-21.3v-7.6c0-11.1,0-13.1,0.1-15.4c0.1-2.5,0.7-3.7,2.6-4.1c0.9-0.2,1.3-0.2,1.8-0.2c0.3,0,0.6-0.1,0.6-0.4
		c0-0.4-0.4-0.6-1.1-0.6c-2.1,0-5.5,0.2-6,0.2c-0.4,0-4.3-0.2-7.5-0.2c-0.8,0-1.1,0.1-1.1,0.6c0,0.3,0.3,0.4,0.6,0.4
		c0.6,0,1.8,0.1,2.4,0.2c2.3,0.5,2.9,1.6,3.1,4.1c0.1,2.3,0.1,4.3,0.1,15.4v8.9c0,7.3-0.9,13.4-4.1,17.4c-2.6,3.1-6.8,5.1-11.2,5.1
		c-4.1,0-7.3-0.6-10.7-3.9c-3.1-2.9-5.3-7.3-5.3-17.6v-10c0-11.1,0-13.1,0.1-15.4c0.1-2.5,0.7-3.8,2.6-4.1c0.9-0.1,1.3-0.2,1.8-0.2
		c0.3,0,0.6-0.1,0.6-0.4c0-0.4-0.4-0.6-1.1-0.6c-2.1,0-6.4,0.2-7,0.2s-5-0.2-8.2-0.2c-0.8,0-1.1,0.1-1.1,0.6c0,0.3,0.3,0.4,0.6,0.4
		c0.6,0,1.8,0.1,2.4,0.2c2.3,0.5,2.9,1.6,3.1,4.1c0.1,2.3,0.1,4.3,0.1,15.4v10.6H829.3z M892.5,213.9c0,6.8,0,12.4-0.4,15.4
		c-0.3,2.1-0.6,3.6-2.1,3.9c-0.6,0.1-1.5,0.3-2.1,0.3c-0.4,0-0.6,0.2-0.6,0.4c0,0.4,0.4,0.6,1.1,0.6c2.1,0,6.6-0.2,7-0.2
		c0.7,0,9.7,0.9,15.8,0.9c12.1,0,18.5-5,21.6-8.2c4-4.2,7.7-11.1,7.7-20.1c0-8.5-3.3-14.4-6.9-18.1c-8.5-8.7-21.5-8.1-28.5-8.1
		c-4.3,0-8.7,0.2-9.6,0.2c-0.4,0-4.8-0.2-8-0.2c-0.8,0-1.1,0.1-1.1,0.6c0,0.3,0.3,0.4,0.6,0.4c0.6,0,1.8,0.1,2.4,0.2
		c2.3,0.5,2.9,1.6,3.1,4.1c0.1,2.3,0.1,4.3,0.1,15.4L892.5,213.9L892.5,213.9z M898.4,200.3c0-5.5,0-12.7,0.1-15.2
		c0-0.8,0.2-1.1,0.9-1.4c0.6-0.3,3.2-0.5,4.6-0.5c8.5,0,16.6,1,23.3,8c2.9,3.1,6.8,8.9,6.8,17.9c0,6.5-2,13.4-5.7,17
		c-4.2,4.2-10.3,6.6-16.9,6.6c-8.4,0-11.2-1.5-12.1-2.8c-0.6-0.8-0.7-3.6-0.8-5.4c-0.1-1.4-0.1-7.9-0.1-15.4L898.4,200.3
		L898.4,200.3z M963,201.4c0-11.1,0-13.1,0.1-15.4c0.1-2.5,0.7-3.7,2.6-4.1c0.9-0.1,1.3-0.2,1.8-0.2c0.3,0,0.6-0.1,0.6-0.4
		c0-0.4-0.4-0.6-1.1-0.6c-2.1,0-6.6,0.2-7,0.2s-4.8-0.2-7.2-0.2c-0.8,0-1.1,0.1-1.1,0.6c0,0.3,0.3,0.4,0.6,0.4
		c0.5,0,1.4,0.1,2.2,0.3c1.6,0.4,2.3,1.6,2.4,4c0.1,2.3,0.1,4.3,0.1,15.4v12.5c0,6.8,0,12.4-0.4,15.4c-0.3,2.1-0.6,3.6-2.1,3.9
		c-0.6,0.1-1.5,0.3-2.1,0.3c-0.4,0-0.6,0.2-0.6,0.4c0,0.4,0.4,0.6,1.1,0.6c2.1,0,6.6-0.2,7-0.2s4.8,0.2,8.7,0.2
		c0.8,0,1.1-0.2,1.1-0.6c0-0.2-0.1-0.4-0.6-0.4c-0.6,0-2.2-0.1-3.2-0.3c-2.1-0.3-2.6-1.9-2.8-3.9c-0.4-3-0.4-8.6-0.4-15.4v-12.5H963
		z"/>
	<path class="st1" d="M474.3,125.2c0,11,2.9,16.2,6.5,19.7c5.3,5,12.9,5.3,15.5,5.3c4.4,0,10.1-0.8,15.5-5.6
		c6-5.3,6.9-14.3,6.9-22.4v-8c0-11.7,0-13.8,0.1-16.2c0.2-2.6,0.8-3.9,2.8-4.3c0.9-0.2,1.4-0.2,1.9-0.2c0.3,0,0.6-0.1,0.6-0.5
		c0-0.5-0.4-0.6-1.2-0.6c-2.3,0-5.8,0.2-6.3,0.2s-4.6-0.2-8-0.2c-0.8,0-1.2,0.1-1.2,0.6c0,0.3,0.3,0.5,0.6,0.5c0.7,0,2,0.1,2.6,0.2
		c2.5,0.5,3.1,1.7,3.2,4.3c0.2,2.4,0.2,4.5,0.2,16.2v9.4c0,7.7-0.9,14.1-4.4,18.4c-2.7,3.2-7.2,5.4-11.8,5.4
		c-4.3,0-7.7-0.7-11.3-4.1c-3.2-3.1-5.6-7.7-5.6-18.5v-10.5c0-11.7,0-13.8,0.1-16.2c0.1-2.6,0.8-4,2.8-4.3c0.9-0.2,1.4-0.2,1.9-0.2
		c0.3,0,0.6-0.1,0.6-0.5c0-0.5-0.4-0.6-1.2-0.6c-2.3,0-6.8,0.2-7.4,0.2c-0.7,0-5.3-0.2-8.6-0.2c-0.8,0-1.2,0.1-1.2,0.6
		c0,0.3,0.3,0.5,0.6,0.5c0.7,0,2,0.1,2.6,0.2c2.5,0.5,3.1,1.7,3.2,4.3c0.1,2.4,0.1,4.5,0.1,16.2v10.9H474.3z M542.1,103
		c2.4,2.7,10.9,12.2,19.6,21.5c8,8.6,18.8,19.6,19.6,20.3c4,4,4.9,4.8,5.5,4.8c0.5,0,0.7-0.4,0.7-5.3l0.1-44c0-4.5,0.3-6.2,2.8-6.7
		c0.9-0.2,1.4-0.2,1.8-0.2c0.5,0,0.8-0.2,0.8-0.5c0-0.5-0.5-0.5-1.4-0.5c-3.1,0-5.6,0.2-6.4,0.2c-0.8,0-4.4-0.2-7.8-0.2
		c-0.9,0-1.5,0.1-1.5,0.5c0,0.3,0.1,0.5,0.6,0.5c0.6,0,2.3,0.1,3.7,0.4c2.3,0.6,2.9,2.3,2.9,7.1l0.8,38.1
		c-2.4-2.5-10.6-11.6-18-19.6C554.3,107,543.1,94.9,542,93.6c-0.8-0.8-2-2.4-2.6-2.4s-0.8,0.8-0.8,3.8l-0.1,43c0,6.8-0.4,9-2.3,9.5
		c-1.1,0.4-2.5,0.5-3.1,0.5c-0.4,0-0.6,0.2-0.6,0.5c0,0.5,0.5,0.6,1.2,0.6c3.4,0,6.5-0.2,7.2-0.2s3.7,0.2,8,0.2
		c0.9,0,1.4-0.2,1.4-0.6c0-0.3-0.2-0.5-0.6-0.5c-0.7,0-2.3-0.1-3.8-0.5c-2-0.6-2.8-2.6-2.9-8.7L542.1,103L542.1,103z M618.4,114.2
		c0-11.7,0-13.8,0.2-16.2c0.1-2.6,0.8-3.9,2.8-4.3c0.9-0.2,1.4-0.2,1.9-0.2c0.3,0,0.6-0.1,0.6-0.5c0-0.5-0.4-0.6-1.2-0.6
		c-2.3,0-7,0.2-7.4,0.2s-5.1-0.2-7.6-0.2c-0.8,0-1.2,0.1-1.2,0.6c0,0.3,0.3,0.5,0.6,0.5c0.5,0,1.5,0.1,2.3,0.3
		c1.7,0.4,2.4,1.7,2.6,4.2c0.2,2.4,0.2,4.5,0.2,16.2v13.2c0,7.2,0,13.1-0.4,16.3c-0.3,2.2-0.7,3.8-2.2,4.1c-0.7,0.1-1.6,0.3-2.3,0.3
		c-0.5,0-0.6,0.2-0.6,0.5c0,0.5,0.4,0.6,1.2,0.6c2.3,0,7-0.2,7.4-0.2s5.1,0.2,9.2,0.2c0.8,0,1.2-0.2,1.2-0.6c0-0.2-0.2-0.5-0.6-0.5
		c-0.7,0-2.3-0.1-3.4-0.3c-2.3-0.3-2.7-2-2.9-4.1c-0.4-3.2-0.4-9.1-0.4-16.3L618.4,114.2L618.4,114.2z M647,101.6
		c-1.1-2.9-2-5.3-2-6.2c0-0.5,0.2-1.1,1-1.5c0.7-0.3,2-0.4,2.9-0.4c0.5,0,0.8-0.1,0.8-0.5s-0.7-0.5-2-0.5c-2.9,0-6.2,0.2-7,0.2
		c-0.9,0-5.2-0.2-8.8-0.2c-1.2,0-2,0.1-2,0.5c0,0.3,0.1,0.5,0.6,0.5c0.4,0,1.7,0,2.9,0.3c2.6,0.8,3.8,1.6,5.4,5.8l18.4,46
		c1.4,3.6,1.8,4.7,2.7,4.7c0.8,0,1.1-1.2,3.2-5.7c1.7-3.7,5.1-11.8,9.7-22.7c3.8-9.2,7.6-18.2,8.4-20.3c2-5.1,3.2-6.4,4.1-7.1
		c1.4-0.9,3.1-0.9,3.6-0.9c0.6,0,0.9-0.1,0.9-0.5s-0.5-0.5-1.3-0.5c-2.2,0-5.4,0.2-5.9,0.2c-0.9,0-4.4-0.2-7.4-0.2
		c-1.2,0-1.7,0.1-1.7,0.6c0,0.4,0.4,0.5,0.8,0.5c0.8,0,2,0,2.9,0.3c0.8,0.4,1,1.1,1,1.7c0,0.7-0.3,1.7-0.7,2.9
		c-1.7,5.4-11.7,31.6-16.1,41.7L647,101.6L647,101.6z M700.9,127.4c0,7.2,0,13.1-0.4,16.3c-0.3,2.2-0.7,3.8-2.2,4.1
		c-0.7,0.1-1.6,0.3-2.3,0.3c-0.5,0-0.6,0.2-0.6,0.5c0,0.5,0.4,0.6,1.2,0.6c2.3,0,7-0.2,7.4-0.2c2.2,0,7.2,0.5,18.5,0.5
		c2.9,0,3.5,0,4.1-2c0.4-1.6,1-6.7,1-7.3c0-0.5,0-1.1-0.5-1.1c-0.4,0-0.5,0.3-0.7,1.1c-0.5,3.1-1.4,4.6-3.4,5.4
		c-2,0.8-5.3,0.8-7.2,0.8c-7.4,0-8.5-1-8.7-6.2c-0.1-1.6,0-10.3,0-12.8v-6.6c0-0.3,0.1-0.5,0.5-0.5c1.3,0,8.7,0.1,10.7,0.4
		c2.9,0.3,3.6,1.6,3.9,2.6c0.3,1,0.3,1.7,0.3,2.5c0,0.4,0.2,0.7,0.5,0.7c0.5,0,0.5-0.8,0.5-1.4c0-0.5,0.1-3.3,0.3-4.8
		c0.2-2.5,0.6-3.8,0.6-4.2s-0.2-0.6-0.4-0.6c-0.3,0-0.6,0.4-1.1,1c-0.7,0.8-1.7,0.9-3.5,1.1c-1.7,0.1-11,0.1-11.9,0.1
		c-0.4,0-0.4-0.2-0.4-0.8V96.2c0-0.5,0.1-0.8,0.4-0.8c0.8,0,9,0.1,10.3,0.2c4.1,0.5,4.8,1.4,5.3,2.6c0.4,0.9,0.5,2.2,0.5,2.7
		c0,0.6,0.1,1,0.6,1c0.3,0,0.5-0.4,0.5-0.8c0.2-0.9,0.3-4.2,0.4-5c0.2-2.1,0.6-3,0.6-3.5c0-0.4-0.1-0.7-0.3-0.7
		c-0.4,0-0.7,0.3-1.1,0.4c-0.6,0.1-1.8,0.3-3.2,0.4c-1.7,0.1-16.7,0.1-17.2,0.1c-0.4,0-5.1-0.2-8.5-0.2c-0.8,0-1.2,0.1-1.2,0.6
		c0,0.3,0.3,0.5,0.6,0.5c0.7,0,2,0.1,2.6,0.2c2.5,0.5,3.1,1.7,3.2,4.3c0.2,2.4,0.2,4.5,0.2,16.2v13H700.9z M746.7,127.4
		c0,7.2,0,13.1-0.4,16.3c-0.3,2.2-0.7,3.8-2.2,4.1c-0.7,0.1-1.6,0.3-2.3,0.3c-0.5,0-0.6,0.2-0.6,0.5c0,0.5,0.4,0.6,1.2,0.6
		c2.3,0,7-0.2,7.1-0.2c0.4,0,5.1,0.2,9.2,0.2c0.8,0,1.2-0.2,1.2-0.6c0-0.2-0.2-0.5-0.6-0.5c-0.7,0-2.3-0.1-3.4-0.3
		c-2.3-0.3-2.7-2-2.9-4.1c-0.4-3.2-0.4-9.1-0.4-16.3v-1.8c0-0.4,0.1-0.6,0.5-0.6l9.2,0.1c0.5,0,0.7,0.2,1,0.5c1.5,2,5,7,8.2,11.1
		c4.3,5.6,6.9,9.3,10.1,11c2,1.1,3.8,1.4,8,1.4h5.3c1.4,0,1.8-0.2,1.8-0.6c0-0.2-0.3-0.5-0.7-0.5c-0.5,0-1.5,0-2.9-0.2
		c-1.9-0.3-5.1-1.1-9.2-5.4c-4.4-4.7-9.5-11.3-15.6-19.2c6.8-6.2,9.1-11.8,9.1-17.3c0-5.2-3.3-8.9-5.2-10.2c-4-2.9-9-3.3-13.7-3.3
		c-2.3,0-8,0.2-8.9,0.2c-0.4,0-5.1-0.2-8.5-0.2c-0.8,0-1.2,0.1-1.2,0.6c0,0.3,0.3,0.5,0.6,0.5c0.7,0,2,0.1,2.6,0.2
		c2.5,0.5,3.1,1.7,3.2,4.3c0.1,2.4,0.1,4.5,0.1,16.2v13.2H746.7z M752.7,96.2c0-0.5,0.2-0.8,0.6-0.9c0.8-0.2,2.8-0.5,5-0.5
		c8,0,13,5.6,13,15c0,5.7-2,9.8-4.6,11.6c-1.7,1.2-3.8,1.4-5.6,1.4c-3.3,0-6.8-0.5-7.9-1.2c-0.4-0.2-0.5-0.5-0.5-0.9V96.2
		L752.7,96.2z M807.8,150.3c4.1,0,8.1-0.9,11.3-3.2c5.2-3.7,6.4-9.4,6.4-12.5c0-6-2.1-10.7-11-17.6l-2.1-1.7
		c-7.1-5.8-9.2-8.3-9.2-12.6c0-5.5,4.1-8.7,9.2-8.7c6.9,0,8.9,3.2,9.4,4s0.9,2.9,1,3.8c0.1,0.6,0.2,1,0.6,1c0.4,0,0.5-0.5,0.5-1.7
		c0-5.1,0.3-7.6,0.3-8s-0.2-0.5-0.8-0.5s-1.2-0.1-2.6-0.4c-1.9-0.5-4.1-0.8-7-0.8c-9.5,0-15.5,5.5-15.5,13.5c0,5.1,1.8,9.8,9.8,16.3
		l3.4,2.8c6.5,5.3,8.6,8.3,8.6,13.5c0,4.8-3.5,10-10.7,10c-5,0-10-2.1-11.1-7.7c-0.2-1.1-0.2-2.1-0.2-2.8c0-0.6-0.1-0.8-0.5-0.8
		s-0.5,0.4-0.6,1.2c-0.1,1.2-0.4,4.2-0.4,8c0,2,0.1,2.3,1.1,2.9C800.8,149.7,804.3,150.3,807.8,150.3L807.8,150.3z M851.6,114.2
		c0-11.7,0-13.8,0.1-16.2c0.2-2.6,0.8-3.9,2.8-4.3c0.9-0.2,1.4-0.2,1.9-0.2c0.3,0,0.6-0.1,0.6-0.5c0-0.5-0.4-0.6-1.2-0.6
		c-2.3,0-7,0.2-7.4,0.2s-5.1-0.2-7.6-0.2c-0.8,0-1.2,0.1-1.2,0.6c0,0.3,0.3,0.5,0.6,0.5c0.5,0,1.5,0.1,2.3,0.3
		c1.7,0.4,2.4,1.7,2.6,4.2c0.2,2.4,0.2,4.5,0.2,16.2v13.2c0,7.2,0,13.1-0.4,16.3c-0.3,2.2-0.7,3.8-2.2,4.1c-0.7,0.1-1.6,0.3-2.3,0.3
		c-0.5,0-0.6,0.2-0.6,0.5c0,0.5,0.4,0.6,1.2,0.6c2.3,0,7-0.2,7.4-0.2s5.1,0.2,9.2,0.2c0.8,0,1.2-0.2,1.2-0.6c0-0.2-0.1-0.5-0.6-0.5
		c-0.7,0-2.3-0.1-3.4-0.3c-2.3-0.3-2.7-2-2.9-4.1c-0.4-3.2-0.4-9.1-0.4-16.3v-13.2H851.6z M894.4,95.7l9.5,0.2
		c7.2,0.1,8.9,1.9,9.2,4.1l0.1,0.8c0.1,1.1,0.2,1.3,0.6,1.3c0.3,0,0.5-0.3,0.5-1c0-0.8,0.2-6,0.2-8.3c0-0.5,0-0.9-0.4-0.9
		c-0.6,0-2.6,0.8-7.4,0.8h-28.2c-0.9,0-3.8-0.2-5.9-0.4c-2-0.2-2.8-0.9-3.3-0.9c-0.3,0-0.6,1-0.8,1.4c-0.1,0.6-1.7,7.1-1.7,7.8
		c0,0.5,0.2,0.7,0.4,0.7c0.3,0,0.5-0.2,0.8-0.8c0.2-0.5,0.5-1.1,1.3-2.3c1.2-1.8,3-2.3,7.7-2.4l11.1-0.2v31.8c0,7.2,0,13.1-0.4,16.3
		c-0.3,2.2-0.7,3.8-2.2,4.1c-0.7,0.1-1.6,0.3-2.3,0.3c-0.5,0-0.6,0.2-0.6,0.5c0,0.5,0.4,0.6,1.2,0.6c2.3,0,7-0.2,7.4-0.2
		s5.1,0.2,9.2,0.2c0.8,0,1.2-0.2,1.2-0.6c0-0.2-0.2-0.5-0.6-0.5c-0.7,0-2.3-0.1-3.4-0.3c-2.3-0.3-2.7-2-2.9-4.1
		c-0.4-3.2-0.4-9.1-0.4-16.3V95.7H894.4z M947,86.7c0.4,0,0.7-0.1,0.7-0.4c0-0.3-0.7-0.5-1.4-1.1c-3.1-2-6.8-4.9-7.4-5.5
		c-0.7-0.7-0.8-1.2-1.1-1.2s-0.6,0.2-1.2,0.4c-0.9,0.4-2.9,1-4.5,1.4c-0.5,0.2-0.8,0.2-0.8,0.6c0,0.4,0.6,0.7,2.2,1.3
		C934.6,82.7,945.6,86.7,947,86.7L947,86.7z M924,140.9c-1.4,3.8-2.9,6.6-6.3,7.1c-0.6,0.1-1.7,0.1-2.2,0.1c-0.4,0-0.7,0.2-0.7,0.5
		c0,0.5,0.5,0.6,1.4,0.6c3.5,0,7.7-0.2,8.5-0.2s4.1,0.2,5.9,0.2c0.7,0,1.1-0.2,1.1-0.6c0-0.3-0.2-0.5-0.8-0.5h-0.8
		c-1.3,0-2.9-0.7-2.9-2.2c0-1.4,0.4-3.2,1.1-5l4.5-13.3c0.2-0.4,0.4-0.6,0.8-0.6h16.1c0.4,0,0.5,0.2,0.7,0.5l7,18.5
		c0.5,1.2,0,1.9-0.5,2c-0.3,0.1-0.5,0.2-0.5,0.5c0,0.4,0.8,0.4,2.3,0.5c5.2,0.2,10.7,0.2,11.8,0.2c0.8,0,1.5-0.2,1.5-0.6
		c0-0.4-0.3-0.5-0.8-0.5c-0.8,0-1.9-0.1-3-0.5c-1.6-0.5-3.8-1.7-6.5-8.3c-4.6-11.4-16.4-42.4-17.5-45.3c-0.9-2.3-1.2-2.7-1.7-2.7
		s-0.8,0.4-1.7,2.9L924,140.9L924,140.9z M934.5,124.4c-0.2,0-0.4-0.1-0.2-0.5l6.6-20.3c0.4-1.1,0.8-1.1,1.1,0l7.1,20.3
		c0.1,0.3,0.1,0.5-0.3,0.5H934.5L934.5,124.4z"/>
	<path class="st1" d="M155.4,29.4c0,0,6.9-4.9,17-6.6s20.8-1.7,28.9,0.9c8.1,2.6,16.7,6.1,19.3,8.1s2.6,4.3,2.6,4.3l-6.9,14.4
		c0,0-3.5,5.5-3.2,6.4s1.2,5.5,1.2,5.5s2,5.8,2,7.2s-4.6,20.5-6.6,24.5s-2,10.4-0.3,12.7s9.2,5.5,14.1,7.2
		c4.9,1.7,27.1,12.4,30,15.9c2.9,3.5,23.4,35.2,24.8,49.4c1.4,14.1,2.3,8.4,2.3,8.4l1.4,8.1c0,0,3.5,5.8,4.9,8.1
		c1.4,2.3,1.4,19.9,1.4,19.9l7.8,19.9l6.6,12.1c0,0,4,8.1,3.8,10.1c-0.3,2-4.9,9.5-4.9,9.5s1.4,8.1,1.2,10.4
		c-0.3,2.3-3.5,9.8-6.1,11.8s-5.5,6.1-5.5,6.1s0.6,8.1,0.6,9.8c0,1.7-1.4,13-6.6,17.9c-1.1,1.1-1.2,7.2-1.2,7.2s-15,15-29.7,21.9
		c-14.7,6.9-31.8,14.1-49.4,15.3c-17.6,1.2-44.5,0.3-61.5-6.9c-17-7.2-32.3-14.1-43.6-24.5s-5.2-5.2-5.2-5.2l-2-28.6l-2-26.3
		c0,0-7.2-4-10.4-10.4c-3.2-6.4-0.6-12.7,1.7-18.2c2.3-5.5,2.6-15.3,2.9-18.2c0.3-2.9-1.4-15.6,0.3-27.4c1.7-11.8,3.8-29.2,9.2-41
		c5.5-11.8,12.1-25.1,17.3-29.7c5.2-4.6,12.7-9.2,12.7-9.2s-4-4.3-4-7.2s1.2-8.9,2.3-10.4c1.2-1.4,3.2-6.6,3.2-6.6s6.9,3.2,8.7,4
		c1.7,0.9,3.8,2,5.8,4s3.2,3.5,3.8,3.5s9-6.9,9-6.9l8.4-4.9v-15l-2.6-17.6l2-13.9l-1.4-13.9L155.4,29.4L155.4,29.4z"/>
	<path class="st2" d="M161.2,97.1c-10.7,2.2-20.9,5.6-30.5,10.1"/>
	<path class="st1" d="M34.7,299.3c-0.3,0.1-0.4,0.1-0.5-0.1c-0.2-0.6-1.7-4.4-1.9-5.3c-0.2-1.2,0.4-2,0.9-2.4c0.5-0.3,1-0.6,1.3-0.7
		s0.6-0.3,0.5-0.5c-0.1-0.4-0.6-0.2-1,0c-0.3,0.1-2.4,0.8-3.3,1.1c-1.4,0.4-2.6,0.7-2.9,0.8c-0.3,0.1-0.4,0.2-0.3,0.4
		c0.1,0.2,0.3,0.2,0.6,0.3c0.7,0.1,1.1,0.6,1.4,1.2c0.2,0.5,0.4,1,0.6,1.6l1.8,4.5c0.1,0.2,0,0.3-0.3,0.4l-11.1,4.2
		c-0.5,0.2-0.7,0.1-0.7-0.1l-1.9-5.5c-0.5-1.4-0.1-2.4,0.4-2.8s1.3-0.7,1.6-0.9c0.5-0.2,0.7-0.4,0.6-0.6s-0.4-0.2-0.8-0.1
		c-0.6,0.1-3.2,1-3.7,1.2c-1.2,0.3-1.8,0.4-2.1,0.5c-0.2,0.1-0.4,0.3-0.3,0.4c0.1,0.2,0.3,0.3,0.5,0.5c0.3,0.3,0.4,0.7,0.7,1.4
		c0.4,0.8,3.1,8,3.6,9.4c0.4,1,1.1,3.3,1.8,5.2c0.2,0.5,0.4,0.8,0.8,0.6c0.3-0.1,0.3-0.4,0.1-0.7c-0.2-0.5-0.4-1.1-0.4-1.4
		c-0.1-1.3,0.5-1.8,2-2.5c1.4-0.6,2.6-1.1,9.4-3.6l7.8-3c4.3-1.6,7.6-2.9,9.5-3.4c1.3-0.3,2.4-0.5,2.8,0.1c0.2,0.3,0.5,0.7,0.7,1.2
		c0.1,0.4,0.3,0.5,0.6,0.4c0.4-0.1,0.4-0.4,0.2-0.9c-0.5-1.3-1.5-3.5-1.8-4.5c-0.3-0.9-1.1-3.2-1.9-5.5c-0.2-0.5-0.4-0.7-0.7-0.6
		c-0.2,0.1-0.3,0.3-0.1,0.7c0.2,0.5,0.4,1.3,0.5,1.8c0.2,1.1-0.7,1.7-1.9,2.3c-1.8,0.9-5.1,2.1-9.4,3.8L34.7,299.3L34.7,299.3z"/>
	<path class="st1" d="M23.3,278.8c-7,1.6-8.3,1.9-9.8,2.2c-1.6,0.3-2.5,0.2-3-0.8c-0.2-0.4-0.4-1-0.5-1.4c-0.1-0.4-0.2-0.6-0.6-0.6
		c-0.3,0.1-0.4,0.4-0.2,0.9c0.3,1.4,1.1,4.1,1.3,5c0.2,1,0.6,3.4,1,5.1c0.1,0.6,0.3,0.8,0.6,0.7c0.3-0.1,0.4-0.3,0.3-0.7
		c-0.1-0.5-0.2-0.9-0.1-1.3c0-1.3,0.7-1.8,2.3-2.2c1.5-0.4,2.8-0.7,9.8-2.3l8.1-1.9c4.3-1,7.9-1.8,9.9-2.1c1.4-0.2,2.4-0.2,2.8,0.5
		c0.2,0.3,0.4,0.7,0.5,1.3c0.1,0.4,0.3,0.6,0.5,0.5c0.3-0.1,0.4-0.4,0.3-0.8c-0.3-1.5-1-3.8-1.2-4.6c-0.7-3-1-5.5-2.2-10.8
		c-0.4-1.9-0.7-2.1-1.8-2c-1.4,0-4.9,0.6-5.4,0.7c-0.6,0.1-0.8,0.2-0.7,0.5s0.4,0.3,0.8,0.2c0.9-0.1,2.3,0,3,0.3
		c1.5,0.6,1.8,2.1,2.3,4c0.7,2.9,0.6,3.9,0,4.7c-0.7,1-3.8,1.7-9.8,3.1L23.3,278.8L23.3,278.8z"/>
	<path class="st1" d="M40.6,245.7c-0.5-9.6-9.5-15.2-20.3-14.6C9.4,231.7,2.9,238,3.4,247.4c0.7,11.4,11.4,15.1,19.5,14.6
		C31.3,261.6,41.2,256.6,40.6,245.7L40.6,245.7z M38.2,244.2c0.4,7.3-7.2,12.1-17,12.6c-11.8,0.7-15.1-4.1-15.4-8.5
		c-0.3-6.2,6-11.5,16.6-12.1C36.1,235.5,38,241.6,38.2,244.2L38.2,244.2z"/>
	<path class="st1" d="M26.6,221.8c4.3,0.7,8,1.2,10,1.7c1.3,0.4,2.3,0.7,2.4,1.5c0,0.4,0.1,0.8,0,1.4c-0.1,0.5,0,0.6,0.3,0.7
		s0.5-0.2,0.6-0.7c0.2-1.5,0.5-3.9,0.6-4.6c0.1-0.6,0.7-3.3,1-5.5c0.1-0.5,0-0.8-0.4-0.8c-0.2,0-0.4,0.1-0.4,0.4
		c-0.1,0.5-0.3,1.3-0.5,1.8c-0.4,1.1-1.4,1.2-2.8,1.1c-2-0.1-5.7-0.7-10.1-1.4l-0.7-0.1c-0.3,0-0.4-0.2-0.3-0.4l0.6-3.3
		c0-0.3,0.1-0.5,0.4-0.6c0.8-0.4,4.2-1.6,7.1-2.7c3.9-1.5,6.4-2.6,7.7-4.1c0.8-0.9,1.2-1.8,1.5-3.9l0.6-3.6c0.1-0.5,0-0.7-0.4-0.8
		c-0.2,0-0.4,0.1-0.4,0.4s-0.1,0.6-0.3,1c-0.2,0.5-0.8,2-3.8,3.7c-3.3,1.8-7.8,3.7-13.6,6.2c-3.3-4.4-6.3-6-9.7-6.6
		c-3.1-0.5-5.8,0.6-6.8,1.6c-2.1,1.8-2.7,4.2-3.1,6.6c-0.2,1.2-0.5,4-0.7,5.3c-0.1,0.8-0.6,3.1-0.9,5.1c-0.1,0.6,0,0.8,0.3,0.9
		c0.3,0.1,0.5-0.2,0.5-0.6c0.1-0.5,0.2-1.2,0.4-1.4c0.5-1.2,1.3-1.4,2.9-1.2c1.5,0.2,2.8,0.4,10,1.5L26.6,221.8L26.6,221.8z
		 M8.5,214.5c-0.4-0.1-0.6-0.2-0.6-0.4c-0.1-0.4,0-1.1,0.1-2c0.3-2.2,2.8-5.4,9.5-4.4c3.8,0.6,5.8,2,6.7,3.3
		c0.5,0.8,0.6,1.3,0.4,2.8c-0.1,0.9-0.5,2-0.9,2.8c-0.2,0.2-0.4,0.3-0.9,0.2L8.5,214.5L8.5,214.5z"/>
	<path class="st1" d="M32.9,188.3c4.1,1.4,7.7,2.6,9.5,3.4c1.3,0.6,2.2,1.1,2.1,1.9c0,0.4-0.1,0.8-0.3,1.4c-0.1,0.4-0.1,0.6,0.2,0.7
		s0.5-0.1,0.7-0.6c0.5-1.4,1.1-3.8,1.4-4.6c0.7-2.1,1.8-4.4,3.6-9.9c0.5-1.4,0.6-1.7-0.5-2.3c-0.8-0.5-3.8-1.8-4.8-2.1
		c-0.4-0.2-0.8-0.3-0.9,0c-0.1,0.3,0.1,0.4,0.5,0.6c1.8,0.9,2.6,1.6,2.8,2.7c0.2,1.1-0.3,2.6-0.6,3.6c-1.2,3.7-2.1,4-5.2,3
		c-1.3-0.4-5.4-1.8-7-2.3l-3.6-1.2c-0.3-0.1-0.4-0.2-0.4-0.4c0.3-0.9,1.5-4.4,1.9-5.1c0.6-1.3,1.5-1.5,2.4-1.4
		c0.6,0.1,1.2,0.3,1.7,0.4c0.2,0.1,0.4,0.1,0.5-0.2c0.1-0.3-0.4-0.5-0.7-0.6c-0.3-0.1-2.1-0.8-3-1.2c-2.3-0.9-2.9-1.3-3.2-1.4
		c-0.3-0.1-0.4,0-0.4,0.1c-0.1,0.2,0.1,0.4,0.4,0.8c0.3,0.5,0.3,1.1,0.1,2c-0.2,0.9-1.6,5-1.8,5.8c-0.1,0.2-0.3,0.2-0.6,0.1
		l-11.4-3.8c-0.3-0.1-0.4-0.2-0.4-0.4c0.2-0.7,1.6-4.5,1.9-5.1c0.9-1.7,1.5-1.9,2.4-1.9c0.6,0,1.4,0.2,1.7,0.3
		c0.4,0.1,0.7,0.1,0.7-0.1c0.1-0.3-0.2-0.4-0.4-0.5c-0.5-0.3-2.5-1-2.9-1.2c-2-0.8-2.5-1.2-2.8-1.3c-0.1,0-0.3,0-0.4,0.2
		s0,0.4,0,0.6c0,0.3-0.1,0.9-0.3,1.6c-0.2,0.7-2.6,7.9-3,9c-0.3,1-1.2,3.2-1.9,5.1c-0.2,0.5-0.2,0.8,0.1,0.9
		c0.3,0.1,0.5-0.1,0.6-0.5c0.2-0.5,0.4-1.1,0.6-1.4c0.7-1.1,1.5-1.1,3.1-0.7c1.5,0.4,2.7,0.8,9.6,3.1L32.9,188.3L32.9,188.3z"/>
	<path class="st1" d="M30.3,158.3L30.3,158.3c1.2-0.3,8.4-1.2,14.9-2.4c6.2-1.2,14-2.5,17.6-3.3c0.7-0.1,1.3-0.3,1.5-0.6
		c0.2-0.3-0.1-0.6-1.1-1.1L37,136.4c-2.3-1.3-3.1-2-2.9-3.1c0.1-0.5,0.2-0.7,0.4-1.1c0.2-0.4,0.2-0.7-0.1-0.8
		c-0.3-0.2-0.6,0.1-0.8,0.6c-0.9,1.6-1.4,3-1.6,3.3c-0.4,0.7-1.4,2.2-2.3,4c-0.3,0.5-0.4,0.9-0.1,1.1c0.3,0.1,0.4,0.1,0.7-0.3
		c0.3-0.5,0.7-1.3,1.2-1.6c0.8-0.6,1.8-0.5,4.4,0.9l19,9.8l-0.1,0.2c-1,0.2-9.4,1.5-13.5,2.2c-8.7,1.6-18.2,3-19,3.2
		c-1.1,0.2-1.8,0.2-2,0.5c-0.2,0.3,0.4,0.8,1.2,1.2l24.6,13.3c3.6,2,4.8,2.8,4.6,3.8c-0.1,0.6-0.4,1.2-0.6,1.6
		c-0.2,0.3-0.2,0.6,0,0.7c0.4,0.2,0.6-0.1,0.8-0.5c0.9-1.7,1.7-3.4,1.8-3.7c0.3-0.6,1.2-1.9,2.4-4.1c0.3-0.5,0.3-0.8,0-1
		c-0.3-0.1-0.4,0-0.6,0.4c-0.3,0.5-0.7,1.1-1.2,1.6c-0.7,0.5-2,0.4-5.3-1.3L30.3,158.3L30.3,158.3z"/>
	<path class="st1" d="M63.9,129.5c3.4,2.8,6.2,5.2,7.6,6.6c1,1,1.6,1.8,1.3,2.5c-0.1,0.3-0.4,0.7-0.7,1.2c-0.3,0.4-0.3,0.6-0.1,0.7
		c0.3,0.2,0.5,0.1,0.9-0.3c1-1.2,2.4-3.1,3-3.8c0.7-0.8,2.3-2.6,3.9-4.5c0.3-0.3,0.4-0.6,0.1-0.9c-0.2-0.2-0.4-0.1-0.7,0.2
		c-0.4,0.4-1,1-1.4,1.4c-0.9,0.8-1.8,0.3-2.9-0.5c-1.7-1.2-4.6-3.6-7.9-6.4l-14.9-12.5l3.2-3.6c2.2-2.5,3.9-2.5,4.9-1.7l0.4,0.3
		c0.6,0.4,0.8,0.5,1,0.3c0.1-0.2,0-0.4-0.4-0.7c-0.9-0.8-3.4-3-4.2-3.6c-0.5-0.5-0.8-0.6-1-0.4c-0.2,0.2-0.4,1.2-2,3.1l-9.6,11.6
		c-0.8,1-1.8,2-2.6,2.8c-0.7,0.7-1.3,0.7-1.5,0.9c-0.1,0.2,0,0.4,0.4,0.9c0.2,0.3,3.1,3.6,3.7,4.1c0.4,0.3,0.6,0.4,0.8,0.2
		c0.1-0.2,0.1-0.4-0.2-0.7c-0.2-0.3-0.6-0.8-0.9-1.6c-0.4-1.1,0-2,1.3-3.7l3.5-4.5L63.9,129.5L63.9,129.5z"/>
	<path class="st1" d="M78.8,113.3c3.1,3.4,5.6,6.2,6.8,7.8c0.8,1.1,1.2,1.9,0.8,2.5c-0.2,0.3-0.5,0.7-0.9,1.1
		c-0.3,0.3-0.4,0.5-0.2,0.7c0.2,0.2,0.5,0.2,0.9-0.2c1.1-1,2.8-2.7,3.5-3.3c0.8-0.7,2.6-2.2,4.5-3.9c0.3-0.3,0.4-0.6,0.2-0.8
		c-0.2-0.2-0.4-0.2-0.7,0.1c-0.4,0.4-1.1,0.9-1.6,1.2c-1,0.6-1.7,0.2-2.7-0.7c-1.5-1.4-4-4.2-7.1-7.6l-5.6-6.2
		c-4.8-5.4-5.7-6.4-6.7-7.5c-1.1-1.3-1.4-2.1-0.8-3c0.3-0.4,0.5-0.6,0.8-0.9c0.3-0.3,0.4-0.5,0.1-0.8c-0.2-0.2-0.5-0.1-0.8,0.3
		c-1.1,1-2.6,2.6-3.4,3.2c-0.8,0.7-2.7,2.2-3.8,3.2c-0.5,0.4-0.6,0.7-0.4,0.9c0.3,0.3,0.5,0.2,0.8-0.1s0.7-0.6,1.1-0.8
		c0.8-0.4,1.6,0,2.7,1.1c1.1,1.1,2,2.1,6.8,7.4L78.8,113.3L78.8,113.3z"/>
	<path class="st1" d="M86,90L86,90c1.2,0.3,7.9,3,14.2,5.1c6,2,13.4,4.5,17,5.6c0.6,0.2,1.3,0.4,1.7,0.2c0.3-0.2,0.2-0.6-0.4-1.5
		l-16-25.4c-1.4-2.3-1.7-3.3-1-4.2c0.3-0.4,0.6-0.5,0.9-0.7c0.4-0.2,0.5-0.5,0.3-0.7c-0.2-0.3-0.6-0.2-1,0.1c-1.6,1-2.7,1.9-3,2.1
		C98,71,96.4,71.9,94.8,73c-0.5,0.3-0.8,0.6-0.6,0.9c0.2,0.2,0.4,0.3,0.7,0c0.4-0.3,1.2-0.8,1.8-0.9c1-0.1,1.8,0.5,3.4,2.9L112,93.6
		l-0.2,0.1c-1-0.3-9-3.2-12.9-4.5c-8.4-2.8-17.5-6.1-18.2-6.4c-1-0.4-1.6-0.7-2-0.5c-0.3,0.2-0.1,0.8,0.5,1.6l15,23.8
		c2.2,3.5,2.8,4.7,2.2,5.6c-0.3,0.4-0.9,0.9-1.3,1.1c-0.3,0.2-0.5,0.4-0.3,0.6c0.2,0.4,0.5,0.2,1-0.1c1.7-1.1,3.1-2.2,3.4-2.4
		c0.6-0.4,2-1.1,4-2.4c0.4-0.3,0.7-0.6,0.5-0.9c-0.2-0.2-0.4-0.2-0.7,0c-0.5,0.3-1.1,0.7-1.8,0.8c-0.8,0.1-1.9-0.6-4-3.7L86,90
		L86,90z"/>
	<path class="st1" d="M137.3,79.2c0.2-0.1,0.3,0,0.5,0.2l6.3,8.4c0.4,0.5,0.3,1,0.1,1.1c-0.3,0.2-0.5,0.3-0.4,0.6s0.5,0.2,1.2,0
		c2.9-1,5.5-1.9,6.8-2.4s1.6-0.7,1.5-1.1c-0.1-0.3-0.3-0.3-0.6-0.2c-0.4,0.2-1,0.3-1.6,0.4c-0.8,0.1-2.1-0.2-4.9-3.7
		c-4.8-5.9-17.2-22-18.9-24.1c-0.7-0.9-1.1-1.2-1.4-1.1c-0.4,0.1-0.4,0.7-0.3,2.1l1.4,31.3c0.1,2.5,0,4.3-1.6,5.1
		c-0.3,0.2-0.8,0.4-1.1,0.5c-0.3,0.1-0.4,0.2-0.3,0.5c0.1,0.4,0.4,0.4,0.8,0.2c1.9-0.7,3.8-1.5,4.2-1.7c1.1-0.4,2.7-0.8,3.8-1.3
		c0.4-0.1,0.6-0.3,0.4-0.7c-0.1-0.3-0.2-0.3-0.7-0.2l-0.5,0.2c-1.1,0.4-1.6-0.1-1.9-0.9c-0.2-0.5-0.4-1.7-0.5-2.9l-0.4-7.1
		c0-0.3,0-0.4,0.2-0.5L137.3,79.2L137.3,79.2z M129.2,79.7c-0.1,0.1-0.2-0.1-0.3-0.3l-0.8-12.2c0-0.2,0-0.4,0.1-0.5
		c0.1,0,0.2,0.2,0.3,0.3l7.3,9.8c0.1,0.1,0.1,0.3-0.1,0.3L129.2,79.7L129.2,79.7z"/>
	<path class="st1" d="M228.6,88.6c1.9,0.6,4.1,0.8,6.3-0.1c3.3-1.4,5-4.3,5.8-6.9c1.3-4.3,0.6-7.8-2.5-13.4l-0.7-1.3
		c-2.2-3.8-2.5-5.6-1.9-7.7c0.8-2.7,3-4.2,5.7-3.4c2.4,0.7,3,2.4,3.3,3.4c0.4,1.4,0.2,2.9,0.1,3.3c-0.2,0.5-0.1,0.9,0.1,0.9
		c0.3,0.1,0.5-0.2,0.8-1.2c1.1-3.5,1.6-4.8,1.8-5.4c0.1-0.3,0-0.5-0.3-0.7c-0.9-0.6-2.2-1.5-4.6-2.2c-5.1-1.5-9.5,1.1-11,6.1
		c-1.1,3.7-0.7,7.3,2.2,12.4l1.2,2.1c2.2,3.8,2.1,6.1,1.4,8.3c-0.7,2.4-3.1,4.7-6.4,3.7c-2.3-0.7-4-2.5-3.8-6.1
		c0-0.8,0.2-1.8,0.4-2.4c0.1-0.4,0.2-0.8-0.1-0.9c-0.3-0.1-0.6,0.4-0.8,1.1c-0.3,0.7-1.2,3.4-2,5.9c-0.3,1-0.3,1.3,0.2,1.8
		C224.9,87.1,226.5,87.9,228.6,88.6L228.6,88.6z"/>
	<path class="st1" d="M255.3,83.4c-1.9,4-3.5,7.3-4.5,9.1c-0.7,1.2-1.3,2-2.1,1.9c-0.4-0.1-0.8-0.2-1.3-0.4
		c-0.4-0.2-0.6-0.1-0.7,0.1c-0.1,0.3,0,0.5,0.5,0.8c1.4,0.6,3.6,1.5,4.4,1.9c1,0.5,3.1,1.6,5.3,2.7c0.4,0.2,0.7,0.2,0.9-0.1
		c0.1-0.2,0-0.4-0.4-0.6c-0.5-0.2-1.2-0.7-1.7-1c-1-0.7-0.7-1.7-0.2-3c0.7-1.9,2.3-5.3,4.2-9.3l8.3-17.6l4.3,2.2
		c3,1.5,3.4,3.2,2.9,4.3l-0.2,0.5c-0.3,0.7-0.3,0.9,0,1c0.2,0.1,0.4-0.1,0.6-0.5c0.5-1.1,2-4,2.5-4.9c0.3-0.6,0.4-0.9,0.2-1
		c-0.3-0.1-1.3-0.1-3.5-1.1L261.2,62c-1.1-0.5-2.4-1.2-3.3-1.8c-0.8-0.5-1-1.1-1.2-1.2c-0.2-0.1-0.4,0.1-0.8,0.6
		c-0.2,0.3-2.7,3.9-3,4.6c-0.2,0.5-0.3,0.7,0,0.8c0.2,0.1,0.4,0,0.6-0.3c0.2-0.3,0.6-0.7,1.3-1.2c1-0.7,1.9-0.5,3.9,0.3l5.2,2.2
		L255.3,83.4L255.3,83.4z"/>
	<path class="st1" d="M277.4,92.9c-4.2,5.5-5.1,9.2-4.9,12.1c0.3,4.2,3.1,6.5,4.7,7.7c2,1.5,4.5,2.7,8.4,2c4.6-0.8,8.3-5,11.5-9.2
		l3.1-4.1c4.4-5.8,5.2-6.8,6.1-8c1.1-1.3,1.8-1.7,2.8-1.3c0.4,0.2,0.6,0.3,1,0.6s0.6,0.3,0.8,0.1c0.2-0.3,0-0.5-0.4-0.8
		c-1.2-0.9-3.2-2.2-3.5-2.5c0,0-1.9-1.6-3.4-2.8c-0.4-0.3-0.7-0.4-0.9-0.1c-0.2,0.3-0.1,0.5,0.3,0.7c0.3,0.3,0.8,0.7,1,0.9
		c0.8,1,0.6,1.8-0.3,3.1s-1.7,2.3-6,8.1l-3.6,4.7c-3,3.9-5.6,7.2-8.9,8.1c-2.4,0.6-4.4-0.1-5.7-1.1c-1-0.8-2.3-2-2.6-4.4
		c-0.3-2.6,0.5-5.6,4.7-11.1l4-5.3c4.4-5.8,5.2-6.8,6.1-8c1.1-1.3,1.8-1.7,2.8-1.3c0.4,0.2,0.6,0.3,1,0.6c0.3,0.2,0.5,0.3,0.7,0
		s0-0.5-0.4-0.8c-1.1-0.8-3.1-2.2-3.8-2.7c-0.9-0.7-2.7-2.2-4.3-3.5c-0.5-0.3-0.7-0.4-0.9-0.2c-0.2,0.3-0.1,0.5,0.3,0.7
		c0.4,0.3,0.9,0.7,1.1,1c0.8,1,0.6,1.8-0.3,3.1s-1.7,2.3-6,8.1L277.4,92.9L277.4,92.9z"/>
	<path class="st1" d="M303.9,116.3c-3.3,2.8-6.2,5.3-7.8,6.4c-1.1,0.8-2.1,1.3-2.7,0.9c-0.3-0.2-0.7-0.5-1-0.9
		c-0.3-0.3-0.5-0.4-0.7-0.2c-0.3,0.2-0.2,0.5,0.1,0.9c1,1.2,2.7,2.9,3.2,3.5c1.2,1.4,3,4.4,4.8,6.5c4.6,5.3,9.7,6.2,12.5,6
		c3.4-0.1,8.2-1.6,12.8-5.5c4.3-3.7,6.1-7.6,6.8-10.6c1.4-6.7-2.7-11.5-5.8-15.1c-1.5-1.7-3.1-3.5-3.9-4.4c-0.7-0.8-2.1-2.7-3.4-4.2
		c-0.4-0.4-0.6-0.6-0.9-0.4c-0.3,0.2-0.2,0.5,0.1,0.8c0.3,0.4,0.7,0.9,0.9,1.2c0.6,1.2,0.2,1.9-1,3c-1.1,1-2.1,1.9-7.6,6.6
		L303.9,116.3L303.9,116.3z M313.9,114c2.9-2.4,6-5.1,7.2-6.1c0.4-0.3,0.7-0.4,1-0.3c0.3,0.1,1.4,1.1,1.9,1.7
		c1.9,2.3,4.3,5.9,3.4,11.3c-0.4,2.5-2.1,6.6-6.7,10.5c-3.7,3.2-7.5,5.4-11.1,5.3c-3.4-0.1-5.8-1.5-8.3-4.4c-2-2.3-2.2-4.1-1.8-5
		c0.2-0.6,1.6-1.9,2.5-2.7c0.7-0.6,3.4-3,7.2-6.3L313.9,114L313.9,114z"/>
	<path class="st1" d="M324.9,143.5c-3.9,2.4-7.1,4.4-8.9,5.3c-1.2,0.6-2,0.9-2.6,0.3c-0.3-0.2-0.6-0.6-0.9-1.1
		c-0.2-0.4-0.4-0.4-0.6-0.3c-0.3,0.2-0.3,0.5,0,0.9c0.8,1.3,2.2,3.3,2.6,4c0.5,0.9,1.7,3,3,5.1c0.2,0.4,0.5,0.5,0.8,0.4
		c0.2-0.1,0.2-0.4,0-0.7c-0.3-0.5-0.7-1.2-0.9-1.7c-0.4-1.1,0.2-1.7,1.2-2.5c1.7-1.2,4.9-3.2,8.8-5.6l7.1-4.4
		c6.1-3.8,7.3-4.5,8.6-5.2c1.5-0.8,2.3-1,3-0.2c0.3,0.3,0.5,0.6,0.7,0.9c0.2,0.3,0.4,0.5,0.7,0.3c0.2-0.1,0.2-0.5-0.1-0.9
		c-0.8-1.2-2.1-3.1-2.6-3.9c-0.6-0.9-1.7-3-2.5-4.3c-0.3-0.5-0.6-0.7-0.8-0.6c-0.3,0.2-0.3,0.4-0.1,0.8c0.2,0.4,0.5,0.8,0.6,1.3
		c0.2,0.8-0.3,1.6-1.6,2.5c-1.3,0.9-2.4,1.6-8.5,5.3L324.9,143.5L324.9,143.5z"/>
	<path class="st1" d="M325.5,174c3.7,8.9,14,11.2,24,7s14.1-12.3,10.4-21c-4.4-10.5-15.7-10.4-23.2-7.3
		C329,155.9,321.2,164,325.5,174L325.5,174z M328.3,174.6c-2.8-6.7,2.7-13.8,11.8-17.6c10.9-4.6,15.6-1.2,17.3,2.9
		c2.4,5.7-1.8,12.8-11.6,16.9C333.2,182.1,329.3,177,328.3,174.6L328.3,174.6z"/>
	<path class="st1" d="M346.6,191.1c-4.3,0.8-8,1.5-10,1.7c-1.4,0.1-2.4,0.1-2.8-0.6c-0.2-0.3-0.3-0.7-0.4-1.3
		c-0.1-0.4-0.3-0.6-0.5-0.5c-0.3,0.1-0.4,0.4-0.3,0.8c0.3,1.5,0.9,3.8,1,4.5c0.1,0.6,0.5,3.3,0.9,5.5c0.1,0.5,0.3,0.7,0.6,0.7
		c0.2,0,0.3-0.2,0.3-0.5c-0.1-0.4-0.2-1.3-0.2-1.9c0-1.2,1-1.6,2.3-1.9c1.9-0.6,5.6-1.3,9.9-2.1l0.7-0.1c0.3-0.1,0.4,0,0.4,0.2
		l0.5,3.3c0.1,0.3,0,0.5-0.2,0.7c-0.6,0.6-3.4,2.9-5.7,4.9c-3.2,2.8-5.1,4.6-5.9,6.4c-0.5,1.1-0.5,2.1-0.1,4.2l0.7,3.5
		c0.1,0.4,0.2,0.7,0.6,0.6c0.2,0,0.3-0.2,0.3-0.5c-0.1-0.3-0.1-0.6-0.1-1.1c0-0.6,0.1-2.2,2.4-4.8c2.5-2.8,6.1-6.1,10.7-10.5
		c4.6,3,7.9,3.6,11.4,2.9c3.1-0.6,5.2-2.6,5.9-3.8c1.3-2.3,1.1-4.9,0.7-7.2c-0.2-1.2-0.9-4-1.2-5.2c-0.2-0.8-0.5-3.2-0.8-5.1
		c-0.1-0.6-0.3-0.8-0.6-0.7c-0.3,0.1-0.4,0.3-0.3,0.7c0.1,0.5,0.2,1.2,0.1,1.5c-0.1,1.3-0.8,1.7-2.3,2.1c-1.5,0.4-2.8,0.6-9.9,2
		L346.6,191.1L346.6,191.1z M366.1,191.9c0.4-0.1,0.6,0,0.7,0.2c0.2,0.3,0.4,1,0.6,1.9c0.4,2.2-0.8,6.1-7.4,7.4
		c-3.8,0.7-6.2,0.1-7.4-0.8c-0.7-0.6-1-1-1.3-2.5c-0.2-0.9-0.3-2.1-0.1-2.9c0.1-0.3,0.3-0.4,0.8-0.5L366.1,191.9L366.1,191.9z"/>
	<path class="st1" d="M354.1,225.5c-6.9,0-10.4,1.4-12.6,3.3c-3.2,2.8-3.3,6.4-3.3,8.4c0,2.5,0.5,5.2,3.4,7.9
		c3.4,3.2,9,3.7,14.3,3.7h5.1c7.2,0,8.5,0.1,10.1,0.1c1.7,0.1,2.5,0.4,2.7,1.4c0.1,0.5,0.1,0.7,0.1,1.1c0,0.5,0.1,0.7,0.4,0.7
		s0.4-0.3,0.4-0.8c0-1.5-0.1-3.9-0.1-4.3c0,0,0.2-2.4,0.2-4.4c0-0.5-0.1-0.8-0.4-0.8s-0.4,0.2-0.4,0.6s-0.1,1.1-0.2,1.4
		c-0.3,1.3-1.1,1.6-2.7,1.6c-1.5,0.1-2.8,0.1-10.1,0h-5.9c-4.9,0-9.2-0.2-11.8-2.3c-1.9-1.5-2.5-3.6-2.5-5.3c0-1.3,0.2-3,2-4.7
		c1.9-1.8,4.8-2.9,11.7-2.9h6.6c7.2,0,8.5,0.1,10.1,0.1c1.7,0.1,2.5,0.4,2.7,1.4c0.1,0.5,0.1,0.7,0.1,1.1s0.1,0.6,0.4,0.6
		s0.4-0.3,0.4-0.8c0-1.4-0.1-3.8-0.1-4.7c0-1.1,0.2-3.5,0.2-5.5c0-0.6-0.1-0.8-0.4-0.8s-0.4,0.2-0.4,0.6c0,0.5-0.1,1.2-0.2,1.5
		c-0.3,1.3-1.1,1.5-2.7,1.6c-1.5,0.1-2.9,0.1-10.1,0L354.1,225.5L354.1,225.5z"/>
	<path class="st1" d="M342.3,258.1c-1.5-0.6-3.2-1.3-3.3-2.4c0-0.6,0.1-0.8,0.1-1.1c0.1-0.4,0.1-0.6-0.2-0.7
		c-0.4-0.1-0.6,0.2-0.7,0.5c-0.3,1.2-0.6,3-0.8,3.7c-0.2,0.7-0.7,2.3-1.1,3.8c-0.1,0.6-0.1,0.9,0.3,1c0.2,0.1,0.4-0.2,0.5-0.5
		c0.1-0.4,0.3-0.9,0.6-1.5c0.3-0.6,0.9-1,1.7-0.7c0.7,0.2,1.3,0.4,2.1,0.6l17.9,6.4v0.1c-3.8,0.4-10.1,1.2-11.2,1.3
		c-1.4,0.1-9.2,1.3-11.5,1.7c-1.5,0.3-2.5,0.4-2.6,0.7s0.3,0.6,2.2,2l19,13.2v0.1l-20.8-2.7c-1.3-0.2-1.9-0.4-1.9-0.7
		c-0.1-0.3-0.2-0.5-0.4-0.5c-0.3-0.1-0.5,0.1-0.8,0.9c-0.5,1.4-1.9,6.5-2.1,7.4c-0.1,0.5-0.1,1,0.3,1.1c0.3,0.1,0.4-0.2,0.5-0.5
		c0.1-0.5,0.3-1.2,1-2.2s2.1-1,5.1-0.7l29.3,3.6c1,0.1,1.5,0,1.6-0.3s-0.2-0.6-0.9-1.1l-23.9-16.5l28.5-3.7c1.3-0.2,1.6-0.4,1.7-0.6
		c0.1-0.3-0.3-0.6-1-0.9L342.3,258.1L342.3,258.1z"/>
	<path class="st1" d="M321.7,337.2c-5.2-4.5-8.8-5.7-11.8-5.6c-4.2,0.1-6.7,2.8-8,4.3c-1.6,1.9-3,4.3-2.5,8.2
		c0.5,4.6,4.5,8.6,8.5,12l3.9,3.3c5.5,4.7,6.5,5.6,7.6,6.6c1.2,1.1,1.6,1.9,1.1,2.8c-0.2,0.4-0.3,0.6-0.6,0.9
		c-0.3,0.3-0.4,0.6-0.1,0.8c0.3,0.2,0.5,0.1,0.8-0.3c1-1.1,2.4-3,2.7-3.4c0,0,1.7-1.8,2.9-3.2c0.3-0.4,0.4-0.7,0.2-0.9
		c-0.3-0.2-0.5-0.1-0.7,0.2c-0.3,0.3-0.7,0.8-1,0.9c-1.1,0.7-1.8,0.5-3.1-0.5c-1.2-0.9-2.2-1.8-7.7-6.5l-4.5-3.9
		c-3.7-3.2-6.9-6-7.5-9.3c-0.5-2.4,0.4-4.4,1.5-5.7c0.8-1,2.1-2.2,4.6-2.3c2.7-0.2,5.6,0.9,10.8,5.3l5.1,4.3
		c5.5,4.7,6.5,5.6,7.6,6.6c1.2,1.1,1.6,1.9,1.1,2.8c-0.2,0.4-0.3,0.6-0.6,0.9c-0.2,0.3-0.3,0.5-0.1,0.7c0.3,0.2,0.5,0.1,0.9-0.4
		c0.9-1,2.3-3,2.9-3.6c0.7-0.9,2.4-2.6,3.7-4.1c0.4-0.4,0.5-0.7,0.2-0.9c-0.3-0.2-0.5-0.1-0.7,0.2c-0.3,0.4-0.8,0.9-1.1,1
		c-1.1,0.7-1.8,0.5-3.1-0.5c-1.2-0.9-2.2-1.8-7.7-6.5L321.7,337.2L321.7,337.2z"/>
	<path class="st1" d="M302.6,373.9L302.6,373.9c-1.2-0.2-8.1-2.4-14.5-4c-6.1-1.5-13.7-3.5-17.4-4.4c-0.6-0.2-1.3-0.3-1.7-0.1
		c-0.3,0.2-0.1,0.6,0.5,1.5l17.8,24.1c1.6,2.1,1.9,3.1,1.3,4.1c-0.3,0.4-0.5,0.6-0.8,0.8c-0.4,0.3-0.5,0.5-0.3,0.8s0.6,0.1,1-0.2
		c1.5-1.1,2.5-2.1,2.9-2.4c0.6-0.5,2.2-1.5,3.8-2.7c0.5-0.3,0.8-0.6,0.5-0.9c-0.2-0.2-0.4-0.2-0.7,0c-0.4,0.3-1.2,0.9-1.8,1
		c-1,0.2-1.8-0.3-3.6-2.6l-13.2-16.8l0.2-0.1c1,0.2,9.2,2.6,13.2,3.6c8.6,2.1,17.9,4.8,18.6,5c1,0.3,1.7,0.6,2,0.3
		c0.3-0.2,0-0.8-0.6-1.6l-16.7-22.6c-2.5-3.3-3.2-4.5-2.6-5.4c0.3-0.5,0.8-0.9,1.2-1.2c0.3-0.2,0.4-0.4,0.3-0.7
		c-0.3-0.3-0.6-0.2-1,0.1c-1.6,1.2-2.9,2.4-3.2,2.6c-0.6,0.4-1.9,1.2-3.8,2.7c-0.4,0.3-0.6,0.6-0.4,0.9c0.2,0.2,0.4,0.2,0.7-0.1
		c0.5-0.4,1.1-0.8,1.8-0.9c0.8-0.2,1.9,0.5,4.2,3.4L302.6,373.9L302.6,373.9z"/>
	<path class="st1" d="M267.4,381.8c-2.2-4.1-3.9-7.4-4.7-9.2c-0.5-1.3-0.7-2.1-0.1-2.6c0.3-0.2,0.6-0.5,1.1-0.8
		c0.4-0.2,0.5-0.4,0.4-0.6c-0.2-0.3-0.5-0.3-0.9-0.1c-1.3,0.7-3.4,2-4.2,2.4c-0.9,0.5-3.1,1.5-5.3,2.7c-0.4,0.2-0.6,0.5-0.4,0.8
		c0.1,0.2,0.3,0.2,0.7,0c0.5-0.3,1.3-0.6,1.8-0.7c1.1-0.4,1.7,0.3,2.4,1.3c1.1,1.7,2.9,5,5,9.1l3.9,7.4c3.4,6.4,4,7.5,4.7,8.9
		c0.7,1.5,0.8,2.4,0,3c-0.4,0.3-0.6,0.5-0.9,0.7s-0.5,0.4-0.3,0.7c0.1,0.3,0.4,0.2,0.9,0c1.3-0.7,3.2-1.9,4-2.3
		c1-0.5,3.1-1.5,4.4-2.2c0.5-0.3,0.8-0.5,0.6-0.8c-0.2-0.3-0.4-0.3-0.8-0.1c-0.4,0.2-0.9,0.4-1.3,0.5c-0.8,0.2-1.6-0.3-2.4-1.7
		c-0.8-1.3-1.4-2.5-4.8-8.8L267.4,381.8L267.4,381.8z"/>
	<path class="st1" d="M238.9,383.2c-1.4-1.9-1.8-2.4-2.3-2.3c-0.5,0.2-0.5,1-0.5,3.9c0,2.5-0.1,8-0.1,15.3
		c-0.1,6.2-0.2,8.9-0.2,13.6c0,3.2-0.3,4.2-0.6,4.7c-0.5,0.8-1.2,1-1.6,1.1c-0.4,0.1-0.5,0.3-0.4,0.6s0.4,0.3,0.9,0.1
		c1.1-0.4,2.7-1.1,3.3-1.3c0.5-0.2,2-0.5,3.8-1.1c0.7-0.2,1-0.4,0.9-0.8c-0.1-0.3-0.4-0.3-0.7-0.2c-0.5,0.2-1,0.3-1.5,0.3
		c-0.4,0-0.6-0.3-0.8-0.7c-0.1-0.4-0.2-1.1-0.2-1.8c-0.1-3.3-0.4-19.3-0.5-24.8h0.1l13.1,18.3c1.1,1.4,1.8,2.6,2,3.2
		c0.1,0.4,0.1,0.8,0,1.1c-0.2,0.4-0.7,0.6-1.3,0.8c-0.3,0.1-0.5,0.3-0.4,0.6s0.5,0.3,1,0.1c1.8-0.6,3.5-1.3,4.4-1.6
		c1.3-0.4,3.4-1,5.3-1.6c0.5-0.2,0.9-0.4,0.8-0.7c-0.1-0.3-0.2-0.4-0.6-0.3c-0.3,0.1-0.9,0.3-1.5,0.3c-1.4,0-2.2-0.3-3.9-2.5
		L238.9,383.2L238.9,383.2z"/>
	<path class="st1" d="M217.7,400c-0.6-4.3-1.1-8-1.2-10c0-1.4,0-2.4,0.7-2.7c0.3-0.1,0.8-0.3,1.3-0.4s0.6-0.2,0.6-0.5
		s-0.3-0.4-0.8-0.4c-1.5,0.2-3.9,0.7-4.7,0.8c-2.2,0.3-4.8,0.4-10.5,1.1c-1.4,0.2-1.8,0.2-1.9,1.5c-0.1,1,0.1,4.2,0.2,5.3
		c0.1,0.5,0.1,0.8,0.4,0.8c0.3,0,0.3-0.2,0.3-0.8c0-2,0.3-3,1.2-3.7s2.5-0.9,3.5-1c3.8-0.5,4.5,0.1,5.1,3.3c0.2,1.4,0.8,5.7,1,7.3
		l0.5,3.7c0,0.3,0,0.5-0.2,0.5c-0.9,0.1-4.6,0.6-5.4,0.6c-1.4,0-2-0.6-2.4-1.5c-0.2-0.6-0.3-1.2-0.4-1.7c0-0.2-0.1-0.4-0.4-0.4
		c-0.3,0-0.3,0.6-0.2,0.9c0,0.3,0.2,2.2,0.3,3.2c0.2,2.4,0.1,3.2,0.2,3.5c0,0.3,0.2,0.4,0.3,0.3c0.2,0,0.3-0.3,0.5-0.7
		c0.3-0.5,0.8-0.7,1.7-1c0.9-0.2,5.2-0.8,6-0.9c0.2,0,0.3,0.2,0.3,0.5l1.6,11.9c0,0.3,0,0.5-0.2,0.5c-0.8,0.1-4.7,0.6-5.4,0.5
		c-1.9,0-2.4-0.5-2.8-1.3c-0.3-0.5-0.4-1.3-0.5-1.7c-0.1-0.4-0.2-0.6-0.4-0.6c-0.3,0-0.3,0.3-0.3,0.6c0,0.6,0.2,2.7,0.2,3.1
		c0.2,2.2,0.1,2.8,0.1,3.1c0,0.2,0.1,0.4,0.3,0.4s0.4-0.2,0.6-0.3c0.3-0.1,0.9-0.3,1.6-0.5c0.7-0.1,8.2-1.2,9.4-1.3
		c1.1-0.1,3.4-0.3,5.4-0.6c0.6-0.1,0.8-0.2,0.8-0.5s-0.3-0.4-0.7-0.3c-0.5,0.1-1.2,0.1-1.5,0.1c-1.3-0.2-1.7-0.9-2-2.5
		c-0.3-1.5-0.5-2.8-1.4-10L217.7,400L217.7,400z"/>
	<path class="st1" d="M194.3,402.6c0.2-4.4,0.4-8.1,0.6-10.1c0.2-1.4,0.5-2.4,1.2-2.6c0.3-0.1,0.8-0.2,1.4-0.1
		c0.5,0,0.6-0.1,0.6-0.4s-0.2-0.5-0.7-0.5c-1.5-0.1-3.9,0-4.6-0.1c-0.6,0-3.4-0.3-5.6-0.4c-0.5,0-0.8,0.1-0.8,0.4
		c0,0.2,0.1,0.4,0.4,0.4c0.5,0,1.3,0.2,1.9,0.3c1.1,0.2,1.3,1.3,1.4,2.7c0.1,2-0.1,5.7-0.3,10.2v0.7c0,0.3-0.1,0.4-0.3,0.4l-3.3-0.2
		c-0.3,0-0.5-0.1-0.7-0.4c-0.5-0.7-2.1-4-3.5-6.7c-2-3.7-3.3-6-4.9-7.2c-1-0.7-1.9-1-4-1.1l-3.6-0.2c-0.5,0-0.7,0.1-0.7,0.4
		c0,0.2,0.1,0.4,0.4,0.4c0.3,0,0.6,0.1,1.1,0.2c0.6,0.2,2.1,0.6,4.1,3.4c2.1,3,4.5,7.4,7.7,12.9c-4,3.7-5.3,6.9-5.5,10.4
		c-0.1,3.2,1.3,5.7,2.3,6.6c2,1.8,4.5,2.2,6.9,2.4c1.2,0.1,4.1,0,5.4,0.1c0.8,0,3.2,0.3,5.2,0.4c0.6,0,0.8-0.1,0.9-0.4
		c0-0.3-0.2-0.4-0.6-0.5c-0.5,0-1.2-0.1-1.5-0.2c-1.2-0.4-1.5-1.2-1.5-2.8c0-1.5,0.1-2.9,0.4-10.1L194.3,402.6L194.3,402.6z
		 M188.9,421.4c0,0.4-0.1,0.6-0.4,0.6c-0.4,0.1-1.1,0.1-2,0.1c-2.2-0.1-5.7-2.2-5.4-8.9c0.2-3.9,1.4-6,2.6-7
		c0.7-0.6,1.2-0.8,2.7-0.7c0.9,0,2.1,0.2,2.9,0.6c0.3,0.2,0.3,0.3,0.3,0.9L188.9,421.4L188.9,421.4z"/>
	<path class="st1" d="M160.9,386.1c-2-0.5-4.1-0.5-6.3,0.5c-3.2,1.6-4.7,4.6-5.3,7.3c-1,4.4-0.1,7.9,3.4,13.2l0.8,1.2
		c2.4,3.6,2.9,5.4,2.4,7.6c-0.6,2.8-2.8,4.4-5.5,3.8c-2.4-0.6-3.2-2.2-3.5-3.2c-0.5-1.4-0.4-2.9-0.3-3.3c0.1-0.6,0.1-0.9-0.2-0.9
		c-0.3-0.1-0.5,0.3-0.7,1.3c-0.8,3.6-1.3,4.9-1.4,5.5c-0.1,0.3,0.1,0.5,0.4,0.7c0.9,0.5,2.3,1.4,4.7,1.9c5.1,1.2,9.4-1.7,10.6-6.8
		c0.9-3.7,0.2-7.3-3-12.2l-1.3-2.1c-2.4-3.7-2.4-6-1.9-8.2c0.6-2.5,2.8-4.9,6.2-4.1c2.3,0.5,4.2,2.3,4.2,5.9c0,0.8-0.1,1.8-0.2,2.4
		c-0.1,0.4-0.1,0.8,0.2,0.9s0.5-0.4,0.7-1.1s1-3.5,1.6-6c0.2-1,0.2-1.3-0.3-1.7C164.6,387.3,163,386.6,160.9,386.1L160.9,386.1z"/>
	<path class="st1" d="M138.2,393.9c1.6-4.3,2.9-7.8,3.8-9.6c0.6-1.3,1.1-1.9,1.9-1.8c0.4,0,0.8,0.1,1.3,0.3c0.4,0.2,0.6,0.1,0.7-0.1
		c0.1-0.3-0.1-0.5-0.5-0.7c-1.4-0.5-3.7-1.2-4.5-1.5c-1-0.4-3.2-1.3-5.5-2.2c-0.4-0.1-0.7-0.1-0.8,0.2c-0.1,0.2,0,0.4,0.4,0.6
		c0.5,0.2,1.3,0.6,1.8,0.8c1,0.6,1,1.5,0.6,2.7c-0.6,2-1.9,5.5-3.5,9.8l-2.9,7.8c-2.5,6.8-3,8-3.6,9.4c-0.6,1.5-1.2,2.2-2.3,2.1
		c-0.5-0.1-0.8-0.1-1.1-0.3c-0.4-0.1-0.6-0.1-0.7,0.2c-0.1,0.3,0.2,0.5,0.6,0.6c1.4,0.5,3.5,1.1,4.4,1.5c1,0.4,3.2,1.3,4.6,1.8
		c0.6,0.2,0.9,0.2,1,0c0.1-0.4,0-0.5-0.4-0.7c-0.4-0.2-0.9-0.4-1.2-0.7c-0.7-0.5-0.8-1.4-0.3-2.9s0.9-2.7,3.4-9.5L138.2,393.9
		L138.2,393.9z"/>
	<path class="st1" d="M116.8,384.8c2-3.9,3.7-7.2,4.8-8.9c0.7-1.2,1.4-2,2.2-1.8c0.3,0.1,0.8,0.2,1.3,0.5c0.4,0.2,0.6,0.2,0.7-0.1
		c0.2-0.3,0-0.5-0.5-0.8c-1.3-0.7-3.5-1.7-4.3-2.1c-0.9-0.5-3-1.7-5.2-2.9c-0.4-0.2-0.7-0.2-0.9,0.1c-0.1,0.2,0,0.4,0.4,0.6
		c0.5,0.3,1.2,0.7,1.6,1.1c0.9,0.7,0.6,1.7,0.1,3c-0.8,1.9-2.5,5.2-4.5,9.1l-8.9,17.3l-4.2-2.3c-3-1.6-3.3-3.3-2.8-4.4l0.2-0.5
		c0.3-0.6,0.3-0.9,0.1-1c-0.2-0.1-0.4,0.1-0.7,0.5c-0.6,1.1-2.2,4-2.6,4.8c-0.3,0.6-0.4,0.9-0.2,1c0.3,0.1,1.3,0.1,3.5,1.3l13.4,6.9
		c1.1,0.6,2.4,1.3,3.3,2c0.8,0.5,0.9,1.1,1.2,1.3c0.2,0.1,0.4-0.1,0.8-0.6c0.2-0.3,2.9-3.8,3.2-4.5c0.2-0.5,0.3-0.7,0-0.8
		c-0.2-0.1-0.4,0-0.6,0.3s-0.7,0.7-1.3,1.2c-1,0.7-1.9,0.5-3.9-0.5l-5.1-2.4L116.8,384.8L116.8,384.8z"/>
	<path class="st1" d="M89,365c-0.1-0.1-0.2-0.3-0.1-0.5l3.9-9.8c0.2-0.6,0.7-0.7,0.9-0.6c0.3,0.2,0.5,0.2,0.7,0
		c0.2-0.3-0.1-0.5-0.7-1c-2.3-2-4.5-3.7-5.6-4.5c-1.1-0.9-1.4-1-1.7-0.7c-0.2,0.3-0.1,0.4,0.1,0.6c0.4,0.3,0.8,0.7,1.1,1.1
		c0.5,0.7,0.9,1.9-0.6,6.1c-2.6,7.2-9.9,26.1-10.8,28.7c-0.4,1.1-0.5,1.6-0.2,1.8c0.3,0.2,0.8,0,2-0.8l26-17.4
		c2.1-1.4,3.6-2.2,5.2-1.3c0.3,0.2,0.7,0.4,1,0.7c0.2,0.2,0.4,0.2,0.6,0c0.2-0.3,0.1-0.5-0.3-0.8c-1.5-1.2-3.3-2.4-3.6-2.7
		c-0.9-0.7-2.1-1.9-3.1-2.6c-0.3-0.3-0.6-0.3-0.8,0c-0.2,0.2-0.1,0.4,0.2,0.7l0.4,0.4c0.9,0.7,0.8,1.4,0.3,2.1
		c-0.4,0.4-1.2,1.2-2.2,1.9l-5.8,4c-0.2,0.2-0.4,0.2-0.5,0.1L89,365L89,365z M93.5,371.7c0.1,0.1,0.1,0.2-0.1,0.4l-10,7
		c-0.1,0.1-0.4,0.3-0.4,0.2c-0.1-0.1,0-0.3,0.1-0.5l4.6-11.3c0.1-0.1,0.2-0.2,0.3-0.1L93.5,371.7L93.5,371.7z"/>
	<path class="st1" d="M81.6,341.6c-1.3-1.5-3.1-2.8-5.5-3.2c-3.5-0.5-6.5,1-8.5,2.9c-3.4,3-4.6,6.4-4.9,12.7v1.5
		c-0.1,4.3-0.8,6.1-2.4,7.6c-2.1,1.9-4.8,2-6.7-0.1c-1.6-1.8-1.3-3.6-1-4.6c0.4-1.4,1.4-2.5,1.7-2.8c0.4-0.4,0.6-0.7,0.4-0.9
		c-0.2-0.2-0.6-0.1-1.3,0.6c-2.8,2.5-3.9,3.3-4.3,3.7c-0.2,0.2-0.2,0.5-0.1,0.8c0.4,1,1.1,2.5,2.8,4.3c3.5,3.9,8.7,4,12.5,0.5
		c2.9-2.6,4.4-5.9,4.6-11.7l0.1-2.4c0.2-4.4,1.4-6.3,3.2-7.8c1.9-1.7,5.1-2.4,7.4,0.2c1.6,1.8,2.1,4.3,0.1,7.2
		c-0.5,0.7-1.1,1.5-1.6,1.9c-0.3,0.3-0.6,0.6-0.3,0.8c0.2,0.2,0.7,0,1.2-0.5c0.6-0.5,2.8-2.3,4.8-4c0.8-0.7,0.9-0.9,0.7-1.6
		C83.9,344.7,83.1,343.2,81.6,341.6L81.6,341.6z"/>
	<path class="st1" d="M184.6,67.8c0,0.5-0.5,0.8-0.4,1.2c0.5-0.1,3.9,0,4.4,0c0.3,0-0.1-0.5-0.1-0.8c0-0.2-2.5-0.5-3.5-0.5
		C184.9,67.7,184.6,67.8,184.6,67.8L184.6,67.8z"/>
	<path class="st3" d="M184.6,67.8c0,0.5-0.5,0.8-0.4,1.2c0.5-0.1,3.9,0,4.4,0c0.3,0-0.1-0.5-0.1-0.8c0-0.2-2.5-0.5-3.5-0.5
		C184.9,67.7,184.6,67.8,184.6,67.8L184.6,67.8z"/>
	<path class="st2" d="M122.6,111.3c-43.5,23.9-73,70.5-73,124c0,77.9,62.5,141.1,139.6,141.1s139.6-63.2,139.6-141.1
		c0-71.4-52.5-130.5-120.6-139.8"/>
	<path class="st4" d="M227.2,28"/>
	<path d="M307.4,258.5c-6.7-8.4-10.7-17.7-13.9-27.9c-2.1-6.6-3.8-12.8-4-19.6c-0.1-4.1-0.7-8.9-3-12c-3.2-4.4-4.6-8.8-4.8-14
		c-0.1-2.9-0.7-5.8-1.5-8.6c-4.9-17.9-14.9-33.2-24.7-48.6c-0.6-0.9-1.5-1.8-2.5-2.3c-10-4.8-20-9.4-30-14.1
		c-2.7-1.2-5.5-2.2-8.1-3.4c-3.5-1.7-6.1-4.5-5-8.5c1.8-7.1,3.7-14.3,5.9-21.4c1.5-4.7,3.5-9.2,0.9-14.1c-2.1-4.1-1.8-8.2,0.2-12.2
		c2.1-4.2,4.4-8.3,6.4-12.6c2.8-6.1,1.9-6.1-3-9.4c-2.8-1.9-7.2-4.3-10.4-5.5c-31.5-11.5-50.5,0.6-56.6,3.8c0.5,2.2,0.9,4.6,1.4,7
		c0.8,3.7,5.4,15,5,17.3c-3.5,21.4-2.4,21.4-0.2,38.5c0.4,4.4,0.6,12.6,0.6,12.6c-4.5,2.9-16.7,10.9-16.7,10.9
		c-1.4-3.1-4.9-4.6-6.8-5.5c-1.7-0.8-2.5-0.8-4.1-1.9c-2.8-1.9-3.9-2.5-7.7-5c-1.1,9.9-10.5,17.8-3.5,26.9
		c-6.6,4.8-12.6,10.8-17.1,17.5c-4,5.9-6.9,12.6-9.6,19.2C86,186.2,81.2,207.7,83,230c0.8,9.5,1,18.3-3.5,26.9
		c-4.6,8.8-2.9,16.5,4.7,23.2c2.2,2,4.4,5.2,4.7,8.1c1.8,15.2,2.8,30.5,4.8,45.7c0.5,3.9-0.4,3.3,4.3,8.7c0.2,0,2.5,1.5-0.6-1.5
		c-2.5-2.4-1-7.4-1.3-10.2c-1.1-10.7-2-21.4-3-32.1c-0.3-3.1-0.7-6.2-1.1-9.6c1,0.4,1.5,0.5,1.6,0.7c0.9,3.3,1.7,6.6,2.6,9.9
		c4.5,18.4,9.4,36.6,18.4,53.4c1.2,2.3,6,5.6,8.1,5.9c6.7,1,10.9,0.9,17.7,0.9c4.5,0,7.4-2.6,8.7-7.1c0.7-2.4,1-13.6,2.3-15.8
		c0.8,0.2,2.8,11.5,3.5,11.8c-1.1,8.9-2,13.5-3.2,22.5c0.2,0.1,1.3,0.4,1.5,0.5c1.5-3.6,1.8-9.4,3.3-13c0.4,0.1,1.8,2.1,1.6,4.7
		c0,3.9,0,4.9,0,9.4c1.2-0.8,1.2-6.6,1.7-6.9c0.6,1.6,3.2,7.3,4.7,8.4c-7.1-16.5-8.8-30.1-13.5-46.9c8.7-1.1,15.9-4.7,21.2-11.4
		c3.4-4.3,6.3-9.1,9.4-13.7c2.4-3.5,4.9-7,7.3-10.5c2.4,4.2,4.4,7.8,6.8,12.1c-6.7,24.1-12.4,47.7-20.5,72.1c0.2,0.1,1.5-0.1,1.6,0
		c1.3-2,5.3-14.7,7-17.2c0.8,2-1.4,15.3-4.1,17.4c1.9,0,3.8,0.1,5.2,0.1c0.6-10.4,1-18.8,1.6-28.9c0.6,0,2.3-7.3,2.9-7.3
		c0,10.2-1.5,26.2-1.5,36.4c0.5,0.2,3.5,0.2,3.6-0.8c0.3-2.4,0.2-4.9,0.3-7.3c0.8-12.9-1-26.9-0.2-39.8c0.7,0,3.1-10.8,3.8-10.8
		c0,15.8,1,42.9,1,58.6c0.6,0.1,1.5-0.4,2.1-0.3c0.3-1.3,0.5-1.4,0.8-2.8c0.4-2.2,0.5-4.5,0.9-6.7c0.9-4.9-0.1-12.1,0-17
		c0.1-9.6-2-20.5-2.3-30.1l0.3-10.7c0.6,0.1,6.6-5.9,6.4,5c0.8,20.7,1.7,40.5,2.5,61.2c0.6,0.1,1.7-0.3,2.3-0.2
		c0.3-1.9,0.4-2.6,0.4-4.5c-0.3-19.9-0.7-39.8-1.1-59.7c-0.1-4.5,1.1-5.4,5.5-4.6c3.6,0.6,7.3,1.1,11.7,1.7
		c0,21.1-0.1,41.8-0.1,63.5c0.6,0,1.3,0,2,0c0-17.8,0-34.7,0-52.5c0.5,0,0.9-0.1,1.4-0.1c5.5,15.4,6.3,31.6,7.9,47.9
		c2-0.7,0.5-0.2,2.6-0.9c0-4.4,2.9-17.3,3.5-21.1c0.1,0,0,7.1,0.1,7.1c0.5,4,0.9,8,1.4,11.9c0.6,0.1,1.2,0.2,1.7,0.3
		c0.4-1.3,1.3-2.6,1.1-3.9c-0.7-6.8-1.8-13.5-2.5-20.3c-0.3-2.8-0.4-10.2-0.4-13c2.5,2.8,5.4,10.3,6,13.5c1.3,6.7,1.5,12.4,2.3,20.4
		c0.8-2.2,1.8-2.4,2-4c0.6-6,0.9-12,1.3-18c1.5-20.9,2.9-41.8,4.4-62.7c0.1-1.3,0.1-2.6-0.1-3.9c-0.6-4.6-2.7-8.3-7.5-9.1
		c-6.1-0.9-12.4-1.1-18.3-1.6c-0.2,0.3,0.1-0.4,0.6-1c8.9-9.6,24-8.1,30.6,3c1.7,2.9,3.5,6,4.3,9.3c3.1,11.8,6.4,23.6,8.6,35.5
		c2.4,12.6,2.7,21.7,3.7,30.2c0.8-0.7,1.8-1.4,2.1-2.1c2-4.6,4.3-7.4,5.8-12.2c1.3-4.3,2.8-8.8,2.6-13.2c-0.2-3.9,0.4-6.9,2.7-9.9
		c1.6-2.1,3-4.3,4.4-6.5c2.8-4.4,4.8-9.1,3.3-14.3c-0.8-2.7-0.2-4.4,1.4-6.5C308.4,269.1,311.5,263.5,307.4,258.5L307.4,258.5z
		 M264.1,254.9c1.2,0.4,2.5,0.8,3.9,1.2c1.4,0.4,2.8,0.9,4.2,1.3c4,1,5.4-0.9,5-4.7c-0.5-4.7-4.1-8-9.8-8.6
		c-3.1-0.3-15.6-0.7-18.7-0.7c6.2-5.7,19.4-10.5,46.1,9.2c-1.6,0-5-0.8-6.9-0.8c3.4,5,2.5,6.2,5.4,10.8c1.8,2.9,3.4,5.9,4.8,9.1
		c5.2,11.8,3.6,20-5.8,29.7c-3.9-6.9-4.7-14-0.7-21.3c1.1-2.1,1.7-4.6,2-7c0.7-5.1-1.5-8.4-7.1-10.3c-2.8,7.6-2.3,15.3-1.1,23
		c1.4,9.3,3.4,18.6,4.5,27.9c0.7,5.9-0.8,11.6-5.5,16.5C280.7,304,280.3,277.6,264.1,254.9L264.1,254.9z M287.2,271.9
		c0.5,0,1.1,0,1.6,0c2.9,3.6,0.1,6.9-1.6,10.3C287.2,278.8,287.2,275.4,287.2,271.9L287.2,271.9z M249.7,236.2c0.5,0.5,1,1,1.4,1.4
		l0,0c0.1,0,0.1,0,0.2,0c1.1-0.6,2.4-1,3.1-1.9c5.3-7,12.3-4.2,18.8-3.9c0.1,0.5,0.2,1,0.3,1.6c-7.4,1.4-14.8,2.8-22.2,4.3
		c0,0-0.1,0.1-0.2,0.1l0,0c-2.1,1.6-4.1,3.3-6.8,5.5c1.9-9.7,16.9-22.2,24.1-20.1c-3.7,2.2-7.1,4-10.2,6.2
		C255.3,231.4,252.6,233.9,249.7,236.2L249.7,236.2z M238,254.2c5.9-13.5,42.8-8.9,33.9,0.5c-4.8-2.1-8.7-3.8-13.3-4.1
		C254.1,250.4,243.6,252.4,238,254.2L238,254.2z M230.4,262.7c-1.4,2.9-2.9,3.1-5.7,2.5c-8.1-1.7-15.9-1-22.9,3.8
		c-1.4,1-2.6,2.3-4,3.5c3.7,5.6,9.7,0.6,14.3,4.1c-1.4,3.2-2.5,6.7-4.3,9.8c-0.7,1.2-3.5,2.2-4.7,1.7c-10.5-4.7-20.8-9.7-31.5-14.8
		c13.2-24.6,25.7-48,39-72.6c13,6.3,26.4,12.8,40.5,19.6c-3.1,6.6-5.8,12.8-8.8,18.8C238.4,247.1,234.1,254.8,230.4,262.7
		L230.4,262.7z M233.8,183.8c0-8.9,0.3-10.4,0.3-19.4c0.5,0,2.3-6,2.8-6c1.7,7.5,1.9,19.4-2,43.7
		C234.2,202.2,234.3,183.8,233.8,183.8L233.8,183.8z M207.7,144.4c0-4.9,0-9.9,0-15.7c5.6,4,6.5,35.3,2.1,47.1
		c-0.8-5.4-1.3-9.8-2-14.1c-0.7-4.2-1.6-8.5-3-12.6c-4.6,5.9-5.1,12.7-5.9,19.4c-1.8,14.7-0.4,26.2,2.9,36.6
		c-0.2,1.6-10.2,19.4-11,22.2c0.1-3.3-3.1-2.1-2.9-5.9c0.8-14.3,4.7-36.4,5-47.7c0.2-8,1.3-15.5,1.1-23.5c0-2.9-0.5-5.9-1.3-8.6
		c-0.3-1.2-2-2-3-2.9c-0.8,1.4-2.1,2.7-2.3,4.1c-0.7,7.2-1,14.4-1.5,21.6c-0.6,6.8-2,28.6-3.9,34.4c-1.4-12.9,2-56.8,5.7-68.9
		c5.5,0,10.4,0,15.7,0c0.9,4.8,1.9,9.6,2.8,14.5C206.7,144.4,207.2,144.4,207.7,144.4L207.7,144.4z M202.8,97.5
		c4.6,6.1-2.4,9.7-3.2,14.6c-0.4-0.2-0.8-0.4-1.1-0.6c-2.3,2-4.9,3.7-6.7,6.1c-1.8,2.5-3.2,4.5-6.9,4.3c-2.3-0.1-4.6,1.2-7.9,2.2
		c-1.1-4.7-2.3-9.5-3.4-14.3c-0.3-0.1-0.5-0.2-0.8-0.4c-0.4,2.1-0.9,4.2-1.1,6.3c-0.2,2.3-0.2,4.5-0.3,6.8c-0.6,0.1-1.2,0.2-1.8,0.3
		c-0.9-2.4-1.9-4.9-2.7-7.3c-0.6-2-0.5-4.5-1.6-6.1c-4.2-6.1,0.7-10.9,1.2-16.2c0.8-0.6,1.6-1.1,2.4-1.7c0,0,4.9-1.5,10.2,0.3
		c2,3.7,4.2,6.1,5.7,9.6s2.6,7.2,3.9,11c0.7-0.5,1.1-0.7,1.1-0.9c0.5-4.1-5.4-18.3-8.3-20.9c-2.7-2.4-5.1-2.4-7.8-2.1
		c-1.1,0.1-1.1-0.4-3.3,0c-0.9,0.2-4.4,0.8-5,2.2c-1.3,2.9-2,6-4,8.7c0.3-1.9,0.3-3.9,1.1-5.6c1.4-3.1,2.7-7.9,5-8.5
		c6.2-1.6,13.3-3.2,17.5,4.6c2.5,4.6,5.3,9,7.7,13c3.3-7.7,7.1-16.6,11.4-26.7c2.3,6.8,1.5,16.6-1,20.5
		C203.1,97,202.8,97.4,202.8,97.5L202.8,97.5z M214.1,49.5c-0.4,3.4-1.4,5.3-5.3,4.5c-14.9-3-30.3-4.1-45.6-3.3c-0.1,0-0.1,0-0.1,0
		c0-0.1,0.1-0.4,0-0.9c-0.2-1.7-0.8-2.7-1-4.4C171.3,42,201.8,44.6,214.1,49.5L214.1,49.5z M210.7,43.7c-0.5-0.2-1.1-0.5-1.6-0.7
		c1.4-3.2,2.8-6.4,4.2-9.5C216.3,38.4,215.1,41.6,210.7,43.7L210.7,43.7z M206,34.2c0.5,0,0.9,0.1,1.4,0.1c-0.1,2.9-0.3,5.9-0.4,9.3
		c-1.8-0.2-3.4-0.3-5.6-0.5C203.1,39.8,204.5,37,206,34.2L206,34.2z M197.8,42.4c-3.9-5-3.6-7.2,1.4-12.4
		C203.3,34.7,201,38.6,197.8,42.4L197.8,42.4z M186.8,41.1c1.2-3.9,2.3-7.4,3.4-10.9c0.3,0,0.6,0,0.9,0.1c0.4,3.5,0.8,7,1.3,10.8
		C190.6,41.1,188.9,41.1,186.8,41.1L186.8,41.1z M181.5,41.2c-4.4-3.5-4-6.4,1.9-13.4C187.3,33.2,186.6,37.2,181.5,41.2L181.5,41.2z
		 M171,41.3c0.5-3.3,1-6.4,1.4-9.4c0.4-0.1,0.8-0.1,1.2-0.2c1.2,3.1,2.3,6.1,3.6,9.6C174.8,41.3,173.1,41.3,171,41.3L171,41.3z
		 M165.1,29.9c2.9,3.4,6.1,6.5,2.1,11.4C162.7,39.4,162.4,37.7,165.1,29.9L165.1,29.9z M161.4,68.9c1.3-0.3,5.4-1.4,5.8,0
		c0.4,1.3-0.1,2.4-1.1,2.4c-1.1,0-2.8,0-4,0C162.1,71,161.3,69.2,161.4,68.9L161.4,68.9z M161.8,87.3c-0.4-2.7,0-6.7-0.4-9.3
		l-0.5-3.5C173,70.9,165.7,83.5,161.8,87.3L161.8,87.3z M161.8,62.9c0.5-0.3,5.1,0.6,5.8,1.4C166.5,65.3,160.9,63.4,161.8,62.9
		L161.8,62.9z M161.8,61c0.4-2.1,0.7-4.3,1.3-7.5c12.2-0.4,22.9-0.4,36.6,1.9c1.2,0.1,2.9,2.7,3.1,4.3c1.6,13.5-3.8,25.1-10.1,35.8
		c-5-5.9-10-11.9-15-17.8c-0.3,0.1-0.6,0.3-0.9,0.4c0.2,0.9,0.4,1.8,0.7,3c-2.6,0.4-5.1,0.9-7.7,1.3c0.4-4.6,1.1-9.1,1.1-13.5
		C170.7,63.6,169.1,62.3,161.8,61L161.8,61z M212.5,66c-1.3,3-3.2,7-7,7.9c0-2.7,0.9-9.1,0.9-17.1c2.3,0.7,3.9,0.8,6.8,1.7
		C213.2,59.8,214.1,62.3,212.5,66L212.5,66z M178.3,160.5c0.3-2.4,0.7-4.7,1-7.1c0.3-2.4,0.3-4.9,0.7-7.3c0.4-2.5,1.2-4.9,2.6-7.2
		c-0.9,22.1-5,44-1.2,66.1c0.5,0.1,1,0.2,1.5,0.3c0.8-3.5,1.9-6.9,2.3-10.4c1.2-11.8,2-23.7,3-35.5c0.2-1.9,1.7-11.5,2.7-13.2
		c1.2,26.2-2.5,59.8-7.8,85.4c-3-23.5-8.2-41.7-11.6-62.7c-1.6-10.1-4.5-19.9-4.9-30.1c-7.2,4.7-1.8,22-3.7,27.1
		c-1.7-4-8.9-13.4-6.1-23.3c2-7,3.4-15.5,7-21c5.8,2.4,5.7,6.8,5.7,14.7c0,1.9,0.5,3.9,0.7,5.8c0.4,0,0.8-0.1,1.2-0.1
		c0.3-3.6,0.1-8.5,0.4-12.5c3.2,0,6.8-1.1,9.7-1.1C179.1,138.1,173.5,149.9,178.3,160.5L178.3,160.5z M125.7,257.4
		c-17.3-23.4-17.3-28-7.3-38.9c1.3,3.6,0.7,16.7,1.3,19.2c1.5,7.2,7.9,15.2,15,16.2c4.2,0.6,8.4,0.5,12.6,1.5
		c1.5,0.4,4.6-1.9,14.2-2c6.5-1.4,3.4,1,9.8-0.4c-12,9.7-25.8,13.4-40.8,13.7c-1.2,0-2.7-1-3.6-2c-2.2-2.5-4.2-5.3-6.8-8.7
		C122.2,256.5,123.5,256.8,125.7,257.4L125.7,257.4z M153.7,207.9c1.7-2.9,6.8-1.5,8.4,3.7c3.4,11.1,9.4,33.4,7.5,39
		C162.3,237.5,158.5,221.8,153.7,207.9L153.7,207.9z M154.1,217.8c2.5,7.6,4.9,15.2,7.7,23.8c-6.4,0.8-11.6,1.4-16.9,2.1
		C140.6,232.3,151,226.6,154.1,217.8L154.1,217.8z M121.8,232.1c-0.2-7.5,0.7-15.4,2.9-22.5c4-13,9.5-25.5,14.7-39.1
		c1.4,3.8,2.5,7,3.8,10.7c-6.1,3.8-7.8,7.5-7.6,13.3c0.2,8.2-1.8,15.7-4.7,23.3c-1.4,3.8-2.3,7.8-3,11.8
		c-1.5,8.2,6.4,17.9,14.7,16.6c5.1-0.8,10.3-0.9,15.5-1.2c1.7-0.1,3.5,0.3,5.2,0.5c0,0.6,0,1.3,0,1.9c-7.6,3.9-15.7,4.4-24,3.4
		C127.2,249.2,122.2,244.4,121.8,232.1L121.8,232.1z M151.8,179.5c1.2-0.5,3.8,1.1,5.2,2c-6.2-1-10.1,4.3-15,5.8
		c0.2,0.7,0.2,0.7,0.5,1.3c3.3-1.3,6.6-2.6,11-4.3c3.3,0.9,2.5-0.4,4.4,3.4c-1.5,0.5-5.4,0.8-8.5,1.9c-2.5,0.9-4.9,2.9-6.3,3.4
		c0,0.5,0.1,0.9,0.1,1.4c2-0.1,4.4-0.6,5.7-1.6c4.6-1.8,7.2-1.9,9.6,1.1c0.9,1.2,1.1,4.7,1.8,6.4c-3.6-5.4-8.1-4.6-12.8-2.4
		c-0.9,0.4-1.6,1.4-2.3,2.1c0.9,0.8,3.2-0.3,4.3-0.5c4-0.5,3.8,0.2,4.8,0c3.2-0.5,5,4.3,6.2,5.6c-1.5,0.4-4.5-2.2-7.9-0.9
		c-2,0.7-4.1,6.5-3.4,7.6c2.9,5,0.1,8.3-2.4,11.9c-2.6,3.9-7.5,9.6-8.5,18.4c-6.7-1.9-9.5-9.7-4.8-21.4c1.9-6.6,4.1-9.4,4.3-15
		c0.1-1.6-0.3-3.2-0.3-4.9C137.3,188.3,139.9,184.2,151.8,179.5L151.8,179.5z M153.5,162.5c0.5-3.3,0.1-4.3,1.9-7.7
		c2.4,9.1,2.6,6.5,8.5,17c0.9-0.1,1.9-2.3,1.8-4.5c-0.7-10.8-0.6-9.4-1.2-20.3c6.3,29.5,9,59.3,9.9,89.4c-0.4,0.2-0.8,0.4-1.3,0.6
		c-1-1.6-2.4-3-2.9-4.7c-2-7.8-3.9-15.6-5.5-23.5c-1.1-5.2-1.7-10.5-2.7-15.7c-0.7-3.9-1.5-7.8-2.4-11.6c-0.3-1.2-1-2.7-2-3.3
		C151.1,174.1,152.6,168.2,153.5,162.5L153.5,162.5z M172.3,241.1c4.1-1.3,7.7-5.3,10.4-6.2c0.1,0.2,2.6-4.9,4.8-6.1
		c2.3-1.3,2.9-0.1,3.1,0.1c-1.3,0.9-7.1,15.4-11.6,22c-1.3,1.9-3.1,6.2-4.2,6.4c-1.6,0.3-1.5-2.3-2-2
		C172.2,255.5,174,242.4,172.3,241.1L172.3,241.1z M175.5,200.3c0.5,5.1,4.9,28.2,5.4,33.3c-0.6,0.1-3.4,2.4-4.1,2.4
		c-0.4-5.1-0.7-7.4-1-12.5C176.3,223.4,175,200.3,175.5,200.3L175.5,200.3z M215.2,141c9,9.2,7,48.4,4.6,60.6
		c-2.9-1.3-5.5-3.1-8.4-3.7c-2.8-0.5-4.9,0.4-8.4,5c-3.3-13.8-1.4-35,0.8-47.4c0.5,0,1.5,5.8,2,5.8c0.7,10.6,1.8,21.2,2.5,31.8
		c0.5,0.2,0.9,0.4,1.4,0.5c0.9-2.4,2.2-4.8,2.5-7.3C213.5,174.4,214,153.2,215.2,141L215.2,141z M250,265.9
		c5.5,2.6,7.6,7.7,7.5,13.1c-0.3,11-1.4,22-2.3,33c-0.2,2.6-0.5,5.2-1.2,7.8C249.8,302.2,257,283.6,250,265.9L250,265.9z
		 M244.5,265.1c5.4,4,6.1,10.4,6.1,16.7c0,11.2-0.6,22.5-0.6,33.7c0,5.8,0.6,11.6,0.3,17.8c-1.1-4.3-3-8.6-3.3-13
		c-0.6-11.2-0.5-22.4-0.6-33.7c0-3.7,0.7-7.5,0.4-11.2C246.6,271.9,245.3,268.5,244.5,265.1L244.5,265.1z M240.8,290.6
		c5,19.7-0.5,48.1-1.3,68c-1.1-8.3-1.9-16.7-3.4-24.9c-1.4-7.3-2.9-14.7-5.7-21.6C228,306.6,235.8,294.4,240.8,290.6L240.8,290.6z
		 M193.5,292.3c2.1,1.5,3.4,2.4,4,2.8c11.2-2.5,15.4-10.6,18-20.6c-1.3-0.2-2.7-0.4-4-0.6c-0.1-1.6-0.1-3-0.2-4.4
		c-2.8,1.5-5.4,2.9-8,4.3c3.9-8.6,12.5-8.8,35.1-1.6c-0.8-2-1.5-3.4-2.1-4.9c5-1.1,7.1,0.4,7.4,4.9c0.4,6-0.1,11.3-5,15.9
		c-3.5,3.3-5.9,7.8-8.9,11.6c-1.1,1.4-2.1,2.5-4.7,1.3c-1.9-0.8-4.9,0.8-7.5,1.3c-2.7,0.5-5.4,0.9-8.2,1.4c-0.1-0.6-0.2-1.2-0.4-1.8
		c3.8-0.8,7.5-1.6,11.3-2.4c-0.1-0.4-0.1-0.7-0.2-1.1c-3,0.5-6.1,0.8-9,1.5c-3,0.7-5.9,1.6-9,1.8c3.1-4.4,7.7-5.1,12.4-5.7
		c3.6-0.5,4.4-2,2.5-6.8c-0.4,5.3-3.7,5.3-7.1,5.6c-2.3,0.2-4.5,1.7-6.9,2.3c-2.8,0.8-5.8,1.3-8.9,1.9
		C194,296.6,193.8,295,193.5,292.3L193.5,292.3z M167.5,276.6c0.2-0.6,0.4-1.2,0.6-1.7c10.6,5.1,21.3,10.3,32,15.5
		C196.6,292.3,179.3,285,167.5,276.6L167.5,276.6z M154.2,323c3.6-7.3,6.6-14.3,10.5-20.8c0.9-1.5,4.9-1.2,7.5-1.7
		c0.4,2.3,1.8,4.9,1.2,6.8c-1.4,4-3.9,7.6-5.9,11.4c-0.6-0.4-1.3-0.8-1.9-1.1c1.5-2.4,3-4.8,5-8c-4.5,0.1-7.5,0.1-8.8,4.9
		C160.9,317.8,162.5,323.9,154.2,323L154.2,323z M147.4,324.5c0.3,1.9,0.6,3.7,0.7,4.2c-4,4.1-7.2,7.6-10.5,11c1,0.9,2,1.9,2.9,2.8
		c1.6-3.2,3.2-6.3,4.8-9.5c0.5,0.5,1.1,1.1,1.6,1.6c1.5,9.1-6.1,19.3-15,19.4c-1.9,0-5.1-2.7-5.5-4.7c-1.2-5.5-1.5-11.2-1.8-16.8
		c-0.1-2.8-0.5-4.7-3.2-6.4c-2.2-1.4-4.1-3.8-5.2-6.2c-2.3-4.8-3.9-9.9-5.8-14.8c0.3-0.4,0.7-0.8,1-1.2c2.1,1.6,4.5,3,6.2,5
		c2.1,2.5,3.5,5.5,5.2,8.2c4.8,7.3,9.6,8.5,16.1,2.8c7.7-6.8,14.9-14.1,21.7-21.7c4.7-5.3,10.3-6.4,16.6-5.9c2,0.2,3.9,1.9,5.8,2.8
		c-0.9,1.6-1.9,3.2-2.7,4.7c-2.5-1.1-4.5-2.4-6.6-2.8c-6.7-1.2-11.2,1-14.1,7.2c-2.3,5-5.2,8.4-10.5,11.1
		c-4.6,2.3-8.6,7.1-11.1,11.8c-4,7.5-6.5,15.9-9.6,23.8c7,3.2,13.7-1.7,14.5-11.4c-3.6,4.1-6.4,7.3-9.9,11.3
		c0.5-14.9,9.5-30.1,20.4-33.4c-1.6,2.5-3.2,5.1-4.7,7.6C148.4,325,147.9,324.8,147.4,324.5L147.4,324.5z M133.1,319.9
		c-0.9,0.6-4.1-0.7-5.3-1.9c-2.7-2.7-4.8-6-7.7-9.9c6.1,1,9.7,7,15.6,3.8c4.4-2.4,8.8-4.7,13.2-7c0.4,0.5,0.7,1,1.1,1.5
		C144.4,311,139,315.7,133.1,319.9L133.1,319.9z M121,328.4c1.6,0.9,1.1,3.7,1.4,5.7c0.2,2,0,4.1,0,7.6
		c-11.1-12.2-16.4-31.9-21.3-45.5c0.4-0.2,4.2,2.7,4.6,2.5c1.9,3.9,1.6,10.6,4,14.2C113.1,318.3,115.9,325.6,121,328.4L121,328.4z
		 M97.5,293.7c2.6,6.6,11.6,32.9,14.5,39.3c2.2,4.9,4,10.4,10,12.5c0.6,0.2,1,1.5,1.3,2.4c2.5,7.8,7.5,10.2,15.1,6.9
		c3.2-1.4,6.1-3.6,9.2-5.5c-1.4,4.4-3.5,7.6-9,8.3c-16.5,2.2-20.7,0.2-26.6-15.4c-3.5-9.4-10.2-31.8-13.2-41.4
		C99.2,300.7,97.1,293.8,97.5,293.7L97.5,293.7z M127.5,129.2c1.5,6,3.9,8.7,1.7,14.4c-4.5,11.2-10.2,24.5-13.9,35.9
		c-7.7,24-14.7,48.2-22,72.4c-0.1,0.4,0,0.9,0,1.8c1.3-0.3,2.4-0.6,3.5-0.9c4.3,16.7,14.1,24,26.4,18.9c-2.6-3.2-5-6.3-7.4-9.3
		c-0.5,0.3-0.9,0.6-1.4,0.9c1.4,2.5,2.9,5,4.4,7.6c-14.1,0.2-20-11.9-18.8-20.9c0.5-3.8,2.9-5.5,4.6-9.9c-1.9,0.6-5.8,8-8.5,8.8
		c5.6-20.1,29.3-67.5,39.4-90.7c0.6,0.2,1.4,5.1,2,5.4c-0.3,1.7-1.4,5.9-1.8,7.6c-6.6,15.5-12.5,35.4-22.2,49.8
		c-4.5,6.8-5,13.9-0.6,21.2c1.3,2.2,2.2,4.6,2.6,7.4c-1-0.8-2-1.6-3-2.4c-7,6.1-7.4,14.1-1.3,18.1c-0.4-4.4-0.8-9.1-1.2-13.7
		c0.7-0.3,1.5-0.5,2.2-0.8c2,2.6,4.2,5,5.9,7.8c6.6,10.9,11.3,13.4,23.8,10.2c7.8-2,15.3-5.5,22.8-8.4c2.4-0.9,4.7-1.9,7-2.8
		c0.2,0.5,0.5,1,0.7,1.5c-4,2-7.7,4.6-11.9,5.8c-11.8,3.6-23.8,6.6-35.7,9.9c-2.2,0.6-4.3,1.3-6.8,2.1c-1.8,2.3-1.8,2.3,4.9,1.3
		c10.5-3.3,22.2-5.8,32.6-9.4c2.1-0.7,17.2-8.1,19.7-7.9l-4.5,9.5c0,0-5.5,2-11.2,3.8c-6.1,2.3-16.2,10.6-20.5,15
		c-3.2,3.2-13,4.1-16,0.7c-8.9-10.1-19-18.8-30.8-25.3c-2.1-1.1-4.3-2.1-6.7-3.3c2.9,19.7,20.6,31.5,49.3,33.1
		c-1.5,3.8-3.3,6.5-8.1,3.3c-0.3,0.4-0.6,0.8-0.9,1.2c1.3,2.5,2.7,4.9,4.4,8.1c9.1-14.5,18.4-27.1,33.4-33c1.6,3,3.1,5.6,4.7,8.5
		c-9.5,4.4-21.9,5.3-30.1,16.5c2.2-0.6,3.6-0.6,4.1-1.3c5.4-6.4,13.3-7.9,20.7-10.3c1.4-0.4,2.9-0.7,4.1-1.5
		c5.5-3.4,10.1-1.5,15.3,2.5c-3.8,0.6-7,1-10.2,1.6c-11.7,2.3-21.7,8.2-30.8,15.4c-6.1,4.8-11.1,5.2-17.8,1.4
		c-16.4-9.2-31.4-20-42.7-35.1c-1.2-1.6-1.8-4.6-1.2-6.5c6.2-21.6,12.5-43.2,23.5-63c3.5-6.3,4.6-13.3,3.2-20.4
		c-0.4-2.4-2.8-4.3-4.4-6.5c-1.8,1.9-4.6,3.6-5.2,5.8c-1.1,4.5-1.1,9.3-1.1,14c0,13.1-5.4,24.8-9.4,38.4c-3-37.5,9.6-80.8,34.5-99.8
		C123,132,125.7,130.2,127.5,129.2L127.5,129.2z M101.4,177.4c4.1,8.9,1.4,16.3-1.9,23.6C99,193.5,96.7,185.8,101.4,177.4
		L101.4,177.4z M93.5,270.1c6.6,0.3,20,11.6,25.7,19.4C109.8,290.1,95.7,279.5,93.5,270.1L93.5,270.1z M133.3,157.3
		c-2.4,5.5-5.6,10.7-7.9,16.2c-6.1,14.2-11.9,28.6-17.8,42.9c-1,2.4-2,4.8-3,7.1c-0.5-0.2-0.9-0.4-1.3-0.6
		c9.2-25.7,18.5-51.3,27.9-77.5C134.5,148.9,135.2,153,133.3,157.3L133.3,157.3z M130.6,122.7c0.1,0.1-2.1,3.9-6.2,3
		c-3.6-0.8-2.6-5-2-7.6c0.6-1.8,1-1.9,1.7-2.1C124.9,118.1,128.1,121.2,130.6,122.7L130.6,122.7z M131.7,120.2
		c-3.8-2.9-10.4-5-4.2-11.5C135.8,109.5,134.1,114.1,131.7,120.2L131.7,120.2z M137,130c3,9.9,5.9,19.9,9,29.8
		c1.1,3.6,2.7,7,3.8,10.5c0.9,2.9,1.4,6-2.1,8.6c-7.4-16.9-13.5-33.7-16.1-51.6C134.9,125.6,136.2,127.3,137,130L137,130z
		 M141.9,120c-0.4,0.4-2.3,2.1-3.8,2.3c-1.7-0.2-2.6-0.3-3.6-1.3c0.5-2,0.8-3.9,1.2-5.8c0.5-0.2-0.2-3.4,0.3-3.6
		C137.3,113.5,143.8,116,141.9,120L141.9,120z M155.6,111.2c-2.8,8-8.1,25.7-11,33.6c-0.4,0-0.9-7-1.3-7c-1.5-4.2-3-8.5-4.2-12
		c5.5-3.3,7.6-9,11.2-13.3C151.3,113,154.7,110.7,155.6,111.2L155.6,111.2z M161.4,119.7c-6.7,12-8.9,25-9.8,38.4
		c-0.1,0.8-0.5,1.5-1.3,3.5c-1.4-5.9-4-9.9-2.1-15.4c2.8-8.1,4.4-16.6,6.8-24.9c1.2-4.3,3-8.5,4.7-13.3
		C163.3,112,163.3,116.3,161.4,119.7L161.4,119.7z M160,68.1l0.5-2.8l6.1,1.4c0,0-2,0.1-4,0C160.7,66.5,160,68.1,160,68.1L160,68.1z
		 M157.1,30.2l5.2,1.5c-0.2,0.6-0.5,1.2-0.6,1.7c-0.3,0-0.7,5.5,1.5,7.4c0.9,0.8-2,1.1-2.2,1.1C160.2,40.8,157.8,35.5,157.1,30.2
		L157.1,30.2z M221.9,33.8l-4.6,1c-0.6-1.1-1.5-2.4-2.2-3.2c-0.5-0.6-2-1.7-3.1-2.6c-0.2,1.3-0.6,3.6-1.6,4.3c0,0-2.7-5.4-2.8-5.1
		c-0.7,1-3,3.8-3.8,4.9c-3.9-6.1-3.7-6.6-9.2-1.7c-0.9-2.1-1.7-5.4-2.7-7.6c-1.5,1.4-2.7,4.7-4.3,6.2c-0.9-1.2-2.2-4.6-4-7.1
		c-2.1,3.2-3.9,5.9-6.1,9.3c-1-2.2-2.9-4.9-3.9-7.1c-0.2-0.5-2.6,3.3-3.7,6.2c-0.4,1-4.8-5.8-5-6.2c-0.3,1.4-0.9,3-1.5,4.4
		c-0.8-0.3-2.7-1-4-1.4c1.8-1,3.9-2.2,5.6-3c10.2-3.7,29.1-4.8,45.8,2.4l1.1,0.5c0.1,0.1,0.3,0.1,0.4,0.2l0,0l2.4,1.3
		c0,0,3.9,1.9,5.8,3.2C221.1,33.1,221.6,33.4,221.9,33.8L221.9,33.8z M213.9,44.7c0,0,4.1-4.7,3.7-7.7l4.4-1.5
		c-0.4,1.7-5.4,10.2-5.4,10.2L213.9,44.7L213.9,44.7z M208.1,76.4c4.8,0.7,5.2-6.2,6.4-9c3,3.5-4.1,8.9-4.3,13.9
		C207.4,81.7,208.2,78.6,208.1,76.4L208.1,76.4z M217,119.4c-8.1,1.3-16.8,1.8-25.5,3.2c7.1-4.4,11.3-10.2,15.8-15
		c1.3,3.5,1.6,5.2,7.9,4.5C215.7,112.1,216.1,117.7,217,119.4L217,119.4z M223.7,125c-11.9,2.7-35.9,4.9-38.7,0.7
		c10.7-1.3,23.5-2.5,34.5-3.8c-0.2-3.5-0.4-5.3-0.5-7.2c0.4-0.1,0.8-0.1,1.2-0.2C220.8,117.5,222.9,121.5,223.7,125L223.7,125z
		 M281,196.1c-7.1-9.2-9.4-15.9-11.5-19.2c0.7-0.4,4.3,0.4,4.5,1.7l6.6,11.6C280.1,190.4,281.6,195.7,281,196.1L281,196.1z
		 M287,219.2c-0.1,0.6-0.3,1.2-0.6,2.3c-8.4-4.7-14.3-14.1-25.9-12.6c2.5-1.4,5-2.9,7.5-4.2c2.7-1.3,5.5-2.4,8.9-3.9
		c-3.9-6.2-9.9-2.5-14.5-4.3c-2.1-5.9-2.9-6.3-9.3-4.1c-6.3,2.1-10.1,6.9-12.8,12.7c-0.9,1.9-1.7,3.8-2.6,5.6c-0.5,0-1,0-1.5,0
		c0-1.9-0.2-3.8,0-5.7c1.4-9.8,3.2-19.6,4.2-29.4c0.7-7.3-0.2-14.5-3.6-21.2c-0.5-0.1-1.1-0.2-1.6-0.3c-1,4.6-2.8,9.2-2.9,13.9
		c-0.3,9.1,0.4,18.2,0.4,27.4c0,3.8-0.8,7.6-1.3,11.3c-6.4-0.5-6.5-4.7-6.9-8.9c-1.9-18.8,0.3-27.6-1.8-46.4
		c-0.8-7.5-10.7-20.6-11-22.2c3.2-2.2,14.7,2.2,14.9-5.9c1.6,3.8,3.2,7.6,4.9,11.8c2.9-4.3,0.5-7.3-1.3-10.2c-1.9-3-4.2-5.7-6.6-8.9
		c1.4,0,2.4-0.3,3.1,0c20,7.4,34.4,20.4,41.5,40.9c2.6,7.5,5.8,14.7,7.9,22.5c-0.7-1.1-1.1-2.7-2.1-3.3c-1.4-0.9-3.3-1.1-5-1.6
		c-0.2,1.5-1.2,3.5-0.6,4.5c3.5,6,5,13.6,11.3,17.6C286.7,201.2,288.4,210.4,287,219.2L287,219.2z M301.9,272.2
		c-1.4-2.4-2.7-4.4-3.8-6.4c-1.1-2-1.9-4.1-2.9-6.3c4.8-3.2,0.9-6.8,0.6-10.4l-0.1-0.1c0-0.1-0.1-0.2-0.1-0.2
		c-3.7-2.1-7.3-4.4-11.1-6.2c-3.8-1.8-7.8-3-11.7-4.4c0.1-0.6,0.2-1.2,0.3-1.8c3.7,0.4,7.4,0.7,11.6,1.1c-2.8-8.5-10.5-8.1-17.8-9.8
		c1.2-0.8,2-1.4,2.9-1.9c1-0.5,2-0.8,3-1.1c-2.1-6.6-2.5-6.6-18.6-0.7c-0.3-9.8-10.5-7.9-15.1-13.5c5.7-4.5,7.4-13.8,17.3-15.5
		c-0.5,2.5-1,4.5-1.6,7.4c5-1.4,9.4-2.5,13.8-3.7c0.2,0.4,0.4,0.8,0.6,1.2c-6.3,4.3-12.7,8.6-19,12.8c0.3,0.7,0.6,1.5,0.9,2.2
		c2.1-0.4,4.6-0.2,6.4-1.2c5.3-2.9,9.7-2.3,14.3,1.5c4.4,3.6,9.6,6.3,13.6,10.3c3.1,3.1,4.9,7.5,7.3,11.4c-0.5,0.3-1.1,0.6-1.6,0.9
		c-1.3-2.8-2.3-5.7-4-8.2c-0.8-1.2-2.7-1.6-4.2-2.3c0.2,1.4,0,3.1,0.7,4.2c3,4.5,6.3,8.7,9.4,13.1c1,1.3,1.8,2.8,2.6,4.2
		c0.1,0,0.2,0.1,0.2,0.1c0,0.1,0,0.1,0,0.2C304.5,256.5,306.2,262.5,301.9,272.2L301.9,272.2z M175.6,67c1.8,1,3.9,0.5,5,1.1
		c-0.4,0.2-1.8,1.6-2.2,1.7c0.6,2.4,0.6,5.2,1.9,7c2.3,3.2,5.8,3.8,8.9,2.5c-2.5-1.4-5.2-2.8-8.7-4.7c4.8-2.4,9.8,1.8,12.7-4.2
		c-1-2.4-7.2-2.4-8.3-4.8c2.7-0.4,6.9-1.1,10.1,0c-2.8-4.7-11.7-6.4-16.7-3.2C176.9,63.3,176.5,65.4,175.6,67L175.6,67z M180.6,69.9
		c0,0,0.1-0.1,0.3-0.2c0.6-0.3,1.8-1,1.8-1c1.4,0,5.5,0.8,5.5,1c0,0.1,0,0.3,0,0.5c0,0.7,0,1.8-0.3,1.8c-0.4,0-1,0-1.6,0
		c-1.9,0-4.6-0.1-5.4-0.1c0,0,0-0.2,0-0.3c-0.1-0.3-0.2-0.8-0.3-1.2C180.7,70.3,180.6,70.1,180.6,69.9L180.6,69.9z M178.5,65.3
		c-0.1-2.7,6.2-3.1,6-2.6c-0.4,1-4,1.4-5.3,2L178.5,65.3L178.5,65.3z M179,93.9c-2.2-1.6-7.4-0.2-10.7-0.7l0.3,1.4
		c5.6-0.4,1,4.3,5.4,4.2C172.4,95.3,176.6,96.5,179,93.9L179,93.9z M176.3,103.2c-1.6-0.7-2.3,0-5-0.7c-0.2,2.5,1,3.6,3.6,3.5
		C175.3,104.9,175.9,104.2,176.3,103.2L176.3,103.2z"/>
	<path class="st1" d="M349.1,324.1c0,0-4.7-5.9-6.9-7c-1.9-1-8.5-1.1-8.5-1.1l0.2-0.5c0,0,3.4,0.4,4.6,0.1c1.9,0.1,5.8-1.6,5.9-3.4
		c0.2-2.1-1.8-3.5-3.2-4.2c-2.8-1.3-8.4-0.4-8.4-0.4s7.3,1.8,7.1,4c-0.1,1.4-4.8,2.6-4.8,2.6l-1.2-1.7l-0.2,1.5l-1.8-1.9l2.9-0.6
		l-1.2-1.8l-3.4,1l3.1,4.3l-0.3,0.6c0,0-1.4-2.7-2.3-3.1c-1.3-0.6-5.7,0.1-5.7,0.1l0,0c0,0,2.2,3.9,3.5,4.5c0.9,0.4,3.8-0.2,3.8-0.2
		l-0.2,0.6l-5.3,0.3l1.3,3.3l2.2-0.2l-1.3-2.6l2.6,0.2l-1.1,1.1l2.1-0.1c0,0,1.9,4.5,0.9,5.4c-1.6,1.5-7.5-3-7.5-3s2.8,5,5.6,6.3
		c1.4,0.7,3.7,1.3,5.2-0.2c1.3-1.3,0-5.4-1.1-6.7c-0.5-1-2.9-3.5-2.9-3.5l0.2-0.5c0,0,4.3,5,6.2,5.9
		C341.6,324.2,349.2,324.1,349.1,324.1"/>
	<path class="st1" d="M35.7,334.3c0,0,4.7-5.9,6.9-7c1.9-1,8.5-1.1,8.5-1.1l-0.2-0.5c0,0-3.4,0.4-4.6,0.1c-1.9,0.1-5.8-1.6-5.9-3.4
		c-0.2-2.1,1.8-3.5,3.2-4.2c2.8-1.3,8.4-0.4,8.4-0.4s-7.3,1.8-7.1,4c0.1,1.4,4.8,2.6,4.8,2.6l1.2-1.7l0.2,1.5l1.8-1.9l-2.9-0.6
		l1.2-1.8l3.4,1l-3.1,4.3l0.3,0.6c0,0,1.4-2.7,2.3-3.1c1.3-0.6,5.7,0.1,5.7,0.1l0,0c0,0-2.2,3.9-3.5,4.5c-0.9,0.4-3.8-0.2-3.8-0.2
		l0.3,0.6l5.3,0.3l-1.3,3.3l-2.2-0.2l1.3-2.6l-2.6,0.2l1.1,1.1l-2.1-0.1c0,0-1.9,4.5-0.9,5.4c1.6,1.5,7.5-3,7.5-3s-2.8,5-5.6,6.3
		c-1.4,0.7-3.7,1.3-5.2-0.2c-1.3-1.3,0-5.4,1.1-6.7c0.5-1,2.9-3.5,2.9-3.5l-0.2-0.5c0,0-4.3,5-6.2,5.9
		C43.2,334.4,35.6,334.3,35.7,334.3"/>
</g>
</svg>
