<?xml version="1.0" encoding="utf-8"?>
<!-- Generator: Adobe Illustrator 22.0.0, SVG Export Plug-In . SVG Version: 6.00 Build 0)  -->
<svg version="1.1" id="Livello_1" xmlns="http://www.w3.org/2000/svg" xmlns:xlink="http://www.w3.org/1999/xlink" x="0px" y="0px"
	 viewBox="0 0 500 500" style="enable-background:new 0 0 500 500;" xml:space="preserve">
<style type="text/css">
	.st0{fill:#FFFFFF;}
	.st1{fill:none;stroke:#000000;stroke-miterlimit:10;}
	.st2{fill:none;stroke:#000000;stroke-miterlimit:10;stroke-dasharray:12.5128,12.5128,12.5128,12.5128,12.5128,12.5128;}
	.st3{fill:none;stroke:#000000;stroke-width:0.283;stroke-miterlimit:10;}
</style>
<g>
	<rect class="st0" width="500" height="500"/>
	<g>
		<polyline class="st1" points="500,494 500,500 494,500 		"/>
		<line class="st2" x1="481.5" y1="500" x2="387.6" y2="500"/>
		<line class="st2" x1="381.4" y1="500" x2="12.3" y2="500"/>
		<polyline class="st1" points="6,500 0,500 0,494 		"/>
		<line class="st2" x1="0" y1="481.5" x2="0" y2="387.6"/>
		<line class="st2" x1="0" y1="381.4" x2="0" y2="12.3"/>
		<polyline class="st1" points="0,6 0,0 6,0 		"/>
		<line class="st2" x1="18.5" y1="0" x2="112.4" y2="0"/>
		<line class="st2" x1="118.6" y1="0" x2="487.7" y2="0"/>
		<polyline class="st1" points="494,0 500,0 500,6 		"/>
		<line class="st2" x1="500" y1="18.5" x2="500" y2="112.4"/>
		<line class="st2" x1="500" y1="118.6" x2="500" y2="487.7"/>
	</g>
</g>
<line class="st3" x1="0" y1="0" x2="500" y2="500"/>
<line class="st3" x1="500" y1="0" x2="0" y2="500"/>
<g>
</g>
<g>
</g>
<g>
</g>
<g>
</g>
<g>
</g>
<g>
</g>
</svg>
