<svg id="Livello_1" data-name="Livello 1" xmlns="http://www.w3.org/2000/svg" viewBox="0 0 1664 200"><defs><style>.cls-1{fill:#fff;}</style></defs><title>Tavola disegno 1</title><path class="cls-1" d="M396.91,61.06a57.47,57.47,0,0,0,16.57-4.57,57.83,57.83,0,0,1-14.42,14.93l.08,3.75c0,38.08-29,82-82,82a81.73,81.73,0,0,1-44.23-13,62.53,62.53,0,0,0,6.86.38,58.1,58.1,0,0,0,35.83-12.3,29,29,0,0,1-26.95-20,28.61,28.61,0,0,0,5.46.52,29.31,29.31,0,0,0,7.59-1,28.91,28.91,0,0,1-23.13-28.3v-.36a28.42,28.42,0,0,0,13.05,3.6,28.79,28.79,0,0,1-8.92-38.47,81.83,81.83,0,0,0,59.45,30.12,30.74,30.74,0,0,1-.73-6.56,28.84,28.84,0,0,1,49.85-19.74,57.56,57.56,0,0,0,18.37-7,29.09,29.09,0,0,1-12.71,16M444,100A100,100,0,1,0,344,200,100,100,0,0,0,444,100"/><path class="cls-1" d="M200,100.49C200,45,155.23,0,100,0S0,45,0,100.49A100,100,0,0,0,90.41,200c0-9.44.15-47.6.22-82.35h-20V92.48H90.71c0-13.83.08-25.35.08-31.7C90.79,31.32,120,31.41,120,31.41h34.91V62.69H134.43c-10.12,0-8.37,14.52-8.37,14.52V92.48h31.15l-7.6,25.17H126.06v79.43A100.12,100.12,0,0,0,200,100.49"/><path class="cls-1" d="M1097.78,97.68c0-11.64-9.73-21.07-21.75-21.07s-21.74,9.43-21.74,21.07,9.74,21.07,21.74,21.07,21.75-9.43,21.75-21.07m20-25.33V60.7a4.91,4.91,0,0,0-4.87-4.89h-12.25a4.88,4.88,0,0,0-4.86,4.89V72.35a4.89,4.89,0,0,0,4.86,4.89h12.25a4.91,4.91,0,0,0,4.87-4.89m.06,63V89.56h-9.55a31.48,31.48,0,0,1,1.39,9.3c0,18-15.06,32.61-33.66,32.61s-33.64-14.6-33.64-32.61a31.16,31.16,0,0,1,1.39-9.3h-10v45.75a4.32,4.32,0,0,0,4.3,4.3h75.4a4.32,4.32,0,0,0,4.32-4.3m12.22,2.85a13.57,13.57,0,0,1-13.9,13.9h-80.48a13.57,13.57,0,0,1-13.9-13.9V57.67a13.58,13.58,0,0,1,13.9-13.9h80.48a13.57,13.57,0,0,1,13.9,13.9ZM1176,100a100,100,0,1,0-100,100,100,100,0,0,0,100-100"/><path class="cls-1" d="M820.73,114.72l32.2-21.24-32.2-21.22Zm67.65,3.52a16.85,16.85,0,0,1-16.85,16.86H792.47a16.86,16.86,0,0,1-16.86-16.86V73a16.86,16.86,0,0,1,16.86-16.87h79.06A16.86,16.86,0,0,1,888.38,73ZM932,100A100,100,0,1,0,832,200,100,100,0,0,0,932,100"/><path class="cls-1" d="M564.92,44.32a15,15,0,0,0-11.26,5.31c-2.37,2.95-3.53,6.85-3.53,11.94,0,10,5.89,28.66,20.1,28.66a16.45,16.45,0,0,0,10.93-4.51c4-4,4-9.85,4-11.75C585.18,61.86,578,44.32,564.92,44.32Z"/><path class="cls-1" d="M588,0A100,100,0,1,0,688,100,100,100,0,0,0,588,0Zm18.47,39.42L598,44.7a.6.6,0,0,1-.32.1h-9.8c3.71,3.06,11.41,9.43,11.41,21.75s-7.18,17.93-13.54,22.92l-.2.22c-2,2-4.26,4.23-4.26,7.65s2.26,5.34,4.08,6.84l5.88,4.57c7,5.87,13.52,11.39,13.52,22.57,0,15.13-14.53,30.46-42.29,30.46-23.89,0-34.57-11.58-34.57-23.05,0-2.89.89-12.81,12.39-19.66,9.72-6,23-6.88,30.2-7.38l.52,0-.29-.36c-2.24-2.86-4.54-5.81-4.54-10.6a13.52,13.52,0,0,1,1.35-5.7l.24-.57c-1.63.15-3.48.32-5.13.32-17.34,0-26.7-13-26.7-25.31a29.08,29.08,0,0,1,10.27-21.56c8.19-6.77,17.29-9.64,30.41-9.64h29.47a.62.62,0,0,1,.61.46A.65.65,0,0,1,606.46,39.42Zm41.59,63.91a.64.64,0,0,1-.63.65H631.88v15.57a.61.61,0,0,1-.62.63h-6.68a.64.64,0,0,1-.65-.63V104H608.49a.64.64,0,0,1-.64-.65V96.56a.63.63,0,0,1,.64-.62h15.44V80.46a.64.64,0,0,1,.65-.63h6.68a.62.62,0,0,1,.62.63V95.94h15.54a.62.62,0,0,1,.63.62Z"/><path class="cls-1" d="M572.8,116.18c-.08,0-9.57.12-16.89,2.59-9.17,3.33-13.83,8.9-13.83,16.58,0,11.77,11.4,19.68,28.3,19.68C585,155,594,148.36,594,137.61c0-8.42-5.71-12.85-17.55-21.28A27.75,27.75,0,0,0,572.8,116.18Z"/><path class="cls-1" d="M1564,0a100,100,0,1,0,100,100A100,100,0,0,0,1564,0Zm-38.91,166.52h-25.8V80.09c0-2.71,0-2.71,2.72-2.71h21.72c3.62.45,3.62-.46,3.62,4.07v83.26C1527.35,166.06,1526.9,166.52,1525.09,166.52ZM1513.32,66.06A16,16,0,0,1,1497,49.32c.45-8.6,7.69-15.84,16.29-15.84a16.52,16.52,0,0,1,16.29,16.29A16.22,16.22,0,0,1,1513.32,66.06Zm115.39,100.46h-23.53c-1.81,0-2.27-.46-2.27-2.27v-43a52.42,52.42,0,0,0-1.35-11.77c-1.36-6.79-5.89-9.5-12.67-9.5-5,0-10,.9-13.13,5.43-2.26,3.17-3.16,7.24-3.62,10.86-.45,14-.45,28.05-.45,41.63v8.14h-27.6v-86c0-2.71,0-2.71,2.72-2.71h21.71c1.81,0,2.27.45,2.27,2.26v9.5c2.26-2.26,4.07-5,6.33-6.79,6.79-5.88,15.39-7.69,24.44-6.78,3.62.45,7.24.9,10.4,2.26,9.51,3.17,14,10.41,16.75,19.46,1.81,6.78,2.26,14,2.26,21.26v45.7C1631,166.06,1630.52,166.52,1628.71,166.52Z"/><path class="cls-1" d="M1320,54.75a45.7,45.7,0,1,0,45.25,46.15A45,45,0,0,0,1320,54.75Zm0,76.92a31.22,31.22,0,0,1,0-62.44c17.19,0,31.22,14,31.67,31.22C1351.22,117.65,1337.19,131.67,1320,131.67Z"/><path class="cls-1" d="M1320,82.35A17.65,17.65,0,1,0,1337.65,100,18,18,0,0,0,1320,82.35Z"/><path class="cls-1" d="M1320,0a100,100,0,1,0,100,100A100,100,0,0,0,1320,0Zm58.82,130.32c-3.62,7.24-8.59,13.12-14,18.55a64.28,64.28,0,0,1-29,15.38,31.24,31.24,0,0,1-9,1.36,58.09,58.09,0,0,1-9,.45,64,64,0,0,1-38.92-14,66.49,66.49,0,0,1-23.53-36.66,34.55,34.55,0,0,1-1.35-9.5c0-1.81-.46-4.07-.46-5.88V39.37a5.42,5.42,0,0,1,4.08-5.43h62.89c10.41,0,19.91,2.71,29.41,7.24a61.84,61.84,0,0,1,20.82,16.74,66.08,66.08,0,0,1,12.67,23.53,83.8,83.8,0,0,1,2.26,11.31,67.23,67.23,0,0,1,.45,9.5A60.11,60.11,0,0,1,1378.82,130.32Z"/></svg>