<?xml version="1.0" encoding="utf-8"?>
<!-- Generator: Adobe Illustrator 22.0.1, SVG Export Plug-In . SVG Version: 6.00 Build 0)  -->
<svg version="1.1" id="Livello_1" xmlns="http://www.w3.org/2000/svg" xmlns:xlink="http://www.w3.org/1999/xlink" x="0px" y="0px"
	 viewBox="0 0 60 60" style="enable-background:new 0 0 60 60;" xml:space="preserve">
<style type="text/css">
	.st0{fill:#FFFFFF;}
</style>
<g>
	<path class="st0" d="M12.4,48.9c-1.8,0-3.2-1.4-3.2-3.2V20.3c0-1.8,1.4-3.2,3.2-3.2h35.2c1.8,0,3.2,1.4,3.2,3.2v25.4
		c0,1.8-1.4,3.2-3.2,3.2C47.6,48.9,12.4,48.9,12.4,48.9z M14.3,19.6c-1.4,0-2.6,1.2-2.6,2.6v21.5c0,1.4,1.2,2.6,2.6,2.6h31.2
		c1.4,0,2.6-1.2,2.6-2.6V22.2c0-1.4-1.2-2.6-2.6-2.6H14.3z"/>
	<path class="st0" d="M19.2,31.3c-0.2,0-0.3-0.1-0.3-0.3v-1.9c0-0.2,0.1-0.3,0.3-0.3h1.9c0.2,0,0.3,0.1,0.3,0.3V31
		c0,0.2-0.1,0.3-0.3,0.3H19.2z"/>
	<path class="st0" d="M29,31.3c-0.2,0-0.3-0.1-0.3-0.3v-1.9c0-0.2,0.1-0.3,0.3-0.3h1.9c0.2,0,0.3,0.1,0.3,0.3V31
		c0,0.2-0.1,0.3-0.3,0.3H29z"/>
	<path class="st0" d="M38.7,31.3c-0.2,0-0.3-0.1-0.3-0.3v-1.9c0-0.2,0.1-0.3,0.3-0.3h1.9c0.2,0,0.3,0.1,0.3,0.3V31
		c0,0.2-0.1,0.3-0.3,0.3H38.7z"/>
	<path class="st0" d="M20.2,23.5c-0.7,0-1.3-0.6-1.3-1.3V8.5c0-0.7,0.6-1.3,1.3-1.3s1.3,0.6,1.3,1.3v13.7
		C21.5,22.9,20.9,23.5,20.2,23.5z"/>
	<path class="st0" d="M39.7,23.5c-0.7,0-1.3-0.6-1.3-1.3V8.5c0-0.7,0.6-1.3,1.3-1.3S41,7.8,41,8.5v13.7C41,22.9,40.4,23.5,39.7,23.5
		z"/>
	<path class="st0" d="M19.2,40.1c-0.2,0-0.3-0.1-0.3-0.3v-1.9c0-0.2,0.1-0.3,0.3-0.3h1.9c0.2,0,0.3,0.1,0.3,0.3v1.9
		c0,0.2-0.1,0.3-0.3,0.3H19.2z"/>
	<path class="st0" d="M29,40.1c-0.2,0-0.3-0.1-0.3-0.3v-1.9c0-0.2,0.1-0.3,0.3-0.3h1.9c0.2,0,0.3,0.1,0.3,0.3v1.9
		c0,0.2-0.1,0.3-0.3,0.3H29z"/>
</g>
</svg>
