<?xml version="1.0" encoding="utf-8"?>
<!-- Generator: Adobe Illustrator 22.0.1, SVG Export Plug-In . SVG Version: 6.00 Build 0)  -->
<svg version="1.1" id="Livello_1" xmlns="http://www.w3.org/2000/svg" xmlns:xlink="http://www.w3.org/1999/xlink" x="0px" y="0px"
	 viewBox="0 0 138 144" style="enable-background:new 0 0 138 144;" xml:space="preserve">
<style type="text/css">
	.st0{fill:#FFFFFF;}
</style>
<g>
	<path class="st0" d="M35.9,106.2c-3.3,0-6-2.7-6-6V52.8c0-3.3,2.7-6,6-6h65.6c3.3,0,6,2.7,6,6v47.4c0,3.3-2.7,6-6,6H35.9z
		 M39.6,51.5c-2.7,0-4.9,2.2-4.9,4.9v40.1c0,2.7,2.2,4.9,4.9,4.9h58.3c2.7,0,4.9-2.2,4.9-4.9V56.4c0-2.7-2.2-4.9-4.9-4.9H39.6z"/>
	<path class="st0" d="M48.7,73.4c-0.4,0-0.5-0.1-0.5-0.5v-3.6c0-0.4,0.1-0.5,0.5-0.5h3.6c0.4,0,0.5,0.1,0.5,0.5v3.6
		c0,0.4-0.1,0.5-0.5,0.5H48.7z"/>
	<path class="st0" d="M66.9,73.4c-0.4,0-0.5-0.1-0.5-0.5v-3.6c0-0.4,0.1-0.5,0.5-0.5h3.6c0.4,0,0.5,0.1,0.5,0.5v3.6
		c0,0.4-0.1,0.5-0.5,0.5H66.9z"/>
	<path class="st0" d="M85.1,73.4c-0.4,0-0.5-0.1-0.5-0.5v-3.6c0-0.4,0.1-0.5,0.5-0.5h3.6c0.4,0,0.5,0.1,0.5,0.5v3.6
		c0,0.4-0.1,0.5-0.5,0.5H85.1z"/>
	<path class="st0" d="M50.5,58.8c-1.3,0-2.4-1.1-2.4-2.4V30.9c0-1.3,1.1-2.4,2.4-2.4c1.3,0,2.4,1.1,2.4,2.4v25.5
		C52.9,57.7,51.8,58.8,50.5,58.8z"/>
	<path class="st0" d="M87,58.8c-1.3,0-2.4-1.1-2.4-2.4V30.9c0-1.3,1.1-2.4,2.4-2.4c1.3,0,2.4,1.1,2.4,2.4v25.5
		C89.3,57.7,88.3,58.8,87,58.8z"/>
	<path class="st0" d="M48.7,89.8c-0.4,0-0.5-0.1-0.5-0.5v-3.6c0-0.4,0.1-0.5,0.5-0.5h3.6c0.4,0,0.5,0.1,0.5,0.5v3.6
		c0,0.4-0.1,0.5-0.5,0.5H48.7z"/>
	<path class="st0" d="M66.9,89.8c-0.4,0-0.5-0.1-0.5-0.5v-3.6c0-0.4,0.1-0.5,0.5-0.5h3.6c0.4,0,0.5,0.1,0.5,0.5v3.6
		c0,0.4-0.1,0.5-0.5,0.5H66.9z"/>
</g>
</svg>
