<?xml version="1.0" encoding="utf-8"?>
<!-- Generator: Adobe Illustrator 22.0.0, SVG Export Plug-In . SVG Version: 6.00 Build 0)  -->
<svg version="1.1" id="Livello_1" xmlns="http://www.w3.org/2000/svg" xmlns:xlink="http://www.w3.org/1999/xlink" x="0px" y="0px"
	 viewBox="0 0 70 60" style="enable-background:new 0 0 70 60;" xml:space="preserve">
<style type="text/css">
	.st0{fill:#FFFFFF;}
</style>
<g>
	<path class="st0" d="M18.7,48.9c-1.8,0-3.2-1.4-3.2-3.2V20.3c0-1.8,1.4-3.2,3.2-3.2h35.2c1.8,0,3.2,1.4,3.2,3.2v25.4
		c0,1.8-1.4,3.2-3.2,3.2H18.7z M20.6,19.6c-1.4,0-2.6,1.2-2.6,2.6v21.5c0,1.4,1.2,2.6,2.6,2.6h31.2c1.4,0,2.6-1.2,2.6-2.6V22.2
		c0-1.4-1.2-2.6-2.6-2.6H20.6z"/>
	<path class="st0" d="M25.5,31.3c-0.2,0-0.3-0.1-0.3-0.3v-1.9c0-0.2,0.1-0.3,0.3-0.3h1.9c0.2,0,0.3,0.1,0.3,0.3V31
		c0,0.2-0.1,0.3-0.3,0.3H25.5z"/>
	<path class="st0" d="M35.3,31.3c-0.2,0-0.3-0.1-0.3-0.3v-1.9c0-0.2,0.1-0.3,0.3-0.3h1.9c0.2,0,0.3,0.1,0.3,0.3V31
		c0,0.2-0.1,0.3-0.3,0.3H35.3z"/>
	<path class="st0" d="M45,31.3c-0.2,0-0.3-0.1-0.3-0.3v-1.9c0-0.2,0.1-0.3,0.3-0.3h1.9c0.2,0,0.3,0.1,0.3,0.3V31
		c0,0.2-0.1,0.3-0.3,0.3H45z"/>
	<path class="st0" d="M26.5,23.5c-0.7,0-1.3-0.6-1.3-1.3V8.5c0-0.7,0.6-1.3,1.3-1.3s1.3,0.6,1.3,1.3v13.7
		C27.8,22.9,27.2,23.5,26.5,23.5z"/>
	<path class="st0" d="M46,23.5c-0.7,0-1.3-0.6-1.3-1.3V8.5c0-0.7,0.6-1.3,1.3-1.3c0.7,0,1.3,0.6,1.3,1.3v13.7
		C47.3,22.9,46.7,23.5,46,23.5z"/>
	<path class="st0" d="M25.5,40.1c-0.2,0-0.3-0.1-0.3-0.3v-1.9c0-0.2,0.1-0.3,0.3-0.3h1.9c0.2,0,0.3,0.1,0.3,0.3v1.9
		c0,0.2-0.1,0.3-0.3,0.3H25.5z"/>
	<path class="st0" d="M35.3,40.1c-0.2,0-0.3-0.1-0.3-0.3v-1.9c0-0.2,0.1-0.3,0.3-0.3h1.9c0.2,0,0.3,0.1,0.3,0.3v1.9
		c0,0.2-0.1,0.3-0.3,0.3H35.3z"/>
</g>
</svg>
