<?xml version="1.0" encoding="utf-8"?>
<!-- Generator: Adobe Illustrator 22.0.1, SVG Export Plug-In . SVG Version: 6.00 Build 0)  -->
<svg version="1.0" id="Livello_1" xmlns="http://www.w3.org/2000/svg" xmlns:xlink="http://www.w3.org/1999/xlink" x="0px" y="0px"
	 viewBox="0 0 51.6 71.6" style="enable-background:new 0 0 51.6 71.6;" xml:space="preserve">
<style type="text/css">
	.st0{fill:#FFFFFF;}
</style>
<g>
	<path class="st0" d="M4,51.6c-2.2,0-4-1.8-4-4V16.1c0-2.2,1.8-4,4-4h43.6c2.2,0,4,1.8,4,4v31.5c0,2.2-1.8,4-4,4H4z M6.4,15.2
		c-1.8,0-3.3,1.5-3.3,3.3v26.7c0,1.8,1.5,3.3,3.3,3.3h38.8c1.8,0,3.3-1.5,3.3-3.3V18.5c0-1.8-1.5-3.3-3.3-3.3H6.4z"/>
	<path class="st0" d="M12.5,29.8c-0.3,0-0.4-0.1-0.4-0.4V27c0-0.3,0.1-0.4,0.4-0.4h2.4c0.3,0,0.4,0.1,0.4,0.4v2.4
		c0,0.3-0.1,0.4-0.4,0.4H12.5z"/>
	<path class="st0" d="M24.6,29.8c-0.3,0-0.4-0.1-0.4-0.4V27c0-0.3,0.1-0.4,0.4-0.4H27c0.3,0,0.4,0.1,0.4,0.4v2.4
		c0,0.3-0.1,0.4-0.4,0.4H24.6z"/>
	<path class="st0" d="M36.7,29.8c-0.3,0-0.4-0.1-0.4-0.4V27c0-0.3,0.1-0.4,0.4-0.4h2.4c0.3,0,0.4,0.1,0.4,0.4v2.4
		c0,0.3-0.1,0.4-0.4,0.4H36.7z"/>
	<path class="st0" d="M13.7,20.1c-0.9,0-1.6-0.7-1.6-1.6v-17c0-0.9,0.7-1.6,1.6-1.6c0.9,0,1.6,0.7,1.6,1.6v17
		C15.2,19.4,14.5,20.1,13.7,20.1z"/>
	<path class="st0" d="M37.9,20.1c-0.9,0-1.6-0.7-1.6-1.6v-17c0-0.9,0.7-1.6,1.6-1.6c0.9,0,1.6,0.7,1.6,1.6v17
		C39.5,19.4,38.8,20.1,37.9,20.1z"/>
	<path class="st0" d="M12.5,40.7c-0.3,0-0.4-0.1-0.4-0.4v-2.4c0-0.3,0.1-0.4,0.4-0.4h2.4c0.3,0,0.4,0.1,0.4,0.4v2.4
		c0,0.3-0.1,0.4-0.4,0.4H12.5z"/>
	<path class="st0" d="M24.6,40.7c-0.3,0-0.4-0.1-0.4-0.4v-2.4c0-0.3,0.1-0.4,0.4-0.4H27c0.3,0,0.4,0.1,0.4,0.4v2.4
		c0,0.3-0.1,0.4-0.4,0.4H24.6z"/>
</g>
<g>
	<path class="st0" d="M0,71.6v-12h7.3v1.2h-6v4.2h4.9v1.2H1.3v4.3h6v1.2H0z"/>
	<path class="st0" d="M16.5,59.6h1.4l-3.1,12h-3l-3.1-12h1.4l2.8,10.9h1L16.5,59.6z"/>
	<path class="st0" d="M19.7,71.6v-12h7.3v1.2h-6v4.2H26v1.2h-4.9v4.3h6v1.2H19.7z"/>
	<path class="st0" d="M29.4,71.6v-12h2.5l4.6,10.9h0.4V59.6h1.3v12h-2.5L31,60.8h-0.3v10.9H29.4z"/>
	<path class="st0" d="M39.9,60.8v-1.2h8.7v1.2h-3.7v10.8h-1.3V60.8H39.9z"/>
	<path class="st0" d="M50.3,71.6v-12h1.3v12H50.3z"/>
</g>
</svg>
