<?xml version="1.0" encoding="utf-8"?>
<!-- Generator: Adobe Illustrator 22.0.1, SVG Export Plug-In . SVG Version: 6.00 Build 0)  -->
<svg version="1.1" id="Livello_1" xmlns="http://www.w3.org/2000/svg" xmlns:xlink="http://www.w3.org/1999/xlink" x="0px" y="0px"
	 viewBox="0 0 60 50" style="enable-background:new 0 0 60 50;" xml:space="preserve">
<style type="text/css">
	.st0{fill:#668BB1;}
</style>
<g>
	<g>
		<g>
			<path class="st0" d="M25.5,33.8c-7.3,0-13.1-5.9-13.1-13.1c0-7.3,5.9-13.1,13.1-13.1s13.1,5.9,13.1,13.1
				C38.7,27.9,32.8,33.8,25.5,33.8z M25.5,10c-5.9,0-10.6,4.8-10.6,10.6s4.8,10.6,10.6,10.6s10.6-4.8,10.6-10.6S31.4,10,25.5,10z"/>
		</g>
		<g>
			<path class="st0" d="M46.4,44.3c-0.3,0-0.7-0.1-0.9-0.4l-13-13.5c-0.5-0.5-0.5-1.3,0-1.8c0.5-0.5,1.3-0.5,1.8,0l13,13.5
				c0.5,0.5,0.5,1.3,0,1.8C47,44.2,46.7,44.3,46.4,44.3z"/>
		</g>
	</g>
</g>
</svg>
