<?xml version="1.0" encoding="utf-8"?>
<!-- Generator: Adobe Illustrator 22.0.0, SVG Export Plug-In . SVG Version: 6.00 Build 0)  -->
<svg version="1.1" id="Livello_1" xmlns="http://www.w3.org/2000/svg" xmlns:xlink="http://www.w3.org/1999/xlink" x="0px" y="0px"
	 viewBox="0 0 51.6 51.6" style="enable-background:new 0 0 51.6 51.6;" xml:space="preserve">
<style type="text/css">
	.st0{fill:#FFFFFF;}
</style>
<g>
	<g>
		<line class="st0" x1="2.6" y1="2.6" x2="49" y2="49"/>
		<path class="st0" d="M49,51.6c-0.7,0-1.3-0.3-1.8-0.8L0.8,4.4c-1-1-1-2.7,0-3.7s2.7-1,3.7,0l46.4,46.4c1,1,1,2.7,0,3.7
			C50.3,51.3,49.7,51.6,49,51.6z"/>
	</g>
	<g>
		<line class="st0" x1="49" y1="2.6" x2="2.6" y2="49"/>
		<path class="st0" d="M2.6,51.6c-0.7,0-1.3-0.3-1.8-0.8c-1-1-1-2.7,0-3.7L47.2,0.8c1-1,2.7-1,3.7,0s1,2.7,0,3.7L4.4,50.8
			C3.9,51.3,3.3,51.6,2.6,51.6z"/>
	</g>
</g>
</svg>
