<?xml version="1.0" encoding="utf-8"?>
<!-- Generator: Adobe Illustrator 22.0.1, SVG Export Plug-In . SVG Version: 6.00 Build 0)  -->
<svg version="1.1" id="Livello_1" xmlns="http://www.w3.org/2000/svg" xmlns:xlink="http://www.w3.org/1999/xlink" x="0px" y="0px"
	 viewBox="0 0 968.7 440.4" style="enable-background:new 0 0 968.7 440.4;" xml:space="preserve">
<style type="text/css">
	.st0{fill:none;stroke:#FFFFFF;stroke-width:10.1721;}
	.st1{fill:#FFFFFF;}
	.st2{fill:none;stroke:#FFFFFF;stroke-width:2.3118;}
	.st3{fill:none;stroke:#FFFFFF;stroke-width:0.2312;}
	.st4{fill:none;stroke:#000000;stroke-width:3.0867;}
</style>
<g>
	<line class="st0" x1="417.9" y1="0" x2="417.9" y2="440.4"/>
	<path class="st1" d="M477.6,314.1c0,10.7,0,19.5-0.6,24.2c-0.4,3.2-1,5.7-3.2,6.1c-1,0.2-2.3,0.4-3.3,0.4c-0.7,0-0.9,0.3-0.9,0.7
		c0,0.7,0.6,0.9,1.8,0.9c3.3,0,10.4-0.3,10.9-0.3c0.6,0,7.6,0.3,13.7,0.3c1.2,0,1.8-0.3,1.8-0.9c0-0.3-0.2-0.7-0.9-0.7
		c-1,0-3.5-0.2-5-0.4c-3.3-0.4-4-2.9-4.3-6.1c-0.6-4.7-0.6-13.5-0.6-24.2v-9.5c0-0.8,0.2-1,0.8-1c1.9,0,14,0,16.8,0.3
		c3.5,0.4,5.2,2.5,5.8,4c0.4,1.3,0.6,2.9,0.7,4c0,0.6,0.2,1,0.8,1c0.8,0,0.8-1.1,0.8-2.1c0-0.8,0.2-5.2,0.4-7.5
		c0.3-3.7,0.9-5.6,0.9-6.2c0-0.6-0.1-0.9-0.6-0.9s-0.8,0.6-1.2,1.1c-1,1.4-2.5,1.8-5.1,2c-1.6,0.1-3.1,0.1-5,0.1l-14.3,0.1
		c-0.7,0-0.8-0.3-0.8-1v-30.8c0-0.9,0.3-1.2,1-1.2l17.2,0.3c4.3,0.1,6.9,2.1,7.6,3.6c0.7,1.4,1,3.3,1,4.2c0,0.8,0.2,1.3,0.8,1.3
		c0.6,0,0.8-0.7,0.9-1.2c0.2-1.3,0.4-6.2,0.6-7.4c0.3-3.1,0.9-4.5,0.9-5.2c0-0.6-0.2-1-0.7-1c-0.4,0-0.9,0.4-1.6,0.7
		c-1,0.3-2.8,0.3-4.9,0.4c-2.6,0.1-25.2,0.1-27.4,0.1c-0.6,0-7.6-0.3-12.6-0.3c-1.2,0-1.8,0.2-1.8,0.9c0,0.4,0.4,0.7,0.9,0.7
		c1,0,2.9,0.1,3.8,0.3c3.7,0.8,4.6,2.6,4.8,6.4c0.2,3.6,0.2,6.7,0.2,24.1V314.1 M552.9,294.4c0-17.4,0-20.5,0.2-24.1
		c0.2-3.9,1.1-5.8,4.1-6.4c1.3-0.2,2-0.3,2.8-0.3c0.4,0,0.9-0.2,0.9-0.7c0-0.7-0.6-0.9-1.8-0.9c-3.3,0-10.4,0.3-10.9,0.3
		s-7.6-0.3-11.3-0.3c-1.2,0-1.8,0.2-1.8,0.9c0,0.4,0.4,0.7,0.9,0.7c0.8,0,2.2,0.1,3.5,0.4c2.5,0.6,3.6,2.5,3.8,6.2
		c0.2,3.6,0.2,6.7,0.2,24.1v19.6c0,10.7,0,19.5-0.6,24.2c-0.4,3.2-1,5.7-3.2,6.1c-1,0.2-2.3,0.4-3.3,0.4c-0.7,0-0.9,0.3-0.9,0.7
		c0,0.7,0.6,0.9,1.8,0.9c3.3,0,10.4-0.3,10.9-0.3s7.6,0.3,13.7,0.3c1.2,0,1.8-0.3,1.8-0.9c0-0.3-0.2-0.7-0.9-0.7c-1,0-3.5-0.2-5-0.4
		c-3.3-0.4-4-2.9-4.3-6.1c-0.6-4.7-0.6-13.5-0.6-24.2V294.4L552.9,294.4z M592.6,314.1c0,10.7,0,19.5-0.6,24.2
		c-0.4,3.2-1,5.7-3.2,6.1c-1,0.2-2.3,0.4-3.3,0.4c-0.7,0-0.9,0.3-0.9,0.7c0,0.7,0.6,0.9,1.8,0.9c3.3,0,10.4-0.3,10.5-0.3
		c0.6,0,7.6,0.3,13.7,0.3c1.2,0,1.8-0.3,1.8-0.9c0-0.3-0.2-0.7-0.9-0.7c-1,0-3.5-0.2-5-0.4c-3.3-0.4-4-2.9-4.3-6.1
		c-0.6-4.7-0.6-13.5-0.6-24.2v-2.7c0-0.6,0.2-0.9,0.8-0.9l13.7,0.2c0.7,0,1,0.2,1.4,0.7c2.2,2.9,7.5,10.4,12.1,16.5
		c6.4,8.4,10.3,13.8,15,16.4c2.9,1.6,5.7,2.1,11.9,2.1h7.9c2,0,2.7-0.2,2.7-0.9c0-0.3-0.4-0.7-1-0.7c-0.7,0-2.2,0-4.3-0.3
		c-2.8-0.4-7.6-1.7-13.6-8c-6.5-6.9-14-16.8-23.2-28.5c10-9.2,13.5-17.5,13.5-25.7c0-7.7-4.9-13.2-7.7-15.2
		c-5.9-4.2-13.4-4.9-20.4-4.9c-3.5,0-11.9,0.3-13.2,0.3c-0.6,0-7.6-0.3-12.6-0.3c-1.2,0-1.8,0.2-1.8,0.9c0,0.4,0.4,0.7,0.9,0.7
		c1,0,2.9,0.1,3.8,0.3c3.7,0.8,4.6,2.6,4.8,6.4c0.2,3.6,0.2,6.7,0.2,24.1V314.1L592.6,314.1z M601.5,267.7c0-0.7,0.3-1.1,0.9-1.3
		c1.1-0.3,4.1-0.7,7.5-0.7c11.9,0,19.3,8.4,19.3,22.3c0,8.5-2.9,14.5-6.8,17.2c-2.6,1.8-5.7,2.1-8.4,2.1c-4.9,0-10-0.8-11.7-1.8
		c-0.6-0.3-0.8-0.8-0.8-1.3V267.7L601.5,267.7z M676.6,314.1c0,10.7,0,19.5-0.6,24.2c-0.4,3.2-1,5.7-3.2,6.1c-1,0.2-2.3,0.4-3.3,0.4
		c-0.7,0-0.9,0.3-0.9,0.7c0,0.7,0.6,0.9,1.8,0.9c3.3,0,10.4-0.3,10.9-0.3c3.2,0,10.7,0.7,27.5,0.7c4.3,0,5.2,0,6-2.9
		c0.6-2.3,1.4-9.9,1.4-10.8c0-0.8,0-1.7-0.7-1.7c-0.6,0-0.8,0.4-1,1.7c-0.8,4.6-2.1,6.8-5,8c-2.9,1.2-7.8,1.2-10.7,1.2
		c-10.9,0-12.6-1.4-12.9-9.1c-0.1-2.3,0-15.3,0-19.1v-9.8c0-0.4,0.2-0.8,0.8-0.8c1.9,0,12.9,0.2,15.9,0.6c4.3,0.4,5.3,2.3,5.8,3.9
		c0.4,1.4,0.4,2.6,0.4,3.7c0,0.6,0.2,1,0.8,1c0.8,0,0.8-1.2,0.8-2.1c0-0.8,0.2-4.9,0.4-7.1c0.3-3.7,0.9-5.6,0.9-6.2
		c0-0.7-0.2-0.9-0.6-0.9c-0.4,0-0.9,0.6-1.7,1.4c-1,1.1-2.6,1.3-5.2,1.6c-2.6,0.2-16.3,0.2-17.7,0.2c-0.6,0-0.7-0.3-0.7-1.1v-30.8
		c0-0.8,0.2-1.1,0.7-1.1c1.2,0,13.4,0.1,15.3,0.3c6,0.7,7.1,2,7.9,3.8c0.6,1.3,0.7,3.2,0.7,4c0,0.9,0.2,1.4,0.9,1.4
		c0.4,0,0.7-0.7,0.8-1.2c0.2-1.3,0.4-6.2,0.6-7.4c0.3-3.1,0.9-4.5,0.9-5.2c0-0.6-0.1-1-0.4-1c-0.6,0-1,0.4-1.6,0.6
		c-0.9,0.2-2.7,0.4-4.8,0.6c-2.6,0.1-24.7,0.1-25.5,0.1c-0.6,0-7.6-0.3-12.6-0.3c-1.2,0-1.8,0.2-1.8,0.9c0,0.4,0.4,0.7,0.9,0.7
		c1,0,2.9,0.1,3.8,0.3c3.7,0.8,4.6,2.6,4.8,6.4c0.2,3.6,0.2,6.7,0.2,24.1V314.1L676.6,314.1z M746.2,277.8c3.6,4,16.2,18.1,29.1,32
		c11.8,12.7,27.9,29.1,29.1,30.2c5.9,5.9,7.2,7.1,8.1,7.1c0.8,0,1-0.6,1-7.9l0.2-65.3c0-6.7,0.4-9.1,4.1-9.9
		c1.3-0.3,2.1-0.3,2.7-0.3c0.8,0,1.2-0.3,1.2-0.8c0-0.7-0.8-0.8-2-0.8c-4.6,0-8.2,0.3-9.5,0.3c-1.2,0-6.6-0.3-11.6-0.3
		c-1.3,0-2.2,0.1-2.2,0.8c0,0.4,0.1,0.8,0.9,0.8c0.9,0,3.5,0.1,5.5,0.6c3.5,0.9,4.2,3.3,4.3,10.6l1.2,56.6
		c-3.6-3.7-15.7-17.3-26.7-29.1c-17.2-18.4-33.8-36.3-35.4-38.2c-1.1-1.1-3-3.6-3.9-3.6c-0.9,0-1.2,1.2-1.2,5.6L741,330
		c0,10.1-0.6,13.4-3.3,14.2c-1.7,0.6-3.7,0.7-4.6,0.7c-0.6,0-0.9,0.2-0.9,0.7c0,0.8,0.7,0.9,1.8,0.9c5,0,9.7-0.3,10.7-0.3
		s5.5,0.3,11.8,0.3c1.3,0,2-0.2,2-0.9c0-0.4-0.3-0.7-0.9-0.7c-1,0-3.5-0.1-5.6-0.7c-3-0.9-4.1-3.8-4.3-12.9L746.2,277.8L746.2,277.8
		z M850.8,341.6c16.9-25.6,33.8-51.3,49.9-76.9c0.4-0.7,0.4-0.9,0.4-1.3c0-0.7-0.6-0.9-2.2-0.9h-31.1c-3.5,0-8.8,0.1-19.4-0.3
		c-3-0.1-3.7-0.8-4.7-0.8c-0.7,0-0.9,0.6-1.1,2.1c-0.6,3.3-2.2,13.5-2.2,14.8c0,0.9,0.1,1.4,0.7,1.4c0.6,0,1-0.3,1.2-2
		c0.3-2.6,2.3-6.7,6.4-8.8c3.6-1.9,10.4-2.2,16-2.2H889c-15.5,25.2-32.3,50.3-48.9,75.3c-1.3,2-1.6,2.6-1.6,3.1c0,0.8,0.7,0.9,2,0.9
		c19.5,0,38.2,0.6,56.8,0.6c2.6,0,2.7-0.2,3.3-2.9c0.7-2.8,2.2-9.4,2.2-12.8c0-2.1-0.2-2.6-0.9-2.6c-0.6,0-0.8,0.7-1,1.8
		c-0.2,1.6-1.2,4.6-2.2,6c-2.3,3.3-5.9,5.5-17.6,5.5H850.8L850.8,341.6z M927.3,314.1c0,10.7,0,19.5-0.6,24.2
		c-0.4,3.2-1,5.7-3.2,6.1c-1,0.2-2.3,0.4-3.3,0.4c-0.7,0-0.9,0.3-0.9,0.7c0,0.7,0.6,0.9,1.8,0.9c3.3,0,10.4-0.3,10.9-0.3
		c3.2,0,10.7,0.7,27.5,0.7c4.3,0,5.2,0,6-2.9c0.6-2.3,1.4-9.9,1.4-10.8c0-0.8,0-1.7-0.7-1.7c-0.6,0-0.8,0.4-1,1.7
		c-0.8,4.6-2.1,6.8-5,8c-2.9,1.2-7.8,1.2-10.7,1.2c-10.9,0-12.6-1.4-12.9-9.1c-0.1-2.3,0-15.3,0-19.1v-9.8c0-0.4,0.2-0.8,0.8-0.8
		c1.9,0,12.9,0.2,15.9,0.6c4.3,0.4,5.3,2.3,5.8,3.9c0.4,1.4,0.4,2.6,0.4,3.7c0,0.6,0.2,1,0.8,1c0.8,0,0.8-1.2,0.8-2.1
		c0-0.8,0.2-4.9,0.4-7.1c0.3-3.7,0.9-5.6,0.9-6.2c0-0.7-0.2-0.9-0.6-0.9c-0.4,0-0.9,0.6-1.7,1.4c-1,1.1-2.6,1.3-5.2,1.6
		c-2.6,0.2-16.3,0.2-17.7,0.2c-0.6,0-0.7-0.3-0.7-1.1v-30.8c0-0.8,0.2-1.1,0.7-1.1c1.2,0,13.4,0.1,15.3,0.3c6,0.7,7.1,2,7.9,3.8
		c0.6,1.3,0.7,3.2,0.7,4c0,0.9,0.2,1.4,0.9,1.4c0.4,0,0.7-0.7,0.8-1.2c0.2-1.3,0.4-6.2,0.6-7.4c0.3-3.1,0.9-4.5,0.9-5.2
		c0-0.6-0.1-1-0.4-1c-0.6,0-1,0.4-1.6,0.6c-0.9,0.2-2.7,0.4-4.8,0.6c-2.6,0.1-24.7,0.1-25.5,0.1c-0.6,0-7.6-0.3-12.6-0.3
		c-1.2,0-1.8,0.2-1.8,0.9c0,0.4,0.4,0.7,0.9,0.7c1,0,2.9,0.1,3.8,0.3c3.7,0.8,4.6,2.6,4.8,6.4c0.2,3.6,0.2,6.7,0.2,24.1V314.1
		L927.3,314.1z"/>
	<path class="st1" d="M474.6,207.4c0,6.8,0,12.4-0.4,15.4c-0.3,2.1-0.6,3.6-2.1,3.9c-0.6,0.1-1.5,0.3-2.1,0.3
		c-0.4,0-0.6,0.2-0.6,0.4c0,0.4,0.4,0.6,1.1,0.6c2.1,0,6.6-0.2,7-0.2c0.7,0,9.7,0.9,15.8,0.9c12.1,0,18.5-5,21.6-8.2
		c4-4.2,7.7-11.1,7.7-20.1c0-8.5-3.3-14.4-6.9-18.1c-8.5-8.7-21.5-8.1-28.5-8.1c-4.3,0-8.7,0.2-9.6,0.2c-0.4,0-4.8-0.2-8-0.2
		c-0.8,0-1.1,0.1-1.1,0.6c0,0.3,0.3,0.4,0.6,0.4c0.6,0,1.8,0.1,2.4,0.2c2.3,0.5,2.9,1.6,3.1,4.1c0.1,2.3,0.1,4.3,0.1,15.4V207.4
		L474.6,207.4z M480.6,193.8c0-5.5,0-12.7,0.1-15.2c0-0.8,0.2-1.1,0.9-1.4c0.6-0.3,3.2-0.5,4.6-0.5c8.5,0,16.6,1,23.3,8
		c2.9,3.1,6.8,8.9,6.8,17.9c0,6.5-2,13.4-5.7,17c-4.2,4.2-10.3,6.6-16.9,6.6c-8.4,0-11.2-1.5-12.1-2.8c-0.6-0.8-0.7-3.6-0.8-5.4
		c-0.1-1.4-0.1-7.9-0.1-15.4V193.8L480.6,193.8z M539.1,207.4c0,6.8,0,12.4-0.4,15.4c-0.3,2.1-0.6,3.6-2.1,3.9
		c-0.6,0.1-1.5,0.3-2.1,0.3c-0.4,0-0.6,0.2-0.6,0.4c0,0.4,0.4,0.6,1.1,0.6c2.1,0,6.6-0.2,7-0.2c2.1,0,6.8,0.4,17.6,0.4
		c2.8,0,3.3,0,3.8-1.8c0.4-1.5,0.9-6.3,0.9-6.9c0-0.5,0-1.1-0.4-1.1c-0.4,0-0.5,0.3-0.6,1.1c-0.5,2.9-1.4,4.3-3.2,5.1
		c-1.8,0.8-5,0.8-6.8,0.8c-7,0-8-0.9-8.3-5.8c-0.1-1.5,0-9.7,0-12.2v-6.3c0-0.3,0.1-0.5,0.5-0.5c1.2,0,8.3,0.1,10.2,0.4
		c2.8,0.3,3.4,1.5,3.7,2.5c0.3,0.9,0.3,1.6,0.3,2.3c0,0.4,0.1,0.6,0.5,0.6c0.5,0,0.5-0.8,0.5-1.4c0-0.5,0.1-3.1,0.3-4.6
		c0.2-2.3,0.6-3.6,0.6-4c0-0.4-0.1-0.6-0.4-0.6c-0.3,0-0.6,0.4-1.1,0.9c-0.6,0.7-1.6,0.9-3.3,1c-1.6,0.1-10.4,0.1-11.3,0.1
		c-0.4,0-0.4-0.2-0.4-0.7v-19.6c0-0.5,0.1-0.7,0.4-0.7c0.8,0,8.5,0.1,9.7,0.2c3.8,0.4,4.6,1.3,5,2.4c0.4,0.9,0.4,2.1,0.4,2.6
		c0,0.6,0.1,0.9,0.6,0.9c0.3,0,0.4-0.4,0.5-0.8c0.1-0.9,0.3-4,0.4-4.7c0.2-2,0.6-2.8,0.6-3.3c0-0.4-0.1-0.6-0.3-0.6
		c-0.4,0-0.6,0.3-1,0.4c-0.6,0.1-1.7,0.3-3.1,0.4c-1.6,0.1-15.8,0.1-16.3,0.1c-0.4,0-4.8-0.2-8-0.2c-0.8,0-1.1,0.1-1.1,0.6
		c0,0.3,0.3,0.4,0.6,0.4c0.6,0,1.9,0.1,2.4,0.2c2.3,0.5,2.9,1.6,3.1,4.1c0.1,2.3,0.1,4.3,0.1,15.4V207.4L539.1,207.4z M616.3,222
		c0,1.2-0.5,2-1.4,2.5c-1.8,1.1-5.5,1.5-8.1,1.5c-6.5,0-13-2.1-18.6-7.6c-2.5-2.4-7.5-9.7-7.5-19.7c0-8.3,2.9-14.8,7-18.1
		c5.4-4.3,10.7-4.7,15.2-4.7c9.2,0,14.9,3.1,16.7,5.8c1.1,1.7,1.4,3.7,1.5,4.7c0.1,0.6,0.1,1.1,0.5,1.1c0.5,0,0.6-0.4,0.6-1.5
		c0-7.1,0.5-9.1,0.5-10.1c0-0.3-0.1-0.6-0.9-0.6c-1.8-0.1-4.3-0.4-5.8-0.7c-1.4-0.3-6.4-1.2-10.9-1.2c-5.5,0-12.5,0.5-18.9,4.5
		c-6.3,4-11.9,12-11.9,23.4c0,8.9,4.1,16.5,8.5,20.3c7.9,6.9,18,7.6,23.4,7.6c4.1,0,10.5-0.8,15.1-3.2c0.9-0.5,0.9-0.6,0.9-3.8v-8
		c0-3,0-5.1,0.1-7.4c0.1-2.5,0.7-3.7,2.6-4.1c0.9-0.1,1.3-0.2,1.8-0.2c0.3,0,0.6-0.1,0.6-0.4c0-0.4-0.4-0.6-1.1-0.6
		c-2.1,0-6.6,0.2-7,0.2c-0.4,0-4.8-0.2-8-0.2c-0.8,0-1.1,0.1-1.1,0.6c0,0.3,0.3,0.4,0.6,0.4c0.6,0,1.8,0.1,2.4,0.2
		c2.8,0.8,3.2,1.6,3.2,7.3V222L616.3,222z M649.8,194.9c0-11.1,0-13.1,0.1-15.4c0.1-2.5,0.7-3.7,2.8-4.1c0.9-0.1,1.8-0.2,2.3-0.2
		c0.3,0,0.6-0.1,0.6-0.4c0-0.4-0.4-0.6-1.1-0.6c-2.1,0-7.3,0.2-7.7,0.2c-0.4,0-4.8-0.2-8-0.2c-0.8,0-1.1,0.1-1.1,0.6
		c0,0.3,0.3,0.4,0.6,0.4c0.6,0,1.8,0.1,2.4,0.2c2.3,0.5,2.9,1.6,3.1,4.1c0.1,2.3,0.1,4.3,0.1,15.4v12.5c0,6.8,0,12.4-0.4,15.4
		c-0.3,2.1-0.6,3.6-2.1,3.9c-0.6,0.1-1.5,0.3-2.1,0.3c-0.4,0-0.6,0.2-0.6,0.4c0,0.4,0.4,0.6,1.1,0.6c2.1,0,6.3-0.2,7-0.2
		c4.1,0,8.8,0.4,19.1,0.4c3.8,0,4-0.3,4.5-1.9c0.6-2.1,1.1-6.3,1.1-7.1c0-0.8-0.1-1.1-0.4-1.1c-0.4,0-0.6,0.4-0.6,0.9
		c-0.2,1.4-0.9,3.1-1.8,4.3c-1.7,2.1-4.8,2.1-8.6,2.1c-5.5,0-7.4-0.5-8.5-1.6c-1.3-1.3-1.6-5.8-1.6-16.3V194.9L649.8,194.9z
		 M691.9,194.9c0-11.1,0-13.1,0.1-15.4c0.1-2.5,0.7-3.7,2.6-4.1c0.9-0.1,1.3-0.2,1.8-0.2c0.3,0,0.6-0.1,0.6-0.4
		c0-0.4-0.4-0.6-1.1-0.6c-2.1,0-6.6,0.2-7,0.2c-0.4,0-4.8-0.2-7.2-0.2c-0.8,0-1.1,0.1-1.1,0.6c0,0.3,0.3,0.4,0.6,0.4
		c0.5,0,1.4,0.1,2.2,0.3c1.6,0.4,2.3,1.6,2.4,4c0.1,2.3,0.1,4.3,0.1,15.4v12.5c0,6.8,0,12.4-0.4,15.4c-0.3,2.1-0.6,3.6-2.1,3.9
		c-0.6,0.1-1.5,0.3-2.1,0.3c-0.4,0-0.6,0.2-0.6,0.4c0,0.4,0.4,0.6,1.1,0.6c2.1,0,6.6-0.2,7-0.2c0.4,0,4.8,0.2,8.7,0.2
		c0.8,0,1.1-0.2,1.1-0.6c0-0.2-0.1-0.4-0.6-0.4c-0.6,0-2.2-0.1-3.2-0.3c-2.1-0.3-2.6-1.8-2.8-3.9c-0.4-3-0.4-8.6-0.4-15.4V194.9
		L691.9,194.9z M745.3,229c3.8,0,7.7-0.9,10.7-3c4.9-3.5,6-8.9,6-11.8c0-5.7-2-10.1-10.4-16.7l-2-1.6c-6.7-5.5-8.7-7.9-8.7-12
		c0-5.2,3.8-8.3,8.7-8.3c6.5,0,8.5,3,8.9,3.8c0.4,0.8,0.9,2.7,0.9,3.6c0.1,0.6,0.1,0.9,0.6,0.9c0.4,0,0.5-0.5,0.5-1.6
		c0-4.8,0.3-7.2,0.3-7.5s-0.1-0.5-0.7-0.5s-1.1-0.1-2.5-0.4c-1.8-0.4-3.8-0.7-6.6-0.7c-9,0-14.7,5.2-14.7,12.8
		c0,4.8,1.7,9.2,9.2,15.4l3.2,2.6c6.1,5.1,8.2,7.9,8.2,12.8c0,4.6-3.3,9.5-10.2,9.5c-4.8,0-9.5-2-10.5-7.3c-0.2-1-0.2-2-0.2-2.6
		c0-0.6-0.1-0.8-0.5-0.8c-0.4,0-0.5,0.4-0.6,1.1c-0.1,1.1-0.4,4-0.4,7.5c0,1.9,0.1,2.2,1.1,2.7C738.7,228.6,742,229,745.3,229
		L745.3,229z M796,177.3l9,0.1c6.8,0.1,8.5,1.8,8.7,3.9l0.1,0.8c0.1,1,0.2,1.2,0.6,1.2c0.3,0,0.5-0.3,0.5-0.9c0-0.8,0.2-5.7,0.2-7.8
		c0-0.4,0-0.9-0.4-0.9c-0.6,0-2.5,0.7-7,0.7H781c-0.9,0-3.6-0.1-5.6-0.4c-1.9-0.1-2.6-0.9-3.1-0.9c-0.3,0-0.6,0.9-0.7,1.4
		c-0.1,0.6-1.6,6.7-1.6,7.4c0,0.4,0.1,0.6,0.4,0.6c0.3,0,0.5-0.1,0.7-0.7c0.2-0.5,0.4-1,1.2-2.2c1.1-1.7,2.8-2.2,7.3-2.3l10.5-0.1
		v30.1c0,6.8,0,12.4-0.4,15.4c-0.3,2.1-0.6,3.6-2.1,3.9c-0.6,0.1-1.5,0.3-2.1,0.3c-0.4,0-0.6,0.2-0.6,0.4c0,0.4,0.4,0.6,1.1,0.6
		c2.1,0,6.6-0.2,7-0.2c0.4,0,4.8,0.2,8.7,0.2c0.8,0,1.1-0.2,1.1-0.6c0-0.2-0.1-0.4-0.6-0.4c-0.6,0-2.2-0.1-3.2-0.3
		c-2.1-0.3-2.6-1.8-2.8-3.9c-0.4-3-0.4-8.6-0.4-15.4V177.3L796,177.3z M825.9,205.3c0,10.4,2.7,15.4,6.2,18.7
		c5.1,4.8,12.2,5.1,14.7,5.1c4.2,0,9.5-0.7,14.7-5.3c5.7-5.1,6.5-13.6,6.5-21.3v-7.6c0-11.1,0-13.1,0.1-15.4
		c0.1-2.5,0.7-3.7,2.6-4.1c0.9-0.2,1.3-0.2,1.8-0.2c0.3,0,0.6-0.1,0.6-0.4c0-0.4-0.4-0.6-1.1-0.6c-2.1,0-5.5,0.2-6,0.2
		c-0.4,0-4.3-0.2-7.5-0.2c-0.8,0-1.1,0.1-1.1,0.6c0,0.3,0.3,0.4,0.6,0.4c0.6,0,1.8,0.1,2.4,0.2c2.3,0.5,2.9,1.6,3.1,4.1
		c0.1,2.3,0.1,4.3,0.1,15.4v8.9c0,7.3-0.9,13.4-4.1,17.4c-2.6,3.1-6.8,5.1-11.2,5.1c-4.1,0-7.3-0.6-10.7-3.9
		c-3.1-2.9-5.3-7.3-5.3-17.6v-10c0-11.1,0-13.1,0.1-15.4c0.1-2.5,0.7-3.8,2.6-4.1c0.9-0.1,1.3-0.2,1.8-0.2c0.3,0,0.6-0.1,0.6-0.4
		c0-0.4-0.4-0.6-1.1-0.6c-2.1,0-6.4,0.2-7,0.2s-5-0.2-8.2-0.2c-0.8,0-1.1,0.1-1.1,0.6c0,0.3,0.3,0.4,0.6,0.4c0.6,0,1.8,0.1,2.4,0.2
		c2.3,0.5,2.9,1.6,3.1,4.1c0.1,2.3,0.1,4.3,0.1,15.4V205.3L825.9,205.3z M889.1,207.4c0,6.8,0,12.4-0.4,15.4
		c-0.3,2.1-0.6,3.6-2.1,3.9c-0.6,0.1-1.5,0.3-2.1,0.3c-0.4,0-0.6,0.2-0.6,0.4c0,0.4,0.4,0.6,1.1,0.6c2.1,0,6.6-0.2,7-0.2
		c0.7,0,9.7,0.9,15.8,0.9c12.1,0,18.5-5,21.6-8.2c4-4.2,7.7-11.1,7.7-20.1c0-8.5-3.3-14.4-6.9-18.1c-8.5-8.7-21.5-8.1-28.5-8.1
		c-4.3,0-8.7,0.2-9.6,0.2c-0.4,0-4.8-0.2-8-0.2c-0.8,0-1.1,0.1-1.1,0.6c0,0.3,0.3,0.4,0.6,0.4c0.6,0,1.8,0.1,2.4,0.2
		c2.3,0.5,2.9,1.6,3.1,4.1c0.1,2.3,0.1,4.3,0.1,15.4V207.4L889.1,207.4z M895,193.8c0-5.5,0-12.7,0.1-15.2c0-0.8,0.2-1.1,0.9-1.4
		c0.6-0.3,3.2-0.5,4.6-0.5c8.5,0,16.6,1,23.3,8c2.9,3.1,6.8,8.9,6.8,17.9c0,6.5-2,13.4-5.7,17c-4.2,4.2-10.3,6.6-16.9,6.6
		c-8.4,0-11.2-1.5-12.1-2.8c-0.6-0.8-0.7-3.6-0.8-5.4c-0.1-1.4-0.1-7.9-0.1-15.4V193.8L895,193.8z M959.6,194.9
		c0-11.1,0-13.1,0.1-15.4c0.1-2.5,0.7-3.7,2.6-4.1c0.9-0.1,1.3-0.2,1.8-0.2c0.3,0,0.6-0.1,0.6-0.4c0-0.4-0.4-0.6-1.1-0.6
		c-2.1,0-6.6,0.2-7,0.2c-0.4,0-4.8-0.2-7.2-0.2c-0.8,0-1.1,0.1-1.1,0.6c0,0.3,0.3,0.4,0.6,0.4c0.5,0,1.4,0.1,2.2,0.3
		c1.6,0.4,2.3,1.6,2.4,4c0.1,2.3,0.1,4.3,0.1,15.4v12.5c0,6.8,0,12.4-0.4,15.4c-0.3,2.1-0.6,3.6-2.1,3.9c-0.6,0.1-1.5,0.3-2.1,0.3
		c-0.4,0-0.6,0.2-0.6,0.4c0,0.4,0.4,0.6,1.1,0.6c2.1,0,6.6-0.2,7-0.2c0.4,0,4.8,0.2,8.7,0.2c0.8,0,1.1-0.2,1.1-0.6
		c0-0.2-0.1-0.4-0.6-0.4c-0.6,0-2.2-0.1-3.2-0.3c-2.1-0.3-2.6-1.8-2.8-3.9c-0.4-3-0.4-8.6-0.4-15.4V194.9L959.6,194.9z"/>
	<path class="st1" d="M470.9,118.7c0,11,2.9,16.2,6.5,19.7c5.3,5,12.9,5.3,15.5,5.3c4.4,0,10.1-0.8,15.5-5.6
		c6-5.3,6.9-14.3,6.9-22.4v-8c0-11.7,0-13.8,0.1-16.2c0.2-2.6,0.8-3.9,2.8-4.3c0.9-0.2,1.4-0.2,1.9-0.2c0.3,0,0.6-0.1,0.6-0.5
		c0-0.5-0.4-0.6-1.2-0.6c-2.3,0-5.8,0.2-6.3,0.2c-0.5,0-4.6-0.2-8-0.2c-0.8,0-1.2,0.1-1.2,0.6c0,0.3,0.3,0.5,0.6,0.5
		c0.7,0,2,0.1,2.6,0.2c2.5,0.5,3.1,1.7,3.2,4.3c0.2,2.4,0.2,4.5,0.2,16.2v9.4c0,7.7-0.9,14.1-4.4,18.4c-2.7,3.2-7.2,5.4-11.8,5.4
		c-4.3,0-7.7-0.7-11.3-4.1c-3.2-3.1-5.6-7.7-5.6-18.5v-10.5c0-11.7,0-13.8,0.1-16.2c0.1-2.6,0.8-4,2.8-4.3c0.9-0.2,1.4-0.2,1.9-0.2
		c0.3,0,0.6-0.1,0.6-0.5c0-0.5-0.4-0.6-1.2-0.6c-2.3,0-6.8,0.2-7.4,0.2c-0.7,0-5.3-0.2-8.6-0.2c-0.8,0-1.2,0.1-1.2,0.6
		c0,0.3,0.3,0.5,0.6,0.5c0.7,0,2,0.1,2.6,0.2c2.5,0.5,3.1,1.7,3.2,4.3c0.1,2.4,0.1,4.5,0.1,16.2V118.7L470.9,118.7z M538.7,96.5
		c2.4,2.7,10.9,12.2,19.6,21.5c8,8.6,18.8,19.6,19.6,20.3c4,4,4.9,4.8,5.5,4.8c0.5,0,0.7-0.4,0.7-5.3l0.1-44c0-4.5,0.3-6.2,2.8-6.7
		c0.9-0.2,1.4-0.2,1.8-0.2c0.5,0,0.8-0.2,0.8-0.5c0-0.5-0.5-0.5-1.4-0.5c-3.1,0-5.6,0.2-6.4,0.2c-0.8,0-4.4-0.2-7.8-0.2
		c-0.9,0-1.5,0.1-1.5,0.5c0,0.3,0.1,0.5,0.6,0.5c0.6,0,2.3,0.1,3.7,0.4c2.3,0.6,2.9,2.3,2.9,7.1l0.8,38.1
		c-2.4-2.5-10.6-11.6-18-19.6c-11.6-12.4-22.8-24.5-23.9-25.8c-0.8-0.8-2-2.4-2.6-2.4c-0.6,0-0.8,0.8-0.8,3.8l-0.1,43
		c0,6.8-0.4,9-2.3,9.5c-1.1,0.4-2.5,0.5-3.1,0.5c-0.4,0-0.6,0.2-0.6,0.5c0,0.5,0.5,0.6,1.2,0.6c3.4,0,6.5-0.2,7.2-0.2
		c0.7,0,3.7,0.2,8,0.2c0.9,0,1.4-0.2,1.4-0.6c0-0.3-0.2-0.5-0.6-0.5c-0.7,0-2.3-0.1-3.8-0.5c-2-0.6-2.8-2.6-2.9-8.7L538.7,96.5
		L538.7,96.5z M615,107.7c0-11.7,0-13.8,0.2-16.2c0.1-2.6,0.8-3.9,2.8-4.3c0.9-0.2,1.4-0.2,1.9-0.2c0.3,0,0.6-0.1,0.6-0.5
		c0-0.5-0.4-0.6-1.2-0.6c-2.3,0-7,0.2-7.4,0.2c-0.4,0-5.1-0.2-7.6-0.2c-0.8,0-1.2,0.1-1.2,0.6c0,0.3,0.3,0.5,0.6,0.5
		c0.5,0,1.5,0.1,2.3,0.3c1.7,0.4,2.4,1.7,2.6,4.2c0.2,2.4,0.2,4.5,0.2,16.2v13.2c0,7.2,0,13.1-0.4,16.3c-0.3,2.2-0.7,3.8-2.2,4.1
		c-0.7,0.1-1.6,0.3-2.3,0.3c-0.5,0-0.6,0.2-0.6,0.5c0,0.5,0.4,0.6,1.2,0.6c2.3,0,7-0.2,7.4-0.2c0.4,0,5.1,0.2,9.2,0.2
		c0.8,0,1.2-0.2,1.2-0.6c0-0.2-0.2-0.5-0.6-0.5c-0.7,0-2.3-0.1-3.4-0.3c-2.3-0.3-2.7-2-2.9-4.1c-0.4-3.2-0.4-9.1-0.4-16.3V107.7
		L615,107.7z M643.6,95.1c-1.1-2.9-2-5.3-2-6.2c0-0.5,0.2-1.1,1-1.5c0.7-0.3,2-0.4,2.9-0.4c0.5,0,0.8-0.1,0.8-0.5
		c0-0.4-0.7-0.5-2-0.5c-2.9,0-6.2,0.2-7,0.2c-0.9,0-5.2-0.2-8.8-0.2c-1.2,0-2,0.1-2,0.5c0,0.3,0.1,0.5,0.6,0.5c0.4,0,1.7,0,2.9,0.3
		c2.6,0.8,3.8,1.6,5.4,5.8l18.4,46c1.4,3.6,1.8,4.7,2.7,4.7c0.8,0,1.1-1.2,3.2-5.7c1.7-3.7,5.1-11.8,9.7-22.7
		c3.8-9.2,7.6-18.2,8.4-20.3c2-5.1,3.2-6.4,4.1-7.1c1.4-0.9,3.1-0.9,3.6-0.9c0.6,0,0.9-0.1,0.9-0.5c0-0.4-0.5-0.5-1.3-0.5
		c-2.2,0-5.4,0.2-5.9,0.2c-0.9,0-4.4-0.2-7.4-0.2c-1.2,0-1.7,0.1-1.7,0.6c0,0.4,0.4,0.5,0.8,0.5c0.8,0,2,0,2.9,0.3
		c0.8,0.4,1,1.1,1,1.7c0,0.7-0.3,1.7-0.7,2.9c-1.7,5.4-11.7,31.6-16.1,41.7L643.6,95.1L643.6,95.1z M697.5,120.9
		c0,7.2,0,13.1-0.4,16.3c-0.3,2.2-0.7,3.8-2.2,4.1c-0.7,0.1-1.6,0.3-2.3,0.3c-0.5,0-0.6,0.2-0.6,0.5c0,0.5,0.4,0.6,1.2,0.6
		c2.3,0,7-0.2,7.4-0.2c2.2,0,7.2,0.5,18.5,0.5c2.9,0,3.5,0,4.1-2c0.4-1.6,1-6.7,1-7.3c0-0.5,0-1.1-0.5-1.1c-0.4,0-0.5,0.3-0.7,1.1
		c-0.5,3.1-1.4,4.6-3.4,5.4c-2,0.8-5.3,0.8-7.2,0.8c-7.4,0-8.5-1-8.7-6.2c-0.1-1.6,0-10.3,0-12.8v-6.6c0-0.3,0.1-0.5,0.5-0.5
		c1.3,0,8.7,0.1,10.7,0.4c2.9,0.3,3.6,1.6,3.9,2.6c0.3,1,0.3,1.7,0.3,2.5c0,0.4,0.2,0.7,0.5,0.7c0.5,0,0.5-0.8,0.5-1.4
		c0-0.5,0.1-3.3,0.3-4.8c0.2-2.5,0.6-3.8,0.6-4.2c0-0.4-0.2-0.6-0.4-0.6c-0.3,0-0.6,0.4-1.1,1c-0.7,0.8-1.7,0.9-3.5,1.1
		c-1.7,0.1-11,0.1-11.9,0.1c-0.4,0-0.4-0.2-0.4-0.8V89.6c0-0.5,0.1-0.8,0.4-0.8c0.8,0,9,0.1,10.3,0.2c4.1,0.5,4.8,1.4,5.3,2.6
		c0.4,0.9,0.5,2.2,0.5,2.7c0,0.6,0.1,1,0.6,1c0.3,0,0.5-0.4,0.5-0.8c0.2-0.9,0.3-4.2,0.4-5c0.2-2.1,0.6-3,0.6-3.5
		c0-0.4-0.1-0.7-0.3-0.7c-0.4,0-0.7,0.3-1.1,0.4c-0.6,0.1-1.8,0.3-3.2,0.4c-1.7,0.1-16.7,0.1-17.2,0.1c-0.4,0-5.1-0.2-8.5-0.2
		c-0.8,0-1.2,0.1-1.2,0.6c0,0.3,0.3,0.5,0.6,0.5c0.7,0,2,0.1,2.6,0.2c2.5,0.5,3.1,1.7,3.2,4.3c0.2,2.4,0.2,4.5,0.2,16.2V120.9
		L697.5,120.9z M743.2,120.9c0,7.2,0,13.1-0.4,16.3c-0.3,2.2-0.7,3.8-2.2,4.1c-0.7,0.1-1.6,0.3-2.3,0.3c-0.5,0-0.6,0.2-0.6,0.5
		c0,0.5,0.4,0.6,1.2,0.6c2.3,0,7-0.2,7.1-0.2c0.4,0,5.1,0.2,9.2,0.2c0.8,0,1.2-0.2,1.2-0.6c0-0.2-0.2-0.5-0.6-0.5
		c-0.7,0-2.3-0.1-3.4-0.3c-2.3-0.3-2.7-2-2.9-4.1c-0.4-3.2-0.4-9.1-0.4-16.3v-1.8c0-0.4,0.1-0.6,0.5-0.6l9.2,0.1
		c0.5,0,0.7,0.2,1,0.5c1.5,2,5,7,8.2,11.1c4.3,5.6,6.9,9.3,10.1,11c2,1.1,3.8,1.4,8,1.4h5.3c1.4,0,1.8-0.2,1.8-0.6
		c0-0.2-0.3-0.5-0.7-0.5c-0.5,0-1.5,0-2.9-0.2c-1.9-0.3-5.1-1.1-9.2-5.4c-4.4-4.7-9.5-11.3-15.6-19.2c6.8-6.2,9.1-11.8,9.1-17.3
		c0-5.2-3.3-8.9-5.2-10.2c-4-2.9-9-3.3-13.7-3.3c-2.3,0-8,0.2-8.9,0.2c-0.4,0-5.1-0.2-8.5-0.2c-0.8,0-1.2,0.1-1.2,0.6
		c0,0.3,0.3,0.5,0.6,0.5c0.7,0,2,0.1,2.6,0.2c2.5,0.5,3.1,1.7,3.2,4.3c0.1,2.4,0.1,4.5,0.1,16.2V120.9L743.2,120.9z M749.3,89.7
		c0-0.5,0.2-0.8,0.6-0.9c0.8-0.2,2.8-0.5,5-0.5c8,0,13,5.6,13,15c0,5.7-2,9.8-4.6,11.6c-1.7,1.2-3.8,1.4-5.6,1.4
		c-3.3,0-6.8-0.5-7.9-1.2c-0.4-0.2-0.5-0.5-0.5-0.9V89.7L749.3,89.7z M804.4,143.8c4.1,0,8.1-0.9,11.3-3.2c5.2-3.7,6.4-9.4,6.4-12.5
		c0-6-2.1-10.7-11-17.6l-2.1-1.7c-7.1-5.8-9.2-8.3-9.2-12.6c0-5.5,4.1-8.7,9.2-8.7c6.9,0,8.9,3.2,9.4,4c0.5,0.8,0.9,2.9,1,3.8
		c0.1,0.6,0.2,1,0.6,1c0.4,0,0.5-0.5,0.5-1.7c0-5.1,0.3-7.6,0.3-8c0-0.4-0.2-0.5-0.8-0.5c-0.6,0-1.2-0.1-2.6-0.4
		c-1.9-0.5-4.1-0.8-7-0.8c-9.5,0-15.5,5.5-15.5,13.5c0,5.1,1.8,9.8,9.8,16.3l3.4,2.8c6.5,5.3,8.6,8.3,8.6,13.5c0,4.8-3.5,10-10.7,10
		c-5,0-10-2.1-11.1-7.7c-0.2-1.1-0.2-2.1-0.2-2.8c0-0.6-0.1-0.8-0.5-0.8c-0.4,0-0.5,0.4-0.6,1.2c-0.1,1.2-0.4,4.2-0.4,8
		c0,2,0.1,2.3,1.1,2.9C797.4,143.2,800.9,143.8,804.4,143.8L804.4,143.8z M848.2,107.7c0-11.7,0-13.8,0.1-16.2
		c0.2-2.6,0.8-3.9,2.8-4.3c0.9-0.2,1.4-0.2,1.9-0.2c0.3,0,0.6-0.1,0.6-0.5c0-0.5-0.4-0.6-1.2-0.6c-2.3,0-7,0.2-7.4,0.2
		c-0.4,0-5.1-0.2-7.6-0.2c-0.8,0-1.2,0.1-1.2,0.6c0,0.3,0.3,0.5,0.6,0.5c0.5,0,1.5,0.1,2.3,0.3c1.7,0.4,2.4,1.7,2.6,4.2
		c0.2,2.4,0.2,4.5,0.2,16.2v13.2c0,7.2,0,13.1-0.4,16.3c-0.3,2.2-0.7,3.8-2.2,4.1c-0.7,0.1-1.6,0.3-2.3,0.3c-0.5,0-0.6,0.2-0.6,0.5
		c0,0.5,0.4,0.6,1.2,0.6c2.3,0,7-0.2,7.4-0.2c0.4,0,5.1,0.2,9.2,0.2c0.8,0,1.2-0.2,1.2-0.6c0-0.2-0.1-0.5-0.6-0.5
		c-0.7,0-2.3-0.1-3.4-0.3c-2.3-0.3-2.7-2-2.9-4.1c-0.4-3.2-0.4-9.1-0.4-16.3V107.7L848.2,107.7z M891,89.2l9.5,0.2
		c7.2,0.1,8.9,1.9,9.2,4.1l0.1,0.8c0.1,1.1,0.2,1.3,0.6,1.3c0.3,0,0.5-0.3,0.5-1c0-0.8,0.2-6,0.2-8.3c0-0.5,0-0.9-0.4-0.9
		c-0.6,0-2.6,0.8-7.4,0.8h-28.2c-0.9,0-3.8-0.2-5.9-0.4c-2-0.2-2.8-0.9-3.3-0.9c-0.3,0-0.6,1-0.8,1.4c-0.1,0.6-1.7,7.1-1.7,7.8
		c0,0.5,0.2,0.7,0.4,0.7c0.3,0,0.5-0.2,0.8-0.8c0.2-0.5,0.5-1.1,1.3-2.3c1.2-1.8,3-2.3,7.7-2.4l11.1-0.2v31.8c0,7.2,0,13.1-0.4,16.3
		c-0.3,2.2-0.7,3.8-2.2,4.1c-0.7,0.1-1.6,0.3-2.3,0.3c-0.5,0-0.6,0.2-0.6,0.5c0,0.5,0.4,0.6,1.2,0.6c2.3,0,7-0.2,7.4-0.2
		c0.4,0,5.1,0.2,9.2,0.2c0.8,0,1.2-0.2,1.2-0.6c0-0.2-0.2-0.5-0.6-0.5c-0.7,0-2.3-0.1-3.4-0.3c-2.3-0.3-2.7-2-2.9-4.1
		c-0.4-3.2-0.4-9.1-0.4-16.3V89.2L891,89.2z M943.6,80.2c0.4,0,0.7-0.1,0.7-0.4c0-0.3-0.7-0.5-1.4-1.1c-3.1-2-6.8-4.9-7.4-5.5
		c-0.7-0.7-0.8-1.2-1.1-1.2c-0.3,0-0.6,0.2-1.2,0.4c-0.9,0.4-2.9,1-4.5,1.4c-0.5,0.2-0.8,0.2-0.8,0.6c0,0.4,0.6,0.7,2.2,1.3
		C931.2,76.2,942.2,80.2,943.6,80.2L943.6,80.2z M920.6,134.5c-1.4,3.8-2.9,6.6-6.3,7.1c-0.6,0.1-1.7,0.1-2.2,0.1
		c-0.4,0-0.7,0.2-0.7,0.5c0,0.5,0.5,0.6,1.4,0.6c3.5,0,7.7-0.2,8.5-0.2c0.8,0,4.1,0.2,5.9,0.2c0.7,0,1.1-0.2,1.1-0.6
		c0-0.3-0.2-0.5-0.8-0.5h-0.8c-1.3,0-2.9-0.7-2.9-2.2c0-1.4,0.4-3.2,1.1-5l4.5-13.3c0.2-0.4,0.4-0.6,0.8-0.6h16.1
		c0.4,0,0.5,0.2,0.7,0.5l7,18.5c0.5,1.2,0,1.9-0.5,2c-0.3,0.1-0.5,0.2-0.5,0.5c0,0.4,0.8,0.4,2.3,0.5c5.2,0.2,10.7,0.2,11.8,0.2
		c0.8,0,1.5-0.2,1.5-0.6c0-0.4-0.3-0.5-0.8-0.5c-0.8,0-1.9-0.1-3-0.5c-1.6-0.5-3.8-1.7-6.5-8.3c-4.6-11.4-16.4-42.4-17.5-45.3
		c-0.9-2.3-1.2-2.7-1.7-2.7c-0.5,0-0.8,0.4-1.7,2.9L920.6,134.5L920.6,134.5z M931.1,117.9c-0.2,0-0.4-0.1-0.2-0.5l6.6-20.3
		c0.4-1.1,0.8-1.1,1.1,0l7.1,20.3c0.1,0.3,0.1,0.5-0.3,0.5H931.1L931.1,117.9z"/>
	<path class="st1" d="M152,22.9c0,0,6.9-4.9,17-6.6c10.1-1.7,20.8-1.7,28.9,0.9c8.1,2.6,16.7,6.1,19.3,8.1c2.6,2,2.6,4.3,2.6,4.3
		L212.9,44c0,0-3.5,5.5-3.2,6.4c0.3,0.9,1.2,5.5,1.2,5.5s2,5.8,2,7.2c0,1.4-4.6,20.5-6.6,24.5c-2,4-2,10.4-0.3,12.7
		c1.7,2.3,9.2,5.5,14.1,7.2c4.9,1.7,27.1,12.4,30,15.9c2.9,3.5,23.4,35.2,24.8,49.4c1.4,14.1,2.3,8.4,2.3,8.4l1.4,8.1
		c0,0,3.5,5.8,4.9,8.1c1.4,2.3,1.4,19.9,1.4,19.9l7.8,19.9l6.6,12.1c0,0,4,8.1,3.8,10.1c-0.3,2-4.9,9.5-4.9,9.5s1.4,8.1,1.2,10.4
		c-0.3,2.3-3.5,9.8-6.1,11.8c-2.6,2-5.5,6.1-5.5,6.1s0.6,8.1,0.6,9.8c0,1.7-1.4,13-6.6,17.9c-1.1,1.1-1.2,7.2-1.2,7.2
		s-15,15-29.7,21.9c-14.7,6.9-31.8,14.1-49.4,15.3c-17.6,1.2-44.5,0.3-61.5-6.9c-17-7.2-32.3-14.1-43.6-24.5
		c-11.3-10.4-5.2-5.2-5.2-5.2l-2-28.6l-2-26.3c0,0-7.2-4-10.4-10.4s-0.6-12.7,1.7-18.2c2.3-5.5,2.6-15.3,2.9-18.2
		c0.3-2.9-1.4-15.6,0.3-27.4c1.7-11.8,3.8-29.2,9.2-41c5.5-11.8,12.1-25.1,17.3-29.7c5.2-4.6,12.7-9.2,12.7-9.2s-4-4.3-4-7.2
		c0-2.9,1.2-8.9,2.3-10.4c1.2-1.4,3.2-6.6,3.2-6.6s6.9,3.2,8.7,4c1.7,0.9,3.8,2,5.8,4c2,2,3.2,3.5,3.8,3.5c0.6,0,9-6.9,9-6.9
		l8.4-4.9v-15l-2.6-17.6l2-13.9l-1.4-13.9L152,22.9L152,22.9z"/>
	<path class="st2" d="M157.8,90.6c-10.7,2.2-20.9,5.6-30.5,10.1"/>
	<path class="st1" d="M31.3,292.8c-0.3,0.1-0.4,0.1-0.5-0.1c-0.2-0.6-1.7-4.4-1.9-5.3c-0.2-1.2,0.4-2,0.9-2.4c0.5-0.3,1-0.6,1.3-0.7
		c0.3-0.1,0.6-0.3,0.5-0.5c-0.1-0.4-0.6-0.2-1,0c-0.3,0.1-2.4,0.8-3.3,1.1c-1.4,0.4-2.6,0.7-2.9,0.8c-0.3,0.1-0.4,0.2-0.3,0.4
		c0.1,0.2,0.3,0.2,0.6,0.3c0.7,0.1,1.1,0.6,1.4,1.2c0.2,0.5,0.4,1,0.6,1.6l1.8,4.5c0.1,0.2,0,0.3-0.3,0.4l-11.1,4.2
		c-0.5,0.2-0.7,0.1-0.7-0.1l-1.9-5.5c-0.5-1.4-0.1-2.4,0.4-2.8c0.5-0.4,1.3-0.7,1.6-0.8c0.5-0.2,0.7-0.4,0.6-0.6s-0.4-0.2-0.8-0.1
		c-0.6,0.1-3.2,1-3.7,1.2c-1.2,0.3-1.8,0.4-2.1,0.5c-0.2,0.1-0.4,0.3-0.3,0.4c0.1,0.2,0.3,0.3,0.5,0.5c0.3,0.3,0.4,0.7,0.7,1.4
		c0.4,0.8,3.1,8,3.6,9.4c0.4,1,1.1,3.3,1.8,5.2c0.2,0.5,0.4,0.8,0.8,0.6c0.3-0.1,0.3-0.4,0.1-0.7c-0.2-0.5-0.4-1.1-0.4-1.4
		c-0.1-1.3,0.5-1.8,2-2.5c1.4-0.6,2.6-1.1,9.4-3.6l7.8-3c4.3-1.6,7.6-2.9,9.5-3.4c1.3-0.3,2.4-0.5,2.8,0.1c0.2,0.3,0.5,0.7,0.7,1.2
		c0.1,0.4,0.3,0.5,0.6,0.4c0.4-0.1,0.4-0.4,0.2-0.9c-0.5-1.4-1.5-3.5-1.8-4.5c-0.3-0.9-1.1-3.2-1.9-5.5c-0.2-0.5-0.4-0.7-0.7-0.6
		c-0.2,0.1-0.3,0.3-0.1,0.7c0.2,0.5,0.4,1.3,0.5,1.8c0.2,1.1-0.7,1.7-1.9,2.3c-1.8,0.9-5.1,2.1-9.4,3.8L31.3,292.8L31.3,292.8z"/>
	<path class="st1" d="M19.9,272.3c-7,1.6-8.3,1.9-9.8,2.2c-1.6,0.3-2.5,0.2-3-0.8c-0.2-0.4-0.4-1-0.5-1.4c-0.1-0.4-0.2-0.6-0.6-0.6
		c-0.3,0.1-0.4,0.4-0.2,0.9c0.3,1.4,1.1,4.1,1.3,5c0.2,1,0.6,3.4,1,5.1c0.1,0.6,0.3,0.8,0.6,0.7c0.3-0.1,0.4-0.3,0.3-0.7
		c-0.1-0.5-0.2-0.9-0.1-1.3c0-1.3,0.7-1.8,2.3-2.2c1.5-0.4,2.8-0.7,9.8-2.3l8.1-1.9c4.3-1,7.9-1.8,9.9-2.1c1.4-0.2,2.4-0.2,2.8,0.5
		c0.2,0.3,0.4,0.7,0.5,1.3c0.1,0.4,0.3,0.6,0.5,0.5c0.3-0.1,0.4-0.4,0.3-0.8c-0.3-1.5-1-3.8-1.2-4.6c-0.7-3-1-5.5-2.2-10.8
		c-0.4-1.9-0.7-2.1-1.8-2c-1.4,0-4.9,0.6-5.4,0.7c-0.6,0.1-0.8,0.2-0.7,0.5c0.1,0.3,0.4,0.3,0.8,0.2c0.9-0.1,2.3,0,3,0.3
		c1.5,0.6,1.8,2.1,2.3,4c0.7,2.9,0.6,3.9,0,4.7c-0.7,1-3.8,1.7-9.8,3.1L19.9,272.3L19.9,272.3z"/>
	<path class="st1" d="M37.2,239.2c-0.5-9.6-9.5-15.2-20.3-14.6C6.1,225.2-0.5,231.5,0,240.9c0.6,11.4,11.3,15.1,19.5,14.6
		C27.9,255.1,37.8,250.1,37.2,239.2L37.2,239.2z M34.8,237.8c0.4,7.3-7.2,12.1-17,12.6c-11.8,0.7-15.1-4.1-15.4-8.5
		c-0.3-6.2,6-11.5,16.6-12.1C32.7,229,34.6,235.1,34.8,237.8L34.8,237.8z"/>
	<path class="st1" d="M23.2,215.3c4.3,0.7,8,1.2,10,1.7c1.3,0.4,2.3,0.7,2.4,1.5c0,0.4,0.1,0.8,0,1.4c-0.1,0.5,0,0.6,0.3,0.7
		c0.3,0.1,0.5-0.2,0.6-0.7c0.2-1.5,0.5-3.9,0.6-4.6c0.1-0.6,0.7-3.3,1-5.5c0.1-0.5,0-0.8-0.4-0.8c-0.2,0-0.4,0.1-0.4,0.4
		c-0.1,0.5-0.3,1.3-0.5,1.8c-0.4,1.1-1.4,1.2-2.8,1.1c-2-0.1-5.7-0.7-10.1-1.4l-0.7-0.1c-0.3,0-0.4-0.2-0.3-0.4l0.6-3.3
		c0-0.3,0.1-0.5,0.4-0.6c0.8-0.4,4.2-1.6,7.1-2.7c3.9-1.5,6.4-2.6,7.7-4.1c0.8-0.9,1.2-1.8,1.5-3.9l0.6-3.6c0.1-0.5,0-0.7-0.4-0.8
		c-0.2,0-0.4,0.1-0.4,0.4c0,0.3-0.1,0.6-0.3,1c-0.2,0.5-0.8,2-3.8,3.7c-3.3,1.8-7.8,3.7-13.6,6.2c-3.3-4.4-6.3-6-9.7-6.6
		c-3.1-0.5-5.8,0.6-6.8,1.6c-2.1,1.8-2.7,4.2-3.1,6.6c-0.2,1.2-0.5,4-0.7,5.3c-0.1,0.8-0.6,3.1-0.9,5.1c-0.1,0.6,0,0.8,0.3,0.9
		c0.3,0.1,0.5-0.2,0.5-0.6c0.1-0.5,0.2-1.2,0.4-1.4c0.5-1.2,1.3-1.4,2.9-1.2c1.5,0.2,2.8,0.4,10,1.5L23.2,215.3L23.2,215.3z
		 M5.1,208c-0.4-0.1-0.6-0.2-0.6-0.4c-0.1-0.4,0-1.1,0.1-2c0.3-2.2,2.8-5.4,9.5-4.4c3.8,0.6,5.8,2,6.7,3.3c0.5,0.8,0.6,1.3,0.4,2.8
		c-0.1,0.9-0.5,2-0.9,2.8c-0.2,0.2-0.4,0.3-0.9,0.2L5.1,208L5.1,208z"/>
	<path class="st1" d="M29.5,181.8c4.1,1.4,7.7,2.6,9.5,3.4c1.3,0.6,2.2,1.1,2.1,1.9c0,0.4-0.1,0.8-0.3,1.4c-0.1,0.4-0.1,0.6,0.2,0.7
		c0.3,0.1,0.5-0.1,0.7-0.6c0.5-1.4,1.1-3.8,1.4-4.6c0.7-2.1,1.8-4.4,3.6-9.9c0.5-1.4,0.6-1.7-0.5-2.3c-0.8-0.5-3.8-1.8-4.8-2.1
		c-0.4-0.2-0.8-0.3-0.9,0c-0.1,0.3,0.1,0.4,0.5,0.6c1.8,0.9,2.6,1.6,2.8,2.7c0.2,1.1-0.3,2.6-0.6,3.6c-1.2,3.7-2.1,4-5.2,3
		c-1.3-0.4-5.4-1.8-7-2.3l-3.6-1.2c-0.3-0.1-0.4-0.2-0.4-0.4c0.3-0.9,1.5-4.4,1.9-5.1c0.6-1.3,1.5-1.5,2.4-1.4
		c0.6,0.1,1.2,0.3,1.7,0.4c0.2,0.1,0.4,0.1,0.5-0.2c0.1-0.3-0.4-0.5-0.7-0.6c-0.3-0.1-2.1-0.8-3-1.2c-2.3-0.9-2.9-1.3-3.2-1.4
		c-0.3-0.1-0.4,0-0.4,0.1c-0.1,0.2,0.1,0.4,0.4,0.8c0.3,0.5,0.3,1.1,0.1,2c-0.2,0.9-1.6,5-1.8,5.8c-0.1,0.2-0.3,0.2-0.6,0.1
		l-11.4-3.8c-0.3-0.1-0.4-0.2-0.4-0.4c0.2-0.7,1.6-4.5,1.9-5.1c0.9-1.7,1.5-1.9,2.4-1.9c0.6,0,1.4,0.2,1.7,0.3
		c0.4,0.1,0.7,0.1,0.7-0.1c0.1-0.3-0.2-0.4-0.4-0.5c-0.5-0.3-2.5-1-2.9-1.2c-2-0.8-2.5-1.2-2.8-1.3c-0.2-0.1-0.4-0.1-0.5,0.1
		c-0.1,0.2,0,0.4,0,0.6c0,0.3-0.1,0.9-0.3,1.6c-0.2,0.7-2.6,7.9-3,9c-0.3,1-1.2,3.2-1.9,5.1c-0.2,0.5-0.2,0.8,0.1,0.9
		c0.3,0.1,0.5-0.1,0.6-0.5c0.2-0.5,0.4-1.1,0.6-1.4c0.7-1.1,1.5-1.1,3.1-0.7c1.5,0.4,2.7,0.8,9.6,3.1L29.5,181.8L29.5,181.8z"/>
	<path class="st1" d="M26.9,151.8L26.9,151.8c1.2-0.3,8.4-1.2,14.9-2.4c6.2-1.2,14-2.5,17.6-3.3c0.7-0.1,1.3-0.3,1.5-0.6
		c0.2-0.3-0.1-0.6-1.1-1.1l-26.2-14.5c-2.3-1.3-3.1-2-2.9-3.1c0.1-0.5,0.2-0.7,0.4-1.1c0.2-0.4,0.2-0.7-0.1-0.8
		c-0.3-0.2-0.6,0.1-0.8,0.6c-0.9,1.6-1.4,3-1.6,3.3c-0.4,0.7-1.4,2.2-2.3,4c-0.3,0.5-0.4,0.9-0.1,1.1c0.3,0.1,0.4,0.1,0.7-0.3
		c0.3-0.5,0.7-1.3,1.2-1.6c0.8-0.6,1.8-0.5,4.4,0.9l19,9.8l-0.1,0.2c-1,0.2-9.4,1.5-13.5,2.2c-8.7,1.6-18.2,3-19,3.2
		c-1.1,0.2-1.8,0.2-2,0.5c-0.2,0.3,0.4,0.8,1.2,1.2l24.6,13.6c3.6,2,4.8,2.8,4.6,3.8c-0.1,0.6-0.4,1.2-0.6,1.6
		c-0.2,0.3-0.2,0.6,0,0.7c0.4,0.2,0.6-0.1,0.8-0.5c0.9-1.7,1.7-3.4,1.8-3.7c0.3-0.6,1.2-1.9,2.4-4.1c0.3-0.5,0.3-0.8,0-1
		c-0.3-0.1-0.4,0-0.6,0.4c-0.3,0.5-0.7,1.1-1.2,1.6c-0.7,0.5-2,0.4-5.3-1.3L26.9,151.8L26.9,151.8z"/>
	<path class="st1" d="M60.5,123c3.4,2.8,6.2,5.2,7.6,6.6c1,1,1.6,1.8,1.3,2.5c-0.1,0.3-0.4,0.7-0.7,1.2c-0.3,0.4-0.3,0.6-0.1,0.7
		c0.3,0.2,0.5,0.1,0.9-0.3c1-1.2,2.4-3.1,3-3.8c0.7-0.8,2.3-2.6,3.9-4.5c0.3-0.3,0.4-0.6,0.1-0.9c-0.2-0.2-0.4-0.1-0.7,0.2
		c-0.4,0.4-1,1-1.4,1.4c-0.9,0.8-1.8,0.3-2.9-0.5c-1.7-1.2-4.6-3.6-7.9-6.4l-14.9-12.5l3.2-3.6c2.2-2.5,3.9-2.5,4.9-1.7l0.4,0.3
		c0.6,0.4,0.8,0.5,1,0.3c0.1-0.2,0-0.4-0.4-0.7c-0.9-0.8-3.4-3-4.2-3.6c-0.5-0.5-0.8-0.6-1-0.4c-0.2,0.2-0.4,1.2-2,3.1L41,112
		c-0.8,1-1.8,2-2.6,2.8c-0.7,0.7-1.3,0.7-1.5,0.9c-0.1,0.2,0,0.4,0.4,0.9c0.2,0.3,3.1,3.6,3.7,4.1c0.4,0.3,0.6,0.4,0.8,0.2
		c0.1-0.2,0.1-0.4-0.2-0.7c-0.2-0.3-0.6-0.8-0.9-1.6c-0.4-1.1,0-2,1.3-3.7l3.5-4.5L60.5,123L60.5,123z"/>
	<path class="st1" d="M75.4,106.8c3.1,3.4,5.6,6.2,6.8,7.8c0.8,1.1,1.2,1.9,0.8,2.5c-0.2,0.3-0.5,0.7-0.9,1.1
		c-0.3,0.3-0.4,0.5-0.2,0.7c0.2,0.2,0.5,0.2,0.9-0.2c1.1-1,2.8-2.7,3.5-3.3c0.8-0.7,2.6-2.2,4.5-3.9c0.3-0.3,0.4-0.6,0.2-0.8
		c-0.2-0.2-0.4-0.2-0.7,0.1c-0.4,0.4-1.1,0.9-1.6,1.2c-1,0.6-1.7,0.2-2.7-0.7c-1.5-1.4-4-4.2-7.1-7.6l-5.6-6.2
		c-4.8-5.4-5.7-6.4-6.7-7.5c-1.1-1.3-1.4-2.1-0.8-3c0.3-0.4,0.5-0.6,0.8-0.9c0.3-0.3,0.4-0.5,0.1-0.8c-0.2-0.2-0.5-0.1-0.8,0.3
		c-1.1,1-2.6,2.6-3.4,3.2c-0.8,0.7-2.7,2.2-3.8,3.2c-0.5,0.4-0.6,0.7-0.4,0.9c0.3,0.3,0.5,0.2,0.8-0.1c0.3-0.3,0.7-0.6,1.1-0.8
		c0.8-0.4,1.6,0,2.7,1.1c1.1,1.1,2,2.1,6.8,7.4L75.4,106.8L75.4,106.8z"/>
	<path class="st1" d="M82.6,83.5L82.6,83.5c1.2,0.3,7.9,3,14.2,5.1c6,2,13.4,4.5,17,5.6c0.6,0.2,1.3,0.4,1.7,0.2
		c0.3-0.2,0.2-0.6-0.4-1.5l-16-25.4c-1.4-2.3-1.7-3.3-1-4.2c0.3-0.4,0.6-0.5,0.9-0.7c0.4-0.2,0.5-0.5,0.3-0.7
		c-0.2-0.3-0.6-0.2-1,0.1c-1.6,1-2.7,1.9-3,2.1c-0.7,0.4-2.3,1.3-3.9,2.4c-0.5,0.3-0.8,0.6-0.6,0.9c0.2,0.2,0.4,0.3,0.7,0
		c0.4-0.3,1.2-0.8,1.8-0.9c1-0.1,1.8,0.5,3.4,2.9l11.9,17.7l-0.2,0.1c-1-0.3-9-3.2-12.9-4.5c-8.4-2.8-17.5-6.1-18.2-6.4
		c-1-0.4-1.6-0.7-2-0.5c-0.3,0.2-0.1,0.8,0.5,1.6l15,23.8c2.2,3.5,2.8,4.7,2.2,5.6c-0.3,0.4-0.9,0.9-1.3,1.1
		c-0.3,0.2-0.5,0.4-0.3,0.6c0.2,0.4,0.5,0.2,1-0.1c1.7-1.1,3.1-2.2,3.4-2.4c0.6-0.4,2-1.1,4-2.4c0.4-0.3,0.7-0.6,0.5-0.9
		c-0.2-0.2-0.4-0.2-0.7,0c-0.5,0.3-1.1,0.7-1.8,0.8c-0.8,0.1-1.9-0.6-4-3.7L82.6,83.5L82.6,83.5z"/>
	<path class="st1" d="M133.9,72.7c0.2-0.1,0.3,0,0.5,0.2l6.3,8.4c0.4,0.5,0.3,1,0.1,1.1c-0.3,0.2-0.5,0.3-0.4,0.6
		c0.1,0.3,0.5,0.2,1.2,0c2.9-1,5.5-1.9,6.8-2.4c1.3-0.5,1.6-0.7,1.5-1.1c-0.1-0.3-0.3-0.3-0.6-0.2c-0.4,0.2-1,0.3-1.6,0.4
		c-0.8,0.1-2.1-0.2-4.9-3.7c-4.8-5.9-17.2-22-18.9-24.1c-0.7-0.9-1.1-1.2-1.4-1.1c-0.4,0.1-0.4,0.7-0.3,2.1l1.4,31.3
		c0.1,2.5,0,4.3-1.6,5.1c-0.3,0.2-0.8,0.4-1.1,0.5c-0.3,0.1-0.4,0.2-0.3,0.5c0.1,0.4,0.4,0.4,0.8,0.2c1.9-0.7,3.8-1.5,4.2-1.7
		c1.1-0.4,2.7-0.8,3.8-1.3c0.4-0.1,0.6-0.3,0.4-0.7c-0.1-0.3-0.2-0.3-0.7-0.2l-0.5,0.2c-1.1,0.4-1.6-0.1-1.9-0.9
		c-0.2-0.5-0.4-1.7-0.5-2.9l-0.4-7.1c0-0.3,0-0.4,0.2-0.5L133.9,72.7L133.9,72.7z M125.8,73.2c-0.1,0.1-0.2-0.1-0.3-0.3l-0.8-12.2
		c0-0.2,0-0.4,0.1-0.5c0.1,0,0.2,0.2,0.3,0.3l7.3,9.8c0.1,0.1,0.1,0.3-0.1,0.3L125.8,73.2L125.8,73.2z"/>
	<path class="st1" d="M225.2,82.1c1.9,0.6,4.1,0.8,6.3-0.1c3.3-1.4,5-4.3,5.8-6.9c1.3-4.3,0.6-7.8-2.5-13.4l-0.7-1.3
		c-2.2-3.8-2.5-5.6-1.9-7.7c0.8-2.7,3-4.2,5.7-3.4c2.4,0.7,3,2.4,3.3,3.4c0.4,1.4,0.2,2.9,0.1,3.3c-0.2,0.5-0.1,0.9,0.1,0.9
		c0.3,0.1,0.5-0.2,0.8-1.2c1.1-3.5,1.6-4.8,1.8-5.4c0.1-0.3,0-0.5-0.3-0.7c-0.9-0.6-2.2-1.5-4.6-2.2c-5.1-1.5-9.5,1.1-11,6.1
		c-1.1,3.7-0.7,7.3,2.2,12.4l1.2,2.1c2.2,3.8,2.1,6.1,1.4,8.3c-0.7,2.4-3.1,4.7-6.4,3.7c-2.3-0.7-4-2.5-3.8-6.1
		c0-0.8,0.2-1.8,0.4-2.4c0.1-0.4,0.2-0.8-0.1-0.9c-0.3-0.1-0.6,0.4-0.8,1.1c-0.3,0.7-1.2,3.4-2,5.9c-0.3,1-0.3,1.3,0.2,1.8
		C221.5,80.6,223.1,81.5,225.2,82.1L225.2,82.1z"/>
	<path class="st1" d="M251.9,76.9c-1.9,4-3.5,7.3-4.5,9.1c-0.7,1.2-1.3,2-2.1,1.9c-0.4-0.1-0.8-0.2-1.3-0.4
		c-0.4-0.2-0.6-0.1-0.7,0.1c-0.1,0.3,0,0.5,0.5,0.8c1.4,0.6,3.6,1.5,4.4,1.9c1,0.5,3.1,1.6,5.3,2.7c0.4,0.2,0.7,0.2,0.9-0.1
		c0.1-0.2,0-0.4-0.4-0.6c-0.5-0.2-1.2-0.7-1.7-1c-1-0.7-0.7-1.7-0.2-3c0.7-1.9,2.3-5.3,4.2-9.3l8.3-17.6l4.3,2.2
		c3,1.5,3.4,3.2,2.9,4.3l-0.2,0.5c-0.3,0.7-0.3,0.9,0,1c0.2,0.1,0.4-0.1,0.6-0.5c0.5-1.1,2-4,2.5-4.9c0.3-0.6,0.4-0.9,0.2-1
		c-0.3-0.1-1.3-0.1-3.5-1.1l-13.6-6.4c-1.1-0.5-2.4-1.2-3.3-1.8c-0.8-0.5-1-1.1-1.2-1.2c-0.2-0.1-0.4,0.1-0.8,0.6
		c-0.2,0.3-2.7,3.9-3,4.6c-0.2,0.5-0.3,0.7,0,0.8c0.2,0.1,0.4,0,0.6-0.3c0.2-0.3,0.6-0.7,1.3-1.2c1-0.7,1.9-0.5,3.9,0.3l5.2,2.2
		L251.9,76.9L251.9,76.9z"/>
	<path class="st1" d="M274,86.4c-4.2,5.5-5.1,9.2-4.9,12.1c0.3,4.2,3.1,6.5,4.7,7.7c2,1.5,4.5,2.7,8.4,2c4.6-0.8,8.3-5,11.5-9.2
		l3.1-4.1c4.4-5.8,5.2-6.8,6.1-8c1.1-1.3,1.8-1.7,2.8-1.3c0.4,0.2,0.6,0.3,1,0.6c0.4,0.3,0.6,0.3,0.8,0.1c0.2-0.3,0-0.5-0.4-0.8
		c-1.2-0.9-3.2-2.2-3.5-2.5c0,0-1.9-1.6-3.4-2.8c-0.4-0.3-0.7-0.4-0.9-0.1c-0.2,0.3-0.1,0.5,0.3,0.7c0.3,0.3,0.8,0.7,1,0.9
		c0.8,1,0.6,1.8-0.3,3.1c-0.9,1.3-1.7,2.3-6,8.1l-3.6,4.7c-3,3.9-5.6,7.2-8.9,8.1c-2.4,0.6-4.4-0.1-5.7-1.1c-1-0.8-2.3-2-2.6-4.4
		c-0.3-2.6,0.5-5.6,4.7-11.1l4-5.3c4.4-5.8,5.2-6.8,6.1-8c1.1-1.3,1.8-1.7,2.8-1.3c0.4,0.2,0.6,0.3,1,0.6c0.3,0.2,0.5,0.3,0.7,0
		c0.2-0.3,0-0.5-0.4-0.8c-1.1-0.8-3.1-2.2-3.8-2.7c-0.9-0.7-2.7-2.2-4.3-3.5c-0.5-0.3-0.7-0.4-0.9-0.2c-0.2,0.3-0.1,0.5,0.3,0.7
		c0.4,0.3,0.9,0.7,1.1,1c0.8,1,0.6,1.8-0.3,3.1c-0.9,1.3-1.7,2.3-6,8.1L274,86.4L274,86.4z"/>
	<path class="st1" d="M300.5,109.8c-3.3,2.8-6.2,5.3-7.8,6.4c-1.1,0.8-2.1,1.3-2.7,0.9c-0.3-0.2-0.7-0.5-1-0.9
		c-0.3-0.3-0.5-0.4-0.7-0.2c-0.3,0.2-0.2,0.5,0.1,0.9c1,1.2,2.7,2.9,3.2,3.5c1.2,1.4,3,4.4,4.8,6.5c4.6,5.3,9.7,6.2,12.5,6
		c3.4-0.1,8.2-1.6,12.8-5.5c4.3-3.7,6.1-7.6,6.8-10.6c1.4-6.7-2.7-11.5-5.8-15.1c-1.5-1.7-3.1-3.5-3.9-4.4c-0.7-0.8-2.1-2.7-3.4-4.2
		c-0.4-0.4-0.6-0.6-0.9-0.4c-0.3,0.2-0.2,0.5,0.1,0.8c0.3,0.4,0.7,0.9,0.9,1.2c0.6,1.2,0.2,1.9-1,3c-1.1,1-2.1,1.9-7.6,6.6
		L300.5,109.8L300.5,109.8z M310.5,107.5c2.9-2.4,6-5.1,7.2-6.1c0.4-0.3,0.7-0.4,1-0.3c0.3,0.1,1.4,1.1,1.9,1.7
		c1.9,2.3,4.3,5.9,3.4,11.3c-0.4,2.5-2.1,6.6-6.7,10.5c-3.7,3.2-7.5,5.4-11.1,5.3c-3.4-0.1-5.8-1.5-8.3-4.4c-2-2.3-2.2-4.1-1.8-5
		c0.2-0.6,1.6-1.9,2.5-2.7c0.7-0.6,3.4-3,7.2-6.3L310.5,107.5L310.5,107.5z"/>
	<path class="st1" d="M321.5,137c-3.9,2.4-7.1,4.4-8.9,5.3c-1.2,0.6-2,0.9-2.6,0.3c-0.3-0.2-0.6-0.6-0.9-1.1
		c-0.2-0.4-0.4-0.4-0.6-0.3c-0.3,0.2-0.3,0.5,0,0.9c0.8,1.3,2.2,3.3,2.6,4c0.5,0.9,1.7,3,3,5.1c0.2,0.4,0.5,0.5,0.8,0.4
		c0.2-0.1,0.2-0.4,0-0.7c-0.3-0.5-0.7-1.2-0.9-1.7c-0.4-1.1,0.2-1.7,1.2-2.5c1.7-1.2,4.9-3.2,8.8-5.6l7.1-4.4
		c6.1-3.8,7.3-4.5,8.6-5.2c1.5-0.8,2.3-1,3-0.2c0.3,0.3,0.5,0.6,0.7,0.9c0.2,0.3,0.4,0.5,0.7,0.3c0.2-0.1,0.2-0.5-0.1-0.9
		c-0.8-1.2-2.1-3.1-2.6-3.9c-0.6-0.9-1.7-3-2.5-4.3c-0.3-0.5-0.6-0.7-0.8-0.6c-0.3,0.2-0.3,0.4-0.1,0.8c0.2,0.4,0.5,0.8,0.6,1.3
		c0.2,0.8-0.3,1.6-1.6,2.5c-1.3,0.9-2.4,1.6-8.5,5.3L321.5,137L321.5,137z"/>
	<path class="st1" d="M322.1,167.5c3.7,8.9,14,11.2,24,7c10-4.2,14.1-12.3,10.4-21c-4.4-10.5-15.7-10.4-23.2-7.3
		C325.5,149.5,317.8,157.5,322.1,167.5L322.1,167.5z M324.9,168.1c-2.8-6.7,2.7-13.8,11.8-17.6c10.9-4.6,15.6-1.2,17.3,2.9
		c2.4,5.7-1.8,12.8-11.6,16.9C329.8,175.6,325.9,170.5,324.9,168.1L324.9,168.1z"/>
	<path class="st1" d="M343.2,184.6c-4.3,0.8-8,1.5-10,1.7c-1.4,0.1-2.4,0.1-2.8-0.6c-0.2-0.3-0.3-0.7-0.4-1.3
		c-0.1-0.4-0.3-0.6-0.5-0.5c-0.3,0.1-0.4,0.4-0.3,0.8c0.3,1.5,0.9,3.8,1,4.5c0.1,0.6,0.5,3.3,0.9,5.5c0.1,0.5,0.3,0.7,0.6,0.7
		c0.2,0,0.3-0.2,0.3-0.5c-0.1-0.4-0.2-1.3-0.2-1.9c0-1.2,1-1.6,2.3-1.9c1.9-0.6,5.6-1.3,9.9-2.1l0.7-0.1c0.3-0.1,0.4,0,0.4,0.2
		l0.5,3.3c0.1,0.3,0,0.5-0.2,0.7c-0.6,0.6-3.4,2.9-5.7,4.9c-3.2,2.8-5.1,4.6-5.9,6.4c-0.5,1.1-0.5,2.1-0.1,4.2l0.7,3.5
		c0.1,0.4,0.2,0.7,0.6,0.6c0.2,0,0.3-0.2,0.3-0.5c-0.1-0.3-0.1-0.6-0.1-1.1c0-0.6,0.1-2.2,2.4-4.8c2.5-2.8,6.1-6.1,10.7-10.5
		c4.6,3,7.9,3.6,11.4,2.9c3.1-0.6,5.2-2.6,5.9-3.8c1.3-2.3,1.1-4.9,0.7-7.2c-0.2-1.2-0.9-4-1.2-5.2c-0.2-0.8-0.5-3.2-0.8-5.1
		c-0.1-0.6-0.3-0.8-0.6-0.7c-0.3,0.1-0.4,0.3-0.3,0.7c0.1,0.5,0.2,1.2,0.1,1.5c-0.1,1.3-0.8,1.7-2.3,2.1c-1.5,0.4-2.8,0.6-9.9,2
		L343.2,184.6L343.2,184.6z M362.7,185.4c0.4-0.1,0.6,0,0.7,0.2c0.2,0.3,0.4,1,0.6,1.9c0.4,2.2-0.8,6.1-7.4,7.4
		c-3.8,0.7-6.2,0.1-7.4-0.8c-0.7-0.6-1-1-1.3-2.5c-0.2-0.9-0.3-2.1-0.1-2.9c0.1-0.3,0.3-0.4,0.8-0.5L362.7,185.4L362.7,185.4z"/>
	<path class="st1" d="M350.7,219.1c-6.9,0-10.4,1.4-12.6,3.3c-3.2,2.8-3.3,6.4-3.3,8.4c0,2.5,0.5,5.2,3.4,7.9
		c3.4,3.2,9,3.7,14.3,3.7l5.1,0c7.2,0,8.5,0.1,10.1,0.1c1.7,0.1,2.5,0.4,2.7,1.4c0.1,0.5,0.1,0.7,0.1,1.1c0,0.5,0.1,0.7,0.4,0.7
		c0.3,0,0.4-0.3,0.4-0.8c0-1.5-0.1-3.9-0.1-4.3c0,0,0.2-2.4,0.2-4.4c0-0.5-0.1-0.8-0.4-0.8c-0.3,0-0.4,0.2-0.4,0.6
		c0,0.4-0.1,1.1-0.2,1.4c-0.3,1.3-1.1,1.6-2.7,1.6c-1.5,0.1-2.8,0.1-10.1,0l-5.9,0c-4.9,0-9.2-0.2-11.8-2.3
		c-1.9-1.5-2.5-3.6-2.5-5.3c0-1.3,0.2-3,2-4.7c1.9-1.8,4.8-2.9,11.7-2.9l6.6,0c7.2,0,8.5,0.1,10.1,0.1c1.7,0.1,2.5,0.4,2.7,1.4
		c0.1,0.5,0.1,0.7,0.1,1.1c0,0.4,0.1,0.6,0.4,0.6c0.3,0,0.4-0.3,0.4-0.8c0-1.4-0.1-3.8-0.1-4.7c0-1.1,0.2-3.5,0.2-5.5
		c0-0.6-0.1-0.8-0.4-0.8c-0.3,0-0.4,0.2-0.4,0.6c0,0.5-0.1,1.2-0.2,1.5c-0.3,1.3-1.1,1.6-2.7,1.6c-1.5,0.1-2.9,0.1-10.1,0
		L350.7,219.1L350.7,219.1z"/>
	<path class="st1" d="M338.9,251.6c-1.5-0.6-3.2-1.3-3.3-2.4c0-0.6,0.1-0.8,0.1-1.1c0.1-0.4,0.1-0.6-0.2-0.7
		c-0.4-0.1-0.6,0.2-0.7,0.5c-0.3,1.2-0.6,3-0.8,3.7c-0.2,0.7-0.7,2.3-1.1,3.8c-0.1,0.6-0.1,0.9,0.3,1c0.2,0.1,0.4-0.2,0.5-0.5
		c0.1-0.4,0.3-0.9,0.6-1.5c0.3-0.6,0.9-1,1.7-0.7c0.7,0.2,1.3,0.4,2.1,0.6l17.9,6.4l0,0.1c-3.8,0.4-10.1,1.2-11.2,1.3
		c-1.4,0.1-9.2,1.3-11.5,1.7c-1.5,0.3-2.5,0.4-2.6,0.7c-0.1,0.3,0.3,0.6,2.2,2l19,13.2l0,0.1l-20.8-2.7c-1.3-0.2-1.9-0.4-1.9-0.7
		c-0.1-0.3-0.2-0.5-0.4-0.5c-0.3-0.1-0.5,0.1-0.8,0.9c-0.5,1.4-1.9,6.5-2.1,7.4c-0.1,0.5-0.1,1,0.3,1.1c0.3,0.1,0.4-0.2,0.5-0.5
		c0.1-0.5,0.3-1.2,1-2.2c0.7-1,2.1-1,5.1-0.7l29.3,3.6c1,0.1,1.5,0,1.6-0.3c0.1-0.3-0.2-0.6-0.9-1.1l-23.9-16.5l28.5-3.7
		c1.3-0.2,1.6-0.4,1.7-0.6c0.1-0.3-0.3-0.6-1-0.9L338.9,251.6L338.9,251.6z"/>
	<path class="st1" d="M318.3,330.7c-5.2-4.5-8.8-5.7-11.8-5.6c-4.2,0.1-6.7,2.8-8,4.3c-1.6,1.9-3,4.3-2.5,8.2
		c0.5,4.6,4.5,8.6,8.5,12l3.9,3.3c5.5,4.7,6.5,5.6,7.6,6.6c1.2,1.1,1.6,1.9,1.1,2.8c-0.2,0.4-0.3,0.6-0.6,0.9
		c-0.3,0.3-0.4,0.6-0.1,0.8c0.3,0.2,0.5,0.1,0.8-0.3c1-1.1,2.4-3,2.7-3.4c0,0,1.7-1.8,2.9-3.2c0.3-0.4,0.4-0.7,0.2-0.9
		c-0.3-0.2-0.5-0.1-0.7,0.2c-0.3,0.3-0.7,0.8-1,0.9c-1.1,0.7-1.8,0.5-3.1-0.5c-1.2-0.9-2.2-1.8-7.7-6.5l-4.5-3.9
		c-3.7-3.2-6.9-6-7.5-9.3c-0.5-2.4,0.4-4.4,1.5-5.7c0.8-1,2.1-2.2,4.6-2.3c2.7-0.2,5.6,0.9,10.8,5.3l5.1,4.3
		c5.5,4.7,6.5,5.6,7.6,6.6c1.2,1.1,1.6,1.9,1.1,2.8c-0.2,0.4-0.3,0.6-0.6,0.9c-0.2,0.3-0.3,0.5-0.1,0.7c0.3,0.2,0.5,0.1,0.9-0.4
		c0.9-1,2.3-3,2.9-3.6c0.7-0.9,2.4-2.6,3.7-4.1c0.4-0.4,0.5-0.7,0.2-0.9c-0.3-0.2-0.5-0.1-0.7,0.2c-0.3,0.4-0.8,0.9-1.1,1
		c-1.1,0.7-1.8,0.5-3.1-0.5c-1.2-0.9-2.2-1.8-7.7-6.5L318.3,330.7L318.3,330.7z"/>
	<path class="st1" d="M299.2,367.4L299.2,367.4c-1.2-0.2-8.1-2.4-14.5-4c-6.1-1.5-13.7-3.5-17.4-4.4c-0.6-0.2-1.3-0.3-1.7-0.1
		c-0.3,0.2-0.1,0.6,0.5,1.5l17.8,24.1c1.6,2.1,1.9,3.1,1.3,4.1c-0.3,0.4-0.5,0.6-0.8,0.8c-0.4,0.3-0.5,0.5-0.3,0.8
		c0.2,0.3,0.6,0.1,1-0.2c1.5-1.1,2.5-2.1,2.9-2.4c0.6-0.5,2.2-1.5,3.8-2.7c0.5-0.3,0.8-0.6,0.5-0.9c-0.2-0.2-0.4-0.2-0.7,0
		c-0.4,0.3-1.2,0.9-1.8,1c-1,0.2-1.8-0.3-3.6-2.6l-13.2-16.8l0.2-0.1c1,0.2,9.2,2.6,13.2,3.6c8.6,2.1,17.9,4.8,18.6,5
		c1,0.3,1.7,0.6,2,0.3c0.3-0.2,0-0.8-0.6-1.6l-16.7-22.6c-2.5-3.3-3.2-4.5-2.6-5.4c0.3-0.5,0.8-0.9,1.2-1.2c0.3-0.2,0.4-0.4,0.3-0.7
		c-0.3-0.3-0.6-0.2-1,0.1c-1.6,1.2-2.9,2.4-3.2,2.6c-0.6,0.4-1.9,1.2-3.8,2.7c-0.4,0.3-0.6,0.6-0.4,0.9c0.2,0.2,0.4,0.2,0.7-0.1
		c0.5-0.4,1.1-0.8,1.8-0.9c0.8-0.2,1.9,0.5,4.2,3.4L299.2,367.4L299.2,367.4z"/>
	<path class="st1" d="M264,375.3c-2.2-4.1-3.9-7.4-4.7-9.2c-0.5-1.3-0.7-2.1-0.1-2.6c0.3-0.2,0.6-0.5,1.1-0.8
		c0.4-0.2,0.5-0.4,0.4-0.6c-0.2-0.3-0.5-0.3-0.9-0.1c-1.3,0.7-3.4,2-4.2,2.4c-0.9,0.5-3.1,1.5-5.3,2.7c-0.4,0.2-0.6,0.5-0.4,0.8
		c0.1,0.2,0.3,0.2,0.7,0c0.5-0.3,1.3-0.6,1.8-0.7c1.1-0.4,1.7,0.3,2.4,1.3c1.1,1.7,2.9,5,5,9.1l3.9,7.4c3.4,6.4,4,7.5,4.7,8.9
		c0.7,1.5,0.8,2.4,0,3c-0.4,0.3-0.6,0.5-0.9,0.7c-0.3,0.2-0.5,0.4-0.3,0.7c0.1,0.3,0.4,0.2,0.9,0c1.3-0.7,3.2-1.9,4-2.3
		c1-0.5,3.1-1.5,4.4-2.2c0.5-0.3,0.8-0.5,0.6-0.8c-0.2-0.3-0.4-0.3-0.8-0.1c-0.4,0.2-0.9,0.4-1.3,0.5c-0.8,0.2-1.6-0.3-2.4-1.7
		c-0.8-1.3-1.4-2.5-4.8-8.8L264,375.3L264,375.3z"/>
	<path class="st1" d="M235.5,376.7c-1.4-1.9-1.8-2.4-2.3-2.3c-0.5,0.2-0.5,1-0.5,3.9c0,2.5-0.1,8-0.1,15.3
		c-0.1,6.2-0.2,8.9-0.2,13.6c0,3.2-0.3,4.2-0.6,4.7c-0.5,0.8-1.2,1-1.6,1.1c-0.4,0.1-0.5,0.3-0.4,0.6s0.4,0.3,0.9,0.1
		c1.1-0.4,2.7-1.1,3.3-1.3c0.5-0.2,2-0.5,3.8-1.1c0.7-0.2,1-0.4,0.9-0.8c-0.1-0.3-0.4-0.3-0.7-0.2c-0.5,0.2-1,0.3-1.5,0.3
		c-0.4,0-0.6-0.3-0.8-0.7c-0.1-0.4-0.2-1.1-0.2-1.8c-0.1-3.3-0.4-19.3-0.5-24.8l0.1,0l13.1,18.3c1.1,1.4,1.8,2.6,2,3.2
		c0.1,0.4,0.1,0.8,0,1.1c-0.2,0.4-0.7,0.6-1.3,0.8c-0.3,0.1-0.5,0.3-0.4,0.6s0.5,0.3,1,0.1c1.8-0.6,3.5-1.3,4.4-1.6
		c1.3-0.4,3.4-1,5.3-1.6c0.5-0.2,0.9-0.4,0.8-0.7c-0.1-0.3-0.2-0.4-0.6-0.3c-0.3,0.1-0.9,0.3-1.5,0.3c-1.4,0-2.2-0.3-3.9-2.5
		L235.5,376.7L235.5,376.7z"/>
	<path class="st1" d="M214.3,393.5c-0.6-4.3-1.1-8-1.2-10c0-1.4,0-2.4,0.7-2.7c0.3-0.1,0.8-0.3,1.3-0.4c0.5-0.1,0.6-0.2,0.6-0.5
		c0-0.3-0.3-0.4-0.8-0.4c-1.5,0.2-3.9,0.7-4.7,0.8c-2.2,0.3-4.8,0.4-10.5,1.1c-1.4,0.2-1.8,0.2-1.9,1.5c-0.1,1,0.1,4.2,0.2,5.3
		c0.1,0.5,0.1,0.8,0.4,0.8c0.3,0,0.3-0.2,0.3-0.8c0-2,0.3-3,1.2-3.7c0.9-0.7,2.5-0.9,3.5-1c3.8-0.5,4.5,0.1,5.1,3.3
		c0.2,1.4,0.8,5.7,1,7.3l0.5,3.7c0,0.3,0,0.5-0.2,0.5c-0.9,0.1-4.6,0.6-5.4,0.6c-1.4,0-2-0.6-2.4-1.5c-0.2-0.6-0.3-1.2-0.4-1.7
		c0-0.2-0.1-0.4-0.4-0.4c-0.3,0-0.3,0.6-0.2,0.9c0,0.3,0.2,2.2,0.3,3.2c0.2,2.4,0.1,3.2,0.2,3.5c0,0.3,0.2,0.4,0.3,0.3
		c0.2,0,0.3-0.3,0.5-0.7c0.3-0.5,0.8-0.7,1.7-1c0.9-0.2,5.2-0.8,6-0.9c0.2,0,0.3,0.2,0.3,0.5l1.6,11.9c0,0.3,0,0.5-0.2,0.5
		c-0.8,0.1-4.7,0.6-5.4,0.5c-1.9,0-2.4-0.5-2.8-1.3c-0.3-0.5-0.4-1.3-0.5-1.7c-0.1-0.4-0.2-0.6-0.4-0.6c-0.3,0-0.3,0.3-0.3,0.6
		c0,0.6,0.2,2.7,0.2,3.1c0.2,2.2,0.1,2.8,0.1,3.1c0,0.2,0.1,0.4,0.3,0.4c0.2,0,0.4-0.2,0.6-0.3c0.3-0.1,0.9-0.3,1.6-0.5
		c0.7-0.1,8.2-1.2,9.4-1.3c1.1-0.1,3.4-0.3,5.4-0.6c0.6-0.1,0.8-0.2,0.8-0.5c0-0.3-0.3-0.4-0.7-0.3c-0.5,0.1-1.2,0.1-1.5,0.1
		c-1.3-0.2-1.7-0.9-2-2.5c-0.3-1.5-0.5-2.8-1.4-10L214.3,393.5L214.3,393.5z"/>
	<path class="st1" d="M190.9,396.1c0.2-4.4,0.4-8.1,0.6-10.1c0.2-1.4,0.5-2.4,1.2-2.6c0.3-0.1,0.8-0.2,1.4-0.1
		c0.5,0,0.6-0.1,0.6-0.4c0-0.3-0.2-0.5-0.7-0.5c-1.5-0.1-3.9,0-4.6-0.1c-0.6,0-3.4-0.3-5.6-0.4c-0.5,0-0.8,0.1-0.8,0.4
		c0,0.2,0.1,0.4,0.4,0.4c0.5,0,1.3,0.2,1.9,0.3c1.1,0.2,1.3,1.3,1.4,2.7c0.1,2-0.1,5.7-0.3,10.2l0,0.7c0,0.3-0.1,0.4-0.3,0.4
		l-3.3-0.2c-0.3,0-0.5-0.1-0.7-0.4c-0.5-0.7-2.1-4-3.5-6.7c-2-3.7-3.3-6-4.9-7.2c-1-0.7-1.9-1-4-1.1l-3.6-0.2
		c-0.5,0-0.7,0.1-0.7,0.4c0,0.2,0.1,0.4,0.4,0.4c0.3,0,0.6,0.1,1.1,0.2c0.6,0.2,2.1,0.6,4.1,3.4c2.1,3,4.5,7.4,7.7,12.9
		c-4,3.7-5.3,6.9-5.5,10.4c-0.1,3.2,1.3,5.7,2.3,6.6c2,1.8,4.5,2.2,6.9,2.4c1.2,0.1,4.1,0,5.4,0.1c0.8,0,3.2,0.3,5.2,0.4
		c0.6,0,0.8-0.1,0.9-0.4c0-0.3-0.2-0.4-0.6-0.5c-0.5,0-1.2-0.1-1.5-0.2c-1.2-0.4-1.5-1.2-1.5-2.8c0-1.5,0.1-2.9,0.4-10.1
		L190.9,396.1L190.9,396.1z M185.5,414.9c0,0.4-0.1,0.6-0.4,0.6c-0.4,0.1-1.1,0.1-2,0.1c-2.2-0.1-5.7-2.2-5.4-8.9
		c0.2-3.9,1.4-6,2.6-7c0.7-0.6,1.2-0.8,2.7-0.7c0.9,0,2.1,0.2,2.9,0.6c0.3,0.2,0.3,0.3,0.3,0.9L185.5,414.9L185.5,414.9z"/>
	<path class="st1" d="M157.5,379.6c-2-0.5-4.1-0.5-6.3,0.5c-3.2,1.6-4.7,4.6-5.3,7.3c-1,4.4-0.1,7.9,3.4,13.2l0.8,1.2
		c2.4,3.6,2.9,5.4,2.4,7.6c-0.6,2.8-2.8,4.4-5.5,3.8c-2.4-0.6-3.2-2.2-3.5-3.2c-0.5-1.4-0.4-2.9-0.3-3.3c0.1-0.6,0.1-0.9-0.2-0.9
		c-0.3-0.1-0.5,0.3-0.7,1.3c-0.8,3.6-1.3,4.9-1.4,5.5c-0.1,0.3,0.1,0.5,0.4,0.7c0.9,0.5,2.3,1.4,4.7,1.9c5.1,1.2,9.4-1.7,10.6-6.8
		c0.9-3.7,0.2-7.3-3-12.2l-1.3-2.1c-2.4-3.7-2.4-6-1.9-8.2c0.6-2.5,2.8-4.9,6.2-4.1c2.3,0.5,4.2,2.3,4.2,5.9c0,0.8-0.1,1.8-0.2,2.4
		c-0.1,0.4-0.1,0.8,0.2,0.9c0.3,0.1,0.5-0.4,0.7-1.1c0.2-0.7,1-3.5,1.6-6c0.2-1,0.2-1.3-0.3-1.7
		C161.2,380.8,159.6,380.1,157.5,379.6L157.5,379.6z"/>
	<path class="st1" d="M134.8,387.4c1.6-4.3,2.9-7.8,3.8-9.6c0.6-1.3,1.1-1.9,1.9-1.8c0.4,0,0.8,0.1,1.3,0.3c0.4,0.2,0.6,0.1,0.7-0.1
		c0.1-0.3-0.1-0.5-0.5-0.7c-1.4-0.5-3.7-1.2-4.5-1.5c-1-0.4-3.2-1.3-5.5-2.2c-0.4-0.1-0.7-0.1-0.8,0.2c-0.1,0.2,0,0.4,0.4,0.6
		c0.5,0.2,1.3,0.6,1.8,0.8c1,0.6,1,1.5,0.6,2.7c-0.6,2-1.9,5.5-3.5,9.8l-2.9,7.8c-2.5,6.8-3,8-3.6,9.4c-0.6,1.5-1.2,2.2-2.3,2.1
		c-0.5-0.1-0.8-0.1-1.1-0.3c-0.4-0.1-0.6-0.1-0.7,0.2c-0.1,0.3,0.2,0.5,0.6,0.6c1.4,0.5,3.5,1.1,4.4,1.5c1,0.4,3.2,1.3,4.6,1.8
		c0.6,0.2,0.9,0.2,1,0c0.1-0.4,0-0.5-0.4-0.7c-0.4-0.2-0.9-0.4-1.2-0.7c-0.7-0.5-0.8-1.4-0.3-2.9c0.5-1.5,0.9-2.7,3.4-9.5
		L134.8,387.4L134.8,387.4z"/>
	<path class="st1" d="M113.4,378.3c2-3.9,3.7-7.2,4.8-8.9c0.7-1.2,1.4-2,2.2-1.8c0.3,0.1,0.8,0.2,1.3,0.5c0.4,0.2,0.6,0.2,0.7-0.1
		c0.2-0.3,0-0.5-0.5-0.8c-1.3-0.7-3.5-1.7-4.3-2.1c-0.9-0.5-3-1.7-5.2-2.9c-0.4-0.2-0.7-0.2-0.9,0.1c-0.1,0.2,0,0.4,0.4,0.6
		c0.5,0.3,1.2,0.7,1.6,1.1c0.9,0.7,0.6,1.7,0.1,3c-0.8,1.9-2.5,5.2-4.5,9.1l-8.9,17.3l-4.2-2.3c-3-1.6-3.3-3.3-2.8-4.4l0.2-0.5
		c0.3-0.6,0.3-0.9,0.1-1c-0.2-0.1-0.4,0.1-0.7,0.5c-0.6,1.1-2.2,4-2.6,4.8c-0.3,0.6-0.4,0.9-0.2,1c0.3,0.1,1.3,0.1,3.5,1.3l13.4,6.9
		c1.1,0.6,2.4,1.3,3.3,2c0.8,0.5,0.9,1.1,1.2,1.3c0.2,0.1,0.4-0.1,0.8-0.6c0.2-0.3,2.9-3.8,3.2-4.5c0.2-0.5,0.3-0.7,0-0.8
		c-0.2-0.1-0.4,0-0.6,0.3c-0.2,0.3-0.7,0.7-1.3,1.2c-1,0.7-1.9,0.5-3.9-0.5l-5.1-2.4L113.4,378.3L113.4,378.3z"/>
	<path class="st1" d="M85.6,358.5c-0.1-0.1-0.2-0.3-0.1-0.5l3.9-9.8c0.2-0.6,0.7-0.7,0.9-0.6c0.3,0.2,0.5,0.2,0.7,0
		c0.2-0.3-0.1-0.5-0.7-1c-2.3-2-4.5-3.7-5.6-4.5c-1.1-0.9-1.4-1-1.7-0.7c-0.2,0.3-0.1,0.4,0.1,0.6c0.4,0.3,0.8,0.7,1.1,1.1
		c0.5,0.7,0.9,1.9-0.6,6.1c-2.6,7.2-9.9,26.1-10.8,28.7c-0.4,1.1-0.5,1.6-0.2,1.8c0.3,0.2,0.8,0,2-0.8l26-17.4
		c2.1-1.4,3.6-2.2,5.2-1.3c0.3,0.2,0.7,0.4,1,0.7c0.2,0.2,0.4,0.2,0.6,0c0.2-0.3,0.1-0.5-0.3-0.8c-1.5-1.2-3.3-2.4-3.6-2.7
		c-0.9-0.7-2.1-1.9-3.1-2.6c-0.3-0.3-0.6-0.3-0.8,0c-0.2,0.2-0.1,0.4,0.2,0.7l0.4,0.4c0.9,0.7,0.8,1.4,0.3,2.1
		c-0.4,0.4-1.2,1.2-2.2,1.9l-5.8,4c-0.2,0.2-0.4,0.2-0.5,0.1L85.6,358.5L85.6,358.5z M90.1,365.2c0.1,0.1,0.1,0.2-0.1,0.4l-10,7
		c-0.1,0.1-0.4,0.3-0.4,0.2c-0.1-0.1,0-0.3,0.1-0.5l4.6-11.3c0.1-0.1,0.2-0.2,0.3-0.1L90.1,365.2L90.1,365.2z"/>
	<path class="st1" d="M78.2,335.1c-1.3-1.5-3.1-2.8-5.5-3.2c-3.5-0.5-6.5,1-8.5,2.9c-3.4,3-4.6,6.4-4.9,12.7l0,1.5
		c-0.1,4.3-0.8,6.1-2.4,7.6c-2.1,1.9-4.8,2-6.7-0.1c-1.6-1.8-1.3-3.6-1-4.6c0.4-1.4,1.4-2.5,1.7-2.8c0.4-0.4,0.6-0.7,0.4-0.9
		c-0.2-0.2-0.6-0.1-1.3,0.6c-2.8,2.5-3.9,3.3-4.3,3.7c-0.2,0.2-0.2,0.5-0.1,0.8c0.4,1,1.1,2.5,2.8,4.3c3.5,3.9,8.7,4,12.5,0.5
		c2.9-2.6,4.4-5.9,4.6-11.7l0.1-2.4c0.2-4.4,1.4-6.3,3.2-7.8c1.9-1.7,5.1-2.4,7.4,0.2c1.6,1.8,2.1,4.3,0.1,7.2
		c-0.5,0.7-1.1,1.5-1.6,1.9c-0.3,0.3-0.6,0.6-0.3,0.8c0.2,0.2,0.7,0,1.2-0.5c0.6-0.5,2.8-2.3,4.8-4c0.8-0.7,0.9-0.9,0.7-1.6
		C80.5,338.2,79.6,336.7,78.2,335.1L78.2,335.1z"/>
	<path class="st1" d="M181.2,61.3c0,0.5-0.5,0.8-0.4,1.2c0.5-0.1,3.9,0,4.4,0c0.3,0-0.1-0.5-0.1-0.8c0-0.2-2.5-0.5-3.5-0.5
		C181.5,61.2,181.2,61.3,181.2,61.3L181.2,61.3z"/>
	<path class="st3" d="M181.2,61.3c0,0.5-0.5,0.8-0.4,1.2c0.5-0.1,3.9,0,4.4,0c0.3,0-0.1-0.5-0.1-0.8c0-0.2-2.5-0.5-3.5-0.5
		C181.5,61.2,181.2,61.3,181.2,61.3L181.2,61.3z"/>
	<path class="st2" d="M119.2,104.8c-43.5,23.9-73,70.5-73,124c0,77.9,62.5,141.1,139.6,141.1c77.1,0,139.6-63.2,139.6-141.1
		c0-71.4-52.5-130.5-120.6-139.8"/>
	<path class="st4" d="M208.3,27.9 M223.8,21.5"/>
	<path d="M304,252c-6.7-8.4-10.7-17.7-13.9-27.9c-2.1-6.6-3.8-12.8-4-19.6c-0.1-4.1-0.7-8.9-3-12c-3.2-4.4-4.6-8.8-4.8-14
		c-0.1-2.9-0.7-5.8-1.5-8.6c-4.9-17.9-14.9-33.2-24.7-48.6c-0.6-0.9-1.5-1.8-2.5-2.3c-10-4.8-20-9.4-30-14.1
		c-2.7-1.2-5.5-2.2-8.1-3.4c-3.5-1.7-6.1-4.5-5-8.5c1.8-7.1,3.7-14.3,5.9-21.4c1.5-4.7,3.5-9.2,0.9-14.1c-2.1-4.1-1.8-8.2,0.2-12.2
		c2.1-4.2,4.4-8.3,6.4-12.6c2.8-6.1,1.9-6.1-3-9.4c-2.8-1.9-7.2-4.3-10.4-5.5c-31.5-11.5-50.5,0.6-56.6,3.8c0.5,2.2,0.9,4.6,1.4,7
		c0.8,3.7,5.4,15,5,17.3c-3.5,21.4-2.4,21.4-0.2,38.5c0.4,4.4,0.6,12.6,0.6,12.6c-4.5,2.9-16.7,10.9-16.7,10.9
		c-1.4-3.1-4.9-4.6-6.8-5.5c-1.7-0.8-2.5-0.8-4.1-1.9c-2.8-1.9-3.9-2.5-7.7-5c-1.1,9.9-10.5,17.8-3.5,26.9
		c-6.6,4.8-12.6,10.8-17.1,17.5c-4,5.9-6.9,12.6-9.6,19.2c-8.6,20.6-13.4,42.1-11.6,64.4c0.8,9.5,1,18.3-3.5,26.9
		c-4.6,8.8-2.9,16.5,4.7,23.2c2.2,2,4.4,5.2,4.7,8.1c1.8,15.2,2.8,30.5,4.8,45.7c0.5,3.9-0.4,3.3,4.3,8.7c0.2,0,2.5,1.5-0.6-1.5
		c-2.5-2.4-1-7.4-1.3-10.2c-0.9-10.7-1.9-21.4-2.9-32.1c-0.3-3.1-0.7-6.2-1.1-9.6c1,0.4,1.5,0.5,1.6,0.7c0.9,3.3,1.7,6.6,2.6,9.9
		c4.5,18.4,9.4,36.6,18.4,53.4c1.2,2.3,6,5.6,8.1,5.9c6.7,1,10.9,0.9,17.7,0.9c4.5,0,7.4-2.6,8.7-7.1c0.7-2.4,1-13.6,2.3-15.8
		c0.8,0.2,2.8,11.5,3.5,11.8c-1.1,8.9-2,13.5-3.2,22.5c0.2,0.1,1.3,0.4,1.5,0.5c1.5-3.6,1.8-9.4,3.3-13c0.4,0.1,1.8,2.1,1.6,4.7
		c0,3.9,0,4.9,0,9.4c1.2-0.8,1.2-6.6,1.7-6.9c0.6,1.6,3.2,7.3,4.7,8.4c-7.1-16.5-8.8-30.1-13.5-46.9c8.7-1.1,15.9-4.7,21.2-11.4
		c3.4-4.3,6.3-9.1,9.4-13.7c2.4-3.5,4.9-7,7.3-10.5c2.4,4.2,4.4,7.8,6.8,12.1c-6.7,24.1-12.4,47.7-20.5,72.1c0.2,0.1,1.5-0.1,1.6,0
		c1.3-2,5.3-14.7,7-17.2c0.8,2-1.4,15.3-4.1,17.4c1.9,0,3.8,0.1,5.2,0.1c0.6-10.4,1-18.8,1.6-28.9c0.6,0,2.3-7.3,2.9-7.3
		c0,10.2-1.5,26.2-1.5,36.4c0.5,0.2,3.5,0.2,3.6-0.8c0.3-2.4,0.2-4.9,0.3-7.3c0.8-12.9-1-26.9-0.2-39.8c0.7,0,3.1-10.8,3.8-10.8
		c0,15.8,1,42.9,1,58.6c0.6,0.1,1.5-0.4,2.1-0.3c0.3-1.3,0.5-1.4,0.8-2.8c0.4-2.2,0.5-4.5,0.9-6.7c0.9-4.9-0.1-12.1,0-17
		c0.1-9.6-2-20.5-2.3-30.1l0.3-10.7c0.6,0.1,6.6-5.9,6.4,5c0.8,20.7,1.7,40.5,2.5,61.2c0.6,0.1,1.7-0.3,2.3-0.2
		c0.3-1.9,0.4-2.6,0.4-4.5c-0.3-19.9-0.7-39.8-1.1-59.7c-0.1-4.5,1.1-5.4,5.5-4.6c3.6,0.6,7.3,1.1,11.7,1.7
		c0,21.1-0.1,41.8-0.1,63.5c0.6,0,1.3,0,2,0c0-17.8,0-34.7,0-52.5c0.5,0,0.9-0.1,1.4-0.1c5.5,15.4,6.3,31.6,7.9,47.9
		c2-0.7,0.5-0.2,2.6-0.9c0-4.4,2.9-17.3,3.5-21.1c0.1,0,0,7.1,0.1,7.1c0.5,4,0.9,8,1.4,11.9c0.6,0.1,1.2,0.2,1.7,0.3
		c0.4-1.3,1.3-2.6,1.1-3.9c-0.7-6.8-1.8-13.5-2.5-20.3c-0.3-2.8-0.4-10.2-0.4-13c2.5,2.8,5.4,10.3,6,13.5c1.3,6.7,1.5,12.4,2.3,20.4
		c0.8-2.2,1.8-2.4,2-4c0.6-6,0.9-12,1.3-18c1.5-20.9,2.9-41.8,4.4-62.7c0.1-1.3,0.1-2.6-0.1-3.9c-0.6-4.6-2.7-8.3-7.5-9.1
		c-6.1-0.9-12.4-1.1-18.3-1.6c-0.2,0.3,0.1-0.4,0.6-1c8.9-9.6,24-8.1,30.6,3c1.7,2.9,3.5,6,4.3,9.3c3.1,11.8,6.4,23.6,8.6,35.5
		c2.4,12.6,2.7,21.7,3.7,30.2c0.8-0.7,1.8-1.4,2.1-2.1c2-4.6,4.3-7.4,5.8-12.2c1.3-4.3,2.8-8.8,2.6-13.2c-0.2-3.9,0.4-6.9,2.7-9.9
		c1.6-2.1,3-4.3,4.4-6.5c2.8-4.4,4.8-9.1,3.3-14.3c-0.8-2.7-0.2-4.4,1.4-6.5C304.9,262.7,308.1,257,304,252L304,252z M260.7,248.4
		c1.2,0.4,2.5,0.8,3.9,1.2c1.4,0.4,2.8,0.9,4.2,1.3c4,1,5.4-0.9,5-4.7c-0.5-4.7-4.1-8-9.8-8.6c-3.1-0.3-15.6-0.7-18.7-0.7
		c6.2-5.7,19.4-10.5,46.1,9.2c-1.6,0-5-0.8-6.9-0.8c3.4,5,2.5,6.2,5.4,10.8c1.8,2.9,3.4,5.9,4.8,9.1c5.2,11.8,3.6,20-5.8,29.7
		c-3.9-6.9-4.7-14-0.7-21.3c1.1-2.1,1.7-4.6,2-7c0.7-5.1-1.5-8.4-7.1-10.3c-2.8,7.6-2.3,15.3-1.1,23c1.4,9.3,3.4,18.6,4.5,27.9
		c0.7,5.9-0.8,11.6-5.5,16.5C277.3,297.5,276.9,271.1,260.7,248.4L260.7,248.4z M283.8,265.5c0.5,0,1.1,0,1.6,0
		c2.9,3.6,0.1,6.9-1.6,10.3C283.8,272.3,283.8,268.9,283.8,265.5L283.8,265.5z M246.3,229.7c0.5,0.5,1,1,1.4,1.4c0,0,0,0,0,0
		c0.1,0,0.1,0,0.2,0c1.1-0.6,2.4-1,3.1-1.9c5.3-7,12.3-4.2,18.8-3.9c0.1,0.5,0.2,1,0.3,1.6c-7.4,1.4-14.8,2.8-22.2,4.3
		c0,0-0.1,0.1-0.2,0.1c0,0,0,0,0,0c-2.1,1.6-4.1,3.3-6.8,5.5c1.9-9.7,16.9-22.2,24.1-20.1c-3.7,2.2-7.1,4-10.2,6.2
		C251.9,224.9,249.2,227.4,246.3,229.7L246.3,229.7z M234.6,247.7c5.9-13.5,42.8-8.9,33.9,0.5c-4.8-2.1-8.7-3.8-13.3-4.1
		C250.7,243.9,240.2,245.9,234.6,247.7L234.6,247.7z M227,256.2c-1.4,2.9-2.9,3.1-5.7,2.5c-8.1-1.7-15.9-1-22.9,3.8
		c-1.4,1-2.6,2.3-4,3.5c3.7,5.6,9.7,0.6,14.3,4.1c-1.4,3.2-2.5,6.7-4.3,9.8c-0.7,1.2-3.5,2.2-4.7,1.7c-10.5-4.7-20.8-9.7-31.5-14.8
		c13.2-24.6,25.7-48,39-72.6c13,6.3,26.4,12.8,40.5,19.6c-3.1,6.6-5.8,12.8-8.8,18.8C235,240.6,230.7,248.3,227,256.2L227,256.2z
		 M230.4,177.3c0-8.9,0.3-10.4,0.3-19.4c0.5,0,2.3-6,2.8-6c1.7,7.5,1.9,19.4-2,43.7C230.8,195.7,230.9,177.3,230.4,177.3
		L230.4,177.3z M204.3,137.9c0-4.9,0-9.9,0-15.7c5.6,4,6.5,35.3,2.1,47.1c-0.8-5.4-1.3-9.8-2-14.1c-0.7-4.2-1.6-8.5-3-12.6
		c-4.6,5.9-5.1,12.7-5.9,19.4c-1.8,14.7-0.4,26.2,2.9,36.6c-0.2,1.6-10.2,19.4-11,22.2c0.1-3.3-3.1-2.1-2.9-5.9
		c0.8-14.3,4.7-36.4,5-47.7c0.2-8,1.3-15.5,1.1-23.5c0-2.9-0.5-5.9-1.3-8.6c-0.3-1.2-2-2-3-2.9c-0.8,1.4-2.1,2.7-2.3,4.1
		c-0.7,7.2-1,14.4-1.5,21.6c-0.6,6.8-2,28.6-3.9,34.4c-1.4-12.9,2-56.8,5.7-68.9c5.5,0,10.4,0,15.7,0c0.9,4.8,1.9,9.6,2.8,14.5
		C203.3,137.9,203.8,137.9,204.3,137.9L204.3,137.9z M199.4,91c4.6,6.1-2.4,9.7-3.2,14.6c-0.4-0.2-0.8-0.4-1.1-0.6
		c-2.3,2-4.9,3.7-6.7,6.1c-1.8,2.5-3.2,4.5-6.9,4.3c-2.3-0.1-4.6,1.2-7.9,2.2c-1.1-4.7-2.3-9.5-3.4-14.3c-0.3-0.1-0.5-0.2-0.8-0.4
		c-0.4,2.1-0.9,4.2-1.1,6.3c-0.2,2.3-0.2,4.5-0.3,6.8c-0.6,0.1-1.2,0.2-1.8,0.3c-0.9-2.4-1.9-4.9-2.7-7.3c-0.6-2-0.5-4.5-1.6-6.1
		c-4.2-6.1,0.7-10.9,1.2-16.2c0.8-0.6,1.6-1.1,2.4-1.7c0,0,4.9-1.5,10.2,0.3c2,3.7,4.2,6.1,5.7,9.6c1.5,3.5,2.6,7.2,3.9,11
		c0.7-0.5,1.1-0.7,1.1-0.9c0.5-4.1-5.4-18.3-8.3-20.9c-2.7-2.4-5.1-2.4-7.8-2.1c-1.1,0.1-1.1-0.4-3.3,0c-0.9,0.2-4.4,0.8-5,2.2
		c-1.3,2.9-2,6-4,8.7c0.3-1.9,0.3-3.9,1.1-5.6c1.4-3.1,2.7-7.9,5-8.5c6.2-1.6,13.3-3.2,17.5,4.6c2.5,4.6,5.3,9,7.7,13
		c3.3-7.7,7.1-16.6,11.4-26.7c2.3,6.8,1.5,16.6-1,20.5C199.7,90.5,199.4,90.9,199.4,91L199.4,91z M210.7,43
		c-0.4,3.4-1.4,5.3-5.3,4.5c-14.9-3-30.3-4.1-45.6-3.3c-0.1,0-0.1,0-0.1,0c0-0.1,0.1-0.4,0-0.9c-0.2-1.7-0.8-2.7-1-4.4
		C167.9,35.5,198.4,38.1,210.7,43L210.7,43z M207.3,37.2c-0.5-0.2-1.1-0.5-1.6-0.7c1.4-3.2,2.8-6.4,4.2-9.5
		C212.9,31.9,211.7,35.1,207.3,37.2L207.3,37.2z M202.6,27.7c0.5,0,0.9,0.1,1.4,0.1c-0.1,2.9-0.3,5.9-0.4,9.3
		c-1.8-0.2-3.4-0.3-5.6-0.5C199.7,33.3,201.1,30.5,202.6,27.7L202.6,27.7z M194.4,35.9c-3.9-5-3.6-7.2,1.4-12.4
		C199.9,28.2,197.6,32.1,194.4,35.9L194.4,35.9z M183.4,34.6c1.2-3.9,2.3-7.4,3.4-10.9c0.3,0,0.6,0,0.9,0.1c0.4,3.5,0.8,7,1.3,10.8
		C187.2,34.6,185.5,34.6,183.4,34.6L183.4,34.6z M178.1,34.7c-4.4-3.5-4-6.4,1.9-13.4C183.9,26.7,183.2,30.7,178.1,34.7L178.1,34.7z
		 M167.6,34.8c0.5-3.3,1-6.4,1.4-9.4c0.4-0.1,0.8-0.1,1.2-0.2c1.2,3.1,2.3,6.1,3.6,9.6C171.4,34.8,169.7,34.8,167.6,34.8L167.6,34.8
		z M161.7,23.4c2.9,3.4,6.1,6.5,2.1,11.4C159.3,32.9,159,31.2,161.7,23.4L161.7,23.4z M158,62.4c1.3-0.3,5.4-1.4,5.8,0
		c0.4,1.3-0.1,2.4-1.1,2.4c-1.1,0-2.8,0-4,0C158.7,64.5,157.9,62.7,158,62.4L158,62.4z M158.4,80.8c-0.4-2.7,0-6.7-0.4-9.3l-0.5-3.5
		C169.6,64.4,162.3,77,158.4,80.8L158.4,80.8z M158.4,56.4c0.5-0.3,5.1,0.6,5.8,1.4C163.1,58.8,157.5,56.9,158.4,56.4L158.4,56.4z
		 M158.3,54.5c0.4-2.1,0.7-4.3,1.3-7.5c12.2-0.4,22.9-0.4,36.6,1.9c1.2,0.1,2.9,2.7,3.1,4.3c1.6,13.5-3.8,25.1-10.1,35.8
		c-5-5.9-10-11.9-15-17.8c-0.3,0.1-0.6,0.3-0.9,0.4c0.2,0.9,0.4,1.8,0.7,3c-2.6,0.4-5.1,0.9-7.7,1.3c0.4-4.6,1.1-9.1,1.1-13.5
		C167.3,57.1,165.7,55.8,158.3,54.5L158.3,54.5z M209.1,59.5c-1.3,3-3.2,7-7,7.9c0-2.7,0.9-9.1,0.9-17.1c2.3,0.7,3.9,0.8,6.8,1.7
		C209.8,53.3,210.7,55.8,209.1,59.5L209.1,59.5z M174.9,154c0.3-2.4,0.7-4.7,1-7.1c0.3-2.4,0.3-4.9,0.7-7.3c0.4-2.5,1.2-4.9,2.6-7.2
		c-0.9,22.1-5,44-1.2,66.1c0.5,0.1,1,0.2,1.5,0.3c0.8-3.5,1.9-6.9,2.3-10.4c1.2-11.8,2-23.7,3-35.5c0.2-1.9,1.7-11.5,2.7-13.2
		c1.2,26.2-2.5,59.8-7.8,85.4c-3-23.5-8.2-41.7-11.6-62.7c-1.6-10.1-4.5-19.9-4.9-30.1c-7.2,4.7-1.8,22-3.7,27.1
		c-1.7-4-8.9-13.4-6.1-23.3c2-7,3.4-15.5,7-21c5.8,2.4,5.7,6.8,5.7,14.7c0,1.9,0.5,3.9,0.7,5.8c0.4,0,0.8-0.1,1.2-0.1
		c0.3-3.6,0.1-8.5,0.4-12.5c3.2,0,6.8-1.1,9.7-1.1C175.7,131.7,170.1,143.4,174.9,154L174.9,154z M122.3,250.9
		c-17.3-23.4-17.3-28-7.3-38.9c1.3,3.6,0.7,16.7,1.3,19.2c1.5,7.2,7.9,15.2,15,16.2c4.2,0.6,8.4,0.5,12.6,1.5
		c1.5,0.4,4.6-1.9,14.2-2c6.5-1.4,3.4,1,9.8-0.4c-12,9.7-25.8,13.4-40.8,13.7c-1.2,0-2.7-1-3.6-2c-2.2-2.5-4.2-5.3-6.8-8.7
		C118.8,250,120.1,250.3,122.3,250.9L122.3,250.9z M150.3,201.4c1.7-2.9,6.8-1.5,8.4,3.7c3.4,11.1,9.4,33.4,7.5,39
		C158.9,231.1,155.1,215.3,150.3,201.4L150.3,201.4z M150.7,211.3c2.5,7.6,4.9,15.2,7.7,23.8c-6.4,0.8-11.6,1.4-16.9,2.1
		C137.2,225.8,147.6,220.1,150.7,211.3L150.7,211.3z M118.4,225.6c-0.2-7.5,0.7-15.4,2.9-22.5c4-13,9.5-25.5,14.7-39.1
		c1.4,3.8,2.5,7,3.8,10.7c-6.1,3.8-7.8,7.5-7.6,13.3c0.2,8.2-1.8,15.7-4.7,23.3c-1.4,3.8-2.3,7.8-3,11.8
		c-1.5,8.2,6.4,17.9,14.7,16.6c5.1-0.8,10.3-0.9,15.5-1.2c1.7-0.1,3.5,0.3,5.2,0.5c0,0.6,0,1.3,0,1.9c-7.6,3.9-15.7,4.4-24,3.4
		C123.8,242.7,118.8,237.9,118.4,225.6L118.4,225.6z M148.4,173c1.2-0.5,3.8,1.1,5.2,2c-6.2-1-10.1,4.3-15,5.8
		c0.2,0.7,0.2,0.7,0.5,1.3c3.3-1.3,6.6-2.6,11-4.3c3.3,0.9,2.5-0.4,4.4,3.4c-1.5,0.5-5.4,0.8-8.5,1.9c-2.5,0.9-4.9,2.9-6.3,3.4
		c0,0.5,0.1,0.9,0.1,1.4c2-0.1,4.4-0.6,5.7-1.6c4.6-1.8,7.2-1.9,9.6,1.1c0.9,1.2,1.1,4.7,1.8,6.4c-3.6-5.4-8.1-4.6-12.8-2.4
		c-0.9,0.4-1.6,1.4-2.3,2.1c0.9,0.8,3.2-0.3,4.3-0.5c4-0.5,3.8,0.2,4.8,0c3.2-0.5,5,4.3,6.2,5.6c-1.5,0.4-4.5-2.2-7.9-0.9
		c-2,0.7-4.1,6.5-3.4,7.6c2.9,5,0.1,8.3-2.4,11.9c-2.6,3.9-7.5,9.6-8.5,18.4c-6.7-1.9-9.5-9.7-4.8-21.4c1.9-6.6,4.1-9.4,4.3-15
		c0.1-1.6-0.3-3.2-0.3-4.9C133.9,181.8,136.5,177.7,148.4,173L148.4,173z M150.1,156c0.5-3.3,0.1-4.3,1.9-7.7
		c2.4,9.1,2.6,6.5,8.5,17c0.9-0.1,1.9-2.3,1.8-4.5c-0.7-10.8-0.6-9.4-1.2-20.3c6.3,29.5,9,59.3,9.9,89.4c-0.4,0.2-0.8,0.4-1.3,0.6
		c-1-1.6-2.4-3-2.9-4.7c-2-7.8-3.9-15.6-5.5-23.5c-1.1-5.2-1.7-10.5-2.7-15.7c-0.7-3.9-1.5-7.8-2.4-11.6c-0.3-1.2-1-2.7-2-3.3
		C147.7,167.6,149.2,161.7,150.1,156L150.1,156z M168.9,234.6c4.1-1.3,7.7-5.3,10.4-6.2c0.1,0.2,2.6-4.9,4.8-6.1
		c2.3-1.3,2.9-0.1,3.1,0.1c-1.3,0.9-7.1,15.4-11.6,22c-1.3,1.9-3.1,6.2-4.2,6.4c-1.6,0.3-1.5-2.3-2-2
		C168.8,249,170.6,236,168.9,234.6L168.9,234.6z M172.1,193.8c0.5,5.1,4.9,28.2,5.4,33.3c-0.6,0.1-3.4,2.4-4.1,2.4
		c-0.4-5.1-0.7-7.4-1-12.5C172.9,217,171.6,193.8,172.1,193.8L172.1,193.8z M211.8,134.5c9,9.2,7,48.4,4.6,60.6
		c-2.9-1.3-5.5-3.1-8.4-3.7c-2.8-0.5-4.9,0.4-8.4,5c-3.3-13.8-1.4-35,0.8-47.4c0.5,0,1.5,5.8,2,5.8c0.7,10.6,1.8,21.2,2.5,31.8
		c0.5,0.2,0.9,0.4,1.4,0.5c0.9-2.4,2.2-4.8,2.5-7.3C210.1,167.9,210.6,146.7,211.8,134.5L211.8,134.5z M246.6,259.4
		c5.5,2.6,7.6,7.7,7.5,13.1c-0.3,11-1.4,22-2.3,33c-0.2,2.6-0.5,5.2-1.2,7.8C246.4,295.7,253.6,277.1,246.6,259.4L246.6,259.4z
		 M241.1,258.6c5.4,4,6.1,10.4,6.1,16.7c0,11.2-0.6,22.5-0.6,33.7c0,5.8,0.6,11.6,0.3,17.8c-1.1-4.3-3-8.6-3.3-13
		c-0.6-11.2-0.5-22.4-0.6-33.7c0-3.7,0.7-7.5,0.4-11.2C243.2,265.4,241.9,262,241.1,258.6L241.1,258.6z M237.4,284.1
		c5,19.7-0.5,48.1-1.3,68c-1.1-8.3-1.9-16.7-3.4-24.9c-1.4-7.3-2.9-14.7-5.7-21.6C224.6,300.1,232.4,287.9,237.4,284.1L237.4,284.1z
		 M190.1,285.8c2.1,1.5,3.4,2.4,4,2.8c11.2-2.5,15.4-10.6,18-20.6c-1.3-0.2-2.7-0.4-4-0.6c-0.1-1.6-0.1-3-0.2-4.4
		c-2.8,1.5-5.4,2.9-8,4.3c3.9-8.6,12.5-8.8,35.1-1.6c-0.8-2-1.5-3.4-2.1-4.9c5-1.1,7.1,0.4,7.4,4.9c0.4,6-0.1,11.3-5,15.9
		c-3.5,3.3-5.9,7.8-8.9,11.6c-1.1,1.4-2.1,2.5-4.7,1.3c-1.9-0.8-4.9,0.8-7.5,1.3c-2.7,0.5-5.4,0.9-8.2,1.4c-0.1-0.6-0.2-1.2-0.4-1.8
		c3.8-0.8,7.5-1.6,11.3-2.4c-0.1-0.4-0.1-0.7-0.2-1.1c-3,0.5-6.1,0.8-9,1.5c-3,0.7-5.9,1.6-9,1.8c3.1-4.4,7.7-5.1,12.4-5.7
		c3.6-0.5,4.4-2,2.5-6.8c-0.4,5.3-3.7,5.3-7.1,5.6c-2.3,0.2-4.5,1.7-6.9,2.3c-2.8,0.8-5.8,1.3-8.9,1.9
		C190.6,290.1,190.4,288.5,190.1,285.8L190.1,285.8z M164.1,270.1c0.2-0.6,0.4-1.2,0.6-1.7c10.6,5.1,21.3,10.3,32,15.5
		C193.2,285.8,175.9,278.5,164.1,270.1L164.1,270.1z M150.8,316.5c3.6-7.3,6.6-14.3,10.5-20.8c0.9-1.5,4.9-1.2,7.5-1.7
		c0.4,2.3,1.8,4.9,1.2,6.8c-1.4,4-3.9,7.6-5.9,11.4c-0.6-0.4-1.3-0.8-1.9-1.1c1.5-2.4,3-4.8,5-8c-4.5,0.1-7.5,0.1-8.8,4.9
		C157.5,311.3,159.1,317.4,150.8,316.5L150.8,316.5z M144,318.1c0.3,1.9,0.6,3.7,0.7,4.2c-4,4.1-7.2,7.6-10.5,11
		c1,0.9,2,1.9,2.9,2.8c1.6-3.2,3.2-6.3,4.8-9.5c0.5,0.5,1.1,1.1,1.6,1.6c1.5,9.1-6.1,19.3-15,19.4c-1.9,0-5.1-2.7-5.5-4.7
		c-1.2-5.5-1.5-11.2-1.8-16.8c-0.1-2.8-0.5-4.7-3.2-6.4c-2.2-1.4-4.1-3.8-5.2-6.2c-2.3-4.8-3.9-9.9-5.8-14.8c0.3-0.4,0.7-0.8,1-1.2
		c2.1,1.6,4.5,3,6.2,5c2.1,2.5,3.5,5.5,5.2,8.2c4.8,7.3,9.6,8.5,16.1,2.8c7.7-6.8,14.9-14.1,21.7-21.7c4.7-5.3,10.3-6.4,16.6-5.9
		c2,0.2,3.9,1.9,5.8,2.8c-0.9,1.6-1.9,3.2-2.7,4.7c-2.5-1.1-4.5-2.4-6.6-2.8c-6.7-1.2-11.2,1-14.1,7.2c-2.3,5-5.2,8.4-10.5,11.1
		c-4.6,2.3-8.6,7.1-11.1,11.8c-4,7.5-6.5,15.9-9.6,23.8c7,3.2,13.7-1.7,14.5-11.4c-3.6,4.1-6.4,7.3-9.9,11.3
		c0.5-14.9,9.5-30.1,20.4-33.4c-1.6,2.5-3.2,5.1-4.7,7.6C145,318.5,144.5,318.3,144,318.1L144,318.1z M129.7,313.4
		c-0.9,0.6-4.1-0.7-5.3-1.9c-2.7-2.7-4.8-6-7.7-9.9c6.1,1,9.7,7,15.6,3.8c4.4-2.4,8.8-4.7,13.2-7c0.4,0.5,0.7,1,1.1,1.5
		C141,304.5,135.6,309.2,129.7,313.4L129.7,313.4z M117.6,321.9c1.6,0.9,1.1,3.7,1.4,5.7c0.2,2,0,4.1,0,7.6
		c-11.1-12.1-16.4-31.8-21.4-45.4c0.4-0.2,4.2,2.7,4.6,2.5c1.9,3.9,1.6,10.6,4,14.2C109.7,311.8,112.5,319.1,117.6,321.9
		L117.6,321.9z M94.1,287.2c2.6,6.6,11.6,32.9,14.5,39.3c2.2,4.9,4,10.4,10,12.5c0.6,0.2,1,1.5,1.3,2.4c2.5,7.8,7.5,10.2,15.1,6.9
		c3.2-1.4,6.1-3.6,9.2-5.5c-1.4,4.4-3.5,7.6-9,8.3c-16.5,2.2-20.7,0.2-26.6-15.4c-3.5-9.4-10.2-31.8-13.2-41.4
		C95.8,294.2,93.7,287.3,94.1,287.2L94.1,287.2z M124.1,122.7c1.5,6,3.9,8.7,1.7,14.4c-4.5,11.2-10.2,24.5-13.9,35.9
		c-7.7,24-14.7,48.2-22,72.4c-0.1,0.4,0,0.9,0,1.8c1.3-0.3,2.4-0.6,3.5-0.9c4.3,16.7,14.1,24,26.4,18.9c-2.6-3.2-5-6.3-7.4-9.3
		c-0.5,0.3-0.9,0.6-1.4,0.9c1.4,2.5,2.9,5,4.4,7.6c-14.1,0.2-20-11.9-18.8-20.9c0.5-3.8,2.9-5.5,4.6-9.9c-1.9,0.6-5.8,8-8.5,8.8
		c5.6-20.1,29.3-67.5,39.4-90.7c0.6,0.2,1.4,5.1,2,5.4c-0.3,1.7-1.4,5.9-1.8,7.6c-6.6,15.5-12.5,35.4-22.2,49.8
		c-4.5,6.8-5,13.9-0.6,21.2c1.3,2.2,2.2,4.6,2.6,7.4c-1-0.8-2-1.6-3-2.4c-7,6.1-7.4,14.1-1.3,18.1c-0.4-4.4-0.8-9.1-1.2-13.7
		c0.7-0.3,1.5-0.5,2.2-0.8c2,2.6,4.2,5,5.9,7.8c6.6,10.9,11.3,13.4,23.8,10.2c7.8-2,15.3-5.5,22.8-8.4c2.4-0.9,4.7-1.9,7-2.8
		c0.2,0.5,0.5,1,0.7,1.5c-4,2-7.7,4.6-11.9,5.8c-11.8,3.6-23.8,6.6-35.7,9.8c-2.2,0.6-4.3,1.3-6.8,2.1c-1.8,2.3-1.8,2.3,4.9,1.3
		c10.5-3.3,22.2-5.8,32.6-9.4c2.1-0.7,17.2-8.1,19.7-7.9l-4.5,9.5c0,0-5.5,2-11.2,3.8c-6.1,2.3-16.2,10.6-20.5,15
		c-3.2,3.2-13,4.1-16,0.7c-8.9-10.1-19-18.8-30.8-25.3c-2.1-1.1-4.3-2.1-6.7-3.3c2.9,19.7,20.6,31.5,49.3,33.1
		c-1.5,3.8-3.3,6.5-8.1,3.3c-0.3,0.4-0.6,0.8-0.9,1.2c1.3,2.5,2.7,4.9,4.4,8.1c9.1-14.5,18.4-27.1,33.4-33c1.6,3,3.1,5.6,4.7,8.5
		c-9.5,4.4-21.9,5.3-30.1,16.5c2.2-0.6,3.6-0.6,4.1-1.3c5.4-6.4,13.3-7.9,20.7-10.3c1.4-0.4,2.9-0.7,4.1-1.5
		c5.5-3.4,10.1-1.5,15.3,2.5c-3.8,0.6-7,1-10.2,1.6c-11.7,2.3-21.7,8.2-30.8,15.4c-6.1,4.8-11.1,5.2-17.8,1.4
		c-16.4-9.2-31.4-20-42.7-35.1c-1.2-1.6-1.8-4.6-1.2-6.5c6.2-21.6,12.5-43.2,23.5-63c3.5-6.3,4.6-13.3,3.2-20.4
		c-0.4-2.4-2.8-4.3-4.4-6.5c-1.8,1.9-4.6,3.6-5.2,5.8c-1.1,4.5-1.1,9.3-1.1,14c0,13.1-5.4,24.8-9.4,38.4c-3-37.5,9.6-80.8,34.5-99.8
		C119.6,125.5,122.3,123.7,124.1,122.7L124.1,122.7z M98,170.9c4.1,8.9,1.4,16.3-1.9,23.6C95.6,187,93.3,179.3,98,170.9L98,170.9z
		 M90.1,263.6c6.6,0.3,20,11.6,25.7,19.4C106.4,283.6,92.3,273,90.1,263.6L90.1,263.6z M129.9,150.8c-2.4,5.5-5.6,10.7-7.9,16.2
		c-6.1,14.2-11.9,28.6-17.8,42.9c-1,2.4-2,4.8-3,7.1c-0.5-0.2-0.9-0.4-1.3-0.6c9.2-25.7,18.5-51.3,27.9-77.5
		C131.1,142.4,131.8,146.5,129.9,150.8L129.9,150.8z M127.2,116.2c0.1,0.1-2.1,3.9-6.2,3c-3.6-0.8-2.6-5-2-7.6
		c0.6-1.8,1-1.9,1.7-2.1C121.5,111.6,124.7,114.7,127.2,116.2L127.2,116.2z M128.3,113.7c-3.8-2.9-10.4-5-4.2-11.5
		C132.4,103,130.7,107.6,128.3,113.7L128.3,113.7z M133.6,123.5c3,9.9,5.9,19.9,9,29.8c1.1,3.6,2.7,7,3.8,10.5
		c0.9,2.9,1.4,6-2.1,8.6c-7.4-16.9-13.5-33.7-16.1-51.6C131.5,119.1,132.8,120.8,133.6,123.5L133.6,123.5z M138.5,113.5
		c-0.4,0.4-2.3,2.1-3.8,2.3c-1.7-0.2-2.6-0.3-3.6-1.3c0.5-2,0.8-3.9,1.2-5.8c0.5-0.2-0.2-3.4,0.3-3.6
		C133.9,107,140.4,109.5,138.5,113.5L138.5,113.5z M152.2,104.7c-2.8,8-8.1,25.7-11,33.6c-0.4,0-0.9-7-1.3-7c-1.5-4.2-3-8.5-4.2-12
		c5.5-3.3,7.6-9,11.2-13.3C147.9,106.5,151.3,104.2,152.2,104.7L152.2,104.7z M158,113.2c-6.7,12-8.9,25-9.8,38.4
		c-0.1,0.8-0.5,1.5-1.3,3.5c-1.4-5.9-4-9.9-2.1-15.4c2.8-8.1,4.4-16.6,6.8-24.9c1.2-4.3,3-8.5,4.7-13.3
		C159.9,105.5,159.9,109.8,158,113.2L158,113.2z M156.6,61.6l0.5-2.8l6.1,1.4c0,0-2,0.1-4,0C157.3,60,156.6,61.6,156.6,61.6
		L156.6,61.6z M153.7,23.7l5.2,1.5c-0.2,0.6-0.5,1.2-0.6,1.7c-0.3,0-0.7,5.5,1.5,7.4c0.9,0.8-2,1.1-2.2,1.1
		C156.8,34.3,154.4,29,153.7,23.7L153.7,23.7z M218.5,27.3l-4.6,1c-0.6-1.1-1.5-2.4-2.2-3.2c-0.5-0.6-2-1.7-3.1-2.6
		c-0.2,1.3-0.6,3.6-1.6,4.3c0,0-2.7-5.4-2.8-5.1c-0.7,1-3,3.8-3.8,4.9c-3.9-6.1-3.7-6.6-9.2-1.7c-0.9-2.1-1.7-5.4-2.7-7.6
		c-1.5,1.4-2.7,4.7-4.3,6.2c-0.9-1.2-2.2-4.6-4-7.1c-2.1,3.2-3.9,5.9-6.1,9.3c-1-2.2-2.9-4.9-3.9-7.1c-0.2-0.5-2.6,3.3-3.7,6.2
		c-0.4,1-4.8-5.8-5-6.2c-0.3,1.4-0.9,3-1.5,4.4c-0.8-0.3-2.7-1-4-1.4c1.8-1,3.9-2.2,5.6-3c10.2-3.7,29.1-4.8,45.8,2.4l1.1,0.5
		c0.1,0.1,0.3,0.1,0.4,0.2c0,0,0,0,0,0l2.4,1.3c0,0,3.9,1.9,5.8,3.2C217.7,26.6,218.2,26.9,218.5,27.3L218.5,27.3z M210.5,38.2
		c0,0,4.1-4.7,3.7-7.7l4.4-1.5c-0.4,1.7-5.4,10.2-5.4,10.2L210.5,38.2L210.5,38.2z M204.7,69.9c4.8,0.7,5.2-6.2,6.4-9
		c3,3.5-4.1,8.9-4.3,13.9C204,75.2,204.8,72.2,204.7,69.9L204.7,69.9z M213.6,112.9c-8.1,1.3-16.8,1.8-25.5,3.2
		c7.1-4.4,11.3-10.2,15.8-15c1.3,3.5,1.6,5.2,7.9,4.5C212.3,105.6,212.7,111.2,213.6,112.9L213.6,112.9z M220.3,118.5
		c-11.9,2.7-35.9,4.9-38.7,0.7c10.7-1.3,23.5-2.5,34.5-3.8c-0.2-3.5-0.4-5.3-0.5-7.2c0.4-0.1,0.8-0.1,1.2-0.2
		C217.4,111,219.5,115,220.3,118.5L220.3,118.5z M277.6,189.6c-7.1-9.2-9.4-15.9-11.5-19.2c0.7-0.4,4.3,0.4,4.5,1.7l6.6,11.6
		C276.7,183.9,278.2,189.2,277.6,189.6L277.6,189.6z M283.6,212.7c-0.1,0.6-0.3,1.2-0.6,2.3c-8.4-4.7-14.3-14.1-25.9-12.6
		c2.5-1.4,5-2.9,7.5-4.2c2.7-1.3,5.5-2.4,8.9-3.9c-3.9-6.2-9.9-2.5-14.5-4.3c-2.1-5.9-2.9-6.3-9.3-4.1c-6.3,2.1-10.1,6.9-12.8,12.7
		c-0.9,1.9-1.7,3.8-2.6,5.6c-0.5,0-1,0-1.5,0c0-1.9-0.2-3.8,0-5.7c1.4-9.8,3.2-19.6,4.2-29.4c0.7-7.3-0.2-14.5-3.6-21.2
		c-0.5-0.1-1.1-0.2-1.6-0.3c-1,4.6-2.8,9.2-2.9,13.9c-0.3,9.1,0.4,18.2,0.4,27.4c0,3.8-0.8,7.6-1.3,11.3c-6.4-0.5-6.5-4.7-6.9-8.9
		c-1.9-18.8,0.3-27.6-1.8-46.4c-0.8-7.5-10.7-20.6-11-22.2c3.2-2.2,14.7,2.2,14.9-5.9c1.6,3.8,3.2,7.6,4.9,11.8
		c2.9-4.3,0.5-7.3-1.3-10.2c-1.9-3-4.2-5.7-6.6-8.9c1.4,0,2.4-0.3,3.1,0c20,7.4,34.4,20.4,41.5,40.9c2.6,7.5,5.8,14.7,7.9,22.5
		c-0.7-1.1-1.1-2.7-2.1-3.3c-1.4-0.9-3.3-1.1-5-1.6c-0.2,1.5-1.2,3.5-0.6,4.5c3.5,6,5,13.6,11.3,17.6
		C283.3,194.7,285,203.9,283.6,212.7L283.6,212.7z M298.5,265.7c-1.4-2.4-2.7-4.4-3.8-6.4c-1.1-2-1.9-4.1-2.9-6.3
		c4.8-3.2,0.9-6.8,0.6-10.4c0,0-0.1-0.1-0.1-0.1c0-0.1-0.1-0.2-0.1-0.2c-3.7-2.1-7.3-4.4-11.1-6.2c-3.8-1.8-7.8-3-11.7-4.4
		c0.1-0.6,0.2-1.2,0.3-1.8c3.7,0.4,7.4,0.7,11.6,1.1c-2.8-8.5-10.5-8.1-17.8-9.8c1.2-0.8,2-1.4,2.9-1.9c1-0.5,2-0.8,3-1.1
		c-2.1-6.6-2.5-6.6-18.6-0.7c-0.3-9.8-10.5-7.9-15.1-13.5c5.7-4.5,7.4-13.8,17.3-15.5c-0.5,2.5-1,4.5-1.6,7.4
		c5-1.4,9.4-2.5,13.8-3.7c0.2,0.4,0.4,0.8,0.6,1.2c-6.3,4.3-12.7,8.6-19,12.8c0.3,0.7,0.6,1.5,0.9,2.2c2.1-0.4,4.6-0.2,6.4-1.2
		c5.3-2.9,9.7-2.3,14.3,1.5c4.4,3.6,9.6,6.3,13.6,10.3c3.1,3.1,4.9,7.5,7.3,11.4c-0.5,0.3-1.1,0.6-1.6,0.9c-1.3-2.8-2.3-5.7-4-8.2
		c-0.8-1.2-2.7-1.6-4.2-2.3c0.2,1.4,0,3.1,0.7,4.2c3,4.5,6.3,8.7,9.4,13.1c1,1.3,1.8,2.8,2.6,4.2c0.1,0,0.2,0.1,0.2,0.1
		c0,0.1,0,0.1,0,0.2C301.1,250,302.8,256,298.5,265.7L298.5,265.7z M172.2,60.5c1.8,1,3.9,0.5,5,1.1c-0.4,0.2-1.8,1.6-2.2,1.7
		c0.6,2.4,0.6,5.2,1.9,7c2.3,3.2,5.8,3.8,8.9,2.5c-2.5-1.4-5.2-2.8-8.7-4.7c4.8-2.4,9.8,1.8,12.7-4.2c-1-2.4-7.2-2.4-8.3-4.8
		c2.7-0.4,6.9-1.1,10.1,0c-2.8-4.7-11.7-6.4-16.7-3.2C173.5,56.8,173.1,58.9,172.2,60.5L172.2,60.5z M177.2,63.5
		c0,0,0.1-0.1,0.3-0.2c0.6-0.3,1.8-1,1.8-1c1.4,0,5.5,0.8,5.5,1c0,0.1,0,0.3,0,0.5c0,0.7,0,1.8-0.3,1.8c-0.4,0-1,0-1.6,0
		c-1.9,0-4.6-0.1-5.4-0.1c0,0,0-0.2,0-0.3c-0.1-0.3-0.2-0.8-0.3-1.2C177.3,63.8,177.2,63.6,177.2,63.5L177.2,63.5z M175.1,58.8
		c-0.1-2.7,6.2-3.1,6-2.6c-0.4,1-4,1.4-5.3,2L175.1,58.8L175.1,58.8z M175.6,87.4c-2.2-1.6-7.4-0.2-10.7-0.7l0.3,1.4
		c5.6-0.4,1,4.3,5.4,4.2C169,88.8,173.2,90,175.6,87.4L175.6,87.4z M172.9,96.7c-1.6-0.7-2.3,0-5-0.7c-0.2,2.5,1,3.6,3.6,3.5
		C171.9,98.4,172.5,97.7,172.9,96.7L172.9,96.7z"/>
	<path class="st1" d="M345.7,317.6c0,0-4.7-5.9-6.9-7c-1.9-1-8.5-1.1-8.5-1.1l0.2-0.5c0,0,3.4,0.4,4.6,0.1c1.9,0.1,5.8-1.6,5.9-3.4
		c0.2-2.1-1.8-3.5-3.2-4.2c-2.8-1.3-8.4-0.4-8.4-0.4s7.3,1.8,7.1,4c-0.1,1.4-4.8,2.6-4.8,2.6l-1.2-1.7l-0.2,1.5l-1.8-1.9l2.9-0.6
		l-1.2-1.8l-3.4,1l3.1,4.3l-0.3,0.6c0,0-1.4-2.7-2.3-3.1c-1.3-0.6-5.7,0.1-5.7,0.1l0,0c0,0,2.2,3.9,3.5,4.5c0.9,0.4,3.8-0.2,3.8-0.2
		l-0.3,0.6l-5.3,0.3l1.3,3.3l2.2-0.2l-1.3-2.6l2.6,0.2l-1.1,1.1l2.1-0.1c0,0,1.9,4.5,0.9,5.4c-1.6,1.5-7.5-3-7.5-3s2.8,5,5.6,6.3
		c1.4,0.7,3.7,1.3,5.2-0.2c1.3-1.3,0-5.4-1.1-6.7c-0.5-1-2.9-3.5-2.9-3.5l0.2-0.5c0,0,4.3,5,6.2,5.9
		C338.2,317.7,345.8,317.7,345.7,317.6"/>
	<path class="st1" d="M32.3,327.8c0,0,4.7-5.9,6.9-7c1.9-1,8.5-1.1,8.5-1.1l-0.2-0.5c0,0-3.4,0.4-4.6,0.1c-1.9,0.1-5.8-1.6-5.9-3.4
		c-0.2-2.1,1.8-3.5,3.2-4.2c2.8-1.3,8.4-0.4,8.4-0.4s-7.3,1.8-7.1,4c0.1,1.4,4.8,2.6,4.8,2.6l1.2-1.7l0.2,1.5l1.8-1.9l-2.9-0.6
		l1.2-1.8l3.4,1l-3.1,4.3l0.3,0.6c0,0,1.4-2.7,2.3-3.1c1.3-0.6,5.7,0.1,5.7,0.1l0,0c0,0-2.2,3.9-3.5,4.5c-0.9,0.4-3.8-0.2-3.8-0.2
		l0.3,0.6l5.3,0.3l-1.3,3.3l-2.2-0.2l1.3-2.6l-2.6,0.2l1.1,1.1l-2.1-0.1c0,0-1.9,4.5-0.9,5.4c1.6,1.5,7.5-3,7.5-3s-2.8,5-5.6,6.3
		c-1.4,0.7-3.7,1.3-5.2-0.2c-1.3-1.3,0-5.4,1.1-6.7c0.5-1,2.9-3.5,2.9-3.5l-0.2-0.5c0,0-4.3,5-6.2,5.9
		C39.8,327.9,32.2,327.8,32.3,327.8"/>
</g>
</svg>
