<?xml version="1.0" encoding="utf-8"?>
<!-- Generator: Adobe Illustrator 22.0.1, SVG Export Plug-In . SVG Version: 6.00 Build 0)  -->
<svg version="1.0" id="Livello_1" xmlns="http://www.w3.org/2000/svg" xmlns:xlink="http://www.w3.org/1999/xlink" x="0px" y="0px"
	 viewBox="0 0 44.2 44.2" style="enable-background:new 0 0 44.2 44.2;" xml:space="preserve">
<style type="text/css">
	.st0{fill:#FFFFFF;}
</style>
<path class="st0" d="M17.1,19.5c0.5-0.3,0.8-0.9,0.8-1.7c0-0.9-0.3-1.5-1-1.8c-0.6-0.2-1.4-0.3-2.3-0.3H11V20h4.1
	C15.9,20,16.6,19.9,17.1,19.5 M18.3,25.6c0-1-0.4-1.7-1.2-2.1c-0.5-0.2-1.1-0.3-1.9-0.3H11v5.2h4.1c0.8,0,1.5-0.1,2-0.3
	C17.9,27.6,18.3,26.8,18.3,25.6 M28.6,20.7c-0.5,0.5-0.8,1.2-1,2.1h6.2c-0.1-1-0.4-1.7-1-2.2c-0.6-0.5-1.3-0.8-2.1-0.8
	C29.8,19.9,29.1,20.2,28.6,20.7 M37.7,25.2H27.6c0.1,1.4,0.5,2.4,1.5,2.9c0.5,0.3,1.2,0.5,2,0.5c0.8,0,1.5-0.2,2-0.6
	c0.3-0.2,0.5-0.5,0.7-1h3.7c-0.1,0.8-0.5,1.7-1.3,2.5c-1.2,1.3-3,2-5.2,2c-1.8,0-3.5-0.6-4.9-1.7c-1.4-1.1-2.1-3-2.1-5.6
	c0-2.4,0.6-4.2,1.9-5.5c1.3-1.3,2.9-1.9,5-1.9c1.2,0,2.3,0.2,3.3,0.6c1,0.4,1.8,1.1,2.4,2.1c0.6,0.8,0.9,1.8,1.1,2.9
	C37.6,23.1,37.7,24,37.7,25.2 M34.7,15.1h-7.8v-1.9h7.8V15.1z M22.4,25.9c0,1.1-0.3,2.2-0.9,3.1c-0.4,0.6-0.8,1.1-1.4,1.5
	c-0.6,0.5-1.3,0.8-2.2,1c-0.8,0.2-1.8,0.3-2.7,0.3H6.5V12.4h9.4c2.4,0,4,0.7,5,2.1c0.6,0.8,0.9,1.8,0.9,3c0,1.2-0.3,2.1-0.9,2.9
	c-0.3,0.4-0.8,0.8-1.5,1.1c1,0.4,1.7,0.9,2.2,1.7C22.2,23.9,22.4,24.8,22.4,25.9 M44.2,22.1C44.2,9.9,34.3,0,22.1,0
	C9.9,0,0,9.9,0,22.1c0,12.2,9.9,22.1,22.1,22.1C34.3,44.2,44.2,34.3,44.2,22.1"/>
</svg>
