<?xml version="1.0" encoding="utf-8"?>
<!-- Generator: Adobe Illustrator 22.0.1, SVG Export Plug-In . SVG Version: 6.00 Build 0)  -->
<svg version="1.0" id="Livello_1" xmlns="http://www.w3.org/2000/svg" xmlns:xlink="http://www.w3.org/1999/xlink" x="0px" y="0px"
	 viewBox="0 0 49.5 59.9" style="enable-background:new 0 0 49.5 59.9;" xml:space="preserve">
<style type="text/css">
	.st0{fill:#A00009;}
	.st1{fill:none;stroke:#FFFFFF;stroke-width:4.2672;stroke-miterlimit:10;}
	.st2{fill:none;stroke:#FFFFFF;stroke-width:4.2672;stroke-linecap:round;stroke-miterlimit:10;}
	.st3{fill:#FFFFFF;}
</style>
<g>
	<path class="st3" d="M43,36.7L30.2,23.5c2.3-2.5,3.8-5.9,3.8-9.5c0-7.7-6.3-14-14-14s-14,6.3-14,14c0,7.7,6.3,14,14,14
		c3,0,5.7-0.9,8-2.5l12.9,13.4c0.3,0.3,0.7,0.4,1,0.4c0.4,0,0.7-0.1,1-0.4C43.5,38.2,43.6,37.3,43,36.7z M8.9,13.9
		c0-6.1,5-11.1,11.1-11.1s11.1,5,11.1,11.1S26.2,25,20,25S8.9,20.1,8.9,13.9z"/>
	<g>
		<path class="st3" d="M7.9,59.5c-1.2,0.2-2.3,0.4-3.3,0.4s-1.8-0.1-2.4-0.4c-0.6-0.3-1.1-0.7-1.4-1.2c-0.3-0.6-0.6-1.2-0.7-1.9
			C0.1,55.5,0,54.6,0,53.5c0-1.1,0.1-2,0.2-2.8c0.1-0.7,0.4-1.4,0.7-2s0.8-1,1.4-1.2c0.6-0.3,1.4-0.4,2.3-0.4c0.9,0,2.1,0.1,3.3,0.4
			l-0.1,1.2c-1.2-0.2-2.3-0.3-3.2-0.3c-1.3,0-2.2,0.4-2.6,1.2c-0.4,0.8-0.6,2.1-0.6,4c0,0.9,0,1.7,0.1,2.3c0.1,0.6,0.2,1.1,0.5,1.5
			c0.2,0.5,0.6,0.8,1,1s1.1,0.3,1.9,0.3c0.8,0,1.8-0.1,3-0.3L7.9,59.5z"/>
		<path class="st3" d="M10.1,59.7V47.3h7.5v1.2h-6.1v4.3h5.1V54h-5.1v4.5h6.1v1.2H10.1z"/>
		<path class="st3" d="M21.4,54.9v4.7H20V47.3h4.6c1.3,0,2.3,0.3,2.9,0.9c0.7,0.6,1,1.5,1,2.8c0,1.9-0.8,3.1-2.3,3.6l2.4,5h-1.5
			l-2.2-4.7H21.4z M24.6,53.7c1.7,0,2.5-0.9,2.5-2.6c0-1.7-0.8-2.6-2.5-2.6h-3.2v5.2H24.6z"/>
		<path class="st3" d="M38.4,59.5c-1.2,0.2-2.3,0.4-3.3,0.4s-1.8-0.1-2.4-0.4s-1.1-0.7-1.4-1.2c-0.3-0.6-0.6-1.2-0.7-1.9
			c-0.1-0.7-0.2-1.6-0.2-2.7c0-1.1,0.1-2,0.2-2.8c0.1-0.7,0.3-1.4,0.7-2c0.3-0.6,0.8-1,1.4-1.2c0.6-0.3,1.4-0.4,2.3-0.4
			s2.1,0.1,3.3,0.4l-0.1,1.2c-1.2-0.2-2.3-0.3-3.2-0.3c-1.3,0-2.2,0.4-2.6,1.2c-0.4,0.8-0.6,2.1-0.6,4c0,0.9,0,1.7,0.1,2.3
			s0.2,1.1,0.5,1.5s0.6,0.8,1,1s1.1,0.3,1.9,0.3s1.8-0.1,3-0.3L38.4,59.5z"/>
		<path class="st3" d="M39.6,59.7L43,47.3h3l3.4,12.3H48l-0.9-3.2h-5.3l-0.9,3.2H39.6z M44,48.5l-1.9,6.8h4.7l-1.9-6.8H44z"/>
	</g>
</g>
</svg>
