<?xml version="1.0" encoding="utf-8"?>
<!-- Generator: Adobe Illustrator 22.0.1, SVG Export Plug-In . SVG Version: 6.00 Build 0)  -->
<svg version="1.0" id="Livello_1" xmlns="http://www.w3.org/2000/svg" xmlns:xlink="http://www.w3.org/1999/xlink" x="0px" y="0px"
	 viewBox="0 0 51.6 51.6" style="enable-background:new 0 0 51.6 51.6;" xml:space="preserve">
<style type="text/css">
	.st0{fill:#FFFFFF;}
</style>
<path class="st0" d="M25.8,0C11.6,0,0,11.5,0,25.8s11.5,25.8,25.8,25.8C40,51.6,51.6,40,51.6,25.8S40,0,25.8,0z M19.8,26.2
	c0,0.7-0.1,1.4-0.4,2.1l9.5,5.3c1.2-0.9,2.5-1.4,4.1-1.4c3.7,0,6.7,2.9,6.7,6.6s-3,6.7-6.7,6.7s-6.7-3-6.7-6.7
	c0-0.8,0.2-1.6,0.4-2.4l-9.4-5.2c-1.2,1-2.7,1.6-4.3,1.6c-3.7,0-6.7-3-6.7-6.7c0-3.7,3-6.7,6.7-6.7c1.7,0,3.2,0.6,4.3,1.6l9.6-5.4
	c-0.4-0.8-0.7-1.8-0.7-2.9c0-3.7,3-6.7,6.7-6.7s6.7,3,6.7,6.7s-3,6.7-6.7,6.7c-1.3,0-2.6-0.4-3.6-1.1l-10,5.6
	C19.7,24.7,19.8,25.4,19.8,26.2z"/>
</svg>
