<?xml version="1.0" encoding="utf-8"?>
<!-- Generator: Adobe Illustrator 22.0.1, SVG Export Plug-In . SVG Version: 6.00 Build 0)  -->
<svg version="1.0" id="Livello_1" xmlns="http://www.w3.org/2000/svg" xmlns:xlink="http://www.w3.org/1999/xlink" x="0px" y="0px"
	 viewBox="0 0 44.2 44.2" style="enable-background:new 0 0 44.2 44.2;" xml:space="preserve">
<style type="text/css">
	.st0{fill:#FFFFFF;}
</style>
<path class="st0" d="M44.2,22.2c0-12.2-9.9-22.1-22.1-22.1C9.9,0.2,0,10,0,22.2C0,33.7,8.8,43,20,44.1C20,42,20,33.6,20,26h-4.4
	v-5.5h4.4c0-3,0-5.6,0-7c0-6.5,6.4-6.5,6.4-6.5h7.7v6.9h-4.5c-2.2,0-1.8,3.2-1.8,3.2v3.4h6.9L33.1,26h-5.2v17.4
	C37.2,40.9,44.2,32.4,44.2,22.2"/>
</svg>
