<?xml version="1.0" encoding="utf-8"?>
<!-- Generator: Adobe Illustrator 22.0.1, SVG Export Plug-In . SVG Version: 6.00 Build 0)  -->
<svg version="1.0" id="Livello_1" xmlns="http://www.w3.org/2000/svg" xmlns:xlink="http://www.w3.org/1999/xlink" x="0px" y="0px"
	 viewBox="0 0 44.2 44.2" style="enable-background:new 0 0 44.2 44.2;" xml:space="preserve">
<style type="text/css">
	.st0{fill:#FFFFFF;}
</style>
<g>
	<path class="st0" d="M17,9.8c-0.9,0-1.9,0.5-2.5,1.2c-0.5,0.7-0.8,1.5-0.8,2.6c0,2.2,1.3,6.3,4.4,6.3c0.8,0,1.8-0.4,2.4-1
		c0.9-0.9,0.9-2.2,0.9-2.6C21.5,13.7,19.9,9.8,17,9.8z"/>
	<path class="st0" d="M22.1,0C9.9,0,0,9.9,0,22.1c0,12.2,9.9,22.1,22.1,22.1c12.2,0,22.1-9.9,22.1-22.1C44.2,9.9,34.3,0,22.1,0z
		 M26.2,8.7l-1.9,1.2c0,0,0,0-0.1,0h-2.2c0.8,0.7,2.5,2.1,2.5,4.8c0,2.7-1.6,4-3,5.1l0,0.1c-0.4,0.4-0.9,0.9-0.9,1.7
		c0,0.8,0.5,1.2,0.9,1.5l1.3,1c1.5,1.3,3,2.5,3,5c0,3.3-3.2,6.7-9.3,6.7c-5.3,0-7.6-2.6-7.6-5.1c0-0.6,0.2-2.8,2.7-4.3
		c2.1-1.3,5.1-1.5,6.7-1.6l0.1,0l-0.1-0.1c-0.5-0.6-1-1.3-1-2.3c0-0.5,0.1-0.9,0.3-1.3l0.1-0.1c-0.4,0-0.8,0.1-1.1,0.1
		c-3.8,0-5.9-2.9-5.9-5.6c0-1.8,0.8-3.5,2.3-4.8c1.8-1.5,3.8-2.1,6.7-2.1h6.5c0.1,0,0.1,0,0.1,0.1C26.3,8.6,26.2,8.7,26.2,8.7z
		 M35.4,22.8c0,0.1-0.1,0.1-0.1,0.1h-3.4v3.4c0,0.1-0.1,0.1-0.1,0.1h-1.5c-0.1,0-0.1-0.1-0.1-0.1V23h-3.4c-0.1,0-0.1-0.1-0.1-0.1
		v-1.5c0-0.1,0.1-0.1,0.1-0.1H30v-3.4c0-0.1,0.1-0.1,0.1-0.1h1.5c0.1,0,0.1,0.1,0.1,0.1v3.4h3.4c0.1,0,0.1,0.1,0.1,0.1V22.8z"/>
	<path class="st0" d="M18.7,25.7c0,0-2.1,0-3.7,0.6c-2,0.7-3.1,2-3.1,3.7c0,2.6,2.5,4.3,6.2,4.3c3.2,0,5.2-1.5,5.2-3.8
		c0-1.9-1.3-2.8-3.9-4.7C19.3,25.7,19.1,25.7,18.7,25.7z"/>
</g>
</svg>
