<?xml version="1.0" encoding="utf-8"?>
<!-- Generator: Adobe Illustrator 22.0.1, SVG Export Plug-In . SVG Version: 6.00 Build 0)  -->
<svg version="1.0" id="Livello_1" xmlns="http://www.w3.org/2000/svg" xmlns:xlink="http://www.w3.org/1999/xlink" x="0px" y="0px"
	 viewBox="0 0 44.2 44.2" style="enable-background:new 0 0 44.2 44.2;" xml:space="preserve">
<style type="text/css">
	.st0{fill:#FFFFFF;}
</style>
<path class="st0" d="M26.9,21.6c0-2.6-2.1-4.6-4.8-4.6c-2.6,0-4.8,2.1-4.8,4.6s2.1,4.6,4.8,4.6C24.8,26.3,26.9,24.2,26.9,21.6
	 M31.3,16v-2.6c0-0.6-0.5-1.1-1.1-1.1h-2.7c-0.6,0-1.1,0.5-1.1,1.1V16c0,0.6,0.5,1.1,1.1,1.1h2.7C30.8,17.1,31.3,16.6,31.3,16
	 M31.3,29.9V19.8h-2.1c0.2,0.7,0.3,1.3,0.3,2.1c0,4-3.3,7.2-7.4,7.2c-4.1,0-7.4-3.2-7.4-7.2c0-0.7,0.1-1.4,0.3-2.1h-2.2v10.1
	c0,0.5,0.4,0.9,0.9,0.9h16.6C30.9,30.9,31.3,30.4,31.3,29.9 M34,30.5c0,1.8-1.4,3.1-3.1,3.1H13.2c-1.7,0-3.1-1.3-3.1-3.1V12.8
	c0-1.8,1.4-3.1,3.1-3.1H31c1.7,0,3.1,1.3,3.1,3.1V30.5z M44.2,22.1C44.2,9.9,34.3,0,22.1,0C9.9,0,0,9.9,0,22.1
	c0,12.2,9.9,22.1,22.1,22.1C34.3,44.2,44.2,34.3,44.2,22.1"/>
</svg>
