<?xml version="1.0" encoding="utf-8"?>
<!-- Generator: Adobe Illustrator 22.0.1, SVG Export Plug-In . SVG Version: 6.00 Build 0)  -->
<svg version="1.0" id="Livello_1" xmlns="http://www.w3.org/2000/svg" xmlns:xlink="http://www.w3.org/1999/xlink" x="0px" y="0px"
	 viewBox="0 0 44.2 44.2" style="enable-background:new 0 0 44.2 44.2;" xml:space="preserve">
<style type="text/css">
	.st0{fill:#FFFFFF;}
</style>
<g>
	<path class="st0" d="M22.1,12.1c-5.6,0-10.1,4.5-10.1,10.1c0,5.6,4.5,10.1,10,10.1c5.6,0,10.1-4.5,10.1-10
		C32.2,16.6,27.7,12.1,22.1,12.1z M22.1,29.1c-3.9,0-6.9-3.1-6.9-6.9c0-3.9,3.1-6.9,6.9-6.9c3.8,0,6.9,3.1,7,6.9
		C29,26,25.9,29.1,22.1,29.1z"/>
	<path class="st0" d="M22.1,18.2c-2.1,0-3.9,1.7-3.9,3.9c0,2.1,1.7,3.9,3.9,3.9c2.1,0,3.9-1.7,3.9-3.9C26,20,24.2,18.2,22.1,18.2z"
		/>
	<path class="st0" d="M22.1,0C9.9,0,0,9.9,0,22.1s9.9,22.1,22.1,22.1c12.2,0,22.1-9.9,22.1-22.1S34.3,0,22.1,0z M35.1,28.8
		c-0.8,1.6-1.9,2.9-3.1,4.1c-1.8,1.7-4,2.8-6.4,3.4c-0.7,0.2-1.3,0.3-2,0.3c-0.6,0.1-1.3,0.1-2,0.1c-3.2-0.1-6.1-1.1-8.6-3.1
		c-2.6-2.1-4.4-4.8-5.2-8.1c-0.2-0.7-0.3-1.4-0.3-2.1c0-0.4-0.1-0.9-0.1-1.3c0-4.5,0-8.9,0-13.4c0-0.6,0.4-1.1,0.9-1.2
		c0.1,0,0.2,0,0.4,0c2.3,0,4.6,0,6.8,0c0,0,0,0,0,0c2.2,0,4.5,0,6.7,0c2.3,0,4.4,0.6,6.5,1.6c1.8,0.9,3.3,2.1,4.6,3.7
		c1.3,1.5,2.2,3.3,2.8,5.2c0.2,0.8,0.4,1.6,0.5,2.5c0.1,0.7,0.1,1.4,0.1,2.1C36.7,24.8,36.1,26.9,35.1,28.8z"/>
</g>
</svg>
