<?xml version="1.0" encoding="utf-8"?>
<!-- Generator: Adobe Illustrator 22.0.1, SVG Export Plug-In . SVG Version: 6.00 Build 0)  -->
<svg version="1.0" id="Livello_1" xmlns="http://www.w3.org/2000/svg" xmlns:xlink="http://www.w3.org/1999/xlink" x="0px" y="0px"
	 viewBox="0 0 44.2 44.2" style="enable-background:new 0 0 44.2 44.2;" xml:space="preserve">
<style type="text/css">
	.st0{fill:#FFFFFF;}
</style>
<path class="st0" d="M22.1,0C9.9,0,0,9.9,0,22.1c0,12.2,9.9,22.1,22.1,22.1s22.1-9.9,22.1-22.1C44.2,9.9,34.3,0,22.1,0z M13.5,36.8
	c-1.7,0-3.4,0-5.2,0c-0.1,0-0.3,0-0.5,0c0-0.2,0-0.4,0-0.5c0-6.2,0-12.4,0-18.6c0-0.6,0-0.6,0.6-0.6c1.6,0,3.2,0,4.8,0
	C14,17.2,14,17,14,18c0,4.8,0,9.6,0,14.4c0,1.3,0,2.6,0,4C14,36.7,13.9,36.8,13.5,36.8z M10.9,14.6c-2.3,0-3.7-1.9-3.6-3.7
	C7.4,9,9,7.4,10.9,7.4c2,0,3.6,1.7,3.6,3.6C14.5,13,12.9,14.6,10.9,14.6z M36.4,36.8c-1.7,0-3.5,0-5.2,0c-0.4,0-0.5-0.1-0.5-0.5
	c0-3.2,0-6.4,0-9.5c0-0.9-0.1-1.7-0.3-2.6c-0.3-1.5-1.3-2.1-2.8-2.1c-1.1,0-2.2,0.2-2.9,1.2c-0.5,0.7-0.7,1.6-0.8,2.4
	c-0.1,3.1-0.1,6.2-0.1,9.2c0,0.6,0,1.2,0,1.8c-2.1,0-4.1,0-6.1,0c0-0.2,0-0.4,0-0.5c0-6.2,0-12.4,0-18.5c0-0.6,0-0.6,0.6-0.6
	c1.6,0,3.2,0,4.8,0c0.4,0,0.5,0.1,0.5,0.5c0,0.7,0,1.4,0,2.1c0.5-0.5,0.9-1.1,1.4-1.5c1.5-1.3,3.4-1.7,5.4-1.5
	c0.8,0.1,1.6,0.2,2.3,0.5c2.1,0.7,3.1,2.3,3.7,4.3c0.4,1.5,0.5,3.1,0.5,4.7c0,3.4,0,6.7,0,10.1C36.9,36.7,36.8,36.8,36.4,36.8z"/>
</svg>
