<svg id="Livello_1" data-name="Livello 1" xmlns="http://www.w3.org/2000/svg" viewBox="0 0 174.9 79.53"><defs><style>.cls-1,.cls-14,.cls-15,.cls-3{fill:none;}.cls-1,.cls-15,.cls-3{stroke:#000;}.cls-1{stroke-width:1.84px;}.cls-2{fill:#fff;}.cls-3{stroke-width:0.42px;}.cls-4{font-size:8.57px;}.cls-10,.cls-11,.cls-12,.cls-13,.cls-4,.cls-5,.cls-6,.cls-7,.cls-8,.cls-9{fill:#1d1d1b;font-family:Trajan-Bold, Trajan;font-weight:700;}.cls-5{font-size:8.57px;}.cls-6{font-size:8.57px;}.cls-7{font-size:8.57px;}.cls-8{font-size:8.57px;}.cls-9{font-size:8.57px;}.cls-10{font-size:8.57px;}.cls-11{font-size:8.57px;}.cls-12{font-size:8.57px;}.cls-13{font-size:8.57px;}.cls-14{stroke:#fff;stroke-width:0.04px;}.cls-15{stroke-width:0.56px;}</style></defs><title>prova</title><line class="cls-1" x1="75.45" x2="75.45" y2="79.53"/><path d="M86.26,56.7c0,1.94,0,3.53-.1,4.37-.08.58-.18,1-.59,1.11a3.09,3.09,0,0,1-.6.08c-.12,0-.16.06-.16.12s.1.16.32.16c.61,0,1.87-.06,2-.06s1.37.06,2.48.06c.22,0,.32-.06.32-.16s0-.12-.16-.12a9.13,9.13,0,0,1-.91-.08c-.6-.08-.72-.53-.78-1.11-.1-.84-.1-2.43-.1-4.37V55c0-.14,0-.18.14-.18.34,0,2.54,0,3,.06a1.22,1.22,0,0,1,1,.73,2.89,2.89,0,0,1,.13.72c0,.1,0,.18.14.18s.14-.2.14-.38,0-.94.08-1.35c.06-.66.16-1,.16-1.12s0-.17-.1-.17-.14.11-.22.21c-.18.26-.45.32-.93.36-.28,0-.56,0-.9,0l-2.58,0c-.12,0-.14-.06-.14-.18V48.35c0-.16.06-.22.18-.22l3.1.06a1.52,1.52,0,0,1,1.37.65,2.16,2.16,0,0,1,.18.76c0,.14,0,.24.14.24s.14-.12.16-.22.08-1.13.1-1.33c.06-.56.16-.8.16-.94s0-.18-.12-.18-.16.08-.28.12a4.42,4.42,0,0,1-.89.08c-.46,0-4.54,0-5,0-.1,0-1.36-.06-2.27-.06-.22,0-.32,0-.32.16s.08.12.16.12a3.74,3.74,0,0,1,.68.06c.67.14.83.46.87,1.15s0,1.2,0,4.34V56.7m13.6-3.54c0-3.14,0-3.7,0-4.34s.2-1,.75-1.15a3,3,0,0,1,.5-.06c.08,0,.16,0,.16-.12s-.1-.16-.32-.16c-.61,0-1.87.06-2,.06s-1.37-.06-2-.06c-.22,0-.32,0-.32.16s.08.12.16.12a2.7,2.7,0,0,1,.63.08c.44.1.64.44.68,1.13s0,1.2,0,4.34V56.7c0,1.94,0,3.53-.1,4.37-.08.58-.18,1-.58,1.11a3.19,3.19,0,0,1-.61.08c-.12,0-.16.06-.16.12s.1.16.32.16c.61,0,1.88-.06,2-.06s1.36.06,2.47.06c.22,0,.32-.06.32-.16s0-.12-.16-.12a8.72,8.72,0,0,1-.9-.08c-.61-.08-.73-.53-.79-1.11-.1-.84-.1-2.43-.1-4.37V53.16ZM107,56.7c0,1.94,0,3.53-.11,4.37-.08.58-.18,1-.58,1.11a3.09,3.09,0,0,1-.6.08c-.12,0-.16.06-.16.12s.1.16.32.16c.6,0,1.87-.06,1.89-.06s1.37.06,2.48.06c.22,0,.32-.06.32-.16s0-.12-.16-.12a8.66,8.66,0,0,1-.91-.08c-.6-.08-.72-.53-.78-1.11-.11-.84-.11-2.43-.11-4.37v-.48a.14.14,0,0,1,.15-.16l2.47,0a.32.32,0,0,1,.26.12c.41.52,1.35,1.87,2.2,3a10.58,10.58,0,0,0,2.71,3,4.15,4.15,0,0,0,2.16.38H120c.37,0,.49,0,.49-.16s-.08-.12-.18-.12a4.9,4.9,0,0,1-.79-.06,4.13,4.13,0,0,1-2.45-1.45c-1.17-1.25-2.54-3-4.19-5.15,1.81-1.67,2.44-3.16,2.44-4.65a3.53,3.53,0,0,0-1.39-2.74,6.25,6.25,0,0,0-3.69-.88c-.62,0-2.15.06-2.37.06s-1.37-.06-2.27-.06c-.22,0-.33,0-.33.16s.08.12.17.12a3.74,3.74,0,0,1,.68.06c.66.14.82.46.87,1.15s0,1.2,0,4.34V56.7Zm1.6-8.37a.25.25,0,0,1,.17-.24,6,6,0,0,1,1.34-.12c2.16,0,3.49,1.51,3.49,4a3.66,3.66,0,0,1-1.23,3.09,2.56,2.56,0,0,1-1.51.39,5.3,5.3,0,0,1-2.11-.33.27.27,0,0,1-.15-.24V48.33ZM122.2,56.7c0,1.94,0,3.53-.1,4.37-.08.58-.18,1-.59,1.11a3.09,3.09,0,0,1-.6.08c-.12,0-.16.06-.16.12s.1.16.32.16c.6,0,1.87-.06,2-.06.59,0,1.94.12,5,.12.79,0,1,0,1.09-.52s.26-1.79.26-1.95,0-.31-.12-.31-.14.08-.18.31c-.14.82-.38,1.22-.91,1.44a5.53,5.53,0,0,1-1.93.23c-2,0-2.27-.27-2.33-1.65,0-.43,0-2.76,0-3.45V54.93a.13.13,0,0,1,.14-.14c.34,0,2.33,0,2.88.1.78.08,1,.43,1,.71a2,2,0,0,1,.08.66c0,.1,0,.18.14.18s.15-.22.15-.38,0-.88.08-1.29c.06-.66.16-1,.16-1.12s0-.17-.1-.17-.16.11-.31.27-.46.24-.94.28-2.94,0-3.2,0c-.1,0-.12-.06-.12-.2V48.31c0-.14,0-.2.12-.2s2.41,0,2.76.06c1.08.12,1.28.36,1.42.69a2,2,0,0,1,.13.72c0,.16,0,.26.16.26s.12-.12.14-.22.08-1.13.1-1.33c.06-.56.16-.8.16-.94s0-.18-.08-.18-.18.08-.28.1a5.5,5.5,0,0,1-.87.1c-.46,0-4.47,0-4.61,0s-1.37-.06-2.27-.06c-.22,0-.32,0-.32.16s.08.12.16.12a3.74,3.74,0,0,1,.68.06c.67.14.83.46.87,1.15s0,1.2,0,4.34V56.7Zm12.55-6.54c.65.73,2.92,3.26,5.26,5.78,2.13,2.29,5,5.25,5.25,5.45,1.07,1.07,1.31,1.29,1.47,1.29s.18-.1.18-1.43l0-11.79c0-1.21.08-1.65.74-1.79a1.86,1.86,0,0,1,.49-.06c.14,0,.22-.06.22-.14s-.14-.14-.36-.14c-.83,0-1.49.06-1.71.06s-1.19-.06-2.1-.06c-.24,0-.4,0-.4.14s0,.14.16.14a5.5,5.5,0,0,1,1,.1c.62.16.76.6.78,1.91L146,59.84c-.64-.66-2.83-3.12-4.83-5.25-3.1-3.32-6.09-6.56-6.4-6.9s-.54-.64-.7-.64-.22.22-.22,1l0,11.53c0,1.83-.1,2.42-.6,2.56a3,3,0,0,1-.83.12c-.1,0-.16,0-.16.12s.12.16.32.16c.91,0,1.75-.06,1.93-.06s1,.06,2.14.06c.24,0,.36,0,.36-.16s-.06-.12-.16-.12a4.46,4.46,0,0,1-1-.12c-.54-.16-.74-.69-.78-2.34l-.27-9.64Zm18.9,11.51c3.06-4.62,6.1-9.25,9-13.88a.31.31,0,0,0,.09-.24c0-.12-.11-.16-.41-.16h-5.61c-.63,0-1.59,0-3.5-.06a5.5,5.5,0,0,1-.85-.14c-.12,0-.16.1-.2.38-.1.6-.4,2.43-.4,2.67s0,.27.12.27.18-.06.22-.37a2.27,2.27,0,0,1,1.15-1.59,7.34,7.34,0,0,1,2.9-.4h4.36c-2.8,4.55-5.83,9.08-8.83,13.61-.24.36-.28.46-.28.56s.12.16.36.16c3.52,0,6.9.1,10.26.1.46,0,.48,0,.6-.52a12.44,12.44,0,0,0,.41-2.32c0-.38,0-.46-.16-.46s-.14.12-.18.32a3.54,3.54,0,0,1-.41,1.09c-.42.6-1.06,1-3.18,1Zm13.8-5c0,1.94,0,3.53-.1,4.37-.08.58-.18,1-.58,1.11a3.09,3.09,0,0,1-.6.08c-.12,0-.16.06-.16.12s.1.16.32.16c.6,0,1.87-.06,2-.06.58,0,1.93.12,5,.12.78,0,.95,0,1.09-.52s.26-1.79.26-1.95,0-.31-.12-.31-.14.08-.18.31c-.14.82-.39,1.22-.91,1.44a5.56,5.56,0,0,1-1.93.23c-2,0-2.28-.27-2.34-1.65,0-.43,0-2.76,0-3.45V54.93c0-.08,0-.14.15-.14.34,0,2.33,0,2.87.1.79.08,1,.43,1.05.71a2,2,0,0,1,.08.66c0,.1,0,.18.14.18s.14-.22.14-.38,0-.88.08-1.29c.06-.66.16-1,.16-1.12s0-.17-.1-.17-.16.11-.3.27-.46.24-.95.28-2.93,0-3.19,0-.13-.06-.13-.2V48.31c0-.14,0-.2.13-.2s2.41,0,2.75.06c1.09.12,1.29.36,1.43.69a2.15,2.15,0,0,1,.12.72c0,.16,0,.26.16.26s.12-.12.14-.22.08-1.13.1-1.33c.06-.56.16-.8.16-.94s0-.18-.08-.18-.18.08-.28.1a5.33,5.33,0,0,1-.86.1c-.47,0-4.47,0-4.61,0s-1.37-.06-2.27-.06c-.23,0-.33,0-.33.16s.08.12.16.12a3.77,3.77,0,0,1,.69.06c.66.14.82.46.86,1.15s0,1.2,0,4.34V56.7Z" transform="translate(-0.02)"/><path d="M85.71,37.45c0,1.24,0,2.25-.06,2.79-.05.37-.12.65-.37.71a2.6,2.6,0,0,1-.39,0c-.07,0-.1,0-.1.07s.06.11.21.11c.38,0,1.19,0,1.25,0s1.75.15,2.85.15A5.16,5.16,0,0,0,93,39.82a5.27,5.27,0,0,0,1.38-3.63,4.61,4.61,0,0,0-1.24-3.26c-1.53-1.58-3.88-1.46-5.15-1.46-.77,0-1.58,0-1.74,0s-.87,0-1.45,0c-.14,0-.2,0-.2.1a.09.09,0,0,0,.1.08,2.12,2.12,0,0,1,.44,0c.42.09.52.29.55.73s0,.77,0,2.77v2.26ZM86.79,35c0-1,0-2.3,0-2.74A.24.24,0,0,1,87,32a3.48,3.48,0,0,1,.83-.09A5.25,5.25,0,0,1,92,33.36a4.56,4.56,0,0,1,1.24,3.23,4.48,4.48,0,0,1-1,3.07,4.31,4.31,0,0,1-3.06,1.2c-1.51,0-2-.27-2.18-.52a2.77,2.77,0,0,1-.14-1c0-.25,0-1.43,0-2.79V35Zm10.58,2.46c0,1.24,0,2.25-.07,2.79,0,.37-.11.65-.37.71a2.6,2.6,0,0,1-.39,0c-.07,0-.1,0-.1.07s.07.11.21.11c.38,0,1.19,0,1.26,0,.37,0,1.23.08,3.17.08.5,0,.6,0,.69-.34a11.17,11.17,0,0,0,.17-1.24c0-.09,0-.2-.08-.2s-.09.05-.11.2c-.09.52-.25.78-.58.92a3.76,3.76,0,0,1-1.24.14c-1.25,0-1.45-.17-1.49-1.05,0-.27,0-1.76,0-2.2V36.32a.08.08,0,0,1,.09-.09c.22,0,1.49,0,1.84.07s.62.27.67.45a1.3,1.3,0,0,1,0,.42c0,.06,0,.12.09.12s.09-.15.09-.25,0-.56,0-.82c0-.42.1-.64.1-.72s0-.1-.06-.1-.1.06-.19.16-.3.16-.61.18-1.87,0-2,0-.08,0-.08-.13V32.1c0-.09,0-.13.08-.13s1.54,0,1.76,0c.69.07.82.23.91.43a1.31,1.31,0,0,1,.08.47c0,.1,0,.16.1.16s.08-.07.09-.14.05-.72.07-.85c0-.36.1-.51.1-.6s0-.12,0-.12-.12.06-.18.07a3.92,3.92,0,0,1-.55.06c-.3,0-2.85,0-2.94,0s-.88,0-1.46,0c-.14,0-.2,0-.2.1a.09.09,0,0,0,.1.08,2.06,2.06,0,0,1,.44,0c.42.09.52.29.55.73s0,.77,0,2.77v2.26Zm13.93,2.64a.45.45,0,0,1-.26.44,3.37,3.37,0,0,1-1.46.27,4.69,4.69,0,0,1-3.37-1.37,5.25,5.25,0,0,1-1.36-3.56,3.67,3.67,0,0,1,4-4.11,3.75,3.75,0,0,1,3,1,2,2,0,0,1,.27.85c0,.12,0,.19.09.19s.12-.06.12-.27a16.22,16.22,0,0,1,.09-1.82c0-.05,0-.1-.16-.12a6.6,6.6,0,0,1-1-.12,10.07,10.07,0,0,0-2-.22,6.32,6.32,0,0,0-3.42.81,4.87,4.87,0,0,0-2.14,4.22A5,5,0,0,0,105.26,40a6.38,6.38,0,0,0,4.23,1.38,6.3,6.3,0,0,0,2.72-.58c.16-.09.17-.12.17-.69V38.65c0-.54,0-.93,0-1.34s.13-.67.48-.73a1.52,1.52,0,0,1,.32,0,.09.09,0,0,0,.1-.08c0-.07-.06-.1-.2-.1-.39,0-1.2,0-1.26,0s-.87,0-1.45,0c-.14,0-.21,0-.21.1s0,.08.11.08a2,2,0,0,1,.43,0c.52.14.58.28.58,1.32v2.19Zm6-4.9c0-2,0-2.36,0-2.77s.13-.67.51-.73a2.43,2.43,0,0,1,.42,0,.09.09,0,0,0,.1-.08c0-.08-.06-.1-.2-.1-.39,0-1.33,0-1.39,0s-.87,0-1.45,0c-.14,0-.21,0-.21.1s0,.08.11.08a2,2,0,0,1,.43,0c.43.09.53.29.55.73s0,.77,0,2.77v2.26c0,1.24,0,2.25-.06,2.79-.06.37-.12.65-.38.71a2.47,2.47,0,0,1-.38,0c-.08,0-.1,0-.1.07s.06.11.2.11c.39,0,1.14,0,1.26,0,.74,0,1.59.08,3.44.08.68,0,.72-.06.81-.35a8.34,8.34,0,0,0,.19-1.29c0-.14,0-.19-.07-.19s-.11.07-.12.17a1.94,1.94,0,0,1-.33.77c-.31.37-.88.38-1.56.38-1,0-1.33-.09-1.54-.29s-.28-1.05-.28-2.94V35.19Zm7.6,0c0-2,0-2.36,0-2.77s.13-.67.47-.73a1.6,1.6,0,0,1,.32,0c.06,0,.11,0,.11-.08s-.07-.1-.21-.1c-.38,0-1.19,0-1.26,0s-.87,0-1.29,0c-.15,0-.21,0-.21.1a.09.09,0,0,0,.1.08,1.61,1.61,0,0,1,.4.05c.28.06.41.28.44.72s0,.77,0,2.77v2.26c0,1.24,0,2.25-.06,2.79,0,.37-.12.65-.37.71a2.6,2.6,0,0,1-.39,0c-.08,0-.1,0-.1.07s.06.11.2.11c.39,0,1.2,0,1.26,0s.88,0,1.58,0c.14,0,.21,0,.21-.11s0-.07-.1-.07-.4,0-.58,0c-.39-.06-.47-.34-.5-.71-.07-.54-.07-1.55-.07-2.79V35.19Zm9.65,6.17a3.45,3.45,0,0,0,1.94-.54,2.68,2.68,0,0,0,1.09-2.13c0-1-.36-1.83-1.88-3l-.36-.29c-1.2-1-1.56-1.42-1.56-2.15a1.46,1.46,0,0,1,1.58-1.49c1.18,0,1.52.54,1.6.68a2.09,2.09,0,0,1,.17.64c0,.1,0,.17.1.17s.09-.09.09-.3c0-.87,0-1.3,0-1.36s0-.09-.13-.09a2.16,2.16,0,0,1-.45-.06,4.79,4.79,0,0,0-1.19-.13A2.35,2.35,0,0,0,133,33.6c0,.87.31,1.67,1.67,2.79l.58.47c1.1.91,1.48,1.43,1.48,2.31a1.72,1.72,0,0,1-1.84,1.71,1.75,1.75,0,0,1-1.9-1.31,2.16,2.16,0,0,1,0-.47c0-.11,0-.14-.09-.14s-.09.06-.1.2-.07.72-.07,1.36c0,.35,0,.4.2.49a3.82,3.82,0,0,0,1.72.35ZM143.75,32l1.62,0c1.24,0,1.53.32,1.58.7l0,.14c0,.18,0,.22.1.22s.09,0,.09-.17,0-1,0-1.41c0-.08,0-.15-.07-.15a6.12,6.12,0,0,1-1.27.13H141c-.15,0-.64,0-1-.07a2.22,2.22,0,0,1-.57-.15c-.05,0-.1.16-.12.24s-.29,1.21-.29,1.34,0,.11.07.11.09,0,.13-.13a1.53,1.53,0,0,1,.21-.39c.21-.31.52-.4,1.31-.41l1.91,0v5.43c0,1.24,0,2.25-.07,2.79-.05.37-.11.65-.37.71a2.6,2.6,0,0,1-.39,0c-.07,0-.1,0-.1.07s.06.11.21.11c.38,0,1.19,0,1.25,0s.88,0,1.58,0c.15,0,.21,0,.21-.11s0-.07-.1-.07-.4,0-.58,0c-.39-.06-.46-.34-.5-.71-.07-.54-.07-1.55-.07-2.79V32Zm5.4,5a4.27,4.27,0,0,0,1.12,3.38,3.92,3.92,0,0,0,2.64.91,3.78,3.78,0,0,0,2.65-1c1-.92,1.18-2.46,1.18-3.84V35.19c0-2,0-2.36,0-2.77s.13-.67.48-.73a1.06,1.06,0,0,1,.32,0,.09.09,0,0,0,.1-.08c0-.08-.06-.1-.2-.1-.39,0-1,0-1.08,0s-.78,0-1.36,0c-.14,0-.21,0-.21.1a.09.09,0,0,0,.1.08,2.06,2.06,0,0,1,.44,0c.43.09.53.29.55.73s0,.77,0,2.77V36.8a4.91,4.91,0,0,1-.75,3.14,2.66,2.66,0,0,1-2,.93,2.52,2.52,0,0,1-1.94-.71c-.55-.52-1-1.32-1-3.17v-1.8c0-2,0-2.36,0-2.77s.13-.68.48-.73a1.52,1.52,0,0,1,.32,0,.09.09,0,0,0,.1-.08c0-.08-.06-.1-.21-.1-.38,0-1.15,0-1.27,0s-.9,0-1.47,0c-.14,0-.21,0-.21.1a.09.09,0,0,0,.1.08,2.06,2.06,0,0,1,.44,0c.42.09.53.29.55.73s0,.77,0,2.77v1.88Zm11.4.38c0,1.24,0,2.25-.06,2.79-.05.37-.12.65-.37.71a2.6,2.6,0,0,1-.39,0c-.08,0-.1,0-.1.07s.06.11.2.11c.39,0,1.2,0,1.26,0s1.75.15,2.85.15a5.11,5.11,0,0,0,3.89-1.47,5.27,5.27,0,0,0,1.39-3.63A4.61,4.61,0,0,0,168,32.93c-1.53-1.58-3.88-1.46-5.15-1.46-.77,0-1.58,0-1.74,0s-.87,0-1.45,0c-.14,0-.2,0-.2.1a.09.09,0,0,0,.1.08,2,2,0,0,1,.43,0c.43.09.53.29.56.73s0,.77,0,2.77v2.26ZM161.63,35c0-1,0-2.3,0-2.74a.24.24,0,0,1,.16-.26,3.48,3.48,0,0,1,.83-.09,5.25,5.25,0,0,1,4.2,1.46,4.56,4.56,0,0,1,1.24,3.23,4.48,4.48,0,0,1-1,3.07,4.31,4.31,0,0,1-3.06,1.2c-1.51,0-2-.27-2.18-.52a2.77,2.77,0,0,1-.14-1c0-.25,0-1.43,0-2.79V35Zm11.65.2c0-2,0-2.36,0-2.77s.13-.67.47-.73a1.69,1.69,0,0,1,.32,0c.06,0,.11,0,.11-.08s-.07-.1-.21-.1c-.38,0-1.19,0-1.26,0s-.87,0-1.29,0c-.14,0-.21,0-.21.1a.09.09,0,0,0,.1.08,1.61,1.61,0,0,1,.4.05c.28.06.41.28.44.72s0,.77,0,2.77v2.26c0,1.24,0,2.25-.06,2.79,0,.37-.12.65-.37.71a2.6,2.6,0,0,1-.39,0c-.07,0-.1,0-.1.07s.06.11.21.11c.38,0,1.19,0,1.25,0s.88,0,1.58,0c.14,0,.21,0,.21-.11s0-.07-.1-.07-.4,0-.58,0c-.39-.06-.46-.34-.5-.71-.07-.54-.07-1.55-.07-2.79V35.19Z" transform="translate(-0.02)"/><path d="M85.05,21.43c0,2,.52,2.93,1.18,3.56A4.2,4.2,0,0,0,89,26a4,4,0,0,0,2.79-1c1.08-1,1.25-2.59,1.25-4.05V19.45c0-2.11,0-2.49,0-2.93s.14-.7.51-.77a1.15,1.15,0,0,1,.33,0c.06,0,.11,0,.11-.08s-.06-.11-.21-.11c-.41,0-1,0-1.14,0s-.83,0-1.44,0c-.15,0-.22,0-.22.11s.06.08.11.08a2.32,2.32,0,0,1,.46,0c.45.09.56.31.59.77s0,.82,0,2.93v1.69a5.32,5.32,0,0,1-.78,3.33,2.85,2.85,0,0,1-2.13,1,2.68,2.68,0,0,1-2-.74c-.58-.56-1-1.4-1-3.35v-1.9c0-2.11,0-2.49,0-2.93s.14-.72.5-.77a1.85,1.85,0,0,1,.34,0c.06,0,.11,0,.11-.08s-.07-.11-.22-.11c-.4,0-1.22,0-1.34,0s-1,0-1.56,0c-.15,0-.21,0-.21.11a.09.09,0,0,0,.1.08,2.19,2.19,0,0,1,.46,0c.45.09.56.31.59.77s0,.82,0,2.93v2Zm12.23-4c.44.49,2,2.2,3.54,3.89s3.39,3.54,3.54,3.67c.72.72.88.87,1,.87s.12-.07.12-1l0-7.94c0-.82,0-1.12.5-1.21a1.2,1.2,0,0,1,.32,0c.1,0,.15,0,.15-.1s-.09-.09-.24-.09c-.56,0-1,0-1.15,0s-.8,0-1.41,0c-.16,0-.27,0-.27.09s0,.1.11.1a3.19,3.19,0,0,1,.66.07c.42.1.51.4.53,1.28l.15,6.89c-.44-.45-1.91-2.1-3.26-3.54-2.08-2.23-4.1-4.42-4.31-4.65s-.36-.43-.47-.43-.15.15-.15.68v7.76c0,1.24-.07,1.63-.41,1.73a2.26,2.26,0,0,1-.56.08c-.06,0-.11,0-.11.08s.09.11.22.11c.61,0,1.18,0,1.3,0s.67,0,1.44,0c.16,0,.24,0,.24-.11s0-.08-.1-.08A3.45,3.45,0,0,1,98,25.5c-.37-.11-.5-.46-.53-1.58l-.18-6.49Zm13.79,2c0-2.11,0-2.49,0-2.93s.13-.7.5-.77a1.69,1.69,0,0,1,.34,0s.11,0,.11-.08-.07-.11-.22-.11c-.41,0-1.26,0-1.33,0s-.92,0-1.37,0c-.15,0-.22,0-.22.11s.06.08.11.08a1.75,1.75,0,0,1,.42,0c.3.07.44.3.46.76s0,.82,0,2.93v2.39c0,1.3,0,2.37-.07,2.94,0,.39-.12.69-.39.74a1.84,1.84,0,0,1-.41.06c-.08,0-.11,0-.11.08s.07.11.22.11c.41,0,1.26,0,1.33,0s.92,0,1.67,0c.15,0,.21,0,.21-.11s0-.08-.1-.08a5.2,5.2,0,0,1-.61-.06c-.41-.05-.49-.35-.53-.74-.07-.57-.07-1.64-.07-2.94V19.45Zm5.16-2.28a5.39,5.39,0,0,1-.36-1.12.27.27,0,0,1,.17-.27,1.49,1.49,0,0,1,.52-.07c.09,0,.14,0,.14-.1s-.13-.09-.37-.09c-.52,0-1.13,0-1.26,0s-.94,0-1.59,0c-.21,0-.35,0-.35.09s0,.1.11.1a2.23,2.23,0,0,1,.51,0c.48.14.68.29,1,1l3.32,8.31c.26.65.33.84.49.84s.19-.22.57-1,.92-2.13,1.75-4.11c.69-1.67,1.37-3.29,1.52-3.67.36-.93.56-1.16.74-1.28a1.26,1.26,0,0,1,.65-.16c.11,0,.16,0,.16-.1s-.08-.09-.23-.09c-.39,0-1,0-1,0s-.79,0-1.33,0c-.22,0-.3,0-.3.11s.07.08.15.08a1.8,1.8,0,0,1,.51,0,.34.34,0,0,1,.18.31,1.79,1.79,0,0,1-.12.52c-.3,1-2.12,5.71-2.9,7.52l-2.61-6.94ZM126,21.84c0,1.3,0,2.37-.06,2.94-.06.39-.13.69-.4.74a1.84,1.84,0,0,1-.4.06c-.08,0-.11,0-.11.08s.07.11.22.11c.4,0,1.26,0,1.32,0,.4,0,1.31.08,3.35.08.53,0,.64,0,.73-.35a13,13,0,0,0,.18-1.32c0-.09,0-.2-.08-.2s-.1,0-.12.2c-.1.56-.26.83-.61,1a3.89,3.89,0,0,1-1.3.15c-1.33,0-1.54-.18-1.58-1.12,0-.28,0-1.85,0-2.31v-1.2a.09.09,0,0,1,.1-.09c.23,0,1.57,0,1.94.07.53.05.65.28.7.47a1.27,1.27,0,0,1,.06.45c0,.07,0,.12.09.12s.1-.15.1-.26,0-.59,0-.87c0-.44.11-.67.11-.75s0-.11-.07-.11-.11.06-.2.17-.31.17-.64.19-2,0-2.16,0-.08,0-.08-.14V16.18c0-.09,0-.13.08-.13s1.63,0,1.86,0c.73.08.87.24,1,.46a1.42,1.42,0,0,1,.09.49c0,.11,0,.17.1.17s.09-.08.1-.15.05-.75.07-.89c0-.38.11-.54.11-.64s0-.12-.06-.12-.12.05-.19.07a3.94,3.94,0,0,1-.58.07h-3.11c-.06,0-.92,0-1.53,0-.15,0-.22,0-.22.11s.06.08.11.08a2.19,2.19,0,0,1,.46,0c.45.09.56.31.59.77s0,.82,0,2.93v2.39Zm8.27,0c0,1.3,0,2.37-.06,2.94-.06.39-.13.69-.4.74a1.84,1.84,0,0,1-.4.06c-.09,0-.11,0-.11.08s.07.11.21.11c.41,0,1.27,0,1.28,0s.92,0,1.67,0c.15,0,.21,0,.21-.11s0-.08-.11-.08a5.41,5.41,0,0,1-.61-.06c-.4-.05-.48-.35-.52-.74-.07-.57-.07-1.64-.07-2.94v-.33c0-.07,0-.11.09-.11l1.67,0a.25.25,0,0,1,.18.08c.27.35.91,1.26,1.47,2a7.28,7.28,0,0,0,1.83,2,2.81,2.81,0,0,0,1.46.26h1c.24,0,.32,0,.32-.11s0-.08-.12-.08a3.34,3.34,0,0,1-.53,0,2.85,2.85,0,0,1-1.65-1c-.79-.84-1.71-2-2.82-3.47A4.18,4.18,0,0,0,139.81,18a2.35,2.35,0,0,0-.94-1.84,4.11,4.11,0,0,0-2.48-.6c-.42,0-1.45,0-1.6,0s-.92,0-1.53,0c-.15,0-.22,0-.22.11s.06.08.11.08a2.25,2.25,0,0,1,.46,0c.45.09.56.31.59.77s0,.82,0,2.93v2.39Zm1.09-5.64a.18.18,0,0,1,.11-.17,4.07,4.07,0,0,1,.9-.08c1.46,0,2.35,1,2.35,2.71a2.46,2.46,0,0,1-.83,2.09,1.72,1.72,0,0,1-1,.26,3.82,3.82,0,0,1-1.43-.22.18.18,0,0,1-.09-.16V16.2ZM145.26,26a3.63,3.63,0,0,0,2.05-.57,2.84,2.84,0,0,0,1.15-2.25c0-1.09-.38-1.93-2-3.19l-.38-.3c-1.27-1-1.65-1.5-1.65-2.27a1.55,1.55,0,0,1,1.67-1.58c1.24,0,1.61.57,1.69.72a2.73,2.73,0,0,1,.18.68c0,.11,0,.18.11.18s.09-.1.09-.32c0-.92.05-1.37.05-1.43s0-.1-.13-.1a2,2,0,0,1-.48-.07,5.29,5.29,0,0,0-1.26-.13c-1.72,0-2.8,1-2.8,2.44,0,.92.32,1.76,1.76,2.94l.61.5c1.17,1,1.56,1.51,1.56,2.44a1.82,1.82,0,0,1-1.94,1.81,1.85,1.85,0,0,1-2-1.39,2.42,2.42,0,0,1,0-.5c0-.11,0-.15-.09-.15s-.1.07-.11.22-.07.76-.07,1.44c0,.36,0,.42.21.51a4.08,4.08,0,0,0,1.81.37Zm7.92-6.51c0-2.11,0-2.49,0-2.93s.13-.7.5-.77a1.69,1.69,0,0,1,.34,0,.09.09,0,0,0,.1-.08c0-.08-.06-.11-.21-.11-.41,0-1.26,0-1.33,0s-.92,0-1.37,0c-.15,0-.22,0-.22.11s.06.08.11.08a1.75,1.75,0,0,1,.42,0c.3.07.44.3.46.76s0,.82,0,2.93v2.39c0,1.3,0,2.37-.07,2.94-.05.39-.12.69-.39.74a1.93,1.93,0,0,1-.41.06c-.08,0-.11,0-.11.08s.07.11.22.11c.41,0,1.26,0,1.33,0s.92,0,1.67,0c.15,0,.21,0,.21-.11s0-.08-.1-.08a5,5,0,0,1-.61-.06c-.41-.05-.49-.35-.53-.74-.07-.57-.07-1.64-.07-2.94V19.45Zm7.71-3.35,1.71,0c1.3,0,1.61.34,1.67.74V17c0,.19,0,.23.11.23s.09-.05.09-.17.05-1.09.05-1.49c0-.08,0-.17-.07-.17a6.45,6.45,0,0,1-1.34.14H158c-.16,0-.68,0-1.07-.07a2.84,2.84,0,0,1-.6-.16c-.05,0-.1.18-.13.26s-.3,1.27-.3,1.41,0,.12.07.12.09,0,.13-.14a3.47,3.47,0,0,1,.23-.42c.22-.32.55-.42,1.39-.43l2,0v5.74c0,1.3,0,2.37-.06,2.94-.06.39-.13.69-.4.74a1.84,1.84,0,0,1-.4.06c-.09,0-.11,0-.11.08s.07.11.21.11c.41,0,1.27,0,1.33,0s.92,0,1.67,0c.15,0,.22,0,.22-.11s0-.08-.11-.08a5.41,5.41,0,0,1-.61-.06c-.41-.05-.49-.35-.53-.74-.07-.57-.07-1.64-.07-2.94V16.1Zm9.51-1.63c.06,0,.12,0,.12-.06s-.12-.1-.26-.19a12.74,12.74,0,0,1-1.33-1c-.12-.12-.13-.22-.2-.22a.75.75,0,0,0-.22.07c-.16.07-.53.17-.81.26-.1,0-.15,0-.15.1s.11.13.39.24,2.21.79,2.46.79Zm-4.15,9.81c-.25.67-.52,1.19-1.14,1.27l-.39,0c-.07,0-.13,0-.13.08s.08.11.26.11c.64,0,1.38,0,1.53,0s.73,0,1.06,0c.12,0,.2,0,.2-.11s0-.08-.13-.08h-.14c-.23,0-.51-.12-.51-.4a2.64,2.64,0,0,1,.19-.9l.81-2.4c0-.07.07-.11.14-.11h2.91a.11.11,0,0,1,.12.08l1.26,3.33c.08.22,0,.34-.08.37a.1.1,0,0,0-.09.1c0,.08.15.08.4.09.94,0,1.93,0,2.13,0s.27,0,.27-.11,0-.08-.13-.08a2,2,0,0,1-.54-.08c-.29-.09-.68-.3-1.17-1.51-.83-2.06-3-7.66-3.16-8.17s-.22-.49-.3-.49-.13.08-.3.53l-3.07,8.42Zm1.89-3s-.06,0,0-.09l1.2-3.66c.06-.21.13-.21.2,0l1.29,3.66s0,.09-.06.09Z" transform="translate(-0.02)"/><path class="cls-2" d="M27.47,4.13a8.34,8.34,0,0,1,3.08-1.2,11.58,11.58,0,0,1,5.21.16,16.45,16.45,0,0,1,3.49,1.46,1.07,1.07,0,0,1,.47.78L38.47,7.94a4.84,4.84,0,0,0-.57,1.14c.05.16.21,1,.21,1a8.58,8.58,0,0,1,.36,1.3,29.78,29.78,0,0,1-1.2,4.43,2.73,2.73,0,0,0-.05,2.29,7.79,7.79,0,0,0,2.55,1.31c.89.31,4.9,2.24,5.43,2.86s4.22,6.36,4.48,8.92.42,1.51.42,1.51l.26,1.46s.62,1,.88,1.46a18.69,18.69,0,0,1,.26,3.59l1.41,3.6L54.11,45a7.2,7.2,0,0,1,.68,1.82,10.53,10.53,0,0,1-.89,1.72,12.07,12.07,0,0,1,.21,1.88A4.93,4.93,0,0,1,53,52.56a6.73,6.73,0,0,0-1,1.09s.11,1.46.11,1.77a5.76,5.76,0,0,1-1.2,3.24c-.2.19-.21,1.3-.21,1.3a23.32,23.32,0,0,1-5.37,4,25.49,25.49,0,0,1-8.91,2.76c-3.18.21-8,.06-11.1-1.25S19.5,62.88,17.47,61s-.94-.94-.94-.94l-.37-5.16-.36-4.74a5.17,5.17,0,0,1-1.88-1.88A3.84,3.84,0,0,1,14.23,45a12.48,12.48,0,0,0,.52-3.28,32.12,32.12,0,0,1,.06-5c.31-2.13.67-5.26,1.66-7.4S18.66,24.83,19.6,24a20.15,20.15,0,0,1,2.3-1.67s-.73-.78-.73-1.3a4.7,4.7,0,0,1,.41-1.87,8,8,0,0,0,.58-1.2s1.25.57,1.56.73a3.55,3.55,0,0,1,1,.73c.37.36.58.62.68.62s1.62-1.25,1.62-1.25l1.51-.89V15.18L28.1,12l.36-2.5L28.2,7l-.73-2.87Z" transform="translate(-0.02)"/><path class="cls-3" d="M28.52,16.35A25.11,25.11,0,0,0,23,18.18" transform="translate(-0.02)"/><path d="M5.67,52.86s-.07,0-.08,0-.3-.79-.34-1a.44.44,0,0,1,.17-.44.93.93,0,0,1,.23-.13c.06,0,.11-.06.09-.1s-.1,0-.17,0-.43.15-.6.19-.47.12-.52.14-.06,0,0,.06,0,0,.11.06.19.1.25.22.07.18.11.29l.32.81s0,.06-.05.08l-2,.75c-.09,0-.12,0-.13,0l-.35-1a.44.44,0,0,1,.08-.51A1.08,1.08,0,0,1,3,52.14c.09,0,.12-.07.1-.11S3.05,52,3,52s-.58.19-.66.21-.33.06-.39.09-.06,0-.05.07.06,0,.09.08a2.59,2.59,0,0,1,.13.25c.06.15.55,1.45.65,1.69s.19.6.32.94c0,.09.07.14.14.11s0-.06,0-.13a1.13,1.13,0,0,1-.07-.26c0-.23.08-.33.35-.45S4,54.42,5.22,54l1.41-.53c.77-.29,1.37-.52,1.72-.62s.43-.09.51,0a1.08,1.08,0,0,1,.12.22c0,.07.06.09.1.07s.06-.07,0-.16c-.09-.25-.27-.64-.33-.81s-.19-.58-.35-1c0-.1-.07-.13-.13-.11s-.05,0,0,.13.07.24.09.33-.12.31-.35.42-.93.39-1.7.68l-.65.24Z" transform="translate(-0.02)"/><path d="M3.61,49.16c-1.27.3-1.5.35-1.77.4s-.45,0-.54-.14a1.44,1.44,0,0,1-.08-.25c0-.08-.05-.12-.11-.11s-.06.07,0,.16c.06.26.2.74.24.9s.11.61.18.93c0,.1.05.14.11.12s.07-.05,0-.13a1,1,0,0,1,0-.22c0-.24.13-.32.41-.4s.5-.13,1.77-.42l1.47-.34c.77-.18,1.43-.33,1.79-.38s.44,0,.5.09a.73.73,0,0,1,.09.23c0,.08,0,.1.09.09s.08-.07.06-.15c-.07-.27-.19-.69-.22-.84-.13-.54-.18-1-.4-2-.08-.34-.13-.37-.33-.36a8.16,8.16,0,0,0-1,.12c-.1,0-.14,0-.13.08s.07.06.14.05a1.19,1.19,0,0,1,.54.06c.27.11.34.37.42.72.12.53.1.71,0,.86s-.69.3-1.76.55l-1.47.34Z" transform="translate(-0.02)"/><path d="M6.74,43.19c-.09-1.74-1.7-2.75-3.66-2.64S-.07,41.79,0,43.5c.11,2,2.05,2.72,3.51,2.64s3.31-1,3.2-3Zm-.44-.26c.07,1.31-1.3,2.18-3.08,2.28-2.13.12-2.73-.75-2.77-1.54-.06-1.12,1.08-2.07,3-2.18,2.47-.13,2.82,1,2.85,1.44Z" transform="translate(-0.02)"/><path d="M4.22,38.88c.78.12,1.45.22,1.8.31s.42.13.43.27a.69.69,0,0,1,0,.25c0,.08,0,.11,0,.12s.09,0,.11-.12c0-.27.08-.71.1-.83s.12-.6.18-1c0-.09,0-.14-.06-.15s-.08,0-.08.08l-.09.32c-.06.2-.26.21-.51.19s-1-.12-1.81-.24l-.12,0s-.07,0-.06-.07l.11-.58a.13.13,0,0,1,.07-.12c.14-.07.77-.29,1.28-.49A3.8,3.8,0,0,0,7,36.07a1.21,1.21,0,0,0,.27-.7l.1-.65c0-.08,0-.13-.06-.14s-.08,0-.08.07a.82.82,0,0,1-.06.19c0,.1-.14.37-.69.67S5.07,36.18,4,36.63a2.61,2.61,0,0,0-1.76-1.19A1.62,1.62,0,0,0,1,35.73a1.85,1.85,0,0,0-.56,1.19c0,.21-.09.72-.12,1s-.12.56-.17.92c0,.1,0,.15,0,.16s.08,0,.1-.1A1.12,1.12,0,0,1,.4,38.6c.1-.22.24-.25.53-.22s.51.07,1.8.27l1.49.23ZM1,37.55c-.07,0-.1,0-.11-.08a.94.94,0,0,1,0-.36c.06-.4.51-1,1.71-.8a1.69,1.69,0,0,1,1.21.6.59.59,0,0,1,.07.5,1.35,1.35,0,0,1-.17.5c0,.05-.06.05-.16,0L1,37.55Z" transform="translate(-0.02)"/><path d="M5.36,32.83c.74.25,1.39.47,1.72.61s.39.2.38.34a.65.65,0,0,1,0,.25c0,.08,0,.11,0,.12s.1,0,.13-.1c.09-.26.2-.68.25-.83.13-.38.32-.8.65-1.78.09-.25.11-.3-.09-.42a7.65,7.65,0,0,0-.87-.39c-.08,0-.15-.05-.17,0s0,.07.1.12c.32.15.46.29.5.49a1.49,1.49,0,0,1-.1.64c-.23.67-.38.73-1,.55L5.63,32,5,31.79s-.08,0-.07-.06.28-.8.34-.92a.37.37,0,0,1,.44-.25,2.21,2.21,0,0,1,.3.07s.07,0,.09,0S6,30.51,6,30.48a5.57,5.57,0,0,1-.54-.21A4.57,4.57,0,0,1,4.84,30s-.07,0-.08,0,0,.07.07.14.06.19,0,.35-.28.9-.33,1.05,0,0-.11,0l-2.05-.69c-.06,0-.08,0-.07-.07s.29-.81.34-.92c.16-.31.28-.34.44-.33a1.13,1.13,0,0,1,.31.06c.07,0,.12,0,.13,0s0-.08-.07-.1-.44-.18-.52-.21c-.37-.15-.45-.21-.51-.23s-.08,0-.09,0a.48.48,0,0,0,0,.12,1.73,1.73,0,0,1,0,.29c0,.13-.46,1.42-.53,1.63s-.23.58-.34.93c0,.1,0,.15,0,.17s.09,0,.11-.09a1.53,1.53,0,0,1,.11-.25c.13-.19.28-.2.56-.12s.49.15,1.73.57l1.43.48Z" transform="translate(-0.02)"/><path d="M4.88,27.4v0c.2,0,1.51-.19,2.68-.41s2.52-.45,3.17-.59c.12,0,.24-.05.28-.12s0-.11-.19-.2L6.1,23.43c-.42-.23-.55-.36-.52-.57a.54.54,0,0,1,.07-.19c0-.07,0-.12,0-.15s-.1,0-.14.11c-.16.29-.26.53-.3.6s-.24.41-.41.72c0,.09-.08.16,0,.19s.08,0,.12-.06a.86.86,0,0,1,.22-.29c.15-.11.33-.08.79.16l3.42,1.76v0c-.18,0-1.71.27-2.44.4-1.57.3-3.29.55-3.43.57s-.32,0-.35.1.06.14.21.22l4.44,2.45c.66.36.86.51.84.7a1.25,1.25,0,0,1-.11.29c0,.06,0,.1,0,.13s.1,0,.14-.1c.17-.31.3-.61.33-.66s.22-.34.43-.74c0-.08.06-.14,0-.18s-.08,0-.12.07a.86.86,0,0,1-.22.29c-.12.09-.36.06-.95-.24L4.88,27.4Z" transform="translate(-0.02)"/><path d="M10.94,22.21c.61.5,1.13.94,1.38,1.19s.3.33.24.46a1,1,0,0,1-.14.21c-.05.06-.05.1,0,.13s.09,0,.15-.05.43-.56.53-.68l.71-.81c0-.06.07-.12,0-.16s-.07,0-.12,0a3,3,0,0,1-.25.25c-.16.13-.33.05-.53-.09s-.82-.65-1.43-1.15L8.79,19.3l.58-.65c.4-.46.7-.45.88-.31l.08.05c.1.08.14.09.18.05s0-.07-.07-.13l-.75-.66c-.1-.08-.14-.11-.17-.07a3,3,0,0,1-.36.56L7.42,20.23a5.64,5.64,0,0,1-.47.5c-.12.12-.23.11-.27.16s0,.08.08.16.55.66.66.75.11.07.15,0,0-.07,0-.13a1,1,0,0,1-.15-.28c-.08-.2,0-.35.23-.67L8.24,20l2.7,2.26Z" transform="translate(-0.02)"/><path d="M13.64,19.28c.56.62,1,1.12,1.23,1.41s.21.34.13.45a.54.54,0,0,1-.16.19c-.06.06-.06.1,0,.13s.09,0,.16,0,.51-.49.62-.6.48-.39.82-.69c.05-.05.08-.11,0-.15s-.08,0-.13,0a1.94,1.94,0,0,1-.29.21c-.17.11-.31,0-.48-.13s-.72-.76-1.28-1.38l-1-1.12c-.87-1-1-1.15-1.2-1.36s-.25-.38-.14-.53a.76.76,0,0,1,.14-.16s.07-.09,0-.14-.08,0-.15,0-.48.46-.61.58-.48.4-.68.57-.11.13-.07.16.08,0,.14,0l.2-.14c.14-.06.29,0,.5.21s.35.37,1.22,1.34l1,1.12Z" transform="translate(-0.02)"/><path d="M15,15.07h0c.2.07,1.42.56,2.55.93s2.43.81,3.07,1a.41.41,0,0,0,.3,0c.05,0,0-.11-.07-.27l-2.88-4.58c-.26-.41-.31-.59-.19-.75a.46.46,0,0,1,.16-.13c.07-.05.09-.09.06-.14s-.1,0-.17,0l-.55.39-.71.43c-.09.06-.15.11-.11.16s.06.05.13,0a1.07,1.07,0,0,1,.34-.16c.18,0,.32.09.61.53l2.16,3.19,0,0c-.18-.06-1.62-.59-2.33-.82-1.52-.5-3.16-1.11-3.29-1.15s-.29-.13-.35-.09,0,.15.08.29l2.71,4.3c.4.62.51.85.4,1a1.12,1.12,0,0,1-.23.21c-.06,0-.09.07-.06.11s.1,0,.18,0c.29-.19.55-.39.6-.42s.36-.2.73-.44c.08-.05.12-.1.09-.16s-.08,0-.14,0a.89.89,0,0,1-.33.14c-.15,0-.34-.11-.72-.67l-2-3Z" transform="translate(-0.02)"/><path d="M24.2,13.13s.05,0,.08,0l1.14,1.52a.15.15,0,0,1,0,.21c-.06,0-.08,0-.06.1s.1,0,.22,0c.52-.17,1-.34,1.22-.43s.29-.12.27-.19-.06,0-.11,0a1.15,1.15,0,0,1-.28.07c-.15,0-.38,0-.89-.67-.86-1.07-3.1-4-3.42-4.36-.13-.16-.2-.22-.26-.2s-.07.13-.06.39l.25,5.65c0,.45,0,.77-.28.92l-.2.09s-.07.05,0,.09.07.07.15,0c.34-.12.68-.28.75-.3s.49-.16.69-.23.11-.06.08-.12,0-.06-.12,0l-.09,0a.24.24,0,0,1-.35-.16A1.83,1.83,0,0,1,22.8,15l-.07-1.27c0-.06,0-.08,0-.09l1.44-.53Zm-1.46.08s0,0,0-.05L22.56,11s0-.08,0-.09,0,0,.06.06l1.31,1.77s0,0,0,.06l-1.19.44Z" transform="translate(-0.02)"/><text class="cls-4" transform="matrix(0.78, -0.17, 0.21, 0.98, 27.48, 14.61)"> </text><text class="cls-5" transform="matrix(0.79, -0.13, 0.16, 0.99, 28.81, 14.33)"> </text><text class="cls-4" transform="matrix(0.8, -0.09, 0.11, 0.99, 30.15, 14.12)"> </text><text class="cls-6" transform="matrix(0.8, -0.05, 0.06, 1, 31.5, 13.97)"> </text><text class="cls-7" transform="matrix(0.8, -0.01, 0.01, 1, 32.85, 13.9)"> </text><text class="cls-4" transform="matrix(0.8, 0.04, -0.05, 1, 34.22, 13.9)"> </text><text class="cls-8" transform="matrix(0.8, 0.08, -0.1, 1, 35.57, 13.97)"> </text><text class="cls-9" transform="matrix(0.79, 0.12, -0.15, 0.99, 36.92, 14.1)"> </text><text class="cls-10" transform="matrix(0.78, 0.16, -0.2, 0.98, 38.26, 14.3)"> </text><path d="M40.68,14.82a1.75,1.75,0,0,0,1.15,0,1.88,1.88,0,0,0,1-1.25,2.82,2.82,0,0,0-.45-2.42l-.13-.22c-.39-.68-.46-1-.35-1.39a.81.81,0,0,1,1-.62.82.82,0,0,1,.59.62,1,1,0,0,1,0,.59c0,.1,0,.16,0,.17s.1,0,.15-.23c.19-.64.29-.87.32-1A.1.1,0,0,0,44,9a2.89,2.89,0,0,0-.83-.4,1.54,1.54,0,0,0-2,1.1,2.72,2.72,0,0,0,.4,2.24l.21.38a1.75,1.75,0,0,1,.25,1.51.92.92,0,0,1-1.16.67,1,1,0,0,1-.69-1.11,1.68,1.68,0,0,1,.07-.43c0-.07,0-.14,0-.16s-.1.07-.14.19-.22.61-.35,1.06c-.06.19,0,.23,0,.32a1.89,1.89,0,0,0,.89.5Z" transform="translate(-0.02)"/><path d="M45.5,13.88c-.33.71-.62,1.33-.81,1.64s-.24.37-.38.34a.83.83,0,0,1-.24-.08c-.07,0-.11,0-.12,0s0,.1.08.14l.8.34c.17.08.55.29,1,.48.07,0,.13,0,.15,0s0-.08-.07-.11a1.83,1.83,0,0,1-.3-.18c-.17-.12-.13-.3,0-.53s.41-1,.75-1.67l1.5-3.18.77.39c.54.27.61.57.53.78l0,.08c0,.12,0,.17,0,.19s.07,0,.11-.1.37-.72.44-.89.07-.16,0-.18a2.92,2.92,0,0,1-.63-.21L46.53,10a6.75,6.75,0,0,1-.6-.34c-.15-.08-.17-.19-.22-.21s-.08,0-.15.11-.49.7-.55.83,0,.13,0,.15.07,0,.11-.06a1,1,0,0,1,.23-.22c.18-.13.35-.1.71.06l.94.4-1.5,3.18Z" transform="translate(-0.02)"/><path d="M49.49,15.6a3.25,3.25,0,0,0-.88,2.18,1.87,1.87,0,0,0,.85,1.39,1.78,1.78,0,0,0,1.51.37,3.73,3.73,0,0,0,2.08-1.66l.56-.73c.78-1,.93-1.23,1.1-1.44s.33-.32.5-.24l.18.1c.06,0,.1.06.14,0s0-.09-.07-.14-.57-.41-.64-.46-.33-.28-.61-.49c-.08-.06-.13-.08-.16,0s0,.09,0,.13a1.72,1.72,0,0,1,.19.17c.14.19.1.33-.06.57s-.3.42-1.09,1.46l-.65.85c-.53.71-1,1.31-1.6,1.46a1.2,1.2,0,0,1-1-.21,1.06,1.06,0,0,1-.47-.79c-.06-.48.09-1,.84-2l.73-.95c.79-1,.93-1.24,1.11-1.45s.32-.31.49-.23a.52.52,0,0,1,.18.1c.05,0,.1,0,.13,0s0-.09-.07-.15l-.69-.49c-.16-.12-.49-.4-.78-.62-.08-.07-.13-.08-.17,0s0,.08.05.13a1.9,1.9,0,0,1,.2.18c.14.18.1.33-.06.57s-.3.42-1.09,1.45l-.76,1Z" transform="translate(-0.02)"/><path d="M54.27,19.83c-.6.51-1.11,1-1.41,1.16s-.37.24-.48.16a.93.93,0,0,1-.19-.17c0-.06-.09-.06-.12,0s0,.1,0,.16.48.52.58.64.55.8.87,1.18A2.81,2.81,0,0,0,55.8,24a3.89,3.89,0,0,0,2.31-1,3.54,3.54,0,0,0,1.22-1.92,3.14,3.14,0,0,0-1-2.72c-.27-.32-.57-.63-.71-.79L57,16.82c-.07-.07-.11-.1-.16-.06s0,.08,0,.14a1.08,1.08,0,0,1,.15.22c.1.21,0,.34-.18.54s-.38.34-1.37,1.19l-1.15,1Zm1.81-.42c.52-.44,1.08-.92,1.31-1.1.07-.07.12-.08.18,0a1.25,1.25,0,0,1,.34.3,2.35,2.35,0,0,1,.61,2,3.27,3.27,0,0,1-1.2,1.9,3.19,3.19,0,0,1-2,1,2,2,0,0,1-1.49-.8c-.35-.41-.39-.73-.32-.91a2.24,2.24,0,0,1,.44-.48l1.31-1.13.82-.71Z" transform="translate(-0.02)"/><path d="M58.07,24.74c-.71.43-1.29.79-1.61,1s-.37.15-.47,0a.83.83,0,0,1-.16-.19c0-.07-.08-.08-.11-.06s0,.09,0,.17.39.58.47.72.3.54.54.92c0,.07.09.1.14.07s0-.07,0-.13a2.3,2.3,0,0,1-.15-.32c-.08-.19,0-.31.21-.45s.88-.57,1.59-1l1.28-.79c1.11-.69,1.31-.81,1.55-.94s.42-.18.55-.05a.86.86,0,0,1,.13.17s.08.08.13,0,0-.08,0-.15c-.14-.23-.37-.56-.46-.7s-.31-.55-.45-.78-.1-.13-.15-.1-.05.08,0,.14a.94.94,0,0,1,.1.23c0,.15,0,.28-.29.45s-.43.28-1.54,1l-1.28.8Z" transform="translate(-0.02)"/><path d="M58.17,30.25c.68,1.6,2.53,2,4.34,1.26s2.55-2.22,1.89-3.8c-.8-1.9-2.84-1.88-4.2-1.31s-2.79,2-2,3.85Zm.51.1c-.51-1.22.49-2.49,2.13-3.18,2-.83,2.83-.21,3.13.52.44,1-.32,2.31-2.09,3-2.29,1-3,.05-3.17-.39Z" transform="translate(-0.02)"/><path d="M62,33.33c-.77.15-1.44.28-1.8.32s-.44,0-.5-.11a1,1,0,0,1-.08-.24c0-.08,0-.1-.09-.09s-.07.06,0,.15c0,.27.16.69.18.82s.09.6.17,1c0,.09,0,.13.11.12a.07.07,0,0,0,0-.09,1.87,1.87,0,0,1,0-.34c0-.21.17-.29.41-.35s1-.23,1.8-.38l.11,0c.05,0,.07,0,.08,0l.1.59a.13.13,0,0,1,0,.14c-.11.11-.62.53-1,.89a3.8,3.8,0,0,0-1.06,1.16,1.21,1.21,0,0,0,0,.75l.12.64c0,.08,0,.12.11.11a.07.07,0,0,0,0-.09,1.21,1.21,0,0,1,0-.2,1.34,1.34,0,0,1,.43-.86c.44-.5,1.1-1.11,1.93-1.89A2.54,2.54,0,0,0,65,35.9,1.58,1.58,0,0,0,66,35.22a1.85,1.85,0,0,0,.13-1.3c0-.21-.17-.72-.21-1s-.09-.57-.16-.93c0-.1,0-.14-.1-.13s-.07.05,0,.13a1.37,1.37,0,0,1,0,.27c0,.23-.14.31-.42.38l-1.78.36L62,33.33Zm3.53.15c.07,0,.11,0,.13,0a1.25,1.25,0,0,1,.1.35c.08.4-.14,1.1-1.34,1.33A1.76,1.76,0,0,1,63.06,35c-.13-.1-.18-.18-.23-.45a1.59,1.59,0,0,1,0-.53c0-.05,0-.07.14-.09l2.56-.49Z" transform="translate(-0.02)"/><path d="M63.35,39.55a3.19,3.19,0,0,0-2.27.6,1.9,1.9,0,0,0-.6,1.52,1.77,1.77,0,0,0,.6,1.43,3.84,3.84,0,0,0,2.58.67h.92c1.3,0,1.54,0,1.82,0s.44.07.48.25a.81.81,0,0,1,0,.2c0,.08,0,.13.07.13s.08-.05.08-.15c0-.26,0-.7,0-.78s0-.44,0-.79c0-.09,0-.14-.07-.14s-.08,0-.08.11a.9.9,0,0,1,0,.25c-.06.23-.2.28-.49.29H63.51a3.56,3.56,0,0,1-2.12-.41,1.23,1.23,0,0,1-.46-.95,1.11,1.11,0,0,1,.36-.86c.34-.33.87-.53,2.11-.52h1.2l1.82,0c.3,0,.44.07.48.26a.69.69,0,0,1,0,.2c0,.07,0,.11.07.11s.08-.05.08-.15c0-.25,0-.68,0-.85s0-.63,0-1c0-.1,0-.15-.07-.15s-.08,0-.08.12a1.06,1.06,0,0,1,0,.27c-.06.22-.2.28-.49.29H63.35Z" transform="translate(-0.02)"/><path d="M61.21,45.42c-.28-.1-.59-.23-.59-.43a1,1,0,0,1,0-.21c0-.06,0-.11,0-.12s-.11,0-.12.1-.11.54-.14.67-.13.41-.19.69c0,.1,0,.16.05.18s.07,0,.08-.08A1.27,1.27,0,0,1,60.4,46a.26.26,0,0,1,.32-.14,3.3,3.3,0,0,1,.38.12l3.23,1.15v0l-2,.24c-.25,0-1.66.24-2.08.31s-.46.07-.47.13.05.11.4.36l3.43,2.37v0l-3.76-.5c-.24,0-.34-.07-.35-.12s0-.08-.07-.09-.09,0-.14.17-.34,1.17-.38,1.34,0,.18,0,.2.07,0,.08-.1a1,1,0,0,1,.19-.39c.12-.18.38-.19.92-.12l5.29.65c.18,0,.27,0,.29-.06s0-.11-.16-.19l-4.32-3,5.14-.67c.24,0,.29-.06.31-.11s-.06-.12-.19-.17l-5.27-2Z" transform="translate(-0.02)"/><text class="cls-11" transform="matrix(-0.31, 0.74, -0.92, -0.39, 58.51, 51.88)"> </text><text class="cls-6" transform="matrix(-0.34, 0.72, -0.9, -0.43, 57.98, 53.13)"> </text><text class="cls-12" transform="matrix(-0.39, 0.7, -0.88, -0.48, 57.4, 54.35)"> </text><text class="cls-9" transform="matrix(-0.43, 0.68, -0.84, -0.54, 56.76, 55.55)"> </text><path d="M57.5,59.71a3.29,3.29,0,0,0-2.13-1,1.94,1.94,0,0,0-1.44.77A1.78,1.78,0,0,0,53.48,61,3.77,3.77,0,0,0,55,63.13l.7.6c1,.84,1.17,1,1.37,1.19s.3.34.21.51a1,1,0,0,1-.11.17c0,.06-.07.1,0,.14s.09,0,.15-.06.44-.55.49-.61l.53-.58c.06-.08.08-.12,0-.16s-.09,0-.14,0a1.41,1.41,0,0,1-.18.17c-.19.13-.33.08-.56-.1s-.4-.32-1.39-1.17l-.82-.69a3.51,3.51,0,0,1-1.35-1.69,1.17,1.17,0,0,1,.26-1,1.12,1.12,0,0,1,.82-.42c.48,0,1,.16,2,1l.92.78,1.37,1.19c.22.21.29.35.21.52a.64.64,0,0,1-.11.16c-.05.06-.06.1,0,.14s.09,0,.16-.07l.53-.66c.13-.15.43-.46.67-.74.07-.08.08-.13,0-.17s-.09,0-.14,0a.84.84,0,0,1-.19.19c-.19.13-.33.09-.56-.09s-.4-.33-1.39-1.17l-1-.82Z" transform="translate(-0.02)"/><path d="M54,66.33v0c-.2-.06-1.45-.45-2.61-.74s-2.48-.64-3.13-.79a.44.44,0,0,0-.3,0c-.05,0,0,.12.09.27l3.2,4.36c.29.38.35.56.24.73a.49.49,0,0,1-.15.14c-.06,0-.08.1,0,.14s.1,0,.17,0c.27-.21.46-.38.52-.43s.4-.27.68-.48c.08-.06.14-.11.1-.17s-.07,0-.14,0a1,1,0,0,1-.32.17c-.18,0-.33-.06-.65-.47L49.3,66l0,0c.17,0,1.66.47,2.38.65,1.55.38,3.22.87,3.36.91s.3.1.36.06,0-.15-.1-.29l-3-4.08c-.45-.6-.57-.82-.47-1a1.15,1.15,0,0,1,.22-.22s.07-.08,0-.12-.1,0-.17,0c-.28.22-.52.43-.57.47s-.34.22-.7.49c-.07.06-.11.11-.07.17s.07,0,.13,0a1.09,1.09,0,0,1,.32-.17c.15,0,.36.09.77.62L54,66.33Z" transform="translate(-0.02)"/><path d="M47.68,67.77c-.39-.73-.71-1.33-.85-1.66s-.13-.38,0-.48a1,1,0,0,1,.2-.14c.07,0,.08-.08.06-.11s-.08-.06-.16,0c-.24.13-.61.36-.75.43s-.56.27-.95.48c-.07,0-.11.09-.08.14s.06,0,.13,0a2.15,2.15,0,0,1,.32-.13c.2-.07.32,0,.44.24s.52.91.91,1.64l.71,1.33c.61,1.15.73,1.36.84,1.61s.15.43,0,.55a.59.59,0,0,1-.17.12c-.06,0-.09.07,0,.13s.08,0,.15,0l.73-.41.8-.4c.1,0,.14-.09.11-.14s-.07,0-.13,0a.75.75,0,0,1-.24.08c-.15,0-.28-.06-.43-.31s-.25-.45-.87-1.6l-.71-1.33Z" transform="translate(-0.02)"/><path d="M42.55,68c-.25-.34-.33-.44-.41-.41s-.09.17-.1.7,0,1.44,0,2.77c0,1.12,0,1.62,0,2.46a1.77,1.77,0,0,1-.11.86.49.49,0,0,1-.29.2c-.06,0-.09,0-.07.11s.07.06.16,0,.49-.2.6-.23l.69-.21c.12,0,.17-.08.15-.14s-.07-.05-.13,0a.81.81,0,0,1-.27,0,.19.19,0,0,1-.14-.13,1.32,1.32,0,0,1,0-.32c0-.59-.07-3.49-.1-4.48h0l2.37,3.31a3.46,3.46,0,0,1,.36.57.27.27,0,0,1,0,.2c0,.06-.13.1-.23.14s-.09,0-.07.1.09,0,.17,0c.32-.11.63-.24.79-.3L46.8,73c.1,0,.17-.07.14-.14s0-.06-.1,0a.74.74,0,0,1-.26,0c-.26,0-.41,0-.71-.45L42.55,68Z" transform="translate(-0.02)"/><path d="M38.72,71.05c-.11-.78-.2-1.45-.22-1.81s0-.44.14-.49a.57.57,0,0,1,.24-.07c.08,0,.1,0,.09-.08s0-.08-.14-.07l-.86.14c-.4.06-.86.07-1.89.21-.25,0-.31,0-.33.27a7.71,7.71,0,0,0,0,.95c0,.09,0,.16.07.15s.06,0,.06-.14c0-.35.06-.54.22-.67a1.59,1.59,0,0,1,.63-.19c.69-.09.82,0,.91.6,0,.25.14,1,.18,1.32l.09.67s0,.09,0,.09-.83.11-1,.11a.39.39,0,0,1-.42-.28,2.48,2.48,0,0,1-.07-.3s0-.08-.07-.07,0,.1,0,.17,0,.4,0,.57c0,.44,0,.58,0,.63s0,.07.06.06,0,0,.09-.12.15-.14.31-.18L38,72.36s.06,0,.06.09l.3,2.14c0,.06,0,.09,0,.1s-.85.09-1,.09c-.34,0-.43-.09-.49-.24a1.21,1.21,0,0,1-.09-.3c0-.08,0-.12-.07-.11s-.06.06-.06.1,0,.48,0,.57a3,3,0,0,1,0,.56s0,.07.06.07l.1-.05a1.25,1.25,0,0,1,.29-.09c.12,0,1.48-.21,1.69-.24l1-.11c.11,0,.15,0,.14-.1s0-.07-.12-.06a1.3,1.3,0,0,1-.27,0c-.23,0-.31-.16-.36-.44s-.08-.51-.26-1.8l-.2-1.5Z" transform="translate(-0.02)"/><path d="M34.49,71.52c0-.79.07-1.47.12-1.83s.08-.43.22-.46a.86.86,0,0,1,.25,0c.08,0,.11,0,.11-.06s0-.09-.14-.1h-.83l-1-.07c-.09,0-.14,0-.14.08s0,.07.08.07l.33,0c.21,0,.24.24.25.48s0,1,0,1.84v.12s0,.07-.06.06l-.6,0a.12.12,0,0,1-.12-.06c-.08-.14-.37-.73-.62-1.22a4.15,4.15,0,0,0-.88-1.3,1.2,1.2,0,0,0-.73-.2l-.65,0c-.08,0-.13,0-.14.07s0,.07.08.08l.19,0c.11,0,.38.1.75.62S31.71,71,32.28,72a2.6,2.6,0,0,0-1,1.88A1.62,1.62,0,0,0,31.7,75a1.88,1.88,0,0,0,1.24.43h1c.15,0,.58.06.94.07.1,0,.15,0,.15-.07s0-.08-.11-.08a1,1,0,0,1-.27,0c-.22-.07-.27-.21-.27-.5s0-.51.07-1.82l.07-1.5Zm-1,3.4c0,.06,0,.1-.06.11a1.25,1.25,0,0,1-.37,0c-.4,0-1-.4-1-1.62a1.66,1.66,0,0,1,.46-1.26.58.58,0,0,1,.49-.13,1.72,1.72,0,0,1,.52.11s.06.07,0,.16l-.12,2.61Z" transform="translate(-0.02)"/><path d="M28.45,68.53a1.7,1.7,0,0,0-1.14.1,1.88,1.88,0,0,0-1,1.31A2.82,2.82,0,0,0,27,72.32l.14.22c.44.66.52,1,.43,1.37a.8.8,0,0,1-1,.68.82.82,0,0,1-.63-.58,1.19,1.19,0,0,1-.05-.59c0-.1,0-.16,0-.17s-.09,0-.13.24c-.15.65-.24.88-.26,1s0,.09.07.12a2.62,2.62,0,0,0,.86.35,1.52,1.52,0,0,0,1.9-1.22,2.69,2.69,0,0,0-.53-2.21l-.24-.37a1.78,1.78,0,0,1-.35-1.49.94.94,0,0,1,1.12-.75A1,1,0,0,1,29,70a1.94,1.94,0,0,1,0,.44c0,.06,0,.14,0,.15s.09-.07.13-.19.18-.63.28-1.09c0-.19,0-.23-.06-.31a1.93,1.93,0,0,0-.93-.45Z" transform="translate(-0.02)"/><path d="M24.35,69.94c.29-.78.53-1.41.68-1.74s.2-.35.34-.33a.64.64,0,0,1,.24,0c.08,0,.11,0,.13,0s0-.09-.1-.12c-.26-.1-.67-.22-.82-.28s-.57-.24-1-.39c-.07,0-.13,0-.15,0s0,.08.08.1a3.18,3.18,0,0,1,.32.16c.18.1.17.26.11.49s-.34,1-.62,1.77L23,71.06c-.45,1.23-.53,1.45-.64,1.71s-.21.39-.4.37l-.21,0c-.06,0-.1,0-.13,0s0,.08.11.12l.8.26.83.33c.1,0,.16,0,.17,0s0-.1-.07-.12a.78.78,0,0,1-.22-.12c-.13-.09-.14-.25-.05-.53s.16-.49.61-1.71l.52-1.42Z" transform="translate(-0.02)"/><path d="M20.5,68.31c.36-.7.67-1.31.87-1.61s.25-.36.39-.33a1.23,1.23,0,0,1,.24.09c.07,0,.11,0,.13,0s0-.1-.09-.14c-.24-.13-.64-.31-.78-.38s-.54-.31-.94-.52c-.07,0-.13,0-.16,0s0,.08.07.11l.3.19c.16.13.11.31,0,.54s-.45.94-.81,1.64L18.12,71l-.75-.42c-.54-.29-.59-.59-.5-.79l0-.09c.06-.12.07-.16,0-.19s-.08,0-.12.1l-.48.87c-.06.11-.07.16,0,.18a2.9,2.9,0,0,1,.62.23l2.42,1.25a6.56,6.56,0,0,1,.59.35c.14.1.16.2.21.23s.08,0,.15-.11.52-.69.58-.81.05-.13,0-.15-.07,0-.12.06a1.09,1.09,0,0,1-.24.21c-.18.12-.34.08-.7-.08l-.93-.44,1.62-3.12Z" transform="translate(-0.02)"/><path d="M15.48,64.74a.06.06,0,0,1,0-.09l.7-1.76c0-.11.12-.14.17-.12s.09,0,.13,0,0-.1-.12-.18c-.42-.36-.81-.67-1-.82s-.25-.19-.3-.13,0,.07,0,.11a1.29,1.29,0,0,1,.21.2c.08.13.16.34-.11,1.11-.47,1.29-1.79,4.71-2,5.18-.07.2-.08.29,0,.33s.15,0,.37-.15l4.7-3.14c.37-.25.66-.4.94-.24l.17.12c.05,0,.08,0,.11,0s0-.09-.05-.15c-.28-.22-.59-.43-.65-.48s-.38-.34-.55-.47-.1-.06-.14,0,0,.07,0,.12l.08.06c.17.14.15.26,0,.38a2.21,2.21,0,0,1-.4.35l-1.06.73s-.06,0-.09,0l-1.19-1Zm.82,1.2s0,0,0,.07l-1.81,1.25s-.06,0-.08,0,0,0,0-.08l.83-2s0,0,.06,0l1,.78Z" transform="translate(-0.02)"/><path d="M14.14,60.5a1.73,1.73,0,0,0-1-.58,1.88,1.88,0,0,0-1.54.52,2.84,2.84,0,0,0-.88,2.3V63c0,.78-.14,1.1-.44,1.37a.8.8,0,0,1-1.2,0,.83.83,0,0,1-.19-.84A1.14,1.14,0,0,1,9.21,63c.07-.07.1-.12.06-.15s-.1,0-.24.11c-.5.45-.7.59-.78.67s0,.08,0,.14a2.56,2.56,0,0,0,.5.77,1.52,1.52,0,0,0,2.26.1,2.71,2.71,0,0,0,.84-2.11v-.44a1.74,1.74,0,0,1,.58-1.42.93.93,0,0,1,1.34,0,1,1,0,0,1,0,1.31,1.71,1.71,0,0,1-.29.34c-.05,0-.1.1-.06.15s.12,0,.22-.09.51-.41.86-.72c.14-.13.16-.17.13-.29a2,2,0,0,0-.5-.9Z" transform="translate(-0.02)"/><text class="cls-11" transform="matrix(-0.5, -0.63, 0.78, -0.62, 13, 59.24)"> </text><text class="cls-13" transform="matrix(-0.48, -0.64, 0.8, -0.6, 12.48, 58.58)"> </text><path class="cls-2" d="M32.74,11.07c0,.08-.09.14-.08.22h.79s0-.08,0-.14a2.19,2.19,0,0,0-.63-.1l-.07,0Z" transform="translate(-0.02)"/><path class="cls-14" d="M32.74,11.07c0,.08-.09.14-.08.22h.79s0-.08,0-.14a2.19,2.19,0,0,0-.63-.1l-.07,0Z" transform="translate(-0.02)"/><path class="cls-3" d="M21.55,18.92a25.53,25.53,0,0,0,12,47.86A25.49,25.49,0,0,0,37,16.07" transform="translate(-0.02)"/><path class="cls-15" d="M37.64,5m2.79-1.15" transform="translate(-0.02)"/><path d="M54.92,45.5a14.86,14.86,0,0,1-2.51-5,12.74,12.74,0,0,1-.72-3.55,4,4,0,0,0-.54-2.16,4.45,4.45,0,0,1-.86-2.52A6.8,6.8,0,0,0,50,30.66c-.89-3.23-2.69-6-4.46-8.77a1.17,1.17,0,0,0-.45-.41c-1.81-.86-3.62-1.7-5.43-2.54-.48-.23-1-.39-1.45-.63-.64-.31-1.1-.8-.92-1.54.32-1.28.67-2.59,1.08-3.86a3.16,3.16,0,0,0,.17-2.55,2.34,2.34,0,0,1,0-2.21c.38-.76.81-1.5,1.16-2.28.5-1.11.35-1.09-.54-1.69a9.65,9.65,0,0,0-1.88-1c-5.68-2.09-9.12.11-10.22.69l.26,1.26a26.54,26.54,0,0,1,.9,3.13c-.64,3.86-.43,3.86,0,7,.07.8.1,2.28.1,2.28l-3,2a2.38,2.38,0,0,0-1.22-1,4.21,4.21,0,0,1-.75-.34c-.5-.34-.7-.45-1.39-.9-.19,1.79-1.89,3.22-.63,4.85a13.1,13.1,0,0,0-3.09,3.17,19.62,19.62,0,0,0-1.73,3.46,24.92,24.92,0,0,0-2.1,11.63,8.5,8.5,0,0,1-.63,4.86,3.14,3.14,0,0,0,.84,4.19,2.6,2.6,0,0,1,.84,1.46c.34,2.75.5,5.51.87,8.25.09.71-.07.59.77,1.58,0,0,.46.27-.11-.27s-.19-1.34-.23-1.84c-.18-1.93-.34-3.87-.52-5.8,0-.56-.13-1.12-.21-1.74.19.07.28.08.29.12.15.59.31,1.18.46,1.78a39.67,39.67,0,0,0,3.33,9.65,3,3,0,0,0,1.46,1.06,17.86,17.86,0,0,0,3.19.16,1.59,1.59,0,0,0,1.58-1.28,24.44,24.44,0,0,1,.41-2.85c.13,0,.49,2.09.63,2.13-.2,1.61-.37,2.44-.57,4l.27.09c.28-.65.33-1.7.61-2.35a1.05,1.05,0,0,1,.29.85v1.69c.21-.14.21-1.19.31-1.26a5.51,5.51,0,0,0,.86,1.53c-1.27-3-1.59-5.44-2.44-8.46a5.61,5.61,0,0,0,3.83-2.06c.62-.78,1.13-1.64,1.7-2.47.44-.63.88-1.27,1.33-1.9.42.76.79,1.4,1.22,2.18-1.2,4.36-2.24,8.62-3.7,13,0,0,.26,0,.29,0,.23-.35,1-2.64,1.26-3.11a5.74,5.74,0,0,1-.74,3.14h.94c.11-1.87.19-3.39.29-5.22.1,0,.42-1.31.52-1.31,0,1.84-.26,4.74-.26,6.57.08,0,.62,0,.65-.13.06-.44,0-.88.06-1.32.14-2.33-.19-4.86,0-7.19.13,0,.56-1.95.69-1.95,0,2.86.19,7.74.19,10.59.12,0,.27-.06.39,0a4.6,4.6,0,0,0,.13-.5c.07-.4.09-.81.17-1.21a19.54,19.54,0,0,0,0-3.06c0-1.73-.37-3.69-.42-5.43l.05-1.93c.1,0,1.2-1.06,1.15.9.14,3.74.3,7.32.44,11,.12,0,.3,0,.42,0a3.78,3.78,0,0,0,.06-.82c-.05-3.59-.13-7.18-.2-10.77,0-.8.19-1,1-.84s1.32.2,2.12.32c0,3.81,0,7.55,0,11.47h.36V56.41l.25,0A35.39,35.39,0,0,1,42.24,65l.46-.16a37.36,37.36,0,0,1,.64-3.81s0,1.28,0,1.28c.08.72.17,1.44.25,2.16l.32,0a2.06,2.06,0,0,0,.2-.7c-.13-1.22-.33-2.44-.46-3.66-.05-.51-.08-1.84-.08-2.35a7,7,0,0,1,1.09,2.44c.23,1.22.26,2.24.41,3.68.14-.4.33-.44.35-.73.1-1.08.16-2.17.24-3.25q.39-5.67.79-11.33a4.18,4.18,0,0,0,0-.71A1.68,1.68,0,0,0,45.1,46.3c-1.11-.16-2.23-.2-3.3-.28,0,.06,0-.08.11-.18a3.44,3.44,0,0,1,5.53.54,7.24,7.24,0,0,1,.78,1.67c.56,2.13,1.15,4.26,1.56,6.42s.49,3.91.68,5.45c.15-.13.32-.25.37-.38a21.06,21.06,0,0,0,1.05-2.2A7.14,7.14,0,0,0,52.35,55a2.42,2.42,0,0,1,.49-1.78c.28-.37.54-.77.79-1.17a3.12,3.12,0,0,0,.6-2.58,1.16,1.16,0,0,1,.24-1.18c.61-.83,1.18-1.84.45-2.75Zm-7.82-.64.7.21c.25.08.5.17.76.23.72.17,1-.16.89-.85a1.76,1.76,0,0,0-1.76-1.54c-.55,0-2.81-.12-3.38-.12,1.12-1,3.5-1.89,8.33,1.66-.29,0-.91-.14-1.24-.14.6.89.44,1.11,1,1.94a12.8,12.8,0,0,1,.86,1.64c.94,2.13.64,3.61-1,5.35a3.73,3.73,0,0,1-.12-3.84,3.89,3.89,0,0,0,.36-1.26,1.58,1.58,0,0,0-1.28-1.86,8.09,8.09,0,0,0-.2,4.14c.26,1.69.6,3.36.81,5a3.55,3.55,0,0,1-1,3C50.1,53.72,50,49,47.1,44.86Zm4.17,3.07h.29c.53.64,0,1.24-.29,1.85V47.93Zm-6.78-6.45.27.26h0a1.77,1.77,0,0,0,.55-.34c1-1.27,2.22-.75,3.4-.71l.06.28-4,.77,0,0h0c-.38.29-.75.59-1.23,1,.34-1.76,3.06-4,4.35-3.62-.67.4-1.27.72-1.83,1.11s-1,.84-1.56,1.26Zm-2.12,3.24c1.06-2.44,7.74-1.61,6.13.09a6.94,6.94,0,0,0-2.4-.73,14.52,14.52,0,0,0-3.73.64ZM41,46.27c-.24.52-.52.56-1,.45a5.15,5.15,0,0,0-4.13.69,8.42,8.42,0,0,0-.73.63c.67,1,1.74.12,2.58.74a13.07,13.07,0,0,1-.78,1.77.93.93,0,0,1-.85.3c-1.89-.84-3.75-1.74-5.69-2.66l7-13.11,7.31,3.54c-.55,1.19-1,2.3-1.58,3.4-.7,1.42-1.46,2.81-2.14,4.25ZM41.62,32c0-1.62,0-1.88,0-3.5.1,0,.41-1.08.51-1.08.3,1.36.33,3.49-.37,7.89-.1,0-.09-3.31-.18-3.31ZM36.91,24.9V22.06c1,.72,1.17,6.38.38,8.5-.14-1-.23-1.77-.36-2.55a14,14,0,0,0-.55-2.28,6.43,6.43,0,0,0-1.06,3.49,15.13,15.13,0,0,0,.52,6.62c0,.28-1.84,3.49-2,4,0-.59-.57-.37-.53-1.06.15-2.57.84-6.56.9-8.6,0-1.44.22-2.8.2-4.24a5.89,5.89,0,0,0-.23-1.56c-.06-.21-.36-.36-.55-.53-.14.25-.38.48-.41.74-.12,1.3-.18,2.6-.26,3.91a52.13,52.13,0,0,1-.7,6.21,55.34,55.34,0,0,1,1-12.43h2.83c.17.86.33,1.74.5,2.61ZM36,16.44c.83,1.1-.43,1.75-.58,2.64l-.2-.11A8,8,0,0,0,34,20.07c-.33.45-.58.81-1.23.77a5.5,5.5,0,0,0-1.44.39c-.2-.86-.4-1.72-.61-2.58l-.15-.06c-.07.38-.16.76-.2,1.15s0,.81-.06,1.23L30,21c-.17-.45-.35-.88-.5-1.33a3.87,3.87,0,0,0-.29-1.1c-.75-1.09.13-2,.23-2.93l.44-.3a3.3,3.3,0,0,1,1.85,0c.36.67.75,1.11,1,1.74s.47,1.3.71,2c.13-.1.2-.12.2-.15A8.22,8.22,0,0,0,32.2,15.2a1.59,1.59,0,0,0-1.4-.38c-.21,0-.21-.07-.59,0-.17,0-.79.15-.91.4a7.67,7.67,0,0,1-.71,1.58,4.11,4.11,0,0,1,.19-1c.25-.56.49-1.44.91-1.55,1.11-.29,2.39-.58,3.15.82.45.83,1,1.63,1.39,2.35.6-1.4,1.28-3,2.07-4.82a5.45,5.45,0,0,1-.18,3.71s-.1.12-.09.14Zm2-8.67c-.07.62-.25,1-1,.81A33.41,33.41,0,0,0,28.89,8h0a.35.35,0,0,0,0-.15c0-.31-.14-.5-.18-.8,1.66-.64,7.17-.18,9.39.72Zm-.62-1-.3-.14c.26-.57.51-1.14.77-1.72.55.9.33,1.48-.47,1.86ZM36.6,5l.26,0c0,.53,0,1.07-.08,1.68l-1-.09L36.6,5ZM35.13,6.49c-.71-.9-.66-1.31.25-2.25.74.85.33,1.55-.25,2.25Zm-2-.24.62-2h.16c.08.63.15,1.27.23,2Zm-1,0c-.8-.62-.73-1.15.34-2.42a1.52,1.52,0,0,1-.34,2.42Zm-1.91,0c.09-.6.17-1.15.25-1.7l.21,0,.66,1.73Zm-1.05-2c.52.62,1.1,1.17.37,2.06-.81-.35-.87-.66-.37-2.06Zm-.68,7c.24,0,1-.24,1.05,0s0,.44-.2.44h-.72c0-.06-.14-.38-.13-.44Zm.07,3.32c-.08-.49,0-1.21-.07-1.69l-.09-.63c2.18-.63.88,1.64.16,2.32Zm0-4.4a2.21,2.21,0,0,1,1.05.25c-.21.17-1.21-.16-1.05-.25Zm0-.36c.07-.38.14-.77.24-1.35a29.42,29.42,0,0,1,6.6.35c.21,0,.52.49.55.77.29,2.44-.69,4.53-1.82,6.47l-2.72-3.21-.16.08.13.54L30,13.72c.07-.83.2-1.64.19-2.44,0-1-.29-1.21-1.62-1.45Zm9.18.91c-.23.53-.58,1.27-1.28,1.43,0-.48.17-1.65.17-3.1.42.12.71.16,1.23.3a2.5,2.5,0,0,1-.12,1.37ZM31.59,27.8c.07-.43.13-.86.19-1.29s0-.88.13-1.31a3.85,3.85,0,0,1,.47-1.3c-.17,4-.91,8-.23,11.94l.27,0A15,15,0,0,0,32.83,34c.21-2.13.36-4.27.55-6.41a13,13,0,0,1,.48-2.39,68.23,68.23,0,0,1-1.41,15.42C31.9,36.39,31,33.1,30.36,29.3a50,50,0,0,1-.89-5.43c-1.3.85-.33,4-.67,4.9-.3-.73-1.61-2.41-1.11-4.21A14.64,14.64,0,0,1,29,20.76c1.05.45,1,1.23,1,2.66a7.53,7.53,0,0,0,.13,1l.22,0c.05-.66,0-1.53.07-2.26.58,0,1.22-.21,1.75-.21-.41,1.79-1.43,3.92-.57,5.82ZM22.11,45.3c-3.12-4.21-3.12-5-1.32-7A34.18,34.18,0,0,1,21,41.74a3.8,3.8,0,0,0,2.71,2.93c.77.11,1.52.09,2.28.27a14.78,14.78,0,0,1,2.56-.36c1.17-.24.61.19,1.77-.08A11.62,11.62,0,0,1,23,47a1,1,0,0,1-.65-.36c-.4-.46-.76-1-1.22-1.56l1,.25Zm5.05-8.93c.31-.53,1.23-.27,1.52.67.62,2,1.71,6,1.35,7.05a48.5,48.5,0,0,1-2.87-7.72Zm.07,1.79c.44,1.36.88,2.73,1.39,4.29l-3.06.38c-.76-2.06,1.12-3.09,1.67-4.67ZM21.4,40.74a12.67,12.67,0,0,1,.53-4.06c.73-2.34,1.71-4.6,2.64-7.06.25.69.45,1.26.69,1.94A2.43,2.43,0,0,0,23.89,34a10.83,10.83,0,0,1-.85,4.2,12.45,12.45,0,0,0-.55,2.12c-.27,1.47,1.17,3.23,2.66,3a26,26,0,0,1,2.8-.22,6.13,6.13,0,0,1,.94.1c0,.11,0,.22,0,.33a7.25,7.25,0,0,1-4.33.61c-2.18-.26-3.08-1.13-3.15-3.35Zm5.42-9.51c.22-.08.68.19.94.37-1.12-.18-1.82.78-2.7,1a2.34,2.34,0,0,1,.09.24l2-.78c.6.16.46-.07.8.62-.26.1-1,.14-1.54.35s-.89.51-1.14.61l0,.24a2,2,0,0,0,1-.28c.83-.32,1.31-.33,1.73.19A6.45,6.45,0,0,1,28.36,35c-.65-1-1.47-.84-2.31-.43a1.71,1.71,0,0,0-.42.39c.16.13.58-.07.77-.09a4.16,4.16,0,0,1,.88,0c.57-.09.9.78,1.13,1-.28.08-.81-.39-1.43-.16a1.71,1.71,0,0,0-.62,1.37c.53.9,0,1.5-.43,2.15a7.13,7.13,0,0,0-1.54,3.33c-1.2-.34-1.72-1.74-.86-3.86a10.73,10.73,0,0,0,.78-2.7c0-.29-.06-.59-.06-.88-.05-2.3.42-3,2.57-3.9Zm.31-3.07a3.16,3.16,0,0,1,.34-1.39c.44,1.65.47,1.17,1.53,3.06.17,0,.35-.41.33-.82-.11-2-.1-1.7-.22-3.66A90.32,90.32,0,0,1,30.9,41.48l-.22.11a3.3,3.3,0,0,1-.52-.85c-.37-1.41-.7-2.83-1-4.25-.2-.94-.32-1.89-.49-2.84-.13-.7-.27-1.4-.44-2.1a1.06,1.06,0,0,0-.36-.59c-1.18-.7-.9-1.76-.74-2.8Zm3.4,14.2c.74-.24,1.38-1,1.87-1.12,0,0,.46-.88.86-1.11s.52,0,.55,0c-.24.16-1.27,2.78-2.09,4-.24.35-.56,1.13-.76,1.16s-.26-.41-.37-.36.24-2.32-.06-2.56ZM31.1,35c.08.91.88,5.09,1,6-.11,0-.62.43-.73.44-.07-.92-.12-1.33-.19-2.25.1,0-.14-4.19,0-4.19Zm7.17-10.7c1.62,1.65,1.26,8.73.84,10.94a6.67,6.67,0,0,0-1.52-.66c-.5-.1-.88.07-1.52.9a24.51,24.51,0,0,1,.14-8.56c.08,0,.27,1.05.35,1.05.12,1.91.33,3.82.45,5.74l.25.1a6.73,6.73,0,0,0,.45-1.33c.26-2.16.34-6,.56-8.18Zm6.27,22.55a2.38,2.38,0,0,1,1.35,2.36c-.06,2-.26,4-.41,6a8.58,8.58,0,0,1-.21,1.41c-.76-3.18.54-6.54-.73-9.73Zm-1-.15a3.45,3.45,0,0,1,1.1,3c0,2-.1,4-.1,6.08,0,1.06.11,2.11,0,3.21A12.41,12.41,0,0,1,44,56.65c-.11-2-.1-4-.11-6.08,0-.67.13-1.35.07-2a13.19,13.19,0,0,0-.43-1.86Zm-.68,4.61c.9,3.57-.09,8.69-.23,12.29-.2-1.5-.34-3-.62-4.5a19.75,19.75,0,0,0-1-3.89c-.41-1,1-3.22,1.89-3.9Zm-8.54.31.73.51c2-.45,2.79-1.92,3.24-3.71l-.73-.12c0-.29,0-.53,0-.79l-1.43.77c.7-1.55,2.26-1.6,6.35-.29-.16-.36-.27-.62-.38-.88.91-.2,1.29.07,1.35.89a3.29,3.29,0,0,1-.9,2.87,17.6,17.6,0,0,0-1.6,2.1.6.6,0,0,1-.84.24c-.35-.15-.89.14-1.35.23s-1,.16-1.47.24c0-.1-.05-.21-.07-.32l2-.44,0-.2c-.55.09-1.1.16-1.64.28a10.81,10.81,0,0,1-1.62.33,2.87,2.87,0,0,1,2.23-1c.66-.09.79-.37.46-1.23-.08,1-.67,1-1.29,1a8.63,8.63,0,0,0-1.24.42c-.52.14-1,.23-1.61.35-.06-.47-.1-.76-.16-1.24Zm-4.68-2.85.12-.31,5.78,2.79c-.66.37-3.78-1-5.9-2.48Zm-2.4,8.4c.64-1.32,1.18-2.58,1.89-3.75.16-.28.88-.22,1.35-.31.08.41.33.89.21,1.23a15,15,0,0,1-1.07,2.06l-.34-.21c.28-.44.55-.88.9-1.45-.82,0-1.35,0-1.58.88-.16.61.14,1.69-1.36,1.55ZM26,57.43c0,.33.11.67.13.75l-1.9,2,.53.5c.29-.57.58-1.14.88-1.71l.28.28a3.11,3.11,0,0,1-2.7,3.51,1.38,1.38,0,0,1-1-.85,18.13,18.13,0,0,1-.33-3,1.2,1.2,0,0,0-.58-1.15,2.73,2.73,0,0,1-.95-1.12c-.41-.86-.7-1.78-1-2.68l.18-.21a7.12,7.12,0,0,1,1.12.9,15.09,15.09,0,0,1,1,1.49c.86,1.32,1.73,1.54,2.9.5a48.21,48.21,0,0,0,3.92-3.91,3.28,3.28,0,0,1,3-1.06c.36,0,.7.33,1,.51-.16.29-.33.58-.49.85a6.23,6.23,0,0,0-1.19-.5,2.08,2.08,0,0,0-2.54,1.3,3.8,3.8,0,0,1-1.89,2,5.15,5.15,0,0,0-2,2.13,40.2,40.2,0,0,0-1.73,4.3c1.27.58,2.48-.31,2.62-2.06l-1.78,2c.1-2.69,1.71-5.43,3.69-6l-.86,1.38L26,57.43Zm-2.58-.84c-.16.12-.74-.12-1-.35a20.25,20.25,0,0,1-1.39-1.78c1.11.17,1.75,1.26,2.81.68.79-.43,1.59-.84,2.38-1.26l.2.28c-1,.82-2,1.67-3,2.43Zm-2.19,1.53c.29.16.21.68.25,1s0,.74,0,1.36c-2-2.19-3-5.74-3.85-8.19.07,0,.75.49.83.46.34.7.29,1.9.72,2.55.63,1,1.12,2.28,2.05,2.79ZM17,51.86c.48,1.19,2.09,5.93,2.62,7.1.4.89.73,1.88,1.81,2.26.11,0,.18.27.23.43a1.78,1.78,0,0,0,2.72,1.25,13.06,13.06,0,0,0,1.66-1,1.81,1.81,0,0,1-1.62,1.5c-3,.39-3.73,0-4.8-2.79-.64-1.69-1.84-5.74-2.39-7.46.08,0-.3-1.27-.23-1.29Zm5.42-29.71c.28,1.08.72,1.58.31,2.6-.81,2-1.86,4.42-2.52,6.49-1.39,4.33-2.65,8.71-4,13.07a1.76,1.76,0,0,0,0,.33l.64-.17c.78,3,2.55,4.34,4.77,3.41l-1.34-1.69-.25.17.79,1.38A3.3,3.3,0,0,1,17.46,44c.09-.7.53-1,.83-1.78-.34.1-1.06,1.44-1.54,1.59,1-3.62,5.29-12.2,7.12-16.38.11,0,.26.93.37,1-.06.31-.25,1.06-.32,1.37-1.2,2.79-2.26,6.4-4,9a3.32,3.32,0,0,0-.11,3.82,3.52,3.52,0,0,1,.48,1.33l-.54-.44c-1.26,1.09-1.34,2.54-.24,3.27-.07-.8-.15-1.64-.22-2.47l.39-.15a15.72,15.72,0,0,1,1.07,1.4c1.19,2,2,2.42,4.3,1.84a41.62,41.62,0,0,0,4.12-1.52c.43-.16.85-.34,1.27-.51l.13.27a12.94,12.94,0,0,1-2.15,1c-2.13.65-4.3,1.19-6.45,1.78-.39.11-.78.24-1.23.38-.32.42-.32.42.88.23,1.9-.58,4-1,5.89-1.7a27.55,27.55,0,0,1,3.56-1.43l-.8,1.71s-1,.36-2,.69a14.2,14.2,0,0,0-3.7,2.7c-.57.57-2.35.74-2.89.12a20.19,20.19,0,0,0-5.56-4.56c-.38-.21-.78-.38-1.2-.59.52,3.57,3.72,5.69,8.89,6-.26.69-.59,1.17-1.46.59l-.16.21c.24.45.49.89.8,1.47,1.63-2.62,3.32-4.89,6-6l.84,1.54c-1.71.79-3.95,1-5.44,3,.4-.11.64-.11.74-.23,1-1.15,2.4-1.43,3.73-1.86a3.49,3.49,0,0,0,.75-.26c1-.61,1.83-.26,2.77.44-.68.11-1.26.18-1.83.29A13.1,13.1,0,0,0,25,53.89a2.53,2.53,0,0,1-3.22.26,23.69,23.69,0,0,1-7.71-6.35,1.54,1.54,0,0,1-.22-1.18A52.82,52.82,0,0,1,18.1,35.25a5.41,5.41,0,0,0,.59-3.68c-.09-.42-.52-.78-.79-1.17-.33.34-.84.64-.93,1a11.32,11.32,0,0,0-.2,2.54c0,2.37-1,4.48-1.69,6.93-.54-6.76,1.73-14.59,6.23-18,.3-.22.8-.56,1.12-.74Zm-4.71,8.71a4.72,4.72,0,0,1-.35,4.27c-.08-1.37-.5-2.75.35-4.27ZM16.29,47.6c1.19,0,3.61,2.1,4.64,3.51a5.52,5.52,0,0,1-4.64-3.51Zm7.2-20.38c-.44,1-1,1.93-1.43,2.93-1.1,2.57-2.15,5.16-3.21,7.74l-.55,1.29-.24-.11,5-14a1.87,1.87,0,0,1,.39,2.15ZM23,21a1,1,0,0,1-1.13.54c-.64-.15-.47-.91-.36-1.37s.19-.34.31-.38A3.39,3.39,0,0,0,23,21Zm.2-.45c-.69-.51-1.88-.9-.76-2.08,1.5.14,1.19,1,.76,2.08Zm1,1.76c.53,1.8,1.06,3.6,1.61,5.39.2.64.49,1.26.68,1.9a1.24,1.24,0,0,1-.37,1.56,36.18,36.18,0,0,1-2.91-9.33c.6-.31.84,0,1,.48Zm.88-1.8a1.74,1.74,0,0,1-.69.42,1,1,0,0,1-.65-.23c.09-.37.14-.71.22-1.05.08,0,0-.61,0-.64.25.33,1.43.78,1.08,1.5Zm2.48-1.59C27,20.34,26,23.54,25.53,25c-.07,0-.16-1.27-.23-1.27l-.76-2.17c1-.59,1.38-1.63,2-2.4.16.08.78-.33.94-.24Zm1,1.54a16.25,16.25,0,0,0-1.77,6.92,3.5,3.5,0,0,1-.24.64c-.24-1.06-.71-1.78-.37-2.77.51-1.47.8-3,1.22-4.5.22-.78.54-1.53.84-2.4a1.69,1.69,0,0,1,.32,2.11Zm-.25-9.32.09-.51,1.11.26s-.37,0-.72,0a.49.49,0,0,0-.48.25Zm-.52-6.84.94.27a2,2,0,0,0-.11.31,1.65,1.65,0,0,0,.27,1.34c.15.14-.37.2-.4.2a6.22,6.22,0,0,1-.7-2.12Zm11.7.65-.83.17a4.13,4.13,0,0,0-.41-.59,5.54,5.54,0,0,0-.56-.46c0,.24-.1.65-.29.77a8.24,8.24,0,0,0-.51-.93c-.11.19-.54.68-.69.88-.7-1.11-.66-1.19-1.65-.3-.17-.37-.32-1-.49-1.37-.27.26-.49.84-.78,1.12-.16-.22-.4-.83-.72-1.28-.39.58-.71,1.07-1.11,1.68-.18-.4-.53-.89-.7-1.28,0-.08-.46.6-.67,1.13-.07.19-.87-1-.9-1.13a5.08,5.08,0,0,1-.28.8l-.73-.26c.32-.17.7-.39,1-.54a12.21,12.21,0,0,1,8.27.44l.2.08.07,0h0l.43.23s.7.35,1,.58a1,1,0,0,1,.29.22ZM38,6.9s.73-.84.67-1.38l.78-.28a17.55,17.55,0,0,1-1,1.85L38,6.9ZM37,12.63c.87.13.93-1.13,1.16-1.63.55.64-.74,1.6-.78,2.5-.51.09-.37-.47-.38-.87Zm1.62,7.76c-1.47.24-3,.33-4.6.58a13.54,13.54,0,0,0,2.85-2.71c.23.62.29.94,1.42.81.09,0,.17,1,.33,1.32Zm1.2,1c-2.16.48-6.49.88-7,.12,1.94-.23,4.25-.44,6.22-.68,0-.63-.06-1-.08-1.3l.22,0c.13.54.49,1.26.64,1.9ZM50.15,34.23a20.9,20.9,0,0,1-2.07-3.48c.13-.08.78.07.81.3l1.19,2.1c-.1.06.17,1,.07,1.08Zm1.08,4.17c0,.11-.06.21-.11.42-1.51-.84-2.59-2.55-4.67-2.27.45-.25.9-.53,1.36-.75s1-.44,1.6-.7c-.71-1.13-1.79-.46-2.61-.78-.39-1.06-.52-1.13-1.68-.74a4,4,0,0,0-2.32,2.29l-.47,1h-.27a7.08,7.08,0,0,1,0-1c.24-1.77.58-3.54.75-5.32a6.67,6.67,0,0,0-.66-3.82l-.29-.05a13.22,13.22,0,0,0-.53,2.51c-.06,1.64.08,3.29.07,4.93a17,17,0,0,1-.23,2c-1.16-.09-1.17-.85-1.25-1.6-.35-3.39.06-5-.32-8.37-.15-1.35-1.94-3.71-2-4,.58-.41,2.66.39,2.69-1.07.28.68.56,1.37.88,2.13.52-.77.1-1.31-.24-1.83s-.76-1-1.19-1.62a2.05,2.05,0,0,1,.57,0,11.74,11.74,0,0,1,7.5,7.39c.47,1.35,1,2.66,1.43,4.05-.12-.2-.2-.49-.38-.6a3.79,3.79,0,0,0-.9-.29c0,.28-.22.63-.11.82.64,1.08.9,2.45,2,3.17s1.58,2.49,1.32,4.07ZM53.93,48c-.26-.44-.49-.79-.68-1.16s-.35-.74-.53-1.14c.87-.57.16-1.23.1-1.87l0,0,0,0c-.67-.38-1.32-.79-2-1.11s-1.42-.54-2.12-.81c0-.1,0-.21,0-.32l2.1.21c-.51-1.54-1.9-1.47-3.21-1.77a4.64,4.64,0,0,1,.52-.33,5,5,0,0,1,.54-.21c-.37-1.2-.45-1.2-3.36-.12-.05-1.78-1.9-1.42-2.73-2.44,1-.81,1.34-2.5,3.13-2.8-.1.46-.17.81-.29,1.33l2.49-.67a1.51,1.51,0,0,0,.11.22l-3.43,2.32.15.4a3.62,3.62,0,0,0,1.16-.22,2.08,2.08,0,0,1,2.58.27c.79.65,1.73,1.15,2.45,1.86a11.4,11.4,0,0,1,1.32,2l-.28.17a11.36,11.36,0,0,0-.72-1.49c-.14-.21-.49-.28-.75-.41,0,.26,0,.57.12.76.54.8,1.14,1.57,1.71,2.36.17.24.32.5.48.75l0,0v0c1.57,1.34,1.88,2.41,1.11,4.17ZM31.12,10.92c.33.19.7.08.9.2-.08,0-.33.28-.4.31A3.77,3.77,0,0,0,32,12.69a1.3,1.3,0,0,0,1.6.46L32,12.31c.86-.43,1.78.33,2.29-.76-.17-.43-1.29-.43-1.49-.86a4.13,4.13,0,0,1,1.82,0,2.44,2.44,0,0,0-3-.58c-.23.15-.32.54-.47.82Zm.91.54,0,0c.11-.05.32-.17.34-.17a3.9,3.9,0,0,1,1,.18v.1c0,.13,0,.32,0,.32h-.29l-1,0s0,0,0-.06,0-.15-.06-.22a.34.34,0,0,1,0-.09Zm-.39-.85c0-.48,1.12-.56,1.08-.47s-.73.26-.95.37l-.13.1Zm.1,5.16c-.4-.29-1.34,0-1.94-.12l.05.24c1-.08.18.79,1,.76-.29-.61.47-.4.91-.88Zm-.49,1.69c-.3-.12-.42,0-.91-.13,0,.45.19.66.65.63.06-.19.19-.32.26-.5Z" transform="translate(-0.02)"/><path d="M62.45,57.35a7.25,7.25,0,0,0-1.26-1.27,6.21,6.21,0,0,0-1.53-.2l0-.09a4,4,0,0,0,.82,0c.35,0,1-.29,1.07-.61s-.32-.64-.57-.76a3.38,3.38,0,0,0-1.52-.07s1.32.33,1.28.72-.87.47-.87.47l-.22-.31,0,.28-.33-.35.52-.11-.22-.33-.62.18.57.78,0,.11a2.13,2.13,0,0,0-.41-.56,3,3,0,0,0-1,0h0s.4.7.63.81a2,2,0,0,0,.69,0l-.05.11-1,.05.24.59.4,0-.24-.48.48,0-.2.2.38,0s.35.81.17,1-1.36-.55-1.36-.55a3.32,3.32,0,0,0,1,1.14.86.86,0,0,0,1,0c.24-.22,0-1-.2-1.22a4,4,0,0,0-.53-.63l0-.08a6,6,0,0,0,1.13,1.07,7.41,7.41,0,0,0,1.77.18" transform="translate(-0.02)"/><path d="M5.85,59.19A6.79,6.79,0,0,1,7.1,57.92a6,6,0,0,1,1.54-.21l0-.08a4.14,4.14,0,0,1-.82,0c-.35,0-1-.28-1.07-.61s.32-.63.56-.75A3.33,3.33,0,0,1,8.8,56.2s-1.32.34-1.29.72.88.48.88.48l.22-.32,0,.28L9,57l-.51-.11.22-.34.61.19-.56.78,0,.11a2.13,2.13,0,0,1,.41-.56,2.84,2.84,0,0,1,1,0h0s-.4.7-.63.81a2,2,0,0,1-.69,0l0,.11,1,0-.24.6-.4,0,.24-.47-.48,0,.2.2-.38,0s-.35.81-.17,1S10,58.77,10,58.77a3.3,3.3,0,0,1-1,1.14.85.85,0,0,1-.94,0c-.24-.23,0-1,.19-1.22A4.09,4.09,0,0,1,8.78,58l0-.09A6.17,6.17,0,0,1,7.62,59a7,7,0,0,1-1.78.18" transform="translate(-0.02)"/></svg>