<?xml version="1.0" encoding="utf-8"?>
<!-- Generator: Adobe Illustrator 22.0.1, SVG Export Plug-In . SVG Version: 6.00 Build 0)  -->
<svg version="1.0" id="Livello_1" xmlns="http://www.w3.org/2000/svg" xmlns:xlink="http://www.w3.org/1999/xlink" x="0px" y="0px"
	 viewBox="0 0 65.8 44.4" style="enable-background:new 0 0 65.8 44.4;" xml:space="preserve">
<style type="text/css">
	.st0{fill:#FFFFFF;}
</style>
<g>
	<g>
		<path class="st0" d="M63.3,4.9H2.5C1.1,4.9,0,3.8,0,2.5S1.1,0,2.5,0h60.8c1.4,0,2.5,1.1,2.5,2.5S64.6,4.9,63.3,4.9z"/>
	</g>
	<g>
		<path class="st0" d="M63.3,24.7H2.5c-1.4,0-2.5-1.1-2.5-2.5s1.1-2.5,2.5-2.5h60.8c1.4,0,2.5,1.1,2.5,2.5S64.6,24.7,63.3,24.7z"/>
	</g>
	<g>
		<path class="st0" d="M63.3,44.4H2.5c-1.4,0-2.5-1.1-2.5-2.5s1.1-2.5,2.5-2.5h60.8c1.4,0,2.5,1.1,2.5,2.5S64.6,44.4,63.3,44.4z"/>
	</g>
</g>
</svg>
