<?xml version="1.0" encoding="utf-8"?>
<!-- Generator: Adobe Illustrator 22.0.1, SVG Export Plug-In . SVG Version: 6.00 Build 0)  -->
<svg version="1.0" id="Livello_1" xmlns="http://www.w3.org/2000/svg" xmlns:xlink="http://www.w3.org/1999/xlink" x="0px" y="0px"
	 viewBox="0 0 44.2 44.2" style="enable-background:new 0 0 44.2 44.2;" xml:space="preserve">
<style type="text/css">
	.st0{fill:#FFFFFF;}
</style>
<path class="st0" d="M33.8,13.5c1.3-0.2,2.5-0.5,3.7-1c-0.9,1.3-1.9,2.4-3.2,3.3l0,0.8c0,8.4-6.4,18.1-18.1,18.1
	c-3.6,0-6.9-1.1-9.8-2.9c0.5,0.1,1,0.1,1.5,0.1c3,0,5.7-1,7.9-2.7c-2.8-0.1-5.1-1.9-5.9-4.4c0.4,0.1,0.8,0.1,1.2,0.1
	c0.6,0,1.1-0.1,1.7-0.2c-2.9-0.6-5.1-3.2-5.1-6.2v-0.1c0.9,0.5,1.8,0.8,2.9,0.8c-1.7-1.1-2.8-3.1-2.8-5.3c0-1.2,0.3-2.3,0.9-3.2
	c3.1,3.9,7.8,6.4,13.1,6.6c-0.1-0.5-0.2-0.9-0.2-1.4c0-3.5,2.8-6.4,6.4-6.4c1.8,0,3.5,0.8,4.6,2c1.5-0.3,2.8-0.8,4.1-1.5
	C36.1,11.5,35.1,12.7,33.8,13.5 M44.2,22.1C44.2,9.9,34.3,0,22.1,0C9.9,0,0,9.9,0,22.1c0,12.2,9.9,22.1,22.1,22.1
	C34.3,44.2,44.2,34.3,44.2,22.1"/>
</svg>
