<?xml version="1.0" encoding="utf-8"?>
<!-- Generator: Adobe Illustrator 22.0.1, SVG Export Plug-In . SVG Version: 6.00 Build 0)  -->
<svg version="1.0" id="Livello_1" xmlns="http://www.w3.org/2000/svg" xmlns:xlink="http://www.w3.org/1999/xlink" x="0px" y="0px"
	 viewBox="0 0 44.2 44.2" style="enable-background:new 0 0 44.2 44.2;" xml:space="preserve">
<style type="text/css">
	.st0{fill:#FFFFFF;}
</style>
<path class="st0" d="M19.6,25.4l7.1-4.7L19.6,16V25.4z M34.5,26.1c0,2.1-1.7,3.7-3.7,3.7H13.4c-2.1,0-3.7-1.7-3.7-3.7v-10
	c0-2.1,1.7-3.7,3.7-3.7h17.4c2.1,0,3.7,1.7,3.7,3.7V26.1z M44.2,22.1C44.2,9.9,34.3,0,22.1,0C9.9,0,0,9.9,0,22.1
	c0,12.2,9.9,22.1,22.1,22.1C34.3,44.2,44.2,34.3,44.2,22.1"/>
</svg>
